<svg width="991" height="256" viewBox="0 0 991 256" fill="none" xmlns="http://www.w3.org/2000/svg">
<g filter="url(#filter0_d_160_717)">
<rect x="50" y="41" width="891" height="175" rx="10" fill="white"/>
<rect x="50" y="41" width="20" height="175" fill="#9B36FF"/>
<path d="M107.237 123.686C107.157 122.801 106.799 122.112 106.163 121.621C105.535 121.122 104.637 120.873 103.47 120.873C102.697 120.873 102.054 120.973 101.538 121.175C101.023 121.376 100.637 121.654 100.379 122.008C100.122 122.354 99.9889 122.752 99.9808 123.203C99.9647 123.573 100.037 123.899 100.198 124.181C100.367 124.463 100.609 124.712 100.923 124.93C101.245 125.139 101.631 125.324 102.082 125.485C102.532 125.646 103.04 125.787 103.603 125.908L105.728 126.391C106.951 126.656 108.03 127.01 108.964 127.453C109.906 127.896 110.694 128.423 111.33 129.035C111.974 129.647 112.461 130.351 112.791 131.148C113.121 131.945 113.29 132.838 113.298 133.828C113.29 135.39 112.896 136.73 112.115 137.849C111.334 138.968 110.211 139.825 108.746 140.42C107.29 141.016 105.531 141.314 103.47 141.314C101.402 141.314 99.5985 141.004 98.0611 140.384C96.5237 139.764 95.3284 138.823 94.4751 137.559C93.6219 136.295 93.1832 134.697 93.1591 132.766H98.8821C98.9304 133.562 99.1437 134.227 99.522 134.758C99.9003 135.289 100.42 135.692 101.08 135.965C101.748 136.239 102.52 136.376 103.398 136.376C104.203 136.376 104.887 136.267 105.45 136.05C106.022 135.832 106.46 135.531 106.766 135.144C107.072 134.758 107.229 134.315 107.237 133.816C107.229 133.349 107.084 132.951 106.803 132.621C106.521 132.283 106.086 131.993 105.499 131.751C104.919 131.502 104.179 131.272 103.277 131.063L100.693 130.46C98.5521 129.969 96.8658 129.176 95.6342 128.081C94.4027 126.978 93.791 125.489 93.799 123.614C93.791 122.084 94.2015 120.744 95.0305 119.593C95.8596 118.442 97.0066 117.545 98.4716 116.901C99.9366 116.257 101.607 115.935 103.482 115.935C105.398 115.935 107.06 116.261 108.469 116.913C109.885 117.557 110.984 118.462 111.765 119.629C112.546 120.796 112.944 122.149 112.96 123.686H107.237ZM125.406 141.35C123.466 141.35 121.792 140.968 120.383 140.203C118.983 139.43 117.904 138.332 117.147 136.907C116.399 135.474 116.024 133.772 116.024 131.8C116.024 129.884 116.403 128.21 117.159 126.777C117.916 125.336 118.983 124.217 120.359 123.42C121.735 122.616 123.357 122.213 125.225 122.213C126.545 122.213 127.752 122.418 128.847 122.829C129.942 123.239 130.887 123.847 131.684 124.652C132.481 125.457 133.101 126.451 133.544 127.634C133.986 128.809 134.208 130.158 134.208 131.679V133.152H118.089V129.723H128.714C128.706 129.095 128.557 128.536 128.267 128.045C127.978 127.554 127.579 127.171 127.072 126.898C126.573 126.616 125.997 126.475 125.345 126.475C124.685 126.475 124.094 126.624 123.571 126.922C123.047 127.212 122.633 127.61 122.327 128.117C122.021 128.616 121.86 129.184 121.844 129.82V133.309C121.844 134.066 121.993 134.73 122.291 135.301C122.589 135.865 123.011 136.303 123.558 136.617C124.106 136.931 124.758 137.088 125.514 137.088C126.038 137.088 126.513 137.016 126.939 136.871C127.366 136.726 127.732 136.513 128.038 136.231C128.344 135.949 128.573 135.603 128.726 135.192L134.147 135.349C133.922 136.565 133.427 137.623 132.662 138.525C131.906 139.418 130.911 140.115 129.68 140.614C128.448 141.105 127.024 141.35 125.406 141.35ZM144.417 141.266C143.048 141.266 141.805 140.911 140.686 140.203C139.567 139.495 138.673 138.432 138.005 137.016C137.337 135.599 137.003 133.84 137.003 131.739C137.003 129.558 137.349 127.763 138.042 126.354C138.734 124.946 139.639 123.903 140.758 123.227C141.885 122.551 143.096 122.213 144.392 122.213C145.366 122.213 146.199 122.382 146.892 122.72C147.584 123.05 148.155 123.477 148.606 124C149.057 124.523 149.399 125.067 149.632 125.63H149.753V116.273H155.657V141H149.814V137.994H149.632C149.383 138.565 149.029 139.1 148.57 139.599C148.111 140.098 147.536 140.501 146.843 140.807C146.159 141.113 145.35 141.266 144.417 141.266ZM146.469 136.665C147.185 136.665 147.797 136.464 148.304 136.062C148.811 135.651 149.202 135.076 149.475 134.335C149.749 133.595 149.886 132.725 149.886 131.727C149.886 130.713 149.749 129.84 149.475 129.107C149.21 128.375 148.819 127.811 148.304 127.417C147.797 127.022 147.185 126.825 146.469 126.825C145.737 126.825 145.117 127.027 144.61 127.429C144.103 127.831 143.716 128.399 143.451 129.131C143.193 129.864 143.064 130.729 143.064 131.727C143.064 132.725 143.197 133.595 143.463 134.335C143.728 135.076 144.111 135.651 144.61 136.062C145.117 136.464 145.737 136.665 146.469 136.665ZM168.48 141.35C166.54 141.35 164.866 140.968 163.457 140.203C162.057 139.43 160.978 138.332 160.222 136.907C159.473 135.474 159.099 133.772 159.099 131.8C159.099 129.884 159.477 128.21 160.234 126.777C160.99 125.336 162.057 124.217 163.433 123.42C164.81 122.616 166.432 122.213 168.299 122.213C169.619 122.213 170.827 122.418 171.921 122.829C173.016 123.239 173.962 123.847 174.759 124.652C175.555 125.457 176.175 126.451 176.618 127.634C177.061 128.809 177.282 130.158 177.282 131.679V133.152H161.163V129.723H171.788C171.78 129.095 171.631 128.536 171.342 128.045C171.052 127.554 170.653 127.171 170.146 126.898C169.647 126.616 169.072 126.475 168.42 126.475C167.76 126.475 167.168 126.624 166.645 126.922C166.122 127.212 165.707 127.61 165.401 128.117C165.095 128.616 164.934 129.184 164.918 129.82V133.309C164.918 134.066 165.067 134.73 165.365 135.301C165.663 135.865 166.086 136.303 166.633 136.617C167.18 136.931 167.832 137.088 168.589 137.088C169.112 137.088 169.587 137.016 170.014 136.871C170.44 136.726 170.806 136.513 171.112 136.231C171.418 135.949 171.648 135.603 171.8 135.192L177.222 135.349C176.996 136.565 176.501 137.623 175.737 138.525C174.98 139.418 173.986 140.115 172.754 140.614C171.523 141.105 170.098 141.35 168.48 141.35ZM180.717 141V122.455H186.453V125.835H186.646C186.984 124.612 187.535 123.702 188.3 123.107C189.065 122.503 189.954 122.201 190.968 122.201C191.242 122.201 191.524 122.221 191.813 122.261C192.103 122.294 192.373 122.346 192.622 122.418V127.55C192.341 127.453 191.97 127.377 191.511 127.32C191.061 127.264 190.658 127.236 190.304 127.236C189.604 127.236 188.972 127.393 188.409 127.707C187.853 128.013 187.414 128.443 187.092 128.999C186.779 129.546 186.622 130.19 186.622 130.93V141H180.717ZM201.352 130.423V141H195.448V116.273H201.159V125.859H201.364C201.783 124.716 202.467 123.823 203.417 123.179C204.375 122.535 205.546 122.213 206.93 122.213C208.234 122.213 209.369 122.503 210.335 123.082C211.301 123.654 212.05 124.463 212.581 125.509C213.12 126.556 213.386 127.779 213.378 129.18V141H207.474V130.339C207.482 129.308 207.224 128.504 206.701 127.924C206.178 127.344 205.441 127.055 204.491 127.055C203.872 127.055 203.324 127.192 202.849 127.465C202.382 127.731 202.016 128.113 201.751 128.612C201.493 129.111 201.36 129.715 201.352 130.423ZM222.711 141.314C221.528 141.314 220.478 141.117 219.56 140.722C218.65 140.32 217.93 139.716 217.399 138.911C216.876 138.098 216.614 137.08 216.614 135.857C216.614 134.826 216.795 133.957 217.157 133.249C217.519 132.54 218.019 131.965 218.654 131.522C219.29 131.079 220.023 130.745 220.852 130.52C221.681 130.286 222.566 130.129 223.508 130.049C224.563 129.952 225.412 129.852 226.056 129.747C226.7 129.634 227.166 129.478 227.456 129.276C227.754 129.067 227.903 128.773 227.903 128.395V128.335C227.903 127.715 227.69 127.236 227.263 126.898C226.836 126.56 226.261 126.391 225.537 126.391C224.756 126.391 224.128 126.56 223.653 126.898C223.178 127.236 222.876 127.703 222.747 128.298L217.302 128.105C217.463 126.978 217.878 125.972 218.546 125.087C219.222 124.193 220.148 123.493 221.323 122.986C222.506 122.471 223.927 122.213 225.585 122.213C226.768 122.213 227.859 122.354 228.857 122.636C229.855 122.909 230.724 123.312 231.465 123.843C232.205 124.366 232.777 125.01 233.179 125.775C233.59 126.54 233.795 127.413 233.795 128.395V141H228.241V138.416H228.096C227.766 139.044 227.344 139.575 226.828 140.01C226.321 140.445 225.722 140.771 225.029 140.988C224.345 141.205 223.572 141.314 222.711 141.314ZM224.534 137.45C225.17 137.45 225.742 137.321 226.249 137.064C226.764 136.806 227.175 136.452 227.48 136.001C227.786 135.543 227.939 135.011 227.939 134.408V132.645C227.77 132.733 227.565 132.814 227.323 132.886C227.09 132.959 226.832 133.027 226.551 133.092C226.269 133.156 225.979 133.212 225.681 133.261C225.384 133.309 225.098 133.353 224.824 133.393C224.269 133.482 223.794 133.619 223.399 133.804C223.013 133.989 222.715 134.231 222.506 134.528C222.305 134.818 222.204 135.164 222.204 135.567C222.204 136.179 222.421 136.645 222.856 136.967C223.299 137.289 223.858 137.45 224.534 137.45ZM243.729 130.423V141H237.825V122.455H243.439V125.859H243.645C244.055 124.724 244.756 123.835 245.746 123.191C246.736 122.539 247.915 122.213 249.283 122.213C250.587 122.213 251.718 122.507 252.676 123.094C253.642 123.674 254.39 124.487 254.922 125.533C255.461 126.572 255.727 127.787 255.719 129.18V141H249.814V130.339C249.823 129.308 249.561 128.504 249.03 127.924C248.506 127.344 247.778 127.055 246.844 127.055C246.225 127.055 245.677 127.192 245.202 127.465C244.735 127.731 244.373 128.113 244.116 128.612C243.866 129.111 243.737 129.715 243.729 130.423ZM265.022 141.314C263.839 141.314 262.788 141.117 261.871 140.722C260.961 140.32 260.241 139.716 259.709 138.911C259.186 138.098 258.925 137.08 258.925 135.857C258.925 134.826 259.106 133.957 259.468 133.249C259.83 132.54 260.329 131.965 260.965 131.522C261.601 131.079 262.333 130.745 263.163 130.52C263.992 130.286 264.877 130.129 265.819 130.049C266.873 129.952 267.722 129.852 268.366 129.747C269.01 129.634 269.477 129.478 269.767 129.276C270.065 129.067 270.214 128.773 270.214 128.395V128.335C270.214 127.715 270 127.236 269.574 126.898C269.147 126.56 268.572 126.391 267.847 126.391C267.066 126.391 266.439 126.56 265.964 126.898C265.489 127.236 265.187 127.703 265.058 128.298L259.613 128.105C259.774 126.978 260.188 125.972 260.856 125.087C261.533 124.193 262.458 123.493 263.633 122.986C264.817 122.471 266.237 122.213 267.896 122.213C269.079 122.213 270.169 122.354 271.168 122.636C272.166 122.909 273.035 123.312 273.775 123.843C274.516 124.366 275.088 125.01 275.49 125.775C275.9 126.54 276.106 127.413 276.106 128.395V141H270.552V138.416H270.407C270.077 139.044 269.654 139.575 269.139 140.01C268.632 140.445 268.032 140.771 267.34 140.988C266.656 141.205 265.883 141.314 265.022 141.314ZM266.845 137.45C267.481 137.45 268.052 137.321 268.56 137.064C269.075 136.806 269.485 136.452 269.791 136.001C270.097 135.543 270.25 135.011 270.25 134.408V132.645C270.081 132.733 269.876 132.814 269.634 132.886C269.401 132.959 269.143 133.027 268.861 133.092C268.58 133.156 268.29 133.212 267.992 133.261C267.694 133.309 267.409 133.353 267.135 133.393C266.579 133.482 266.105 133.619 265.71 133.804C265.324 133.989 265.026 134.231 264.817 134.528C264.615 134.818 264.515 135.164 264.515 135.567C264.515 136.179 264.732 136.645 265.167 136.967C265.61 137.289 266.169 137.45 266.845 137.45ZM286.161 137.619L286.052 138.96C285.955 140.07 285.758 141.153 285.46 142.207C285.171 143.27 284.861 144.224 284.531 145.069C284.201 145.914 283.939 146.57 283.746 147.037H280.027C280.156 146.57 280.329 145.914 280.546 145.069C280.772 144.224 280.981 143.27 281.174 142.207C281.367 141.145 281.476 140.066 281.5 138.972L281.524 137.619H286.161ZM319.724 125.232H313.687C313.606 124.612 313.441 124.052 313.192 123.553C312.942 123.054 312.612 122.628 312.202 122.273C311.791 121.919 311.304 121.65 310.741 121.464C310.186 121.271 309.57 121.175 308.894 121.175C307.694 121.175 306.66 121.469 305.791 122.056C304.929 122.644 304.265 123.493 303.798 124.604C303.34 125.714 303.11 127.059 303.11 128.636C303.11 130.278 303.344 131.655 303.811 132.766C304.285 133.868 304.949 134.701 305.803 135.265C306.664 135.82 307.682 136.098 308.857 136.098C309.517 136.098 310.117 136.013 310.656 135.844C311.204 135.675 311.683 135.43 312.093 135.108C312.512 134.778 312.854 134.379 313.119 133.913C313.393 133.438 313.582 132.902 313.687 132.307L319.724 132.343C319.619 133.438 319.301 134.516 318.77 135.579C318.247 136.641 317.526 137.611 316.609 138.489C315.691 139.358 314.572 140.05 313.252 140.565C311.94 141.08 310.435 141.338 308.737 141.338C306.499 141.338 304.495 140.847 302.724 139.865C300.961 138.875 299.569 137.434 298.546 135.543C297.524 133.651 297.013 131.349 297.013 128.636C297.013 125.916 297.532 123.61 298.57 121.718C299.609 119.826 301.013 118.39 302.784 117.408C304.555 116.426 306.539 115.935 308.737 115.935C310.234 115.935 311.618 116.144 312.89 116.562C314.162 116.973 315.281 117.577 316.247 118.374C317.213 119.162 317.997 120.132 318.601 121.283C319.205 122.434 319.579 123.75 319.724 125.232ZM332.233 141.35C330.293 141.35 328.619 140.968 327.21 140.203C325.81 139.43 324.731 138.332 323.974 136.907C323.226 135.474 322.851 133.772 322.851 131.8C322.851 129.884 323.23 128.21 323.986 126.777C324.743 125.336 325.81 124.217 327.186 123.42C328.562 122.616 330.184 122.213 332.052 122.213C333.372 122.213 334.579 122.418 335.674 122.829C336.769 123.239 337.714 123.847 338.511 124.652C339.308 125.457 339.928 126.451 340.371 127.634C340.813 128.809 341.035 130.158 341.035 131.679V133.152H324.916V129.723H335.541C335.533 129.095 335.384 128.536 335.094 128.045C334.805 127.554 334.406 127.171 333.899 126.898C333.4 126.616 332.824 126.475 332.172 126.475C331.512 126.475 330.921 126.624 330.398 126.922C329.874 127.212 329.46 127.61 329.154 128.117C328.848 128.616 328.687 129.184 328.671 129.82V133.309C328.671 134.066 328.82 134.73 329.118 135.301C329.416 135.865 329.838 136.303 330.386 136.617C330.933 136.931 331.585 137.088 332.341 137.088C332.865 137.088 333.34 137.016 333.766 136.871C334.193 136.726 334.559 136.513 334.865 136.231C335.171 135.949 335.4 135.603 335.553 135.192L340.974 135.349C340.749 136.565 340.254 137.623 339.489 138.525C338.733 139.418 337.739 140.115 336.507 140.614C335.275 141.105 333.851 141.35 332.233 141.35ZM344.47 147.955V122.455H350.314V125.63H350.495C350.736 125.067 351.079 124.523 351.521 124C351.972 123.477 352.544 123.05 353.236 122.72C353.936 122.382 354.773 122.213 355.747 122.213C357.035 122.213 358.238 122.551 359.357 123.227C360.484 123.903 361.394 124.946 362.086 126.354C362.778 127.763 363.124 129.558 363.124 131.739C363.124 133.84 362.79 135.599 362.122 137.016C361.462 138.432 360.569 139.495 359.442 140.203C358.323 140.911 357.079 141.266 355.711 141.266C354.777 141.266 353.968 141.113 353.284 140.807C352.6 140.501 352.024 140.098 351.557 139.599C351.099 139.1 350.745 138.565 350.495 137.994H350.374V147.955H344.47ZM350.254 131.727C350.254 132.725 350.386 133.595 350.652 134.335C350.926 135.076 351.316 135.651 351.823 136.062C352.338 136.464 352.954 136.665 353.67 136.665C354.395 136.665 355.011 136.464 355.518 136.062C356.025 135.651 356.407 135.076 356.665 134.335C356.93 133.595 357.063 132.725 357.063 131.727C357.063 130.729 356.93 129.864 356.665 129.131C356.407 128.399 356.025 127.831 355.518 127.429C355.019 127.027 354.403 126.825 353.67 126.825C352.946 126.825 352.33 127.022 351.823 127.417C351.316 127.811 350.926 128.375 350.652 129.107C350.386 129.84 350.254 130.713 350.254 131.727ZM371.866 141.314C370.683 141.314 369.632 141.117 368.715 140.722C367.805 140.32 367.085 139.716 366.554 138.911C366.03 138.098 365.769 137.08 365.769 135.857C365.769 134.826 365.95 133.957 366.312 133.249C366.674 132.54 367.173 131.965 367.809 131.522C368.445 131.079 369.178 130.745 370.007 130.52C370.836 130.286 371.721 130.129 372.663 130.049C373.717 129.952 374.567 129.852 375.211 129.747C375.855 129.634 376.321 129.478 376.611 129.276C376.909 129.067 377.058 128.773 377.058 128.395V128.335C377.058 127.715 376.845 127.236 376.418 126.898C375.991 126.56 375.416 126.391 374.691 126.391C373.911 126.391 373.283 126.56 372.808 126.898C372.333 127.236 372.031 127.703 371.902 128.298L366.457 128.105C366.618 126.978 367.033 125.972 367.701 125.087C368.377 124.193 369.302 123.493 370.478 122.986C371.661 122.471 373.082 122.213 374.74 122.213C375.923 122.213 377.014 122.354 378.012 122.636C379.01 122.909 379.879 123.312 380.62 123.843C381.36 124.366 381.932 125.01 382.334 125.775C382.745 126.54 382.95 127.413 382.95 128.395V141H377.396V138.416H377.251C376.921 139.044 376.498 139.575 375.983 140.01C375.476 140.445 374.877 140.771 374.184 140.988C373.5 141.205 372.727 141.314 371.866 141.314ZM373.689 137.45C374.325 137.45 374.897 137.321 375.404 137.064C375.919 136.806 376.329 136.452 376.635 136.001C376.941 135.543 377.094 135.011 377.094 134.408V132.645C376.925 132.733 376.72 132.814 376.478 132.886C376.245 132.959 375.987 133.027 375.706 133.092C375.424 133.156 375.134 133.212 374.836 133.261C374.539 133.309 374.253 133.353 373.979 133.393C373.424 133.482 372.949 133.619 372.554 133.804C372.168 133.989 371.87 134.231 371.661 134.528C371.46 134.818 371.359 135.164 371.359 135.567C371.359 136.179 371.576 136.645 372.011 136.967C372.454 137.289 373.013 137.45 373.689 137.45ZM397.448 122.455V126.801H385.748V122.455H397.448ZM388.199 118.011H394.104V135.168C394.104 135.531 394.16 135.824 394.273 136.05C394.393 136.267 394.566 136.424 394.792 136.521C395.017 136.609 395.287 136.653 395.601 136.653C395.826 136.653 396.064 136.633 396.313 136.593C396.571 136.545 396.764 136.504 396.893 136.472L397.786 140.734C397.504 140.815 397.106 140.915 396.591 141.036C396.084 141.157 395.476 141.233 394.768 141.266C393.383 141.33 392.196 141.169 391.206 140.783C390.224 140.388 389.471 139.777 388.948 138.947C388.433 138.118 388.183 137.076 388.199 135.82V118.011ZM406.905 137.619L406.797 138.96C406.7 140.07 406.503 141.153 406.205 142.207C405.915 143.27 405.605 144.224 405.275 145.069C404.945 145.914 404.684 146.57 404.491 147.037H400.772C400.901 146.57 401.074 145.914 401.291 145.069C401.516 144.224 401.726 143.27 401.919 142.207C402.112 141.145 402.221 140.066 402.245 138.972L402.269 137.619H406.905ZM424.797 141.266C423.428 141.266 422.185 140.911 421.066 140.203C419.947 139.495 419.054 138.432 418.385 137.016C417.717 135.599 417.383 133.84 417.383 131.739C417.383 129.558 417.729 127.763 418.422 126.354C419.114 124.946 420.019 123.903 421.138 123.227C422.265 122.551 423.477 122.213 424.773 122.213C425.746 122.213 426.58 122.382 427.272 122.72C427.964 123.05 428.536 123.477 428.986 124C429.437 124.523 429.779 125.067 430.013 125.63H430.133V116.273H436.037V141H430.194V137.994H430.013C429.763 138.565 429.409 139.1 428.95 139.599C428.491 140.098 427.916 140.501 427.224 140.807C426.539 141.113 425.73 141.266 424.797 141.266ZM426.849 136.665C427.566 136.665 428.177 136.464 428.684 136.062C429.192 135.651 429.582 135.076 429.856 134.335C430.129 133.595 430.266 132.725 430.266 131.727C430.266 130.713 430.129 129.84 429.856 129.107C429.59 128.375 429.2 127.811 428.684 127.417C428.177 127.022 427.566 126.825 426.849 126.825C426.117 126.825 425.497 127.027 424.99 127.429C424.483 127.831 424.096 128.399 423.831 129.131C423.573 129.864 423.444 130.729 423.444 131.727C423.444 132.725 423.577 133.595 423.843 134.335C424.108 135.076 424.491 135.651 424.99 136.062C425.497 136.464 426.117 136.665 426.849 136.665ZM445.419 141.314C444.236 141.314 443.186 141.117 442.268 140.722C441.358 140.32 440.638 139.716 440.107 138.911C439.584 138.098 439.322 137.08 439.322 135.857C439.322 134.826 439.503 133.957 439.865 133.249C440.228 132.54 440.727 131.965 441.362 131.522C441.998 131.079 442.731 130.745 443.56 130.52C444.389 130.286 445.274 130.129 446.216 130.049C447.271 129.952 448.12 129.852 448.764 129.747C449.408 129.634 449.875 129.478 450.164 129.276C450.462 129.067 450.611 128.773 450.611 128.395V128.335C450.611 127.715 450.398 127.236 449.971 126.898C449.545 126.56 448.969 126.391 448.245 126.391C447.464 126.391 446.836 126.56 446.361 126.898C445.886 127.236 445.584 127.703 445.456 128.298L440.01 128.105C440.171 126.978 440.586 125.972 441.254 125.087C441.93 124.193 442.856 123.493 444.031 122.986C445.214 122.471 446.635 122.213 448.293 122.213C449.476 122.213 450.567 122.354 451.565 122.636C452.563 122.909 453.432 123.312 454.173 123.843C454.913 124.366 455.485 125.01 455.887 125.775C456.298 126.54 456.503 127.413 456.503 128.395V141H450.949V138.416H450.804C450.474 139.044 450.052 139.575 449.536 140.01C449.029 140.445 448.43 140.771 447.737 140.988C447.053 141.205 446.281 141.314 445.419 141.314ZM447.242 137.45C447.878 137.45 448.45 137.321 448.957 137.064C449.472 136.806 449.883 136.452 450.188 136.001C450.494 135.543 450.647 135.011 450.647 134.408V132.645C450.478 132.733 450.273 132.814 450.032 132.886C449.798 132.959 449.54 133.027 449.259 133.092C448.977 133.156 448.687 133.212 448.389 133.261C448.092 133.309 447.806 133.353 447.532 133.393C446.977 133.482 446.502 133.619 446.107 133.804C445.721 133.989 445.423 134.231 445.214 134.528C445.013 134.818 444.912 135.164 444.912 135.567C444.912 136.179 445.13 136.645 445.564 136.967C446.007 137.289 446.566 137.45 447.242 137.45ZM466.437 130.423V141H460.533V122.455H466.148V125.859H466.353C466.763 124.724 467.464 123.835 468.454 123.191C469.444 122.539 470.623 122.213 471.991 122.213C473.295 122.213 474.426 122.507 475.384 123.094C476.35 123.674 477.099 124.487 477.63 125.533C478.169 126.572 478.435 127.787 478.427 129.18V141H472.523V130.339C472.531 129.308 472.269 128.504 471.738 127.924C471.215 127.344 470.486 127.055 469.552 127.055C468.933 127.055 468.385 127.192 467.91 127.465C467.443 127.731 467.081 128.113 466.824 128.612C466.574 129.111 466.445 129.715 466.437 130.423ZM490.227 141V116.273H507.468V121.126H496.203V126.197H506.587V131.063H496.203V136.146H507.468V141H490.227ZM522.172 122.455V126.801H510.243V122.455H522.172ZM512.73 141V121.513C512.73 120.08 512.999 118.893 513.539 117.951C514.078 117.001 514.827 116.293 515.784 115.826C516.742 115.351 517.849 115.114 519.105 115.114C519.926 115.114 520.699 115.178 521.423 115.307C522.155 115.428 522.699 115.536 523.053 115.633L522.111 119.955C521.894 119.883 521.628 119.822 521.314 119.774C521.008 119.726 520.719 119.702 520.445 119.702C519.753 119.702 519.278 119.855 519.02 120.161C518.763 120.466 518.634 120.885 518.634 121.416V141H512.73ZM533.503 141.35C531.563 141.35 529.889 140.968 528.481 140.203C527.08 139.43 526.001 138.332 525.245 136.907C524.496 135.474 524.122 133.772 524.122 131.8C524.122 129.884 524.5 128.21 525.257 126.777C526.013 125.336 527.08 124.217 528.456 123.42C529.833 122.616 531.455 122.213 533.322 122.213C534.642 122.213 535.85 122.418 536.944 122.829C538.039 123.239 538.985 123.847 539.782 124.652C540.579 125.457 541.198 126.451 541.641 127.634C542.084 128.809 542.305 130.158 542.305 131.679V133.152H526.187V129.723H536.812C536.803 129.095 536.655 128.536 536.365 128.045C536.075 127.554 535.677 127.171 535.169 126.898C534.67 126.616 534.095 126.475 533.443 126.475C532.783 126.475 532.191 126.624 531.668 126.922C531.145 127.212 530.73 127.61 530.424 128.117C530.119 128.616 529.958 129.184 529.941 129.82V133.309C529.941 134.066 530.09 134.73 530.388 135.301C530.686 135.865 531.109 136.303 531.656 136.617C532.203 136.931 532.855 137.088 533.612 137.088C534.135 137.088 534.61 137.016 535.037 136.871C535.463 136.726 535.83 136.513 536.135 136.231C536.441 135.949 536.671 135.603 536.824 135.192L542.245 135.349C542.019 136.565 541.524 137.623 540.76 138.525C540.003 139.418 539.009 140.115 537.777 140.614C536.546 141.105 535.121 141.35 533.503 141.35ZM551.065 136.134L551.089 129.095H551.91L557.126 122.455H563.815L556.064 131.969H554.506L551.065 136.134ZM545.741 141V116.273H551.645V141H545.741ZM557.259 141L552.405 133.297L556.293 129.107L564.081 141H557.259ZM576.816 122.455V126.801H565.117V122.455H576.816ZM567.568 118.011H573.472V135.168C573.472 135.531 573.528 135.824 573.641 136.05C573.761 136.267 573.935 136.424 574.16 136.521C574.385 136.609 574.655 136.653 574.969 136.653C575.194 136.653 575.432 136.633 575.681 136.593C575.939 136.545 576.132 136.504 576.261 136.472L577.154 140.734C576.872 140.815 576.474 140.915 575.959 141.036C575.452 141.157 574.844 141.233 574.136 141.266C572.751 141.33 571.564 141.169 570.574 140.783C569.592 140.388 568.839 139.777 568.316 138.947C567.801 138.118 567.551 137.076 567.568 135.82V118.011ZM580.249 141V122.455H586.153V141H580.249ZM583.207 120.293C582.378 120.293 581.665 120.02 581.07 119.472C580.474 118.917 580.176 118.249 580.176 117.468C580.176 116.695 580.474 116.035 581.07 115.488C581.665 114.933 582.378 114.655 583.207 114.655C584.044 114.655 584.756 114.933 585.344 115.488C585.939 116.035 586.237 116.695 586.237 117.468C586.237 118.249 585.939 118.917 585.344 119.472C584.756 120.02 584.044 120.293 583.207 120.293ZM600.871 122.455V126.801H588.942V122.455H600.871ZM591.429 141V121.513C591.429 120.08 591.699 118.893 592.238 117.951C592.778 117.001 593.526 116.293 594.484 115.826C595.442 115.351 596.549 115.114 597.804 115.114C598.625 115.114 599.398 115.178 600.123 115.307C600.855 115.428 601.398 115.536 601.753 115.633L600.811 119.955C600.593 119.883 600.328 119.822 600.014 119.774C599.708 119.726 599.418 119.702 599.145 119.702C598.452 119.702 597.977 119.855 597.72 120.161C597.462 120.466 597.334 120.885 597.334 121.416V141H591.429Z" fill="#4A4A4A"/>
<g filter="url(#filter1_d_160_717)">
<rect x="674.6" y="68" width="214" height="68" rx="10" transform="rotate(15 674.6 68)" fill="#ADFAFF" shape-rendering="crispEdges"/>
<path d="M682.001 111.394L685.013 100.154L689.7 101.41C690.541 101.636 691.214 101.943 691.717 102.333C692.224 102.724 692.563 103.172 692.734 103.676C692.908 104.182 692.92 104.716 692.769 105.28C692.654 105.708 692.462 106.066 692.193 106.355C691.924 106.639 691.603 106.849 691.23 106.985C690.856 107.12 690.451 107.176 690.014 107.153L689.984 107.263C690.432 107.406 690.818 107.641 691.143 107.967C691.471 108.294 691.698 108.689 691.826 109.15C691.954 109.608 691.946 110.108 691.801 110.649C691.639 111.253 691.341 111.752 690.906 112.145C690.472 112.535 689.927 112.789 689.272 112.907C688.618 113.022 687.875 112.968 687.045 112.746L682.001 111.394ZM685.305 109.932L686.984 110.382C687.573 110.54 688.036 110.545 688.374 110.396C688.716 110.248 688.94 109.975 689.047 109.576C689.124 109.287 689.123 109.02 689.044 108.775C688.965 108.527 688.817 108.313 688.599 108.133C688.381 107.949 688.099 107.81 687.751 107.717L686.022 107.254L685.305 109.932ZM686.491 105.503L687.995 105.906C688.291 105.986 688.568 106.007 688.825 105.97C689.082 105.933 689.3 105.838 689.478 105.686C689.659 105.535 689.786 105.327 689.856 105.064C689.957 104.687 689.903 104.355 689.694 104.067C689.484 103.78 689.153 103.575 688.699 103.454L687.152 103.039L686.491 105.503ZM696.568 115.468C695.686 115.232 694.971 114.854 694.424 114.335C693.882 113.813 693.525 113.182 693.355 112.442C693.189 111.7 693.226 110.88 693.467 109.984C693.7 109.113 694.076 108.398 694.594 107.839C695.114 107.276 695.735 106.898 696.457 106.703C697.181 106.505 697.967 106.52 698.816 106.747C699.416 106.908 699.94 107.148 700.388 107.468C700.835 107.788 701.191 108.179 701.455 108.642C701.72 109.105 701.88 109.633 701.937 110.224C701.995 110.813 701.932 111.452 701.747 112.144L701.567 112.813L694.24 110.85L694.658 109.292L699.488 110.586C699.56 110.299 699.561 110.027 699.489 109.768C699.417 109.51 699.282 109.288 699.085 109.101C698.893 108.913 698.648 108.778 698.352 108.699C698.052 108.619 697.765 108.614 697.491 108.686C697.218 108.754 696.981 108.885 696.78 109.078C696.58 109.267 696.438 109.506 696.353 109.793L695.928 111.379C695.836 111.723 695.823 112.043 695.888 112.339C695.955 112.631 696.094 112.882 696.304 113.091C696.515 113.301 696.792 113.452 697.136 113.544C697.374 113.607 697.599 113.632 697.81 113.619C698.022 113.605 698.214 113.552 698.388 113.461C698.561 113.371 698.707 113.241 698.827 113.073L701.272 113.805C701.022 114.33 700.668 114.751 700.21 115.067C699.757 115.381 699.221 115.577 698.6 115.654C697.981 115.727 697.303 115.665 696.568 115.468ZM702.388 116.857L704.646 108.427L707.253 109.125L706.842 110.662L706.929 110.686C707.232 110.171 707.593 109.824 708.014 109.647C708.435 109.465 708.876 109.437 709.337 109.56C709.461 109.593 709.587 109.637 709.714 109.69C709.841 109.74 709.958 109.797 710.062 109.86L709.437 112.193C709.321 112.115 709.162 112.035 708.96 111.953C708.762 111.873 708.583 111.811 708.422 111.768C708.103 111.682 707.797 111.677 707.503 111.751C707.213 111.822 706.961 111.965 706.747 112.178C706.538 112.388 706.388 112.662 706.298 112.999L705.071 117.576L702.388 116.857ZM711.896 122.981C711.095 122.766 710.439 122.471 709.928 122.095C709.417 121.719 709.05 121.293 708.829 120.818C708.607 120.343 708.529 119.851 708.594 119.343L711.174 119.881C711.175 120.066 711.223 120.24 711.316 120.402C711.414 120.565 711.557 120.71 711.747 120.835C711.941 120.962 712.18 121.063 712.466 121.14C712.916 121.26 713.317 121.25 713.668 121.109C714.022 120.972 714.272 120.633 714.417 120.092L714.814 118.61L714.721 118.585C714.545 118.816 714.322 119.006 714.051 119.153C713.78 119.3 713.468 119.389 713.115 119.419C712.765 119.451 712.384 119.412 711.97 119.301C711.356 119.136 710.83 118.842 710.395 118.42C709.963 117.995 709.675 117.439 709.53 116.753C709.389 116.064 709.446 115.242 709.702 114.287C709.966 113.303 710.34 112.535 710.825 111.982C711.312 111.426 711.85 111.063 712.441 110.892C713.036 110.722 713.628 110.716 714.217 110.874C714.659 110.992 715.017 111.17 715.291 111.408C715.569 111.644 715.779 111.908 715.92 112.2C716.061 112.493 716.15 112.782 716.188 113.066L716.265 113.087L716.651 111.644L719.324 112.36L717.057 120.823C716.865 121.536 716.525 122.09 716.035 122.484C715.545 122.878 714.944 123.115 714.233 123.195C713.52 123.279 712.741 123.207 711.896 122.981ZM713.427 117.597C713.752 117.684 714.054 117.673 714.33 117.563C714.607 117.452 714.85 117.253 715.061 116.964C715.272 116.676 715.437 116.306 715.558 115.856C715.68 115.399 715.724 114.989 715.687 114.626C715.656 114.261 715.547 113.957 715.361 113.715C715.179 113.474 714.924 113.31 714.599 113.223C714.266 113.134 713.96 113.15 713.68 113.271C713.401 113.392 713.156 113.603 712.946 113.904C712.741 114.201 712.578 114.575 712.457 115.025C712.336 115.476 712.293 115.878 712.328 116.232C712.362 116.586 712.47 116.88 712.651 117.113C712.835 117.346 713.094 117.508 713.427 117.597ZM721.52 122.136C720.982 121.992 720.529 121.775 720.16 121.483C719.795 121.19 719.541 120.828 719.398 120.397C719.259 119.964 719.264 119.469 719.413 118.913C719.539 118.445 719.727 118.071 719.978 117.794C720.229 117.516 720.526 117.315 720.869 117.191C721.212 117.067 721.585 117.005 721.99 117.003C722.395 116.998 722.817 117.035 723.254 117.113C723.746 117.197 724.144 117.255 724.449 117.286C724.756 117.313 724.987 117.299 725.143 117.242C725.304 117.184 725.408 117.068 725.454 116.896L725.461 116.869C725.536 116.587 725.498 116.343 725.345 116.138C725.192 115.932 724.951 115.785 724.622 115.697C724.267 115.602 723.961 115.602 723.704 115.698C723.447 115.794 723.253 115.969 723.122 116.224L720.67 115.473C720.881 114.981 721.192 114.574 721.603 114.253C722.019 113.929 722.525 113.723 723.121 113.636C723.722 113.546 724.399 113.602 725.153 113.804C725.691 113.948 726.169 114.145 726.589 114.394C727.009 114.64 727.355 114.929 727.627 115.261C727.9 115.589 728.081 115.951 728.171 116.348C728.265 116.745 728.251 117.167 728.132 117.614L726.597 123.344L724.072 122.667L724.387 121.493L724.321 121.475C724.094 121.72 723.838 121.91 723.551 122.045C723.267 122.181 722.955 122.256 722.614 122.27C722.276 122.286 721.912 122.241 721.52 122.136ZM722.82 120.602C723.109 120.68 723.384 120.691 723.646 120.635C723.911 120.581 724.141 120.47 724.335 120.302C724.53 120.131 724.664 119.908 724.738 119.634L724.952 118.832C724.865 118.852 724.762 118.864 724.643 118.867C724.528 118.872 724.403 118.871 724.267 118.866C724.131 118.861 723.992 118.852 723.851 118.837C723.71 118.823 723.575 118.808 723.445 118.793C723.182 118.766 722.95 118.77 722.748 118.806C722.55 118.843 722.385 118.917 722.253 119.027C722.127 119.134 722.039 119.279 721.99 119.462C721.915 119.74 721.957 119.979 722.115 120.178C722.277 120.378 722.512 120.52 722.82 120.602ZM728.643 123.892L731.655 112.652L734.339 113.371L733.199 117.625L733.254 117.639C733.432 117.413 733.654 117.207 733.919 117.023C734.188 116.84 734.499 116.716 734.854 116.65C735.214 116.582 735.615 116.607 736.057 116.726C736.643 116.883 737.149 117.183 737.575 117.626C738.005 118.071 738.291 118.656 738.434 119.38C738.577 120.105 738.516 120.963 738.25 121.954C737.995 122.909 737.629 123.668 737.152 124.231C736.68 124.794 736.144 125.168 735.546 125.353C734.951 125.539 734.342 125.548 733.72 125.382C733.296 125.268 732.947 125.1 732.673 124.878C732.399 124.655 732.187 124.402 732.035 124.118C731.888 123.836 731.792 123.549 731.748 123.259L731.666 123.237L731.3 124.604L728.643 123.892ZM732.402 120.381C732.28 120.835 732.234 121.246 732.265 121.615C732.299 121.985 732.407 122.294 732.587 122.543C732.772 122.788 733.028 122.955 733.353 123.042C733.683 123.13 733.987 123.114 734.266 122.993C734.547 122.868 734.791 122.653 734.998 122.348C735.209 122.043 735.375 121.664 735.497 121.211C735.618 120.757 735.663 120.348 735.632 119.982C735.604 119.618 735.499 119.313 735.318 119.069C735.14 118.825 734.885 118.659 734.552 118.569C734.222 118.481 733.919 118.496 733.64 118.613C733.361 118.731 733.115 118.939 732.902 119.239C732.692 119.54 732.525 119.92 732.402 120.381ZM745.348 124.468L746.632 119.677L749.31 120.395L747.052 128.824L744.494 128.139L744.915 126.57L744.827 126.546C744.502 127.012 744.074 127.336 743.543 127.519C743.016 127.7 742.436 127.705 741.803 127.536C741.229 127.382 740.759 127.115 740.394 126.735C740.029 126.355 739.789 125.896 739.674 125.359C739.56 124.819 739.587 124.23 739.754 123.593L741.193 118.22L743.877 118.939L742.579 123.785C742.46 124.243 742.484 124.636 742.651 124.963C742.818 125.29 743.107 125.509 743.517 125.618C743.784 125.69 744.039 125.696 744.283 125.635C744.531 125.573 744.748 125.444 744.933 125.251C745.123 125.055 745.261 124.794 745.348 124.468ZM753.138 125.302L751.849 130.11L749.166 129.391L751.424 120.961L753.976 121.645L753.562 123.192L753.655 123.217C753.98 122.752 754.406 122.433 754.935 122.26C755.464 122.085 756.04 122.08 756.662 122.247C757.255 122.406 757.733 122.677 758.097 123.061C758.465 123.442 758.707 123.902 758.821 124.443C758.939 124.98 758.912 125.565 758.739 126.197L757.299 131.57L754.615 130.851L755.914 126.005C756.043 125.538 756.022 125.14 755.851 124.812C755.684 124.485 755.388 124.264 754.964 124.15C754.682 124.075 754.417 124.071 754.167 124.137C753.923 124.201 753.712 124.331 753.534 124.526C753.36 124.723 753.227 124.981 753.138 125.302ZM762.402 136.514C761.601 136.299 760.944 136.004 760.433 135.628C759.922 135.252 759.556 134.826 759.334 134.351C759.113 133.876 759.035 133.384 759.1 132.876L761.679 133.414C761.681 133.599 761.728 133.773 761.822 133.935C761.92 134.098 762.063 134.243 762.253 134.368C762.447 134.495 762.686 134.596 762.972 134.673C763.422 134.793 763.823 134.783 764.174 134.642C764.528 134.505 764.778 134.166 764.923 133.625L765.32 132.143L765.227 132.118C765.051 132.349 764.828 132.539 764.557 132.686C764.286 132.833 763.974 132.922 763.621 132.952C763.271 132.984 762.89 132.945 762.476 132.834C761.861 132.669 761.336 132.375 760.9 131.953C760.469 131.528 760.181 130.972 760.035 130.286C759.894 129.597 759.952 128.775 760.208 127.82C760.472 126.836 760.846 126.068 761.331 125.515C761.817 124.959 762.356 124.596 762.947 124.425C763.542 124.255 764.133 124.249 764.722 124.407C765.165 124.525 765.523 124.703 765.797 124.941C766.075 125.177 766.285 125.441 766.426 125.733C766.567 126.026 766.656 126.315 766.694 126.599L766.771 126.62L767.157 125.177L769.83 125.893L767.562 134.356C767.371 135.069 767.031 135.623 766.541 136.017C766.051 136.411 765.45 136.648 764.738 136.728C764.026 136.812 763.247 136.74 762.402 136.514ZM763.933 131.13C764.258 131.217 764.559 131.206 764.836 131.096C765.113 130.985 765.356 130.786 765.567 130.497C765.778 130.209 765.943 129.839 766.064 129.389C766.186 128.932 766.229 128.522 766.193 128.159C766.162 127.794 766.053 127.49 765.867 127.248C765.684 127.007 765.43 126.843 765.105 126.756C764.772 126.667 764.466 126.683 764.186 126.804C763.906 126.925 763.662 127.136 763.452 127.437C763.246 127.734 763.083 128.108 762.963 128.558C762.842 129.009 762.799 129.411 762.834 129.765C762.868 130.119 762.976 130.413 763.157 130.646C763.341 130.879 763.6 131.041 763.933 131.13ZM781.598 129.646C781.669 129.234 781.59 128.877 781.361 128.577C781.137 128.273 780.759 128.051 780.229 127.908C779.877 127.814 779.572 127.782 779.314 127.81C779.055 127.839 778.846 127.918 778.685 128.048C778.526 128.174 778.417 128.339 778.359 128.543C778.306 128.709 778.299 128.866 778.338 129.014C778.381 129.162 778.46 129.305 778.576 129.442C778.697 129.577 778.85 129.708 779.036 129.836C779.221 129.964 779.434 130.09 779.676 130.213L780.583 130.692C781.107 130.961 781.554 131.254 781.924 131.569C782.298 131.885 782.593 132.22 782.807 132.576C783.025 132.932 783.161 133.312 783.214 133.714C783.267 134.117 783.235 134.543 783.118 134.994C782.924 135.703 782.582 136.264 782.09 136.678C781.599 137.091 780.984 137.344 780.246 137.436C779.511 137.53 778.675 137.451 777.739 137.2C776.799 136.948 776.017 136.588 775.393 136.119C774.77 135.65 774.341 135.076 774.107 134.398C773.874 133.719 773.869 132.94 774.093 132.058L776.694 132.755C776.619 133.124 776.635 133.451 776.743 133.739C776.85 134.027 777.037 134.273 777.304 134.478C777.574 134.683 777.909 134.84 778.307 134.946C778.673 135.044 778.997 135.078 779.28 135.048C779.566 135.019 779.802 134.935 779.989 134.797C780.175 134.659 780.3 134.476 780.364 134.251C780.418 134.037 780.4 133.839 780.312 133.654C780.226 133.466 780.063 133.282 779.826 133.1C779.593 132.916 779.284 132.722 778.9 132.517L777.799 131.928C776.885 131.444 776.215 130.878 775.789 130.23C775.363 129.579 775.267 128.828 775.499 127.976C775.681 127.28 776.031 126.721 776.548 126.299C777.065 125.877 777.696 125.608 778.44 125.494C779.185 125.38 779.983 125.437 780.835 125.665C781.706 125.899 782.422 126.249 782.983 126.717C783.548 127.182 783.938 127.728 784.15 128.353C784.363 128.979 784.38 129.642 784.2 130.343L781.598 129.646ZM787.92 139.946C787.038 139.709 786.324 139.332 785.777 138.813C785.234 138.291 784.878 137.66 784.707 136.92C784.542 136.178 784.579 135.358 784.819 134.462C785.052 133.591 785.428 132.876 785.947 132.317C786.466 131.754 787.087 131.376 787.81 131.181C788.534 130.983 789.32 130.997 790.169 131.225C790.769 131.386 791.293 131.626 791.74 131.946C792.188 132.266 792.544 132.657 792.808 133.12C793.072 133.583 793.233 134.11 793.29 134.702C793.348 135.29 793.284 135.93 793.099 136.622L792.92 137.291L785.593 135.328L786.01 133.769L790.84 135.063C790.913 134.777 790.913 134.505 790.841 134.246C790.769 133.988 790.635 133.765 790.438 133.579C790.245 133.39 790.001 133.256 789.704 133.177C789.404 133.096 789.117 133.092 788.843 133.164C788.57 133.232 788.333 133.362 788.132 133.556C787.933 133.745 787.79 133.984 787.705 134.271L787.28 135.857C787.188 136.201 787.175 136.521 787.241 136.817C787.308 137.109 787.446 137.36 787.657 137.569C787.867 137.779 788.145 137.929 788.489 138.022C788.726 138.085 788.951 138.11 789.163 138.096C789.374 138.082 789.567 138.03 789.74 137.939C789.913 137.848 790.06 137.719 790.179 137.551L792.624 138.283C792.374 138.808 792.02 139.229 791.563 139.545C791.11 139.859 790.573 140.055 789.953 140.131C789.333 140.205 788.656 140.143 787.92 139.946ZM796.753 139.771L797.621 136.575L797.994 136.675L801.174 134.291L804.215 135.106L799.532 138.487L798.824 138.297L796.753 139.771ZM793.74 141.335L796.752 130.095L799.435 130.814L796.424 142.054L793.74 141.335ZM798.976 142.737L797.708 138.645L799.985 137.214L802.077 143.568L798.976 142.737ZM805.66 144.681C805.122 144.537 804.669 144.32 804.3 144.029C803.935 143.735 803.681 143.373 803.538 142.942C803.399 142.509 803.404 142.014 803.553 141.458C803.679 140.99 803.867 140.617 804.118 140.339C804.369 140.061 804.666 139.86 805.009 139.736C805.352 139.613 805.725 139.55 806.13 139.549C806.535 139.543 806.957 139.58 807.394 139.658C807.886 139.743 808.284 139.8 808.589 139.831C808.896 139.858 809.127 139.844 809.283 139.788C809.444 139.729 809.548 139.613 809.594 139.441L809.601 139.414C809.676 139.132 809.638 138.889 809.485 138.683C809.332 138.477 809.091 138.33 808.762 138.242C808.407 138.147 808.101 138.147 807.844 138.243C807.587 138.339 807.393 138.515 807.262 138.77L804.81 138.019C805.021 137.526 805.332 137.119 805.743 136.798C806.159 136.474 806.665 136.269 807.261 136.181C807.862 136.091 808.539 136.147 809.293 136.349C809.831 136.493 810.309 136.69 810.729 136.94C811.149 137.186 811.495 137.475 811.767 137.806C812.04 138.134 812.221 138.497 812.311 138.893C812.405 139.291 812.391 139.713 812.272 140.159L810.737 145.889L808.212 145.212L808.527 144.038L808.461 144.02C808.234 144.265 807.978 144.455 807.69 144.59C807.407 144.726 807.095 144.801 806.754 144.816C806.416 144.831 806.052 144.786 805.66 144.681ZM806.959 143.147C807.249 143.225 807.524 143.236 807.786 143.18C808.051 143.126 808.281 143.015 808.475 142.848C808.67 142.676 808.804 142.453 808.878 142.179L809.092 141.378C809.005 141.397 808.902 141.409 808.783 141.412C808.668 141.417 808.543 141.417 808.407 141.412C808.271 141.407 808.132 141.397 807.991 141.383C807.85 141.368 807.715 141.354 807.585 141.339C807.322 141.311 807.09 141.316 806.888 141.352C806.69 141.389 806.525 141.462 806.393 141.572C806.267 141.679 806.179 141.824 806.13 142.007C806.055 142.285 806.097 142.524 806.255 142.723C806.417 142.924 806.652 143.065 806.959 143.147ZM812.783 146.437L815.042 138.007L817.649 138.706L817.237 140.242L817.325 140.266C817.628 139.751 817.989 139.405 818.409 139.227C818.83 139.046 819.271 139.017 819.732 139.141C819.857 139.174 819.982 139.217 820.109 139.271C820.237 139.321 820.353 139.377 820.458 139.441L819.833 141.773C819.717 141.695 819.558 141.615 819.356 141.534C819.158 141.453 818.978 141.391 818.817 141.348C818.499 141.263 818.193 141.257 817.898 141.331C817.609 141.403 817.357 141.545 817.143 141.758C816.933 141.969 816.784 142.242 816.693 142.579L815.467 147.156L812.783 146.437ZM821.715 148.983C821.177 148.839 820.724 148.622 820.355 148.331C819.99 148.037 819.736 147.675 819.593 147.244C819.454 146.811 819.459 146.316 819.608 145.76C819.734 145.292 819.922 144.919 820.173 144.641C820.424 144.363 820.721 144.162 821.064 144.038C821.407 143.915 821.78 143.852 822.185 143.85C822.59 143.845 823.011 143.882 823.449 143.96C823.94 144.044 824.339 144.102 824.644 144.133C824.951 144.16 825.182 144.146 825.338 144.09C825.499 144.031 825.602 143.915 825.649 143.743L825.656 143.716C825.731 143.434 825.693 143.19 825.54 142.985C825.387 142.779 825.146 142.632 824.817 142.544C824.462 142.449 824.156 142.449 823.899 142.545C823.642 142.641 823.448 142.816 823.317 143.071L820.865 142.32C821.076 141.828 821.387 141.421 821.798 141.1C822.214 140.776 822.72 140.571 823.316 140.483C823.917 140.393 824.594 140.449 825.348 140.651C825.886 140.795 826.364 140.992 826.784 141.242C827.204 141.488 827.55 141.776 827.822 142.108C828.095 142.436 828.276 142.798 828.366 143.195C828.459 143.593 828.446 144.015 828.327 144.461L826.792 150.191L824.267 149.514L824.582 148.34L824.516 148.322C824.289 148.567 824.032 148.757 823.745 148.892C823.462 149.028 823.15 149.103 822.809 149.118C822.471 149.133 822.107 149.088 821.715 148.983ZM823.014 147.449C823.303 147.527 823.579 147.538 823.841 147.482C824.106 147.428 824.336 147.317 824.53 147.149C824.725 146.978 824.859 146.755 824.933 146.481L825.147 145.68C825.06 145.699 824.957 145.711 824.838 145.714C824.723 145.719 824.598 145.719 824.462 145.714C824.326 145.708 824.187 145.699 824.046 145.684C823.905 145.67 823.77 145.655 823.64 145.64C823.377 145.613 823.144 145.617 822.943 145.654C822.744 145.691 822.58 145.764 822.448 145.874C822.321 145.981 822.234 146.126 822.185 146.309C822.11 146.587 822.152 146.826 822.31 147.025C822.472 147.226 822.707 147.367 823.014 147.449ZM832.81 146.65L831.522 151.458L828.838 150.739L831.097 142.309L833.649 142.993L833.234 144.541L833.328 144.566C833.652 144.1 834.079 143.781 834.608 143.609C835.137 143.433 835.713 143.428 836.335 143.595C836.927 143.754 837.406 144.025 837.77 144.409C838.138 144.79 838.379 145.251 838.493 145.791C838.612 146.329 838.585 146.913 838.411 147.545L836.972 152.918L834.288 152.199L835.586 147.353C835.716 146.886 835.695 146.488 835.524 146.16C835.357 145.833 835.061 145.612 834.636 145.499C834.355 145.423 834.089 145.419 833.84 145.485C833.595 145.549 833.384 145.679 833.206 145.874C833.032 146.071 832.9 146.329 832.81 146.65ZM842.074 157.862C841.273 157.647 840.617 157.352 840.106 156.976C839.595 156.6 839.229 156.174 839.007 155.699C838.785 155.224 838.707 154.732 838.773 154.225L841.352 154.763C841.353 154.947 841.401 155.121 841.495 155.283C841.592 155.447 841.736 155.591 841.926 155.716C842.119 155.843 842.359 155.944 842.644 156.021C843.094 156.141 843.495 156.131 843.847 155.99C844.201 155.853 844.45 155.515 844.596 154.973L844.993 153.491L844.899 153.466C844.724 153.698 844.5 153.887 844.23 154.034C843.959 154.181 843.647 154.27 843.293 154.301C842.944 154.332 842.562 154.293 842.149 154.182C841.534 154.017 841.009 153.724 840.573 153.301C840.142 152.876 839.854 152.32 839.708 151.634C839.567 150.945 839.625 150.123 839.88 149.168C840.144 148.184 840.519 147.416 841.004 146.864C841.49 146.308 842.029 145.944 842.62 145.773C843.214 145.603 843.806 145.597 844.395 145.755C844.838 145.873 845.196 146.052 845.469 146.29C845.747 146.525 845.957 146.789 846.098 147.082C846.239 147.374 846.329 147.663 846.366 147.948L846.443 147.968L846.83 146.525L849.503 147.241L847.235 155.704C847.044 156.417 846.703 156.971 846.213 157.365C845.723 157.759 845.123 157.997 844.411 158.076C843.698 158.16 842.92 158.089 842.074 157.862ZM843.605 152.478C843.931 152.566 844.232 152.554 844.509 152.444C844.785 152.334 845.029 152.134 845.239 151.846C845.45 151.557 845.616 151.188 845.736 150.738C845.859 150.28 845.902 149.87 845.866 149.508C845.834 149.142 845.726 148.839 845.539 148.597C845.357 148.356 845.103 148.191 844.777 148.104C844.444 148.015 844.138 148.031 843.859 148.152C843.579 148.273 843.334 148.484 843.124 148.785C842.919 149.083 842.756 149.457 842.635 149.907C842.515 150.357 842.472 150.759 842.506 151.113C842.541 151.468 842.648 151.761 842.829 151.994C843.014 152.228 843.272 152.389 843.605 152.478ZM855.528 145.844L853.186 153.575L850.93 152.97L852.767 145.104L855.528 145.844ZM851.091 156.872C850.699 156.767 850.4 156.538 850.192 156.184C849.989 155.832 849.94 155.458 850.046 155.063C850.15 154.675 850.378 154.381 850.729 154.181C851.085 153.979 851.459 153.93 851.851 154.035C852.228 154.136 852.522 154.363 852.732 154.718C852.948 155.07 853.004 155.44 852.9 155.828C852.829 156.091 852.697 156.312 852.504 156.492C852.315 156.673 852.095 156.798 851.844 156.868C851.598 156.939 851.347 156.941 851.091 156.872Z" fill="#C15BFF"/>
</g>
<path d="M641.88 179.143C641.507 179.568 641.053 179.916 640.546 180.166C640.038 180.416 639.486 180.564 638.921 180.601C638.356 180.637 637.79 180.563 637.254 180.38C636.718 180.198 636.223 179.912 635.798 179.539L634.458 178.363C634.033 177.99 633.685 177.536 633.435 177.028C633.184 176.521 633.037 175.969 633 175.404C632.963 174.839 633.038 174.273 633.22 173.737C633.402 173.201 633.688 172.706 634.062 172.281L647.941 156.464L634.028 151.465C633.239 151.185 632.55 150.68 632.046 150.011C631.542 149.343 631.246 148.541 631.195 147.706L631.181 147.496C631.161 146.623 631.409 145.765 631.893 145.037C632.377 144.31 633.072 143.749 633.885 143.43L675.995 126.579C676.732 126.283 677.536 126.198 678.319 126.332C679.101 126.466 679.831 126.814 680.428 127.337C681.024 127.861 681.464 128.54 681.699 129.298C681.933 130.057 681.952 130.865 681.755 131.634L670.509 175.574C670.288 176.415 669.817 177.168 669.16 177.736C668.503 178.305 667.689 178.661 666.825 178.758C665.962 178.856 665.089 178.69 664.322 178.282C663.554 177.875 662.928 177.245 662.525 176.475L655.762 163.328L641.88 179.143Z" fill="#924FFF"/>
</g>
<defs>
<filter id="filter0_d_160_717" x="0" y="-5" width="991" height="275" filterUnits="userSpaceOnUse" color-interpolation-filters="sRGB">
<feFlood flood-opacity="0" result="BackgroundImageFix"/>
<feColorMatrix in="SourceAlpha" type="matrix" values="0 0 0 0 0 0 0 0 0 0 0 0 0 0 0 0 0 0 127 0" result="hardAlpha"/>
<feOffset dy="4"/>
<feGaussianBlur stdDeviation="25"/>
<feComposite in2="hardAlpha" operator="out"/>
<feColorMatrix type="matrix" values="0 0 0 0 0 0 0 0 0 0 0 0 0 0 0 0 0 0 0.25 0"/>
<feBlend mode="normal" in2="BackgroundImageFix" result="effect1_dropShadow_160_717"/>
<feBlend mode="normal" in="SourceGraphic" in2="effect1_dropShadow_160_717" result="shape"/>
</filter>
<filter id="filter1_d_160_717" x="653" y="68" width="232.308" height="129.07" filterUnits="userSpaceOnUse" color-interpolation-filters="sRGB">
<feFlood flood-opacity="0" result="BackgroundImageFix"/>
<feColorMatrix in="SourceAlpha" type="matrix" values="0 0 0 0 0 0 0 0 0 0 0 0 0 0 0 0 0 0 127 0" result="hardAlpha"/>
<feOffset dy="4"/>
<feGaussianBlur stdDeviation="2"/>
<feComposite in2="hardAlpha" operator="out"/>
<feColorMatrix type="matrix" values="0 0 0 0 0 0 0 0 0 0 0 0 0 0 0 0 0 0 0.25 0"/>
<feBlend mode="normal" in2="BackgroundImageFix" result="effect1_dropShadow_160_717"/>
<feBlend mode="normal" in="SourceGraphic" in2="effect1_dropShadow_160_717" result="shape"/>
</filter>
</defs>
</svg>
