<svg width="204" height="105" viewBox="0 0 204 105" fill="none" xmlns="http://www.w3.org/2000/svg">
<path d="M103.388 57.248H111.452V62H97.232V36.728H103.388V57.248ZM117.484 39.824C116.404 39.824 115.516 39.512 114.82 38.888C114.148 38.24 113.812 37.448 113.812 36.512C113.812 35.552 114.148 34.76 114.82 34.136C115.516 33.488 116.404 33.164 117.484 33.164C118.54 33.164 119.404 33.488 120.076 34.136C120.772 34.76 121.12 35.552 121.12 36.512C121.12 37.448 120.772 38.24 120.076 38.888C119.404 39.512 118.54 39.824 117.484 39.824ZM120.544 41.912V62H114.388V41.912H120.544ZM133.177 62.288C131.425 62.288 129.865 61.988 128.497 61.388C127.129 60.788 126.049 59.972 125.257 58.94C124.465 57.884 124.021 56.708 123.925 55.412H130.009C130.081 56.108 130.405 56.672 130.981 57.104C131.557 57.536 132.265 57.752 133.105 57.752C133.873 57.752 134.461 57.608 134.869 57.32C135.301 57.008 135.517 56.612 135.517 56.132C135.517 55.556 135.217 55.136 134.617 54.872C134.017 54.584 133.045 54.272 131.701 53.936C130.261 53.6 129.061 53.252 128.101 52.892C127.141 52.508 126.313 51.92 125.617 51.128C124.921 50.312 124.573 49.22 124.573 47.852C124.573 46.7 124.885 45.656 125.509 44.72C126.157 43.76 127.093 43.004 128.317 42.452C129.565 41.9 131.041 41.624 132.745 41.624C135.265 41.624 137.245 42.248 138.685 43.496C140.149 44.744 140.989 46.4 141.205 48.464H135.517C135.421 47.768 135.109 47.216 134.581 46.808C134.077 46.4 133.405 46.196 132.565 46.196C131.845 46.196 131.293 46.34 130.909 46.628C130.525 46.892 130.333 47.264 130.333 47.744C130.333 48.32 130.633 48.752 131.233 49.04C131.857 49.328 132.817 49.616 134.113 49.904C135.601 50.288 136.813 50.672 137.749 51.056C138.685 51.416 139.501 52.016 140.197 52.856C140.917 53.672 141.289 54.776 141.313 56.168C141.313 57.344 140.977 58.4 140.305 59.336C139.657 60.248 138.709 60.968 137.461 61.496C136.237 62.024 134.809 62.288 133.177 62.288ZM156.276 56.78V62H153.144C150.912 62 149.172 61.46 147.924 60.38C146.676 59.276 146.052 57.488 146.052 55.016V47.024H143.604V41.912H146.052V37.016H152.208V41.912H156.24V47.024H152.208V55.088C152.208 55.688 152.352 56.12 152.64 56.384C152.928 56.648 153.408 56.78 154.08 56.78H156.276ZM162.801 39.824C161.721 39.824 160.833 39.512 160.137 38.888C159.465 38.24 159.129 37.448 159.129 36.512C159.129 35.552 159.465 34.76 160.137 34.136C160.833 33.488 161.721 33.164 162.801 33.164C163.857 33.164 164.721 33.488 165.393 34.136C166.089 34.76 166.437 35.552 166.437 36.512C166.437 37.448 166.089 38.24 165.393 38.888C164.721 39.512 163.857 39.824 162.801 39.824ZM165.861 41.912V62H159.705V41.912H165.861ZM180.402 47.024H177.09V62H170.934V47.024H168.702V41.912H170.934V41.336C170.934 38.864 171.642 36.992 173.058 35.72C174.474 34.424 176.55 33.776 179.286 33.776C179.742 33.776 180.078 33.788 180.294 33.812V39.032C179.118 38.96 178.29 39.128 177.81 39.536C177.33 39.944 177.09 40.676 177.09 41.732V41.912H180.402V47.024ZM203.815 41.912L191.215 71.54H184.591L189.199 61.316L181.026 41.912H187.903L192.547 54.476L197.155 41.912H203.815Z" fill="url(#paint0_linear_401_818)"/>
<g filter="url(#filter0_d_401_818)">
<rect x="20" y="16" width="65" height="65" rx="20" fill="#F8DCFD"/>
<circle cx="52.5" cy="48.5" r="22.5" fill="url(#paint1_linear_401_818)"/>
<path d="M61.4213 39.388C61.0688 39.1915 60.681 39.0665 60.2803 39.0202C59.8795 38.9739 59.4735 39.0073 59.0856 39.1183C58.6977 39.2293 58.3355 39.4158 58.0196 39.6672C57.7037 39.9186 57.4403 40.2299 57.2446 40.5833L51.5431 50.8623L48.2801 47.5934C47.9968 47.2995 47.6579 47.0651 47.2832 46.9039C46.9085 46.7427 46.5056 46.6578 46.0978 46.6542C45.69 46.6507 45.2856 46.7285 44.9082 46.8832C44.5307 47.0379 44.1879 47.2664 43.8995 47.5552C43.6111 47.8441 43.3831 48.1876 43.2287 48.5657C43.0743 48.9438 42.9966 49.349 43.0001 49.7575C43.0037 50.166 43.0884 50.5697 43.2493 50.9451C43.4103 51.3204 43.6442 51.6599 43.9376 51.9437L50.0798 58.097C50.6602 58.68 51.4433 59 52.251 59L52.6764 58.9692C53.1471 58.9033 53.5961 58.7287 53.9881 58.4594C54.38 58.1901 54.7042 57.8333 54.9352 57.4171L62.6129 43.5722C62.8089 43.2191 62.9336 42.8308 62.9798 42.4294C63.026 42.028 62.9928 41.6214 62.8822 41.2329C62.7715 40.8443 62.5856 40.4814 62.3349 40.1649C62.0842 39.8483 61.7738 39.5843 61.4213 39.388Z" fill="white"/>
</g>
<defs>
<filter id="filter0_d_401_818" x="0" y="0" width="105" height="105" filterUnits="userSpaceOnUse" color-interpolation-filters="sRGB">
<feFlood flood-opacity="0" result="BackgroundImageFix"/>
<feColorMatrix in="SourceAlpha" type="matrix" values="0 0 0 0 0 0 0 0 0 0 0 0 0 0 0 0 0 0 127 0" result="hardAlpha"/>
<feOffset dy="4"/>
<feGaussianBlur stdDeviation="10"/>
<feComposite in2="hardAlpha" operator="out"/>
<feColorMatrix type="matrix" values="0 0 0 0 0.67451 0 0 0 0 0.243137 0 0 0 0 1 0 0 0 1 0"/>
<feBlend mode="normal" in2="BackgroundImageFix" result="effect1_dropShadow_401_818"/>
<feBlend mode="normal" in="SourceGraphic" in2="effect1_dropShadow_401_818" result="shape"/>
</filter>
<linearGradient id="paint0_linear_401_818" x1="97.8093" y1="38.3125" x2="194.273" y2="61.6993" gradientUnits="userSpaceOnUse">
<stop stop-color="#A873FF"/>
<stop offset="1" stop-color="#6E15FF"/>
</linearGradient>
<linearGradient id="paint1_linear_401_818" x1="42.7612" y1="28.3507" x2="65.2612" y2="68.3134" gradientUnits="userSpaceOnUse">
<stop stop-color="#8A42FF"/>
<stop offset="0.485" stop-color="#D458FF"/>
<stop offset="1" stop-color="#6E15FF"/>
</linearGradient>
</defs>
</svg>
