<svg width="109" height="27" viewBox="0 0 109 27" fill="none" xmlns="http://www.w3.org/2000/svg">
<path d="M12.2904 0.587103L0.619335 12.0322C-0.206445 12.842 -0.206445 14.1377 0.619335 14.9475L12.2904 26.3927C13.1161 27.2024 14.4374 27.2024 15.2632 26.3927L26.9342 14.9475C27.76 14.1377 27.76 12.842 26.9342 12.0322L15.2632 0.587103C14.4374 -0.195701 13.1161 -0.195701 12.2904 0.587103Z" fill="#474198"/>
<path d="M1.06084 9.8991L7.3643 24.8264C7.80471 25.8791 9.04338 26.392 10.1169 25.9331L25.3388 19.7516C26.4123 19.3197 26.9353 18.105 26.4674 17.0523L20.1914 2.12504C19.751 1.0723 18.5123 0.559432 17.4388 1.01832L2.18941 7.19977C1.11589 7.63166 0.620423 8.84636 1.06084 9.8991Z" fill="#8D8DFF"/>
<path d="M3.42773 5.41926V21.5882C3.42773 22.7219 4.36362 23.6397 5.51971 23.6397H22.0078C23.1639 23.6397 24.0998 22.7219 24.0998 21.5882V5.41926C24.0998 4.28554 23.1639 3.36777 22.0078 3.36777H5.54724C4.36362 3.34077 3.42773 4.25855 3.42773 5.41926Z" fill="#6356E5"/>
<path d="M19.9697 10.2232L18.7035 8.98156C18.5108 8.79261 18.208 8.79261 18.0153 8.98156L11.822 15.055L9.50981 12.7876C9.31713 12.5987 9.01434 12.5987 8.82166 12.7876L7.58299 14.0293C7.39031 14.2182 7.39031 14.5152 7.58299 14.7041L10.2255 17.2955L11.4917 18.5372C11.6844 18.7261 11.9871 18.7261 12.1798 18.5372L19.9697 10.8981C20.1624 10.7091 20.1624 10.4122 19.9697 10.2232Z" fill="white"/>
<path d="M38.6197 19V11.398H35.6097V9.2H44.3877V11.398H41.3917V19H38.6197ZM48.3368 19.126C47.5061 19.126 46.7688 18.958 46.1248 18.622C45.4808 18.286 44.9721 17.824 44.5988 17.236C44.2348 16.6387 44.0528 15.9573 44.0528 15.192C44.0528 14.4267 44.2348 13.75 44.5988 13.162C44.9721 12.574 45.4808 12.1167 46.1248 11.79C46.7688 11.454 47.5061 11.286 48.3368 11.286C49.1675 11.286 49.9048 11.454 50.5488 11.79C51.2021 12.1167 51.7108 12.574 52.0748 13.162C52.4388 13.75 52.6208 14.4267 52.6208 15.192C52.6208 15.9573 52.4388 16.6387 52.0748 17.236C51.7108 17.824 51.2021 18.286 50.5488 18.622C49.9048 18.958 49.1675 19.126 48.3368 19.126ZM48.3368 17.012C48.6448 17.012 48.9155 16.942 49.1488 16.802C49.3915 16.662 49.5828 16.4567 49.7228 16.186C49.8628 15.906 49.9328 15.5747 49.9328 15.192C49.9328 14.8093 49.8628 14.4873 49.7228 14.226C49.5828 13.9553 49.3915 13.75 49.1488 13.61C48.9155 13.47 48.6448 13.4 48.3368 13.4C48.0381 13.4 47.7675 13.47 47.5248 13.61C47.2915 13.75 47.1001 13.9553 46.9508 14.226C46.8108 14.4873 46.7408 14.8093 46.7408 15.192C46.7408 15.5747 46.8108 15.906 46.9508 16.186C47.1001 16.4567 47.2915 16.662 47.5248 16.802C47.7675 16.942 48.0381 17.012 48.3368 17.012ZM53.8077 16.032V13.988H57.8957V16.032H53.8077ZM62.8582 19.126C62.1675 19.126 61.5375 18.9673 60.9682 18.65C60.4082 18.3233 59.9602 17.8707 59.6242 17.292C59.2882 16.704 59.1202 16.004 59.1202 15.192C59.1202 14.3893 59.2882 13.6987 59.6242 13.12C59.9602 12.532 60.4082 12.0793 60.9682 11.762C61.5375 11.4447 62.1675 11.286 62.8582 11.286C63.5115 11.286 64.0622 11.426 64.5102 11.706C64.9675 11.986 65.3129 12.4153 65.5462 12.994C65.7795 13.5727 65.8962 14.3053 65.8962 15.192C65.8962 16.0973 65.7842 16.8393 65.5602 17.418C65.3362 17.9967 65.0002 18.426 64.5522 18.706C64.1042 18.986 63.5395 19.126 62.8582 19.126ZM63.4182 17.012C63.7169 17.012 63.9829 16.942 64.2162 16.802C64.4589 16.662 64.6502 16.4567 64.7902 16.186C64.9302 15.906 65.0002 15.5747 65.0002 15.192C65.0002 14.8093 64.9302 14.4873 64.7902 14.226C64.6502 13.9553 64.4589 13.75 64.2162 13.61C63.9829 13.47 63.7169 13.4 63.4182 13.4C63.1102 13.4 62.8349 13.47 62.5922 13.61C62.3589 13.75 62.1722 13.9553 62.0322 14.226C61.8922 14.4873 61.8222 14.8093 61.8222 15.192C61.8222 15.5747 61.8922 15.906 62.0322 16.186C62.1722 16.4567 62.3589 16.662 62.5922 16.802C62.8349 16.942 63.1102 17.012 63.4182 17.012ZM65.0842 19V17.698L65.0982 15.192L64.9582 12.686V8.612H67.6182V19H65.0842ZM73.1376 19.126C72.3069 19.126 71.5696 18.958 70.9256 18.622C70.2816 18.286 69.7729 17.824 69.3996 17.236C69.0356 16.6387 68.8536 15.9573 68.8536 15.192C68.8536 14.4267 69.0356 13.75 69.3996 13.162C69.7729 12.574 70.2816 12.1167 70.9256 11.79C71.5696 11.454 72.3069 11.286 73.1376 11.286C73.9683 11.286 74.7056 11.454 75.3496 11.79C76.0029 12.1167 76.5116 12.574 76.8756 13.162C77.2396 13.75 77.4216 14.4267 77.4216 15.192C77.4216 15.9573 77.2396 16.6387 76.8756 17.236C76.5116 17.824 76.0029 18.286 75.3496 18.622C74.7056 18.958 73.9683 19.126 73.1376 19.126ZM73.1376 17.012C73.4456 17.012 73.7163 16.942 73.9496 16.802C74.1923 16.662 74.3836 16.4567 74.5236 16.186C74.6636 15.906 74.7336 15.5747 74.7336 15.192C74.7336 14.8093 74.6636 14.4873 74.5236 14.226C74.3836 13.9553 74.1923 13.75 73.9496 13.61C73.7163 13.47 73.4456 13.4 73.1376 13.4C72.8389 13.4 72.5683 13.47 72.3256 13.61C72.0923 13.75 71.9009 13.9553 71.7516 14.226C71.6116 14.4873 71.5416 14.8093 71.5416 15.192C71.5416 15.5747 71.6116 15.906 71.7516 16.186C71.9009 16.4567 72.0923 16.662 72.3256 16.802C72.5683 16.942 72.8389 17.012 73.1376 17.012ZM77.262 19L81.588 9.2H84.318L88.658 19H85.774L82.386 10.558H83.478L80.09 19H77.262ZM79.628 17.096L80.342 15.052H85.13L85.844 17.096H79.628ZM94.0919 19.126C93.4479 19.126 92.8972 18.986 92.4399 18.706C91.9825 18.4167 91.6325 17.9873 91.3899 17.418C91.1565 16.8393 91.0399 16.102 91.0399 15.206C91.0399 14.3007 91.1519 13.5633 91.3759 12.994C91.5999 12.4153 91.9359 11.986 92.3839 11.706C92.8412 11.426 93.4105 11.286 94.0919 11.286C94.7825 11.286 95.4079 11.4493 95.9679 11.776C96.5372 12.0933 96.9852 12.546 97.3119 13.134C97.6479 13.7127 97.8159 14.4033 97.8159 15.206C97.8159 16.0087 97.6479 16.704 97.3119 17.292C96.9852 17.88 96.5372 18.3327 95.9679 18.65C95.4079 18.9673 94.7825 19.126 94.0919 19.126ZM89.3179 21.716V11.412H91.8519V12.7L91.8379 15.206L91.9779 17.726V21.716H89.3179ZM93.5319 17.012C93.8305 17.012 94.0965 16.942 94.3299 16.802C94.5725 16.662 94.7639 16.4567 94.9039 16.186C95.0532 15.9153 95.1279 15.5887 95.1279 15.206C95.1279 14.8233 95.0532 14.4967 94.9039 14.226C94.7639 13.9553 94.5725 13.75 94.3299 13.61C94.0965 13.47 93.8305 13.4 93.5319 13.4C93.2332 13.4 92.9625 13.47 92.7199 13.61C92.4865 13.75 92.2952 13.9553 92.1459 14.226C92.0059 14.4967 91.9359 14.8233 91.9359 15.206C91.9359 15.5887 92.0059 15.9153 92.1459 16.186C92.2952 16.4567 92.4865 16.662 92.7199 16.802C92.9625 16.942 93.2332 17.012 93.5319 17.012ZM103.826 19.126C103.182 19.126 102.632 18.986 102.174 18.706C101.717 18.4167 101.367 17.9873 101.124 17.418C100.891 16.8393 100.774 16.102 100.774 15.206C100.774 14.3007 100.886 13.5633 101.11 12.994C101.334 12.4153 101.67 11.986 102.118 11.706C102.576 11.426 103.145 11.286 103.826 11.286C104.517 11.286 105.142 11.4493 105.702 11.776C106.272 12.0933 106.72 12.546 107.046 13.134C107.382 13.7127 107.55 14.4033 107.55 15.206C107.55 16.0087 107.382 16.704 107.046 17.292C106.72 17.88 106.272 18.3327 105.702 18.65C105.142 18.9673 104.517 19.126 103.826 19.126ZM99.0522 21.716V11.412H101.586V12.7L101.572 15.206L101.712 17.726V21.716H99.0522ZM103.266 17.012C103.565 17.012 103.831 16.942 104.064 16.802C104.307 16.662 104.498 16.4567 104.638 16.186C104.788 15.9153 104.862 15.5887 104.862 15.206C104.862 14.8233 104.788 14.4967 104.638 14.226C104.498 13.9553 104.307 13.75 104.064 13.61C103.831 13.47 103.565 13.4 103.266 13.4C102.968 13.4 102.697 13.47 102.454 13.61C102.221 13.75 102.03 13.9553 101.88 14.226C101.74 14.4967 101.67 14.8233 101.67 15.206C101.67 15.5887 101.74 15.9153 101.88 16.186C102.03 16.4567 102.221 16.662 102.454 16.802C102.697 16.942 102.968 17.012 103.266 17.012Z" fill="black"/>
</svg>
