<svg width="723" height="945" viewBox="0 0 723 945" fill="none" xmlns="http://www.w3.org/2000/svg">
<g filter="url(#filter0_d_332_813)">
<rect x="79.9609" y="165" width="395.922" height="395.922" rx="30" transform="rotate(30 79.9609 165)" fill="#8BF8FF"/>
</g>
<g filter="url(#filter1_d_332_813)">
<rect x="232" y="178" width="430" height="580" rx="10" fill="white"/>
<circle cx="579" cy="262" r="4" fill="black"/>
<circle cx="597" cy="262" r="4" fill="black"/>
<circle cx="615" cy="262" r="4" fill="black"/>
<path d="M292.623 259.184H288.734C288.663 258.681 288.518 258.234 288.299 257.843C288.08 257.446 287.799 257.109 287.456 256.831C287.112 256.553 286.716 256.34 286.266 256.192C285.822 256.044 285.34 255.97 284.819 255.97C283.878 255.97 283.058 256.204 282.36 256.671C281.661 257.133 281.12 257.808 280.735 258.695C280.35 259.577 280.158 260.648 280.158 261.909C280.158 263.205 280.35 264.294 280.735 265.176C281.126 266.058 281.67 266.724 282.369 267.174C283.067 267.623 283.875 267.848 284.792 267.848C285.307 267.848 285.784 267.78 286.222 267.644C286.665 267.508 287.059 267.31 287.402 267.049C287.746 266.783 288.03 266.46 288.255 266.082C288.485 265.703 288.645 265.271 288.734 264.786L292.623 264.803C292.522 265.638 292.27 266.443 291.868 267.218C291.471 267.987 290.936 268.677 290.261 269.287C289.592 269.89 288.793 270.37 287.864 270.725C286.941 271.074 285.896 271.249 284.73 271.249C283.108 271.249 281.658 270.882 280.38 270.148C279.107 269.414 278.101 268.351 277.362 266.961C276.628 265.57 276.261 263.886 276.261 261.909C276.261 259.926 276.634 258.24 277.379 256.849C278.125 255.458 279.137 254.398 280.415 253.67C281.694 252.937 283.132 252.57 284.73 252.57C285.784 252.57 286.76 252.718 287.66 253.013C288.565 253.309 289.367 253.741 290.066 254.31C290.764 254.872 291.332 255.561 291.77 256.378C292.214 257.195 292.498 258.13 292.623 259.184ZM295.379 271V252.818H299.223V260.32H307.027V252.818H310.862V271H307.027V263.489H299.223V271H295.379ZM314.031 271V252.818H326.283V255.988H317.876V260.32H325.653V263.489H317.876V267.831H326.318V271H314.031ZM345.381 259.184H341.493C341.422 258.681 341.277 258.234 341.058 257.843C340.839 257.446 340.558 257.109 340.214 256.831C339.871 256.553 339.475 256.34 339.025 256.192C338.581 256.044 338.099 255.97 337.578 255.97C336.637 255.97 335.817 256.204 335.119 256.671C334.42 257.133 333.879 257.808 333.494 258.695C333.109 259.577 332.917 260.648 332.917 261.909C332.917 263.205 333.109 264.294 333.494 265.176C333.884 266.058 334.429 266.724 335.127 267.174C335.826 267.623 336.634 267.848 337.551 267.848C338.066 267.848 338.542 267.78 338.98 267.644C339.424 267.508 339.818 267.31 340.161 267.049C340.504 266.783 340.789 266.46 341.013 266.082C341.244 265.703 341.404 265.271 341.493 264.786L345.381 264.803C345.281 265.638 345.029 266.443 344.627 267.218C344.23 267.987 343.695 268.677 343.02 269.287C342.351 269.89 341.552 270.37 340.623 270.725C339.699 271.074 338.655 271.249 337.489 271.249C335.867 271.249 334.417 270.882 333.139 270.148C331.866 269.414 330.86 268.351 330.12 266.961C329.386 265.57 329.019 263.886 329.019 261.909C329.019 259.926 329.392 258.24 330.138 256.849C330.884 255.458 331.896 254.398 333.174 253.67C334.453 252.937 335.891 252.57 337.489 252.57C338.542 252.57 339.519 252.718 340.419 253.013C341.324 253.309 342.126 253.741 342.824 254.31C343.523 254.872 344.091 255.561 344.529 256.378C344.973 257.195 345.257 258.13 345.381 259.184ZM348.138 271V252.818H351.982V260.835H352.222L358.765 252.818H363.372L356.625 260.959L363.452 271H358.853L353.873 263.525L351.982 265.833V271H348.138ZM365.374 271V252.818H369.218V267.831H377.013V271H365.374ZM383.403 252.818V271H379.559V252.818H383.403ZM396.429 258.047C396.358 257.331 396.053 256.775 395.514 256.378C394.976 255.982 394.245 255.783 393.322 255.783C392.694 255.783 392.165 255.872 391.733 256.05C391.3 256.221 390.969 256.461 390.738 256.769C390.513 257.077 390.401 257.426 390.401 257.816C390.389 258.142 390.457 258.426 390.605 258.669C390.759 258.911 390.969 259.121 391.235 259.299C391.502 259.471 391.809 259.622 392.159 259.752C392.508 259.876 392.881 259.983 393.277 260.071L394.911 260.462C395.704 260.64 396.432 260.876 397.095 261.172C397.758 261.468 398.332 261.832 398.817 262.264C399.302 262.696 399.678 263.205 399.945 263.791C400.217 264.377 400.356 265.049 400.362 265.806C400.356 266.919 400.072 267.884 399.509 268.701C398.953 269.511 398.148 270.142 397.095 270.592C396.047 271.036 394.784 271.257 393.304 271.257C391.836 271.257 390.558 271.033 389.469 270.583C388.386 270.133 387.539 269.467 386.93 268.585C386.326 267.697 386.009 266.6 385.98 265.292H389.699C389.741 265.901 389.916 266.41 390.223 266.819C390.537 267.221 390.954 267.526 391.475 267.733C392.002 267.934 392.597 268.035 393.259 268.035C393.911 268.035 394.476 267.94 394.955 267.751C395.44 267.561 395.816 267.298 396.083 266.961C396.349 266.623 396.482 266.236 396.482 265.798C396.482 265.389 396.361 265.046 396.118 264.768C395.881 264.49 395.532 264.253 395.071 264.058C394.615 263.862 394.056 263.685 393.393 263.525L391.413 263.028C389.88 262.655 388.67 262.072 387.782 261.279C386.894 260.486 386.453 259.417 386.459 258.074C386.453 256.973 386.746 256.011 387.338 255.189C387.936 254.366 388.755 253.724 389.797 253.262C390.839 252.8 392.023 252.57 393.348 252.57C394.698 252.57 395.876 252.8 396.882 253.262C397.894 253.724 398.681 254.366 399.243 255.189C399.805 256.011 400.095 256.964 400.113 258.047H396.429ZM402.255 255.988V252.818H417.188V255.988H411.621V271H407.821V255.988H402.255ZM433.236 252.818V271H429.392V256.467H429.286L425.122 259.077V255.668L429.623 252.818H433.236ZM445.512 251.966L439.653 273.734H436.395L442.254 251.966H445.512ZM454.019 271.249C452.694 271.249 451.513 271.021 450.477 270.565C449.447 270.103 448.634 269.47 448.036 268.665C447.444 267.854 447.139 266.919 447.121 265.86H450.992C451.016 266.304 451.161 266.694 451.427 267.032C451.699 267.363 452.06 267.621 452.51 267.804C452.96 267.987 453.466 268.079 454.028 268.079C454.614 268.079 455.132 267.976 455.582 267.768C456.032 267.561 456.384 267.274 456.638 266.907C456.893 266.54 457.02 266.117 457.02 265.638C457.02 265.152 456.884 264.723 456.612 264.35C456.345 263.972 455.961 263.676 455.458 263.463C454.96 263.25 454.369 263.143 453.682 263.143H451.986V260.32H453.682C454.262 260.32 454.774 260.219 455.218 260.018C455.668 259.817 456.017 259.539 456.266 259.184C456.514 258.823 456.638 258.402 456.638 257.923C456.638 257.467 456.529 257.068 456.31 256.724C456.097 256.375 455.795 256.103 455.404 255.908C455.02 255.712 454.57 255.615 454.055 255.615C453.534 255.615 453.058 255.709 452.626 255.899C452.194 256.082 451.847 256.346 451.587 256.689C451.326 257.032 451.187 257.435 451.17 257.896H447.485C447.503 256.849 447.802 255.925 448.382 255.126C448.962 254.327 449.743 253.703 450.726 253.253C451.714 252.797 452.83 252.57 454.073 252.57C455.327 252.57 456.425 252.797 457.366 253.253C458.307 253.709 459.038 254.324 459.559 255.1C460.086 255.869 460.346 256.733 460.34 257.692C460.346 258.71 460.03 259.559 459.391 260.24C458.757 260.921 457.932 261.353 456.914 261.536V261.678C458.251 261.85 459.269 262.315 459.968 263.072C460.672 263.824 461.021 264.765 461.015 265.895C461.021 266.931 460.722 267.851 460.119 268.656C459.521 269.461 458.695 270.094 457.642 270.556C456.588 271.018 455.381 271.249 454.019 271.249Z" fill="#929292"/>
<g filter="url(#filter2_d_332_813)">
<circle cx="292.5" cy="309.5" r="12.5" fill="white"/>
<circle cx="292.5" cy="309.5" r="12.25" stroke="#E4E3E3" stroke-width="0.5"/>
</g>
<path d="M316.758 318V302H319.172V308.953H327.148V302H329.57V318H327.148V311.023H319.172V318H316.758ZM337.953 318.242C336.828 318.242 335.846 317.984 335.008 317.469C334.169 316.953 333.518 316.232 333.055 315.305C332.591 314.378 332.359 313.294 332.359 312.055C332.359 310.81 332.591 309.721 333.055 308.789C333.518 307.857 334.169 307.133 335.008 306.617C335.846 306.102 336.828 305.844 337.953 305.844C339.078 305.844 340.06 306.102 340.898 306.617C341.737 307.133 342.388 307.857 342.852 308.789C343.315 309.721 343.547 310.81 343.547 312.055C343.547 313.294 343.315 314.378 342.852 315.305C342.388 316.232 341.737 316.953 340.898 317.469C340.06 317.984 339.078 318.242 337.953 318.242ZM337.961 316.281C338.69 316.281 339.294 316.089 339.773 315.703C340.253 315.318 340.607 314.805 340.836 314.164C341.07 313.523 341.188 312.818 341.188 312.047C341.188 311.281 341.07 310.578 340.836 309.937C340.607 309.292 340.253 308.773 339.773 308.383C339.294 307.992 338.69 307.797 337.961 307.797C337.227 307.797 336.617 307.992 336.133 308.383C335.654 308.773 335.297 309.292 335.063 309.937C334.833 310.578 334.719 311.281 334.719 312.047C334.719 312.818 334.833 313.523 335.063 314.164C335.297 314.805 335.654 315.318 336.133 315.703C336.617 316.089 337.227 316.281 337.961 316.281ZM346.154 318V306H348.396V307.953H348.545C348.795 307.292 349.204 306.776 349.771 306.406C350.339 306.031 351.019 305.844 351.811 305.844C352.613 305.844 353.285 306.031 353.826 306.406C354.373 306.781 354.777 307.297 355.037 307.953H355.162C355.449 307.312 355.904 306.802 356.529 306.422C357.154 306.036 357.899 305.844 358.764 305.844C359.852 305.844 360.74 306.185 361.428 306.867C362.12 307.549 362.467 308.578 362.467 309.953V318H360.131V310.172C360.131 309.359 359.91 308.771 359.467 308.406C359.024 308.042 358.495 307.859 357.881 307.859C357.12 307.859 356.529 308.094 356.107 308.562C355.686 309.026 355.475 309.622 355.475 310.352V318H353.146V310.023C353.146 309.372 352.943 308.849 352.537 308.453C352.131 308.057 351.602 307.859 350.951 307.859C350.508 307.859 350.1 307.977 349.725 308.211C349.355 308.44 349.055 308.76 348.826 309.172C348.602 309.583 348.49 310.06 348.49 310.602V318H346.154ZM370.77 318.242C369.587 318.242 368.569 317.99 367.715 317.484C366.866 316.974 366.21 316.258 365.746 315.336C365.288 314.409 365.059 313.323 365.059 312.078C365.059 310.849 365.288 309.766 365.746 308.828C366.21 307.891 366.855 307.159 367.684 306.633C368.517 306.107 369.491 305.844 370.605 305.844C371.283 305.844 371.939 305.956 372.574 306.18C373.21 306.404 373.78 306.755 374.285 307.234C374.79 307.714 375.189 308.336 375.48 309.102C375.772 309.862 375.918 310.786 375.918 311.875V312.703H366.379V310.953H373.629C373.629 310.339 373.504 309.794 373.254 309.32C373.004 308.841 372.652 308.464 372.199 308.187C371.751 307.911 371.225 307.773 370.621 307.773C369.965 307.773 369.392 307.935 368.902 308.258C368.418 308.576 368.043 308.992 367.777 309.508C367.517 310.018 367.387 310.573 367.387 311.172V312.539C367.387 313.341 367.527 314.023 367.809 314.586C368.095 315.148 368.493 315.578 369.004 315.875C369.514 316.167 370.111 316.312 370.793 316.312C371.236 316.312 371.639 316.25 372.004 316.125C372.368 315.995 372.684 315.802 372.949 315.547C373.215 315.292 373.418 314.977 373.559 314.602L375.77 315C375.592 315.651 375.275 316.221 374.816 316.711C374.363 317.195 373.793 317.573 373.105 317.844C372.423 318.109 371.645 318.242 370.77 318.242ZM381.09 318L377.559 306H379.973L382.324 314.812H382.441L384.801 306H387.215L389.559 314.773H389.676L392.012 306H394.426L390.902 318H388.52L386.082 309.336H385.902L383.465 318H381.09ZM401.332 318.242C400.207 318.242 399.225 317.984 398.387 317.469C397.548 316.953 396.897 316.232 396.434 315.305C395.97 314.378 395.738 313.294 395.738 312.055C395.738 310.81 395.97 309.721 396.434 308.789C396.897 307.857 397.548 307.133 398.387 306.617C399.225 306.102 400.207 305.844 401.332 305.844C402.457 305.844 403.439 306.102 404.277 306.617C405.116 307.133 405.767 307.857 406.23 308.789C406.694 309.721 406.926 310.81 406.926 312.055C406.926 313.294 406.694 314.378 406.23 315.305C405.767 316.232 405.116 316.953 404.277 317.469C403.439 317.984 402.457 318.242 401.332 318.242ZM401.34 316.281C402.069 316.281 402.673 316.089 403.152 315.703C403.632 315.318 403.986 314.805 404.215 314.164C404.449 313.523 404.566 312.818 404.566 312.047C404.566 311.281 404.449 310.578 404.215 309.937C403.986 309.292 403.632 308.773 403.152 308.383C402.673 307.992 402.069 307.797 401.34 307.797C400.605 307.797 399.996 307.992 399.512 308.383C399.033 308.773 398.676 309.292 398.441 309.937C398.212 310.578 398.098 311.281 398.098 312.047C398.098 312.818 398.212 313.523 398.441 314.164C398.676 314.805 399.033 315.318 399.512 315.703C399.996 316.089 400.605 316.281 401.34 316.281ZM409.533 318V306H411.791V307.906H411.916C412.135 307.26 412.52 306.753 413.072 306.383C413.63 306.008 414.26 305.82 414.963 305.82C415.109 305.82 415.281 305.826 415.479 305.836C415.682 305.846 415.84 305.859 415.955 305.875V308.109C415.861 308.083 415.695 308.055 415.455 308.023C415.215 307.987 414.976 307.969 414.736 307.969C414.184 307.969 413.692 308.086 413.26 308.32C412.833 308.549 412.494 308.87 412.244 309.281C411.994 309.687 411.869 310.151 411.869 310.672V318H409.533ZM420.125 313.93L420.109 311.078H420.516L425.297 306H428.094L422.641 311.781H422.273L420.125 313.93ZM417.977 318V302H420.313V318H417.977ZM425.555 318L421.258 312.297L422.867 310.664L428.422 318H425.555ZM437.584 318H435.021L440.779 302H443.568L449.326 318H446.764L442.24 304.906H442.115L437.584 318ZM438.014 311.734H446.326V313.766H438.014V311.734ZM460.355 308.93L458.238 309.305C458.15 309.034 458.009 308.776 457.816 308.531C457.629 308.286 457.374 308.086 457.051 307.93C456.728 307.773 456.324 307.695 455.84 307.695C455.178 307.695 454.626 307.844 454.184 308.141C453.741 308.432 453.52 308.81 453.52 309.273C453.52 309.674 453.668 309.997 453.965 310.242C454.262 310.487 454.741 310.687 455.402 310.844L457.309 311.281C458.413 311.536 459.236 311.93 459.777 312.461C460.319 312.992 460.59 313.682 460.59 314.531C460.59 315.25 460.382 315.891 459.965 316.453C459.553 317.01 458.978 317.448 458.238 317.766C457.504 318.083 456.652 318.242 455.684 318.242C454.34 318.242 453.243 317.956 452.395 317.383C451.546 316.805 451.025 315.984 450.832 314.922L453.09 314.578C453.23 315.167 453.52 315.612 453.957 315.914C454.395 316.211 454.965 316.359 455.668 316.359C456.434 316.359 457.046 316.201 457.504 315.883C457.962 315.56 458.191 315.167 458.191 314.703C458.191 314.328 458.051 314.013 457.77 313.758C457.493 313.503 457.069 313.31 456.496 313.18L454.465 312.734C453.345 312.479 452.517 312.073 451.98 311.516C451.449 310.958 451.184 310.253 451.184 309.398C451.184 308.69 451.382 308.07 451.777 307.539C452.173 307.008 452.72 306.594 453.418 306.297C454.116 305.995 454.915 305.844 455.816 305.844C457.113 305.844 458.134 306.125 458.879 306.687C459.624 307.245 460.116 307.992 460.355 308.93ZM472.15 308.93L470.033 309.305C469.945 309.034 469.804 308.776 469.611 308.531C469.424 308.286 469.169 308.086 468.846 307.93C468.523 307.773 468.119 307.695 467.635 307.695C466.973 307.695 466.421 307.844 465.979 308.141C465.536 308.432 465.314 308.81 465.314 309.273C465.314 309.674 465.463 309.997 465.76 310.242C466.057 310.487 466.536 310.687 467.197 310.844L469.104 311.281C470.208 311.536 471.031 311.93 471.572 312.461C472.114 312.992 472.385 313.682 472.385 314.531C472.385 315.25 472.176 315.891 471.76 316.453C471.348 317.01 470.773 317.448 470.033 317.766C469.299 318.083 468.447 318.242 467.479 318.242C466.135 318.242 465.038 317.956 464.189 317.383C463.34 316.805 462.82 315.984 462.627 314.922L464.885 314.578C465.025 315.167 465.314 315.612 465.752 315.914C466.189 316.211 466.76 316.359 467.463 316.359C468.229 316.359 468.84 316.201 469.299 315.883C469.757 315.56 469.986 315.167 469.986 314.703C469.986 314.328 469.846 314.013 469.564 313.758C469.288 313.503 468.864 313.31 468.291 313.18L466.26 312.734C465.14 312.479 464.312 312.073 463.775 311.516C463.244 310.958 462.979 310.253 462.979 309.398C462.979 308.69 463.176 308.07 463.572 307.539C463.968 307.008 464.515 306.594 465.213 306.297C465.911 305.995 466.71 305.844 467.611 305.844C468.908 305.844 469.929 306.125 470.674 306.687C471.419 307.245 471.911 307.992 472.15 308.93ZM474.953 318V306H477.289V318H474.953ZM476.133 304.148C475.727 304.148 475.378 304.013 475.086 303.742C474.799 303.466 474.656 303.138 474.656 302.758C474.656 302.372 474.799 302.044 475.086 301.773C475.378 301.497 475.727 301.359 476.133 301.359C476.539 301.359 476.885 301.497 477.172 301.773C477.464 302.044 477.609 302.372 477.609 302.758C477.609 303.138 477.464 303.466 477.172 303.742C476.885 304.013 476.539 304.148 476.133 304.148ZM485.463 322.75C484.51 322.75 483.689 322.625 483.002 322.375C482.32 322.125 481.762 321.794 481.33 321.383C480.898 320.971 480.575 320.521 480.361 320.031L482.369 319.203C482.51 319.432 482.697 319.674 482.932 319.93C483.171 320.19 483.494 320.411 483.9 320.594C484.312 320.776 484.84 320.867 485.486 320.867C486.372 320.867 487.104 320.651 487.682 320.219C488.26 319.792 488.549 319.109 488.549 318.172V315.812H488.4C488.26 316.068 488.057 316.352 487.791 316.664C487.531 316.977 487.171 317.247 486.713 317.477C486.255 317.706 485.658 317.82 484.924 317.82C483.976 317.82 483.122 317.599 482.361 317.156C481.606 316.708 481.007 316.049 480.564 315.18C480.127 314.305 479.908 313.229 479.908 311.953C479.908 310.677 480.124 309.583 480.557 308.672C480.994 307.76 481.593 307.062 482.354 306.578C483.114 306.089 483.976 305.844 484.939 305.844C485.684 305.844 486.286 305.969 486.744 306.219C487.202 306.464 487.559 306.75 487.814 307.078C488.075 307.406 488.275 307.695 488.416 307.945H488.588V306H490.877V318.266C490.877 319.297 490.637 320.143 490.158 320.805C489.679 321.466 489.031 321.956 488.213 322.273C487.4 322.591 486.484 322.75 485.463 322.75ZM485.439 315.883C486.111 315.883 486.679 315.727 487.143 315.414C487.611 315.096 487.965 314.643 488.205 314.055C488.45 313.461 488.572 312.75 488.572 311.922C488.572 311.115 488.452 310.404 488.213 309.789C487.973 309.174 487.622 308.695 487.158 308.352C486.695 308.003 486.122 307.828 485.439 307.828C484.736 307.828 484.15 308.01 483.682 308.375C483.213 308.734 482.859 309.224 482.619 309.844C482.385 310.464 482.268 311.156 482.268 311.922C482.268 312.708 482.387 313.398 482.627 313.992C482.867 314.586 483.221 315.049 483.689 315.383C484.163 315.716 484.747 315.883 485.439 315.883ZM496.346 310.875V318H494.01V306H496.252V307.953H496.4C496.676 307.318 497.109 306.807 497.697 306.422C498.291 306.036 499.038 305.844 499.939 305.844C500.757 305.844 501.473 306.016 502.088 306.359C502.702 306.698 503.179 307.203 503.518 307.875C503.856 308.547 504.025 309.378 504.025 310.367V318H501.689V310.648C501.689 309.779 501.463 309.099 501.01 308.609C500.557 308.115 499.934 307.867 499.143 307.867C498.601 307.867 498.119 307.984 497.697 308.219C497.281 308.453 496.95 308.797 496.705 309.25C496.465 309.698 496.346 310.24 496.346 310.875ZM507.158 318V306H509.4V307.953H509.549C509.799 307.292 510.208 306.776 510.775 306.406C511.343 306.031 512.023 305.844 512.814 305.844C513.617 305.844 514.288 306.031 514.83 306.406C515.377 306.781 515.781 307.297 516.041 307.953H516.166C516.452 307.312 516.908 306.802 517.533 306.422C518.158 306.036 518.903 305.844 519.768 305.844C520.856 305.844 521.744 306.185 522.432 306.867C523.124 307.549 523.471 308.578 523.471 309.953V318H521.135V310.172C521.135 309.359 520.913 308.771 520.471 308.406C520.028 308.042 519.499 307.859 518.885 307.859C518.124 307.859 517.533 308.094 517.111 308.562C516.689 309.026 516.479 309.622 516.479 310.352V318H514.15V310.023C514.15 309.372 513.947 308.849 513.541 308.453C513.135 308.057 512.606 307.859 511.955 307.859C511.512 307.859 511.104 307.977 510.729 308.211C510.359 308.44 510.059 308.76 509.83 309.172C509.606 309.583 509.494 310.06 509.494 310.602V318H507.158ZM531.773 318.242C530.591 318.242 529.573 317.99 528.719 317.484C527.87 316.974 527.214 316.258 526.75 315.336C526.292 314.409 526.062 313.323 526.062 312.078C526.062 310.849 526.292 309.766 526.75 308.828C527.214 307.891 527.859 307.159 528.688 306.633C529.521 306.107 530.495 305.844 531.609 305.844C532.286 305.844 532.943 305.956 533.578 306.18C534.214 306.404 534.784 306.755 535.289 307.234C535.794 307.714 536.193 308.336 536.484 309.102C536.776 309.862 536.922 310.786 536.922 311.875V312.703H527.383V310.953H534.633C534.633 310.339 534.508 309.794 534.258 309.32C534.008 308.841 533.656 308.464 533.203 308.187C532.755 307.911 532.229 307.773 531.625 307.773C530.969 307.773 530.396 307.935 529.906 308.258C529.422 308.576 529.047 308.992 528.781 309.508C528.521 310.018 528.391 310.573 528.391 311.172V312.539C528.391 313.341 528.531 314.023 528.812 314.586C529.099 315.148 529.497 315.578 530.008 315.875C530.518 316.167 531.115 316.312 531.797 316.312C532.24 316.312 532.643 316.25 533.008 316.125C533.372 315.995 533.688 315.802 533.953 315.547C534.219 315.292 534.422 314.977 534.563 314.602L536.773 315C536.596 315.651 536.279 316.221 535.82 316.711C535.367 317.195 534.797 317.573 534.109 317.844C533.427 318.109 532.648 318.242 531.773 318.242ZM541.85 310.875V318H539.514V306H541.756V307.953H541.904C542.18 307.318 542.613 306.807 543.201 306.422C543.795 306.036 544.542 305.844 545.443 305.844C546.261 305.844 546.977 306.016 547.592 306.359C548.206 306.698 548.683 307.203 549.021 307.875C549.36 308.547 549.529 309.378 549.529 310.367V318H547.193V310.648C547.193 309.779 546.967 309.099 546.514 308.609C546.061 308.115 545.438 307.867 544.646 307.867C544.105 307.867 543.623 307.984 543.201 308.219C542.785 308.453 542.454 308.797 542.209 309.25C541.969 309.698 541.85 310.24 541.85 310.875ZM558.264 306V307.875H551.709V306H558.264ZM553.467 303.125H555.803V314.477C555.803 314.93 555.87 315.271 556.006 315.5C556.141 315.724 556.316 315.878 556.529 315.961C556.748 316.039 556.985 316.078 557.24 316.078C557.428 316.078 557.592 316.065 557.732 316.039C557.873 316.013 557.982 315.992 558.061 315.977L558.482 317.906C558.347 317.958 558.154 318.01 557.904 318.063C557.654 318.12 557.342 318.151 556.967 318.156C556.352 318.167 555.779 318.057 555.248 317.828C554.717 317.599 554.287 317.245 553.959 316.766C553.631 316.286 553.467 315.685 553.467 314.961V303.125Z" fill="#5C5C5C"/>
<path d="M353.938 358V342H359.344C360.594 342 361.62 342.214 362.422 342.641C363.224 343.062 363.818 343.643 364.203 344.383C364.589 345.122 364.781 345.964 364.781 346.906C364.781 347.849 364.589 348.685 364.203 349.414C363.818 350.143 363.227 350.716 362.43 351.133C361.633 351.544 360.615 351.75 359.375 351.75H355V350H359.313C360.167 350 360.854 349.875 361.375 349.625C361.901 349.375 362.281 349.021 362.516 348.562C362.755 348.099 362.875 347.547 362.875 346.906C362.875 346.266 362.755 345.706 362.516 345.227C362.276 344.747 361.893 344.378 361.367 344.117C360.841 343.852 360.146 343.719 359.281 343.719H355.875V358H353.938ZM361.469 350.812L365.406 358H363.156L359.281 350.812H361.469ZM372.662 358.25C371.506 358.25 370.508 357.995 369.67 357.484C368.837 356.969 368.193 356.25 367.74 355.328C367.292 354.401 367.068 353.323 367.068 352.094C367.068 350.865 367.292 349.781 367.74 348.844C368.193 347.901 368.824 347.167 369.631 346.641C370.443 346.109 371.391 345.844 372.475 345.844C373.1 345.844 373.717 345.948 374.326 346.156C374.936 346.365 375.49 346.703 375.99 347.172C376.49 347.635 376.889 348.25 377.186 349.016C377.482 349.781 377.631 350.724 377.631 351.844V352.625H368.381V351.031H375.756C375.756 350.354 375.62 349.75 375.35 349.219C375.084 348.687 374.704 348.268 374.209 347.961C373.719 347.654 373.141 347.5 372.475 347.5C371.74 347.5 371.105 347.682 370.568 348.047C370.037 348.406 369.628 348.875 369.342 349.453C369.055 350.031 368.912 350.651 368.912 351.312V352.375C368.912 353.281 369.068 354.049 369.381 354.68C369.699 355.305 370.139 355.781 370.701 356.109C371.264 356.432 371.917 356.594 372.662 356.594C373.146 356.594 373.584 356.526 373.975 356.391C374.37 356.25 374.712 356.042 374.998 355.766C375.285 355.484 375.506 355.135 375.662 354.719L377.443 355.219C377.256 355.823 376.941 356.354 376.498 356.812C376.055 357.266 375.508 357.62 374.857 357.875C374.206 358.125 373.475 358.25 372.662 358.25ZM388.936 348.687L387.279 349.156C387.175 348.88 387.021 348.612 386.818 348.352C386.62 348.086 386.35 347.867 386.006 347.695C385.662 347.523 385.222 347.437 384.686 347.437C383.951 347.437 383.339 347.607 382.85 347.945C382.365 348.279 382.123 348.703 382.123 349.219C382.123 349.677 382.29 350.039 382.623 350.305C382.956 350.57 383.477 350.792 384.186 350.969L385.967 351.406C387.04 351.667 387.839 352.065 388.365 352.602C388.891 353.133 389.154 353.818 389.154 354.656C389.154 355.344 388.956 355.958 388.561 356.5C388.17 357.042 387.623 357.469 386.92 357.781C386.217 358.094 385.399 358.25 384.467 358.25C383.243 358.25 382.23 357.984 381.428 357.453C380.626 356.922 380.118 356.146 379.904 355.125L381.654 354.687C381.821 355.333 382.136 355.818 382.6 356.141C383.068 356.464 383.68 356.625 384.436 356.625C385.295 356.625 385.977 356.443 386.482 356.078C386.993 355.708 387.248 355.266 387.248 354.75C387.248 354.333 387.102 353.984 386.811 353.703C386.519 353.417 386.071 353.203 385.467 353.062L383.467 352.594C382.368 352.333 381.561 351.93 381.045 351.383C380.535 350.831 380.279 350.141 380.279 349.312C380.279 348.635 380.469 348.036 380.85 347.516C381.235 346.995 381.758 346.586 382.42 346.289C383.087 345.992 383.842 345.844 384.686 345.844C385.873 345.844 386.805 346.104 387.482 346.625C388.165 347.146 388.649 347.833 388.936 348.687ZM396.961 358.25C395.805 358.25 394.807 357.995 393.969 357.484C393.135 356.969 392.492 356.25 392.039 355.328C391.591 354.401 391.367 353.323 391.367 352.094C391.367 350.865 391.591 349.781 392.039 348.844C392.492 347.901 393.122 347.167 393.93 346.641C394.742 346.109 395.69 345.844 396.773 345.844C397.398 345.844 398.016 345.948 398.625 346.156C399.234 346.365 399.789 346.703 400.289 347.172C400.789 347.635 401.188 348.25 401.484 349.016C401.781 349.781 401.93 350.724 401.93 351.844V352.625H392.68V351.031H400.055C400.055 350.354 399.919 349.75 399.648 349.219C399.383 348.687 399.003 348.268 398.508 347.961C398.018 347.654 397.44 347.5 396.773 347.5C396.039 347.5 395.404 347.682 394.867 348.047C394.336 348.406 393.927 348.875 393.641 349.453C393.354 350.031 393.211 350.651 393.211 351.312V352.375C393.211 353.281 393.367 354.049 393.68 354.68C393.997 355.305 394.438 355.781 395 356.109C395.563 356.432 396.216 356.594 396.961 356.594C397.445 356.594 397.883 356.526 398.273 356.391C398.669 356.25 399.01 356.042 399.297 355.766C399.583 355.484 399.805 355.135 399.961 354.719L401.742 355.219C401.555 355.823 401.24 356.354 400.797 356.812C400.354 357.266 399.807 357.62 399.156 357.875C398.505 358.125 397.773 358.25 396.961 358.25ZM408.266 358.281C407.505 358.281 406.815 358.138 406.195 357.852C405.576 357.56 405.083 357.141 404.719 356.594C404.354 356.042 404.172 355.375 404.172 354.594C404.172 353.906 404.307 353.349 404.578 352.922C404.849 352.49 405.211 352.151 405.664 351.906C406.117 351.661 406.617 351.479 407.164 351.359C407.716 351.234 408.271 351.135 408.828 351.063C409.557 350.969 410.148 350.898 410.602 350.852C411.06 350.799 411.393 350.714 411.602 350.594C411.815 350.474 411.922 350.266 411.922 349.969V349.906C411.922 349.135 411.711 348.536 411.289 348.109C410.872 347.682 410.24 347.469 409.391 347.469C408.51 347.469 407.82 347.661 407.32 348.047C406.82 348.432 406.469 348.844 406.266 349.281L404.516 348.656C404.828 347.927 405.245 347.359 405.766 346.953C406.292 346.542 406.865 346.255 407.484 346.094C408.109 345.927 408.724 345.844 409.328 345.844C409.714 345.844 410.156 345.891 410.656 345.984C411.161 346.073 411.648 346.258 412.117 346.539C412.591 346.82 412.984 347.245 413.297 347.812C413.609 348.38 413.766 349.141 413.766 350.094V358H411.922V356.375H411.828C411.703 356.635 411.495 356.914 411.203 357.211C410.911 357.508 410.523 357.76 410.039 357.969C409.555 358.177 408.964 358.281 408.266 358.281ZM408.547 356.625C409.276 356.625 409.891 356.482 410.391 356.195C410.896 355.909 411.276 355.539 411.531 355.086C411.792 354.633 411.922 354.156 411.922 353.656V351.969C411.844 352.062 411.672 352.148 411.406 352.227C411.146 352.299 410.844 352.365 410.5 352.422C410.161 352.474 409.831 352.521 409.508 352.562C409.19 352.599 408.932 352.63 408.734 352.656C408.255 352.719 407.807 352.82 407.391 352.961C406.979 353.096 406.646 353.302 406.391 353.578C406.141 353.849 406.016 354.219 406.016 354.687C406.016 355.328 406.253 355.812 406.727 356.141C407.206 356.464 407.813 356.625 408.547 356.625ZM417.131 358V346H418.912V347.812H419.037C419.256 347.219 419.652 346.737 420.225 346.367C420.798 345.997 421.443 345.812 422.162 345.812C422.298 345.812 422.467 345.815 422.67 345.82C422.873 345.826 423.027 345.833 423.131 345.844V347.719C423.068 347.703 422.925 347.68 422.701 347.648C422.482 347.612 422.251 347.594 422.006 347.594C421.423 347.594 420.902 347.716 420.443 347.961C419.99 348.201 419.631 348.534 419.365 348.961C419.105 349.383 418.975 349.865 418.975 350.406V358H417.131ZM429.826 358.25C428.701 358.25 427.732 357.984 426.92 357.453C426.107 356.922 425.482 356.19 425.045 355.258C424.607 354.326 424.389 353.26 424.389 352.062C424.389 350.844 424.613 349.768 425.061 348.836C425.514 347.898 426.144 347.167 426.951 346.641C427.764 346.109 428.712 345.844 429.795 345.844C430.639 345.844 431.399 346 432.076 346.312C432.753 346.625 433.308 347.062 433.74 347.625C434.173 348.187 434.441 348.844 434.545 349.594H432.701C432.561 349.047 432.248 348.562 431.764 348.141C431.285 347.714 430.639 347.5 429.826 347.5C429.107 347.5 428.477 347.687 427.936 348.062C427.399 348.432 426.98 348.956 426.678 349.633C426.381 350.305 426.232 351.094 426.232 352C426.232 352.927 426.378 353.734 426.67 354.422C426.967 355.109 427.383 355.643 427.92 356.023C428.462 356.404 429.097 356.594 429.826 356.594C430.305 356.594 430.74 356.51 431.131 356.344C431.521 356.177 431.852 355.938 432.123 355.625C432.394 355.312 432.587 354.937 432.701 354.5H434.545C434.441 355.208 434.183 355.846 433.771 356.414C433.365 356.977 432.826 357.424 432.154 357.758C431.488 358.086 430.712 358.25 429.826 358.25ZM439.084 350.781V358H437.24V342H439.084V347.875H439.24C439.521 347.255 439.943 346.763 440.506 346.398C441.074 346.029 441.829 345.844 442.771 345.844C443.589 345.844 444.305 346.008 444.92 346.336C445.535 346.659 446.011 347.156 446.35 347.828C446.693 348.495 446.865 349.344 446.865 350.375V358H445.021V350.5C445.021 349.547 444.774 348.81 444.279 348.289C443.79 347.763 443.11 347.5 442.24 347.5C441.636 347.5 441.094 347.628 440.615 347.883C440.141 348.138 439.766 348.51 439.49 349C439.219 349.49 439.084 350.083 439.084 350.781Z" fill="#999999"/>
<path d="M391.403 395L387.426 380.455H389.216L392.256 392.301H392.398L395.494 380.455H397.483L400.58 392.301H400.722L403.761 380.455H405.551L401.574 395H399.756L396.545 383.409H396.432L393.222 395H391.403ZM411.077 395.227C410.026 395.227 409.119 394.995 408.357 394.531C407.599 394.062 407.014 393.409 406.602 392.571C406.195 391.728 405.991 390.748 405.991 389.631C405.991 388.513 406.195 387.528 406.602 386.676C407.014 385.819 407.587 385.152 408.321 384.673C409.06 384.19 409.921 383.949 410.906 383.949C411.474 383.949 412.036 384.044 412.589 384.233C413.143 384.422 413.648 384.73 414.102 385.156C414.557 385.578 414.919 386.136 415.189 386.832C415.459 387.528 415.594 388.385 415.594 389.403V390.114H407.185V388.665H413.889C413.889 388.049 413.766 387.5 413.52 387.017C413.278 386.534 412.933 386.153 412.483 385.874C412.038 385.594 411.512 385.455 410.906 385.455C410.239 385.455 409.661 385.62 409.173 385.952C408.69 386.278 408.319 386.705 408.058 387.23C407.798 387.756 407.668 388.319 407.668 388.92V389.886C407.668 390.71 407.81 391.409 408.094 391.982C408.383 392.55 408.783 392.983 409.294 393.281C409.805 393.575 410.4 393.722 411.077 393.722C411.517 393.722 411.915 393.66 412.27 393.537C412.63 393.409 412.94 393.22 413.2 392.969C413.461 392.713 413.662 392.396 413.804 392.017L415.423 392.472C415.253 393.021 414.966 393.504 414.564 393.92C414.161 394.332 413.664 394.654 413.072 394.886C412.481 395.114 411.815 395.227 411.077 395.227ZM418.371 395V380.455H420.047V385.824H420.189C420.312 385.634 420.482 385.393 420.7 385.099C420.923 384.801 421.24 384.536 421.652 384.304C422.069 384.067 422.632 383.949 423.342 383.949C424.261 383.949 425.071 384.179 425.771 384.638C426.472 385.097 427.019 385.748 427.412 386.591C427.805 387.434 428.001 388.428 428.001 389.574C428.001 390.729 427.805 391.731 427.412 392.578C427.019 393.421 426.474 394.074 425.778 394.538C425.082 394.998 424.28 395.227 423.371 395.227C422.67 395.227 422.109 395.111 421.688 394.879C421.266 394.643 420.942 394.375 420.714 394.077C420.487 393.774 420.312 393.523 420.189 393.324H419.99V395H418.371ZM420.018 389.545C420.018 390.369 420.139 391.096 420.381 391.726C420.622 392.351 420.975 392.841 421.439 393.196C421.903 393.546 422.471 393.722 423.143 393.722C423.844 393.722 424.429 393.537 424.898 393.168C425.371 392.794 425.726 392.292 425.963 391.662C426.205 391.027 426.325 390.322 426.325 389.545C426.325 388.778 426.207 388.087 425.97 387.472C425.738 386.851 425.385 386.361 424.912 386.001C424.443 385.637 423.854 385.455 423.143 385.455C422.462 385.455 421.889 385.627 421.425 385.973C420.961 386.314 420.61 386.792 420.374 387.408C420.137 388.018 420.018 388.731 420.018 389.545Z" fill="#999999"/>
<path d="M388.761 435V420.455H393.847C394.86 420.455 395.696 420.63 396.354 420.98C397.012 421.326 397.502 421.792 397.824 422.379C398.146 422.962 398.307 423.608 398.307 424.318C398.307 424.943 398.196 425.459 397.973 425.866C397.755 426.274 397.466 426.596 397.107 426.832C396.751 427.069 396.366 427.244 395.949 427.358V427.5C396.394 427.528 396.841 427.685 397.291 427.969C397.741 428.253 398.117 428.66 398.42 429.19C398.723 429.721 398.875 430.369 398.875 431.136C398.875 431.866 398.709 432.521 398.378 433.104C398.046 433.686 397.523 434.148 396.808 434.489C396.093 434.83 395.163 435 394.017 435H388.761ZM390.523 433.438H394.017C395.168 433.438 395.984 433.215 396.467 432.77C396.955 432.32 397.199 431.776 397.199 431.136C397.199 430.644 397.073 430.189 396.822 429.773C396.571 429.351 396.214 429.015 395.75 428.764C395.286 428.509 394.737 428.381 394.102 428.381H390.523V433.438ZM390.523 426.847H393.79C394.32 426.847 394.798 426.742 395.224 426.534C395.655 426.326 395.996 426.032 396.247 425.653C396.503 425.275 396.631 424.83 396.631 424.318C396.631 423.679 396.408 423.137 395.963 422.692C395.518 422.242 394.813 422.017 393.847 422.017H390.523V426.847ZM405.974 435.227C404.989 435.227 404.125 434.993 403.381 434.524C402.643 434.055 402.065 433.4 401.648 432.557C401.237 431.714 401.031 430.729 401.031 429.602C401.031 428.466 401.237 427.474 401.648 426.626C402.065 425.779 402.643 425.121 403.381 424.652C404.125 424.183 404.989 423.949 405.974 423.949C406.959 423.949 407.82 424.183 408.559 424.652C409.302 425.121 409.88 425.779 410.292 426.626C410.709 427.474 410.917 428.466 410.917 429.602C410.917 430.729 410.709 431.714 410.292 432.557C409.88 433.4 409.302 434.055 408.559 434.524C407.82 434.993 406.959 435.227 405.974 435.227ZM405.974 433.722C406.722 433.722 407.337 433.53 407.82 433.146C408.303 432.763 408.661 432.259 408.893 431.634C409.125 431.009 409.241 430.331 409.241 429.602C409.241 428.873 409.125 428.194 408.893 427.564C408.661 426.934 408.303 426.425 407.82 426.037C407.337 425.649 406.722 425.455 405.974 425.455C405.226 425.455 404.61 425.649 404.127 426.037C403.644 426.425 403.287 426.934 403.055 427.564C402.823 428.194 402.707 428.873 402.707 429.602C402.707 430.331 402.823 431.009 403.055 431.634C403.287 432.259 403.644 432.763 404.127 433.146C404.61 433.53 405.226 433.722 405.974 433.722ZM417.907 435.227C416.922 435.227 416.058 434.993 415.315 434.524C414.576 434.055 413.999 433.4 413.582 432.557C413.17 431.714 412.964 430.729 412.964 429.602C412.964 428.466 413.17 427.474 413.582 426.626C413.999 425.779 414.576 425.121 415.315 424.652C416.058 424.183 416.922 423.949 417.907 423.949C418.892 423.949 419.754 424.183 420.493 424.652C421.236 425.121 421.814 425.779 422.225 426.626C422.642 427.474 422.85 428.466 422.85 429.602C422.85 430.729 422.642 431.714 422.225 432.557C421.814 433.4 421.236 434.055 420.493 434.524C419.754 434.993 418.892 435.227 417.907 435.227ZM417.907 433.722C418.655 433.722 419.271 433.53 419.754 433.146C420.237 432.763 420.594 432.259 420.826 431.634C421.058 431.009 421.174 430.331 421.174 429.602C421.174 428.873 421.058 428.194 420.826 427.564C420.594 426.934 420.237 426.425 419.754 426.037C419.271 425.649 418.655 425.455 417.907 425.455C417.159 425.455 416.544 425.649 416.061 426.037C415.578 426.425 415.22 426.934 414.988 427.564C414.756 428.194 414.64 428.873 414.64 429.602C414.64 430.331 414.756 431.009 414.988 431.634C415.22 432.259 415.578 432.763 416.061 433.146C416.544 433.53 417.159 433.722 417.907 433.722ZM426.972 431.023L426.943 428.949H427.284L432.057 424.091H434.131L429.045 429.233H428.903L426.972 431.023ZM425.409 435V420.455H427.085V435H425.409ZM432.341 435L428.08 429.602L429.273 428.438L434.472 435H432.341Z" fill="#999999"/>
<g filter="url(#filter3_d_332_813)">
<circle cx="329.5" cy="350.5" r="12.5" fill="white"/>
<circle cx="329.5" cy="350.5" r="12.25" stroke="#E4E3E3" stroke-width="0.5"/>
</g>
<g filter="url(#filter4_d_332_813)">
<circle cx="364.5" cy="390.5" r="12.5" fill="white"/>
<circle cx="364.5" cy="390.5" r="12.25" stroke="#E4E3E3" stroke-width="0.5"/>
</g>
<g filter="url(#filter5_d_332_813)">
<circle cx="364.5" cy="430.5" r="12.5" fill="white"/>
<circle cx="364.5" cy="430.5" r="12.25" stroke="#8B8B8B" stroke-width="0.5"/>
</g>
<circle cx="364.5" cy="430.5" r="9.5" fill="#D55CFF"/>
<rect x="279.5" y="463.5" width="325" height="51" rx="15.5" fill="#F4F4F4" stroke="#C0C0C0" stroke-dasharray="5 5"/>
</g>
<defs>
<filter id="filter0_d_332_813" x="-357.024" y="-74.0244" width="1018.89" height="1018.89" filterUnits="userSpaceOnUse" color-interpolation-filters="sRGB">
<feFlood flood-opacity="0" result="BackgroundImageFix"/>
<feColorMatrix in="SourceAlpha" type="matrix" values="0 0 0 0 0 0 0 0 0 0 0 0 0 0 0 0 0 0 127 0" result="hardAlpha"/>
<feOffset/>
<feGaussianBlur stdDeviation="125"/>
<feComposite in2="hardAlpha" operator="out"/>
<feColorMatrix type="matrix" values="0 0 0 0 0.545098 0 0 0 0 0.972549 0 0 0 0 1 0 0 0 1 0"/>
<feBlend mode="normal" in2="BackgroundImageFix" result="effect1_dropShadow_332_813"/>
<feBlend mode="normal" in="SourceGraphic" in2="effect1_dropShadow_332_813" result="shape"/>
</filter>
<filter id="filter1_d_332_813" x="171" y="129" width="552" height="702" filterUnits="userSpaceOnUse" color-interpolation-filters="sRGB">
<feFlood flood-opacity="0" result="BackgroundImageFix"/>
<feColorMatrix in="SourceAlpha" type="matrix" values="0 0 0 0 0 0 0 0 0 0 0 0 0 0 0 0 0 0 127 0" result="hardAlpha"/>
<feMorphology radius="11" operator="dilate" in="SourceAlpha" result="effect1_dropShadow_332_813"/>
<feOffset dy="12"/>
<feGaussianBlur stdDeviation="25"/>
<feComposite in2="hardAlpha" operator="out"/>
<feColorMatrix type="matrix" values="0 0 0 0 0 0 0 0 0 0 0 0 0 0 0 0 0 0 0.25 0"/>
<feBlend mode="normal" in2="BackgroundImageFix" result="effect1_dropShadow_332_813"/>
<feBlend mode="normal" in="SourceGraphic" in2="effect1_dropShadow_332_813" result="shape"/>
</filter>
<filter id="filter2_d_332_813" x="268.3" y="285.3" width="48.4" height="48.4" filterUnits="userSpaceOnUse" color-interpolation-filters="sRGB">
<feFlood flood-opacity="0" result="BackgroundImageFix"/>
<feColorMatrix in="SourceAlpha" type="matrix" values="0 0 0 0 0 0 0 0 0 0 0 0 0 0 0 0 0 0 127 0" result="hardAlpha"/>
<feMorphology radius="5" operator="erode" in="SourceAlpha" result="effect1_dropShadow_332_813"/>
<feOffset/>
<feGaussianBlur stdDeviation="8.35"/>
<feComposite in2="hardAlpha" operator="out"/>
<feColorMatrix type="matrix" values="0 0 0 0 0 0 0 0 0 0 0 0 0 0 0 0 0 0 0.25 0"/>
<feBlend mode="normal" in2="BackgroundImageFix" result="effect1_dropShadow_332_813"/>
<feBlend mode="normal" in="SourceGraphic" in2="effect1_dropShadow_332_813" result="shape"/>
</filter>
<filter id="filter3_d_332_813" x="305.3" y="326.3" width="48.4" height="48.4" filterUnits="userSpaceOnUse" color-interpolation-filters="sRGB">
<feFlood flood-opacity="0" result="BackgroundImageFix"/>
<feColorMatrix in="SourceAlpha" type="matrix" values="0 0 0 0 0 0 0 0 0 0 0 0 0 0 0 0 0 0 127 0" result="hardAlpha"/>
<feMorphology radius="5" operator="erode" in="SourceAlpha" result="effect1_dropShadow_332_813"/>
<feOffset/>
<feGaussianBlur stdDeviation="8.35"/>
<feComposite in2="hardAlpha" operator="out"/>
<feColorMatrix type="matrix" values="0 0 0 0 0 0 0 0 0 0 0 0 0 0 0 0 0 0 0.25 0"/>
<feBlend mode="normal" in2="BackgroundImageFix" result="effect1_dropShadow_332_813"/>
<feBlend mode="normal" in="SourceGraphic" in2="effect1_dropShadow_332_813" result="shape"/>
</filter>
<filter id="filter4_d_332_813" x="340.3" y="366.3" width="48.4" height="48.4" filterUnits="userSpaceOnUse" color-interpolation-filters="sRGB">
<feFlood flood-opacity="0" result="BackgroundImageFix"/>
<feColorMatrix in="SourceAlpha" type="matrix" values="0 0 0 0 0 0 0 0 0 0 0 0 0 0 0 0 0 0 127 0" result="hardAlpha"/>
<feMorphology radius="5" operator="erode" in="SourceAlpha" result="effect1_dropShadow_332_813"/>
<feOffset/>
<feGaussianBlur stdDeviation="8.35"/>
<feComposite in2="hardAlpha" operator="out"/>
<feColorMatrix type="matrix" values="0 0 0 0 0 0 0 0 0 0 0 0 0 0 0 0 0 0 0.25 0"/>
<feBlend mode="normal" in2="BackgroundImageFix" result="effect1_dropShadow_332_813"/>
<feBlend mode="normal" in="SourceGraphic" in2="effect1_dropShadow_332_813" result="shape"/>
</filter>
<filter id="filter5_d_332_813" x="340.3" y="406.3" width="48.4" height="48.4" filterUnits="userSpaceOnUse" color-interpolation-filters="sRGB">
<feFlood flood-opacity="0" result="BackgroundImageFix"/>
<feColorMatrix in="SourceAlpha" type="matrix" values="0 0 0 0 0 0 0 0 0 0 0 0 0 0 0 0 0 0 127 0" result="hardAlpha"/>
<feMorphology radius="5" operator="erode" in="SourceAlpha" result="effect1_dropShadow_332_813"/>
<feOffset/>
<feGaussianBlur stdDeviation="8.35"/>
<feComposite in2="hardAlpha" operator="out"/>
<feColorMatrix type="matrix" values="0 0 0 0 0 0 0 0 0 0 0 0 0 0 0 0 0 0 0.25 0"/>
<feBlend mode="normal" in2="BackgroundImageFix" result="effect1_dropShadow_332_813"/>
<feBlend mode="normal" in="SourceGraphic" in2="effect1_dropShadow_332_813" result="shape"/>
</filter>
</defs>
</svg>
