<svg width="766" height="937" viewBox="0 0 766 937" fill="none" xmlns="http://www.w3.org/2000/svg">
<g filter="url(#filter0_d_333_843)">
<rect x="437.96" y="157" width="395.922" height="395.922" rx="30" transform="rotate(30 437.96 157)" fill="#58FF69"/>
</g>
<g filter="url(#filter1_d_333_843)">
<rect x="129" y="192" width="430" height="580" rx="10" fill="white"/>
<circle cx="476" cy="276" r="4" fill="black"/>
<circle cx="494" cy="276" r="4" fill="black"/>
<circle cx="512" cy="276" r="4" fill="black"/>
<path d="M189.623 273.184H185.734C185.663 272.681 185.518 272.234 185.299 271.843C185.08 271.446 184.799 271.109 184.456 270.831C184.112 270.553 183.716 270.34 183.266 270.192C182.822 270.044 182.34 269.97 181.819 269.97C180.878 269.97 180.058 270.204 179.36 270.671C178.661 271.133 178.12 271.808 177.735 272.695C177.35 273.577 177.158 274.648 177.158 275.909C177.158 277.205 177.35 278.294 177.735 279.176C178.126 280.058 178.67 280.724 179.369 281.174C180.067 281.623 180.875 281.848 181.792 281.848C182.307 281.848 182.784 281.78 183.222 281.644C183.665 281.508 184.059 281.31 184.402 281.049C184.746 280.783 185.03 280.46 185.255 280.082C185.485 279.703 185.645 279.271 185.734 278.786L189.623 278.803C189.522 279.638 189.27 280.443 188.868 281.218C188.471 281.987 187.936 282.677 187.261 283.287C186.592 283.89 185.793 284.37 184.864 284.725C183.941 285.074 182.896 285.249 181.73 285.249C180.108 285.249 178.658 284.882 177.38 284.148C176.107 283.414 175.101 282.351 174.362 280.961C173.628 279.57 173.261 277.886 173.261 275.909C173.261 273.926 173.634 272.24 174.379 270.849C175.125 269.458 176.137 268.398 177.415 267.67C178.694 266.937 180.132 266.57 181.73 266.57C182.784 266.57 183.76 266.718 184.66 267.013C185.565 267.309 186.367 267.741 187.066 268.31C187.764 268.872 188.332 269.561 188.77 270.378C189.214 271.195 189.498 272.13 189.623 273.184ZM192.379 285V266.818H196.223V274.32H204.027V266.818H207.862V285H204.027V277.489H196.223V285H192.379ZM211.031 285V266.818H223.283V269.988H214.876V274.32H222.653V277.489H214.876V281.831H223.318V285H211.031ZM242.381 273.184H238.493C238.422 272.681 238.277 272.234 238.058 271.843C237.839 271.446 237.558 271.109 237.214 270.831C236.871 270.553 236.475 270.34 236.025 270.192C235.581 270.044 235.099 269.97 234.578 269.97C233.637 269.97 232.817 270.204 232.119 270.671C231.42 271.133 230.879 271.808 230.494 272.695C230.109 273.577 229.917 274.648 229.917 275.909C229.917 277.205 230.109 278.294 230.494 279.176C230.884 280.058 231.429 280.724 232.127 281.174C232.826 281.623 233.634 281.848 234.551 281.848C235.066 281.848 235.542 281.78 235.98 281.644C236.424 281.508 236.818 281.31 237.161 281.049C237.504 280.783 237.789 280.46 238.013 280.082C238.244 279.703 238.404 279.271 238.493 278.786L242.381 278.803C242.281 279.638 242.029 280.443 241.627 281.218C241.23 281.987 240.695 282.677 240.02 283.287C239.351 283.89 238.552 284.37 237.623 284.725C236.699 285.074 235.655 285.249 234.489 285.249C232.867 285.249 231.417 284.882 230.139 284.148C228.866 283.414 227.86 282.351 227.12 280.961C226.386 279.57 226.019 277.886 226.019 275.909C226.019 273.926 226.392 272.24 227.138 270.849C227.884 269.458 228.896 268.398 230.174 267.67C231.453 266.937 232.891 266.57 234.489 266.57C235.542 266.57 236.519 266.718 237.419 267.013C238.324 267.309 239.126 267.741 239.824 268.31C240.523 268.872 241.091 269.561 241.529 270.378C241.973 271.195 242.257 272.13 242.381 273.184ZM245.138 285V266.818H248.982V274.835H249.222L255.765 266.818H260.372L253.625 274.959L260.452 285H255.853L250.873 277.525L248.982 279.833V285H245.138ZM262.374 285V266.818H266.218V281.831H274.013V285H262.374ZM280.403 266.818V285H276.559V266.818H280.403ZM293.429 272.047C293.358 271.331 293.053 270.775 292.514 270.378C291.976 269.982 291.245 269.783 290.322 269.783C289.694 269.783 289.165 269.872 288.733 270.05C288.3 270.221 287.969 270.461 287.738 270.769C287.513 271.077 287.401 271.426 287.401 271.816C287.389 272.142 287.457 272.426 287.605 272.669C287.759 272.911 287.969 273.121 288.235 273.299C288.502 273.471 288.809 273.622 289.159 273.752C289.508 273.876 289.881 273.983 290.277 274.071L291.911 274.462C292.704 274.64 293.432 274.876 294.095 275.172C294.758 275.468 295.332 275.832 295.817 276.264C296.302 276.696 296.678 277.205 296.945 277.791C297.217 278.377 297.356 279.049 297.362 279.806C297.356 280.919 297.072 281.884 296.509 282.701C295.953 283.511 295.148 284.142 294.095 284.592C293.047 285.036 291.784 285.257 290.304 285.257C288.836 285.257 287.558 285.033 286.469 284.583C285.386 284.133 284.539 283.467 283.93 282.585C283.326 281.697 283.009 280.6 282.98 279.292H286.699C286.741 279.901 286.916 280.41 287.223 280.819C287.537 281.221 287.954 281.526 288.475 281.733C289.002 281.934 289.597 282.035 290.259 282.035C290.911 282.035 291.476 281.94 291.955 281.751C292.44 281.561 292.816 281.298 293.083 280.961C293.349 280.623 293.482 280.236 293.482 279.798C293.482 279.389 293.361 279.046 293.118 278.768C292.881 278.49 292.532 278.253 292.071 278.058C291.615 277.862 291.056 277.685 290.393 277.525L288.413 277.028C286.88 276.655 285.67 276.072 284.782 275.279C283.894 274.486 283.453 273.417 283.459 272.074C283.453 270.973 283.746 270.011 284.338 269.189C284.936 268.366 285.755 267.724 286.797 267.262C287.839 266.8 289.023 266.57 290.348 266.57C291.698 266.57 292.876 266.8 293.882 267.262C294.894 267.724 295.681 268.366 296.243 269.189C296.805 270.011 297.095 270.964 297.113 272.047H293.429ZM299.255 269.988V266.818H314.188V269.988H308.621V285H304.821V269.988H299.255ZM330.236 266.818V285H326.392V270.467H326.286L322.122 273.077V269.668L326.623 266.818H330.236ZM342.512 265.966L336.653 287.734H333.395L339.254 265.966H342.512ZM351.019 285.249C349.694 285.249 348.513 285.021 347.477 284.565C346.447 284.103 345.634 283.47 345.036 282.665C344.444 281.854 344.139 280.919 344.121 279.86H347.992C348.016 280.304 348.161 280.694 348.427 281.032C348.699 281.363 349.06 281.621 349.51 281.804C349.96 281.987 350.466 282.079 351.028 282.079C351.614 282.079 352.132 281.976 352.582 281.768C353.032 281.561 353.384 281.274 353.638 280.907C353.893 280.54 354.02 280.117 354.02 279.638C354.02 279.152 353.884 278.723 353.612 278.35C353.345 277.972 352.961 277.676 352.458 277.463C351.96 277.25 351.369 277.143 350.682 277.143H348.986V274.32H350.682C351.262 274.32 351.774 274.219 352.218 274.018C352.668 273.817 353.017 273.539 353.266 273.184C353.514 272.823 353.638 272.402 353.638 271.923C353.638 271.467 353.529 271.068 353.31 270.724C353.097 270.375 352.795 270.103 352.404 269.908C352.02 269.712 351.57 269.615 351.055 269.615C350.534 269.615 350.058 269.709 349.626 269.899C349.194 270.082 348.847 270.346 348.587 270.689C348.326 271.032 348.187 271.435 348.17 271.896H344.485C344.503 270.849 344.802 269.925 345.382 269.126C345.962 268.327 346.743 267.703 347.726 267.253C348.714 266.797 349.83 266.57 351.073 266.57C352.327 266.57 353.425 266.797 354.366 267.253C355.307 267.709 356.038 268.324 356.559 269.1C357.086 269.869 357.346 270.733 357.34 271.692C357.346 272.71 357.03 273.559 356.391 274.24C355.757 274.921 354.932 275.353 353.914 275.536V275.678C355.251 275.85 356.269 276.315 356.968 277.072C357.672 277.824 358.021 278.765 358.015 279.895C358.021 280.931 357.722 281.851 357.119 282.656C356.521 283.461 355.695 284.094 354.642 284.556C353.588 285.018 352.381 285.249 351.019 285.249Z" fill="#929292"/>
<g filter="url(#filter2_d_333_843)">
<circle cx="189.5" cy="323.5" r="12.5" fill="white"/>
<circle cx="189.5" cy="323.5" r="12.25" stroke="#E4E3E3" stroke-width="0.5"/>
</g>
<path d="M213.758 332V316H216.172V322.953H224.148V316H226.57V332H224.148V325.023H216.172V332H213.758ZM234.953 332.242C233.828 332.242 232.846 331.984 232.008 331.469C231.169 330.953 230.518 330.232 230.055 329.305C229.591 328.378 229.359 327.294 229.359 326.055C229.359 324.81 229.591 323.721 230.055 322.789C230.518 321.857 231.169 321.133 232.008 320.617C232.846 320.102 233.828 319.844 234.953 319.844C236.078 319.844 237.06 320.102 237.898 320.617C238.737 321.133 239.388 321.857 239.852 322.789C240.315 323.721 240.547 324.81 240.547 326.055C240.547 327.294 240.315 328.378 239.852 329.305C239.388 330.232 238.737 330.953 237.898 331.469C237.06 331.984 236.078 332.242 234.953 332.242ZM234.961 330.281C235.69 330.281 236.294 330.089 236.773 329.703C237.253 329.318 237.607 328.805 237.836 328.164C238.07 327.523 238.188 326.818 238.188 326.047C238.188 325.281 238.07 324.578 237.836 323.937C237.607 323.292 237.253 322.773 236.773 322.383C236.294 321.992 235.69 321.797 234.961 321.797C234.227 321.797 233.617 321.992 233.133 322.383C232.654 322.773 232.297 323.292 232.063 323.937C231.833 324.578 231.719 325.281 231.719 326.047C231.719 326.818 231.833 327.523 232.063 328.164C232.297 328.805 232.654 329.318 233.133 329.703C233.617 330.089 234.227 330.281 234.961 330.281ZM243.154 332V320H245.396V321.953H245.545C245.795 321.292 246.204 320.776 246.771 320.406C247.339 320.031 248.019 319.844 248.811 319.844C249.613 319.844 250.285 320.031 250.826 320.406C251.373 320.781 251.777 321.297 252.037 321.953H252.162C252.449 321.312 252.904 320.802 253.529 320.422C254.154 320.036 254.899 319.844 255.764 319.844C256.852 319.844 257.74 320.185 258.428 320.867C259.12 321.549 259.467 322.578 259.467 323.953V332H257.131V324.172C257.131 323.359 256.91 322.771 256.467 322.406C256.024 322.042 255.495 321.859 254.881 321.859C254.12 321.859 253.529 322.094 253.107 322.562C252.686 323.026 252.475 323.622 252.475 324.352V332H250.146V324.023C250.146 323.372 249.943 322.849 249.537 322.453C249.131 322.057 248.602 321.859 247.951 321.859C247.508 321.859 247.1 321.977 246.725 322.211C246.355 322.44 246.055 322.76 245.826 323.172C245.602 323.583 245.49 324.06 245.49 324.602V332H243.154ZM267.77 332.242C266.587 332.242 265.569 331.99 264.715 331.484C263.866 330.974 263.21 330.258 262.746 329.336C262.288 328.409 262.059 327.323 262.059 326.078C262.059 324.849 262.288 323.766 262.746 322.828C263.21 321.891 263.855 321.159 264.684 320.633C265.517 320.107 266.491 319.844 267.605 319.844C268.283 319.844 268.939 319.956 269.574 320.18C270.21 320.404 270.78 320.755 271.285 321.234C271.79 321.714 272.189 322.336 272.48 323.102C272.772 323.862 272.918 324.786 272.918 325.875V326.703H263.379V324.953H270.629C270.629 324.339 270.504 323.794 270.254 323.32C270.004 322.841 269.652 322.464 269.199 322.187C268.751 321.911 268.225 321.773 267.621 321.773C266.965 321.773 266.392 321.935 265.902 322.258C265.418 322.576 265.043 322.992 264.777 323.508C264.517 324.018 264.387 324.573 264.387 325.172V326.539C264.387 327.341 264.527 328.023 264.809 328.586C265.095 329.148 265.493 329.578 266.004 329.875C266.514 330.167 267.111 330.312 267.793 330.312C268.236 330.312 268.639 330.25 269.004 330.125C269.368 329.995 269.684 329.802 269.949 329.547C270.215 329.292 270.418 328.977 270.559 328.602L272.77 329C272.592 329.651 272.275 330.221 271.816 330.711C271.363 331.195 270.793 331.573 270.105 331.844C269.423 332.109 268.645 332.242 267.77 332.242ZM278.09 332L274.559 320H276.973L279.324 328.812H279.441L281.801 320H284.215L286.559 328.773H286.676L289.012 320H291.426L287.902 332H285.52L283.082 323.336H282.902L280.465 332H278.09ZM298.332 332.242C297.207 332.242 296.225 331.984 295.387 331.469C294.548 330.953 293.897 330.232 293.434 329.305C292.97 328.378 292.738 327.294 292.738 326.055C292.738 324.81 292.97 323.721 293.434 322.789C293.897 321.857 294.548 321.133 295.387 320.617C296.225 320.102 297.207 319.844 298.332 319.844C299.457 319.844 300.439 320.102 301.277 320.617C302.116 321.133 302.767 321.857 303.23 322.789C303.694 323.721 303.926 324.81 303.926 326.055C303.926 327.294 303.694 328.378 303.23 329.305C302.767 330.232 302.116 330.953 301.277 331.469C300.439 331.984 299.457 332.242 298.332 332.242ZM298.34 330.281C299.069 330.281 299.673 330.089 300.152 329.703C300.632 329.318 300.986 328.805 301.215 328.164C301.449 327.523 301.566 326.818 301.566 326.047C301.566 325.281 301.449 324.578 301.215 323.937C300.986 323.292 300.632 322.773 300.152 322.383C299.673 321.992 299.069 321.797 298.34 321.797C297.605 321.797 296.996 321.992 296.512 322.383C296.033 322.773 295.676 323.292 295.441 323.937C295.212 324.578 295.098 325.281 295.098 326.047C295.098 326.818 295.212 327.523 295.441 328.164C295.676 328.805 296.033 329.318 296.512 329.703C296.996 330.089 297.605 330.281 298.34 330.281ZM306.533 332V320H308.791V321.906H308.916C309.135 321.26 309.52 320.753 310.072 320.383C310.63 320.008 311.26 319.82 311.963 319.82C312.109 319.82 312.281 319.826 312.479 319.836C312.682 319.846 312.84 319.859 312.955 319.875V322.109C312.861 322.083 312.695 322.055 312.455 322.023C312.215 321.987 311.976 321.969 311.736 321.969C311.184 321.969 310.692 322.086 310.26 322.32C309.833 322.549 309.494 322.87 309.244 323.281C308.994 323.687 308.869 324.151 308.869 324.672V332H306.533ZM317.125 327.93L317.109 325.078H317.516L322.297 320H325.094L319.641 325.781H319.273L317.125 327.93ZM314.977 332V316H317.313V332H314.977ZM322.555 332L318.258 326.297L319.867 324.664L325.422 332H322.555ZM334.584 332H332.021L337.779 316H340.568L346.326 332H343.764L339.24 318.906H339.115L334.584 332ZM335.014 325.734H343.326V327.766H335.014V325.734ZM357.355 322.93L355.238 323.305C355.15 323.034 355.009 322.776 354.816 322.531C354.629 322.286 354.374 322.086 354.051 321.93C353.728 321.773 353.324 321.695 352.84 321.695C352.178 321.695 351.626 321.844 351.184 322.141C350.741 322.432 350.52 322.81 350.52 323.273C350.52 323.674 350.668 323.997 350.965 324.242C351.262 324.487 351.741 324.687 352.402 324.844L354.309 325.281C355.413 325.536 356.236 325.93 356.777 326.461C357.319 326.992 357.59 327.682 357.59 328.531C357.59 329.25 357.382 329.891 356.965 330.453C356.553 331.01 355.978 331.448 355.238 331.766C354.504 332.083 353.652 332.242 352.684 332.242C351.34 332.242 350.243 331.956 349.395 331.383C348.546 330.805 348.025 329.984 347.832 328.922L350.09 328.578C350.23 329.167 350.52 329.612 350.957 329.914C351.395 330.211 351.965 330.359 352.668 330.359C353.434 330.359 354.046 330.201 354.504 329.883C354.962 329.56 355.191 329.167 355.191 328.703C355.191 328.328 355.051 328.013 354.77 327.758C354.493 327.503 354.069 327.31 353.496 327.18L351.465 326.734C350.345 326.479 349.517 326.073 348.98 325.516C348.449 324.958 348.184 324.253 348.184 323.398C348.184 322.69 348.382 322.07 348.777 321.539C349.173 321.008 349.72 320.594 350.418 320.297C351.116 319.995 351.915 319.844 352.816 319.844C354.113 319.844 355.134 320.125 355.879 320.687C356.624 321.245 357.116 321.992 357.355 322.93ZM369.15 322.93L367.033 323.305C366.945 323.034 366.804 322.776 366.611 322.531C366.424 322.286 366.169 322.086 365.846 321.93C365.523 321.773 365.119 321.695 364.635 321.695C363.973 321.695 363.421 321.844 362.979 322.141C362.536 322.432 362.314 322.81 362.314 323.273C362.314 323.674 362.463 323.997 362.76 324.242C363.057 324.487 363.536 324.687 364.197 324.844L366.104 325.281C367.208 325.536 368.031 325.93 368.572 326.461C369.114 326.992 369.385 327.682 369.385 328.531C369.385 329.25 369.176 329.891 368.76 330.453C368.348 331.01 367.773 331.448 367.033 331.766C366.299 332.083 365.447 332.242 364.479 332.242C363.135 332.242 362.038 331.956 361.189 331.383C360.34 330.805 359.82 329.984 359.627 328.922L361.885 328.578C362.025 329.167 362.314 329.612 362.752 329.914C363.189 330.211 363.76 330.359 364.463 330.359C365.229 330.359 365.84 330.201 366.299 329.883C366.757 329.56 366.986 329.167 366.986 328.703C366.986 328.328 366.846 328.013 366.564 327.758C366.288 327.503 365.864 327.31 365.291 327.18L363.26 326.734C362.14 326.479 361.312 326.073 360.775 325.516C360.244 324.958 359.979 324.253 359.979 323.398C359.979 322.69 360.176 322.07 360.572 321.539C360.968 321.008 361.515 320.594 362.213 320.297C362.911 319.995 363.71 319.844 364.611 319.844C365.908 319.844 366.929 320.125 367.674 320.687C368.419 321.245 368.911 321.992 369.15 322.93ZM371.953 332V320H374.289V332H371.953ZM373.133 318.148C372.727 318.148 372.378 318.013 372.086 317.742C371.799 317.466 371.656 317.138 371.656 316.758C371.656 316.372 371.799 316.044 372.086 315.773C372.378 315.497 372.727 315.359 373.133 315.359C373.539 315.359 373.885 315.497 374.172 315.773C374.464 316.044 374.609 316.372 374.609 316.758C374.609 317.138 374.464 317.466 374.172 317.742C373.885 318.013 373.539 318.148 373.133 318.148ZM382.463 336.75C381.51 336.75 380.689 336.625 380.002 336.375C379.32 336.125 378.762 335.794 378.33 335.383C377.898 334.971 377.575 334.521 377.361 334.031L379.369 333.203C379.51 333.432 379.697 333.674 379.932 333.93C380.171 334.19 380.494 334.411 380.9 334.594C381.312 334.776 381.84 334.867 382.486 334.867C383.372 334.867 384.104 334.651 384.682 334.219C385.26 333.792 385.549 333.109 385.549 332.172V329.812H385.4C385.26 330.068 385.057 330.352 384.791 330.664C384.531 330.977 384.171 331.247 383.713 331.477C383.255 331.706 382.658 331.82 381.924 331.82C380.976 331.82 380.122 331.599 379.361 331.156C378.606 330.708 378.007 330.049 377.564 329.18C377.127 328.305 376.908 327.229 376.908 325.953C376.908 324.677 377.124 323.583 377.557 322.672C377.994 321.76 378.593 321.062 379.354 320.578C380.114 320.089 380.976 319.844 381.939 319.844C382.684 319.844 383.286 319.969 383.744 320.219C384.202 320.464 384.559 320.75 384.814 321.078C385.075 321.406 385.275 321.695 385.416 321.945H385.588V320H387.877V332.266C387.877 333.297 387.637 334.143 387.158 334.805C386.679 335.466 386.031 335.956 385.213 336.273C384.4 336.591 383.484 336.75 382.463 336.75ZM382.439 329.883C383.111 329.883 383.679 329.727 384.143 329.414C384.611 329.096 384.965 328.643 385.205 328.055C385.45 327.461 385.572 326.75 385.572 325.922C385.572 325.115 385.452 324.404 385.213 323.789C384.973 323.174 384.622 322.695 384.158 322.352C383.695 322.003 383.122 321.828 382.439 321.828C381.736 321.828 381.15 322.01 380.682 322.375C380.213 322.734 379.859 323.224 379.619 323.844C379.385 324.464 379.268 325.156 379.268 325.922C379.268 326.708 379.387 327.398 379.627 327.992C379.867 328.586 380.221 329.049 380.689 329.383C381.163 329.716 381.747 329.883 382.439 329.883ZM393.346 324.875V332H391.01V320H393.252V321.953H393.4C393.676 321.318 394.109 320.807 394.697 320.422C395.291 320.036 396.038 319.844 396.939 319.844C397.757 319.844 398.473 320.016 399.088 320.359C399.702 320.698 400.179 321.203 400.518 321.875C400.856 322.547 401.025 323.378 401.025 324.367V332H398.689V324.648C398.689 323.779 398.463 323.099 398.01 322.609C397.557 322.115 396.934 321.867 396.143 321.867C395.601 321.867 395.119 321.984 394.697 322.219C394.281 322.453 393.95 322.797 393.705 323.25C393.465 323.698 393.346 324.24 393.346 324.875ZM404.158 332V320H406.4V321.953H406.549C406.799 321.292 407.208 320.776 407.775 320.406C408.343 320.031 409.023 319.844 409.814 319.844C410.617 319.844 411.288 320.031 411.83 320.406C412.377 320.781 412.781 321.297 413.041 321.953H413.166C413.452 321.312 413.908 320.802 414.533 320.422C415.158 320.036 415.903 319.844 416.768 319.844C417.856 319.844 418.744 320.185 419.432 320.867C420.124 321.549 420.471 322.578 420.471 323.953V332H418.135V324.172C418.135 323.359 417.913 322.771 417.471 322.406C417.028 322.042 416.499 321.859 415.885 321.859C415.124 321.859 414.533 322.094 414.111 322.562C413.689 323.026 413.479 323.622 413.479 324.352V332H411.15V324.023C411.15 323.372 410.947 322.849 410.541 322.453C410.135 322.057 409.606 321.859 408.955 321.859C408.512 321.859 408.104 321.977 407.729 322.211C407.359 322.44 407.059 322.76 406.83 323.172C406.606 323.583 406.494 324.06 406.494 324.602V332H404.158ZM428.773 332.242C427.591 332.242 426.573 331.99 425.719 331.484C424.87 330.974 424.214 330.258 423.75 329.336C423.292 328.409 423.062 327.323 423.062 326.078C423.062 324.849 423.292 323.766 423.75 322.828C424.214 321.891 424.859 321.159 425.688 320.633C426.521 320.107 427.495 319.844 428.609 319.844C429.286 319.844 429.943 319.956 430.578 320.18C431.214 320.404 431.784 320.755 432.289 321.234C432.794 321.714 433.193 322.336 433.484 323.102C433.776 323.862 433.922 324.786 433.922 325.875V326.703H424.383V324.953H431.633C431.633 324.339 431.508 323.794 431.258 323.32C431.008 322.841 430.656 322.464 430.203 322.187C429.755 321.911 429.229 321.773 428.625 321.773C427.969 321.773 427.396 321.935 426.906 322.258C426.422 322.576 426.047 322.992 425.781 323.508C425.521 324.018 425.391 324.573 425.391 325.172V326.539C425.391 327.341 425.531 328.023 425.812 328.586C426.099 329.148 426.497 329.578 427.008 329.875C427.518 330.167 428.115 330.312 428.797 330.312C429.24 330.312 429.643 330.25 430.008 330.125C430.372 329.995 430.688 329.802 430.953 329.547C431.219 329.292 431.422 328.977 431.563 328.602L433.773 329C433.596 329.651 433.279 330.221 432.82 330.711C432.367 331.195 431.797 331.573 431.109 331.844C430.427 332.109 429.648 332.242 428.773 332.242ZM438.85 324.875V332H436.514V320H438.756V321.953H438.904C439.18 321.318 439.613 320.807 440.201 320.422C440.795 320.036 441.542 319.844 442.443 319.844C443.261 319.844 443.977 320.016 444.592 320.359C445.206 320.698 445.683 321.203 446.021 321.875C446.36 322.547 446.529 323.378 446.529 324.367V332H444.193V324.648C444.193 323.779 443.967 323.099 443.514 322.609C443.061 322.115 442.438 321.867 441.646 321.867C441.105 321.867 440.623 321.984 440.201 322.219C439.785 322.453 439.454 322.797 439.209 323.25C438.969 323.698 438.85 324.24 438.85 324.875ZM455.264 320V321.875H448.709V320H455.264ZM450.467 317.125H452.803V328.477C452.803 328.93 452.87 329.271 453.006 329.5C453.141 329.724 453.316 329.878 453.529 329.961C453.748 330.039 453.985 330.078 454.24 330.078C454.428 330.078 454.592 330.065 454.732 330.039C454.873 330.013 454.982 329.992 455.061 329.977L455.482 331.906C455.347 331.958 455.154 332.01 454.904 332.063C454.654 332.12 454.342 332.151 453.967 332.156C453.352 332.167 452.779 332.057 452.248 331.828C451.717 331.599 451.287 331.245 450.959 330.766C450.631 330.286 450.467 329.685 450.467 328.961V317.125Z" fill="#5C5C5C"/>
<path d="M250.938 372V356H256.344C257.594 356 258.62 356.214 259.422 356.641C260.224 357.062 260.818 357.643 261.203 358.383C261.589 359.122 261.781 359.964 261.781 360.906C261.781 361.849 261.589 362.685 261.203 363.414C260.818 364.143 260.227 364.716 259.43 365.133C258.633 365.544 257.615 365.75 256.375 365.75H252V364H256.313C257.167 364 257.854 363.875 258.375 363.625C258.901 363.375 259.281 363.021 259.516 362.562C259.755 362.099 259.875 361.547 259.875 360.906C259.875 360.266 259.755 359.706 259.516 359.227C259.276 358.747 258.893 358.378 258.367 358.117C257.841 357.852 257.146 357.719 256.281 357.719H252.875V372H250.938ZM258.469 364.812L262.406 372H260.156L256.281 364.812H258.469ZM269.662 372.25C268.506 372.25 267.508 371.995 266.67 371.484C265.837 370.969 265.193 370.25 264.74 369.328C264.292 368.401 264.068 367.323 264.068 366.094C264.068 364.865 264.292 363.781 264.74 362.844C265.193 361.901 265.824 361.167 266.631 360.641C267.443 360.109 268.391 359.844 269.475 359.844C270.1 359.844 270.717 359.948 271.326 360.156C271.936 360.365 272.49 360.703 272.99 361.172C273.49 361.635 273.889 362.25 274.186 363.016C274.482 363.781 274.631 364.724 274.631 365.844V366.625H265.381V365.031H272.756C272.756 364.354 272.62 363.75 272.35 363.219C272.084 362.687 271.704 362.268 271.209 361.961C270.719 361.654 270.141 361.5 269.475 361.5C268.74 361.5 268.105 361.682 267.568 362.047C267.037 362.406 266.628 362.875 266.342 363.453C266.055 364.031 265.912 364.651 265.912 365.312V366.375C265.912 367.281 266.068 368.049 266.381 368.68C266.699 369.305 267.139 369.781 267.701 370.109C268.264 370.432 268.917 370.594 269.662 370.594C270.146 370.594 270.584 370.526 270.975 370.391C271.37 370.25 271.712 370.042 271.998 369.766C272.285 369.484 272.506 369.135 272.662 368.719L274.443 369.219C274.256 369.823 273.941 370.354 273.498 370.812C273.055 371.266 272.508 371.62 271.857 371.875C271.206 372.125 270.475 372.25 269.662 372.25ZM285.936 362.687L284.279 363.156C284.175 362.88 284.021 362.612 283.818 362.352C283.62 362.086 283.35 361.867 283.006 361.695C282.662 361.523 282.222 361.437 281.686 361.437C280.951 361.437 280.339 361.607 279.85 361.945C279.365 362.279 279.123 362.703 279.123 363.219C279.123 363.677 279.29 364.039 279.623 364.305C279.956 364.57 280.477 364.792 281.186 364.969L282.967 365.406C284.04 365.667 284.839 366.065 285.365 366.602C285.891 367.133 286.154 367.818 286.154 368.656C286.154 369.344 285.956 369.958 285.561 370.5C285.17 371.042 284.623 371.469 283.92 371.781C283.217 372.094 282.399 372.25 281.467 372.25C280.243 372.25 279.23 371.984 278.428 371.453C277.626 370.922 277.118 370.146 276.904 369.125L278.654 368.687C278.821 369.333 279.136 369.818 279.6 370.141C280.068 370.464 280.68 370.625 281.436 370.625C282.295 370.625 282.977 370.443 283.482 370.078C283.993 369.708 284.248 369.266 284.248 368.75C284.248 368.333 284.102 367.984 283.811 367.703C283.519 367.417 283.071 367.203 282.467 367.062L280.467 366.594C279.368 366.333 278.561 365.93 278.045 365.383C277.535 364.831 277.279 364.141 277.279 363.312C277.279 362.635 277.469 362.036 277.85 361.516C278.235 360.995 278.758 360.586 279.42 360.289C280.087 359.992 280.842 359.844 281.686 359.844C282.873 359.844 283.805 360.104 284.482 360.625C285.165 361.146 285.649 361.833 285.936 362.687ZM293.961 372.25C292.805 372.25 291.807 371.995 290.969 371.484C290.135 370.969 289.492 370.25 289.039 369.328C288.591 368.401 288.367 367.323 288.367 366.094C288.367 364.865 288.591 363.781 289.039 362.844C289.492 361.901 290.122 361.167 290.93 360.641C291.742 360.109 292.69 359.844 293.773 359.844C294.398 359.844 295.016 359.948 295.625 360.156C296.234 360.365 296.789 360.703 297.289 361.172C297.789 361.635 298.188 362.25 298.484 363.016C298.781 363.781 298.93 364.724 298.93 365.844V366.625H289.68V365.031H297.055C297.055 364.354 296.919 363.75 296.648 363.219C296.383 362.687 296.003 362.268 295.508 361.961C295.018 361.654 294.44 361.5 293.773 361.5C293.039 361.5 292.404 361.682 291.867 362.047C291.336 362.406 290.927 362.875 290.641 363.453C290.354 364.031 290.211 364.651 290.211 365.312V366.375C290.211 367.281 290.367 368.049 290.68 368.68C290.997 369.305 291.438 369.781 292 370.109C292.563 370.432 293.216 370.594 293.961 370.594C294.445 370.594 294.883 370.526 295.273 370.391C295.669 370.25 296.01 370.042 296.297 369.766C296.583 369.484 296.805 369.135 296.961 368.719L298.742 369.219C298.555 369.823 298.24 370.354 297.797 370.812C297.354 371.266 296.807 371.62 296.156 371.875C295.505 372.125 294.773 372.25 293.961 372.25ZM305.266 372.281C304.505 372.281 303.815 372.138 303.195 371.852C302.576 371.56 302.083 371.141 301.719 370.594C301.354 370.042 301.172 369.375 301.172 368.594C301.172 367.906 301.307 367.349 301.578 366.922C301.849 366.49 302.211 366.151 302.664 365.906C303.117 365.661 303.617 365.479 304.164 365.359C304.716 365.234 305.271 365.135 305.828 365.063C306.557 364.969 307.148 364.898 307.602 364.852C308.06 364.799 308.393 364.714 308.602 364.594C308.815 364.474 308.922 364.266 308.922 363.969V363.906C308.922 363.135 308.711 362.536 308.289 362.109C307.872 361.682 307.24 361.469 306.391 361.469C305.51 361.469 304.82 361.661 304.32 362.047C303.82 362.432 303.469 362.844 303.266 363.281L301.516 362.656C301.828 361.927 302.245 361.359 302.766 360.953C303.292 360.542 303.865 360.255 304.484 360.094C305.109 359.927 305.724 359.844 306.328 359.844C306.714 359.844 307.156 359.891 307.656 359.984C308.161 360.073 308.648 360.258 309.117 360.539C309.591 360.82 309.984 361.245 310.297 361.812C310.609 362.38 310.766 363.141 310.766 364.094V372H308.922V370.375H308.828C308.703 370.635 308.495 370.914 308.203 371.211C307.911 371.508 307.523 371.76 307.039 371.969C306.555 372.177 305.964 372.281 305.266 372.281ZM305.547 370.625C306.276 370.625 306.891 370.482 307.391 370.195C307.896 369.909 308.276 369.539 308.531 369.086C308.792 368.633 308.922 368.156 308.922 367.656V365.969C308.844 366.062 308.672 366.148 308.406 366.227C308.146 366.299 307.844 366.365 307.5 366.422C307.161 366.474 306.831 366.521 306.508 366.562C306.19 366.599 305.932 366.63 305.734 366.656C305.255 366.719 304.807 366.82 304.391 366.961C303.979 367.096 303.646 367.302 303.391 367.578C303.141 367.849 303.016 368.219 303.016 368.687C303.016 369.328 303.253 369.812 303.727 370.141C304.206 370.464 304.813 370.625 305.547 370.625ZM314.131 372V360H315.912V361.812H316.037C316.256 361.219 316.652 360.737 317.225 360.367C317.798 359.997 318.443 359.812 319.162 359.812C319.298 359.812 319.467 359.815 319.67 359.82C319.873 359.826 320.027 359.833 320.131 359.844V361.719C320.068 361.703 319.925 361.68 319.701 361.648C319.482 361.612 319.251 361.594 319.006 361.594C318.423 361.594 317.902 361.716 317.443 361.961C316.99 362.201 316.631 362.534 316.365 362.961C316.105 363.383 315.975 363.865 315.975 364.406V372H314.131ZM326.826 372.25C325.701 372.25 324.732 371.984 323.92 371.453C323.107 370.922 322.482 370.19 322.045 369.258C321.607 368.326 321.389 367.26 321.389 366.062C321.389 364.844 321.613 363.768 322.061 362.836C322.514 361.898 323.144 361.167 323.951 360.641C324.764 360.109 325.712 359.844 326.795 359.844C327.639 359.844 328.399 360 329.076 360.312C329.753 360.625 330.308 361.062 330.74 361.625C331.173 362.187 331.441 362.844 331.545 363.594H329.701C329.561 363.047 329.248 362.562 328.764 362.141C328.285 361.714 327.639 361.5 326.826 361.5C326.107 361.5 325.477 361.687 324.936 362.062C324.399 362.432 323.98 362.956 323.678 363.633C323.381 364.305 323.232 365.094 323.232 366C323.232 366.927 323.378 367.734 323.67 368.422C323.967 369.109 324.383 369.643 324.92 370.023C325.462 370.404 326.097 370.594 326.826 370.594C327.305 370.594 327.74 370.51 328.131 370.344C328.521 370.177 328.852 369.938 329.123 369.625C329.394 369.312 329.587 368.937 329.701 368.5H331.545C331.441 369.208 331.183 369.846 330.771 370.414C330.365 370.977 329.826 371.424 329.154 371.758C328.488 372.086 327.712 372.25 326.826 372.25ZM336.084 364.781V372H334.24V356H336.084V361.875H336.24C336.521 361.255 336.943 360.763 337.506 360.398C338.074 360.029 338.829 359.844 339.771 359.844C340.589 359.844 341.305 360.008 341.92 360.336C342.535 360.659 343.011 361.156 343.35 361.828C343.693 362.495 343.865 363.344 343.865 364.375V372H342.021V364.5C342.021 363.547 341.774 362.81 341.279 362.289C340.79 361.763 340.11 361.5 339.24 361.5C338.636 361.5 338.094 361.628 337.615 361.883C337.141 362.138 336.766 362.51 336.49 363C336.219 363.49 336.084 364.083 336.084 364.781Z" fill="#999999"/>
<path d="M288.403 409L284.426 394.455H286.216L289.256 406.301H289.398L292.494 394.455H294.483L297.58 406.301H297.722L300.761 394.455H302.551L298.574 409H296.756L293.545 397.409H293.432L290.222 409H288.403ZM308.077 409.227C307.026 409.227 306.119 408.995 305.357 408.531C304.599 408.062 304.014 407.409 303.602 406.571C303.195 405.728 302.991 404.748 302.991 403.631C302.991 402.513 303.195 401.528 303.602 400.676C304.014 399.819 304.587 399.152 305.321 398.673C306.06 398.19 306.921 397.949 307.906 397.949C308.474 397.949 309.036 398.044 309.589 398.233C310.143 398.422 310.648 398.73 311.102 399.156C311.557 399.578 311.919 400.136 312.189 400.832C312.459 401.528 312.594 402.385 312.594 403.403V404.114H304.185V402.665H310.889C310.889 402.049 310.766 401.5 310.52 401.017C310.278 400.534 309.933 400.153 309.483 399.874C309.038 399.594 308.512 399.455 307.906 399.455C307.239 399.455 306.661 399.62 306.173 399.952C305.69 400.278 305.319 400.705 305.058 401.23C304.798 401.756 304.668 402.319 304.668 402.92V403.886C304.668 404.71 304.81 405.409 305.094 405.982C305.383 406.55 305.783 406.983 306.294 407.281C306.805 407.575 307.4 407.722 308.077 407.722C308.517 407.722 308.915 407.66 309.27 407.537C309.63 407.409 309.94 407.22 310.2 406.969C310.461 406.713 310.662 406.396 310.804 406.017L312.423 406.472C312.253 407.021 311.966 407.504 311.564 407.92C311.161 408.332 310.664 408.654 310.072 408.886C309.481 409.114 308.815 409.227 308.077 409.227ZM315.371 409V394.455H317.047V399.824H317.189C317.312 399.634 317.482 399.393 317.7 399.099C317.923 398.801 318.24 398.536 318.652 398.304C319.069 398.067 319.632 397.949 320.342 397.949C321.261 397.949 322.071 398.179 322.771 398.638C323.472 399.097 324.019 399.748 324.412 400.591C324.805 401.434 325.001 402.428 325.001 403.574C325.001 404.729 324.805 405.731 324.412 406.578C324.019 407.421 323.474 408.074 322.778 408.538C322.082 408.998 321.28 409.227 320.371 409.227C319.67 409.227 319.109 409.111 318.688 408.879C318.266 408.643 317.942 408.375 317.714 408.077C317.487 407.774 317.312 407.523 317.189 407.324H316.99V409H315.371ZM317.018 403.545C317.018 404.369 317.139 405.096 317.381 405.726C317.622 406.351 317.975 406.841 318.439 407.196C318.903 407.546 319.471 407.722 320.143 407.722C320.844 407.722 321.429 407.537 321.898 407.168C322.371 406.794 322.726 406.292 322.963 405.662C323.205 405.027 323.325 404.322 323.325 403.545C323.325 402.778 323.207 402.087 322.97 401.472C322.738 400.851 322.385 400.361 321.912 400.001C321.443 399.637 320.854 399.455 320.143 399.455C319.462 399.455 318.889 399.627 318.425 399.973C317.961 400.314 317.61 400.792 317.374 401.408C317.137 402.018 317.018 402.731 317.018 403.545Z" fill="#999999"/>
<path d="M285.761 449V434.455H290.847C291.86 434.455 292.696 434.63 293.354 434.98C294.012 435.326 294.502 435.792 294.824 436.379C295.146 436.962 295.307 437.608 295.307 438.318C295.307 438.943 295.196 439.459 294.973 439.866C294.755 440.274 294.466 440.596 294.107 440.832C293.751 441.069 293.366 441.244 292.949 441.358V441.5C293.394 441.528 293.841 441.685 294.291 441.969C294.741 442.253 295.117 442.66 295.42 443.19C295.723 443.721 295.875 444.369 295.875 445.136C295.875 445.866 295.709 446.521 295.378 447.104C295.046 447.686 294.523 448.148 293.808 448.489C293.093 448.83 292.163 449 291.017 449H285.761ZM287.523 447.438H291.017C292.168 447.438 292.984 447.215 293.467 446.77C293.955 446.32 294.199 445.776 294.199 445.136C294.199 444.644 294.073 444.189 293.822 443.773C293.571 443.351 293.214 443.015 292.75 442.764C292.286 442.509 291.737 442.381 291.102 442.381H287.523V447.438ZM287.523 440.847H290.79C291.32 440.847 291.798 440.742 292.224 440.534C292.655 440.326 292.996 440.032 293.247 439.653C293.503 439.275 293.631 438.83 293.631 438.318C293.631 437.679 293.408 437.137 292.963 436.692C292.518 436.242 291.813 436.017 290.847 436.017H287.523V440.847ZM302.974 449.227C301.989 449.227 301.125 448.993 300.381 448.524C299.643 448.055 299.065 447.4 298.648 446.557C298.237 445.714 298.031 444.729 298.031 443.602C298.031 442.466 298.237 441.474 298.648 440.626C299.065 439.779 299.643 439.121 300.381 438.652C301.125 438.183 301.989 437.949 302.974 437.949C303.959 437.949 304.82 438.183 305.559 438.652C306.302 439.121 306.88 439.779 307.292 440.626C307.709 441.474 307.917 442.466 307.917 443.602C307.917 444.729 307.709 445.714 307.292 446.557C306.88 447.4 306.302 448.055 305.559 448.524C304.82 448.993 303.959 449.227 302.974 449.227ZM302.974 447.722C303.722 447.722 304.337 447.53 304.82 447.146C305.303 446.763 305.661 446.259 305.893 445.634C306.125 445.009 306.241 444.331 306.241 443.602C306.241 442.873 306.125 442.194 305.893 441.564C305.661 440.934 305.303 440.425 304.82 440.037C304.337 439.649 303.722 439.455 302.974 439.455C302.226 439.455 301.61 439.649 301.127 440.037C300.644 440.425 300.287 440.934 300.055 441.564C299.823 442.194 299.707 442.873 299.707 443.602C299.707 444.331 299.823 445.009 300.055 445.634C300.287 446.259 300.644 446.763 301.127 447.146C301.61 447.53 302.226 447.722 302.974 447.722ZM314.907 449.227C313.922 449.227 313.058 448.993 312.315 448.524C311.576 448.055 310.999 447.4 310.582 446.557C310.17 445.714 309.964 444.729 309.964 443.602C309.964 442.466 310.17 441.474 310.582 440.626C310.999 439.779 311.576 439.121 312.315 438.652C313.058 438.183 313.922 437.949 314.907 437.949C315.892 437.949 316.754 438.183 317.493 438.652C318.236 439.121 318.814 439.779 319.225 440.626C319.642 441.474 319.85 442.466 319.85 443.602C319.85 444.729 319.642 445.714 319.225 446.557C318.814 447.4 318.236 448.055 317.493 448.524C316.754 448.993 315.892 449.227 314.907 449.227ZM314.907 447.722C315.655 447.722 316.271 447.53 316.754 447.146C317.237 446.763 317.594 446.259 317.826 445.634C318.058 445.009 318.174 444.331 318.174 443.602C318.174 442.873 318.058 442.194 317.826 441.564C317.594 440.934 317.237 440.425 316.754 440.037C316.271 439.649 315.655 439.455 314.907 439.455C314.159 439.455 313.544 439.649 313.061 440.037C312.578 440.425 312.22 440.934 311.988 441.564C311.756 442.194 311.64 442.873 311.64 443.602C311.64 444.331 311.756 445.009 311.988 445.634C312.22 446.259 312.578 446.763 313.061 447.146C313.544 447.53 314.159 447.722 314.907 447.722ZM323.972 445.023L323.943 442.949H324.284L329.057 438.091H331.131L326.045 443.233H325.903L323.972 445.023ZM322.409 449V434.455H324.085V449H322.409ZM329.341 449L325.08 443.602L326.273 442.438L331.472 449H329.341Z" fill="#999999"/>
<g filter="url(#filter3_d_333_843)">
<circle cx="226.5" cy="364.5" r="12.5" fill="white"/>
<circle cx="226.5" cy="364.5" r="12.25" stroke="#E4E3E3" stroke-width="0.5"/>
</g>
<g filter="url(#filter4_d_333_843)">
<circle cx="261.5" cy="404.5" r="12.5" fill="white"/>
<circle cx="261.5" cy="404.5" r="12.25" stroke="#E4E3E3" stroke-width="0.5"/>
</g>
<g filter="url(#filter5_d_333_843)">
<circle cx="261.5" cy="444.5" r="12.5" fill="white"/>
<circle cx="261.5" cy="444.5" r="12.25" stroke="#8B8B8B" stroke-width="0.5"/>
</g>
<circle cx="261.5" cy="444.5" r="9.5" fill="#D55CFF"/>
<rect x="176.5" y="477.5" width="325" height="51" rx="15.5" fill="#F4F4F4" stroke="#C0C0C0" stroke-dasharray="5 5"/>
</g>
<defs>
<filter id="filter0_d_333_843" x="0.974609" y="-82.0244" width="1018.89" height="1018.89" filterUnits="userSpaceOnUse" color-interpolation-filters="sRGB">
<feFlood flood-opacity="0" result="BackgroundImageFix"/>
<feColorMatrix in="SourceAlpha" type="matrix" values="0 0 0 0 0 0 0 0 0 0 0 0 0 0 0 0 0 0 127 0" result="hardAlpha"/>
<feOffset/>
<feGaussianBlur stdDeviation="125"/>
<feComposite in2="hardAlpha" operator="out"/>
<feColorMatrix type="matrix" values="0 0 0 0 0.345098 0 0 0 0 1 0 0 0 0 0.411765 0 0 0 1 0"/>
<feBlend mode="normal" in2="BackgroundImageFix" result="effect1_dropShadow_333_843"/>
<feBlend mode="normal" in="SourceGraphic" in2="effect1_dropShadow_333_843" result="shape"/>
</filter>
<filter id="filter1_d_333_843" x="68" y="143" width="552" height="702" filterUnits="userSpaceOnUse" color-interpolation-filters="sRGB">
<feFlood flood-opacity="0" result="BackgroundImageFix"/>
<feColorMatrix in="SourceAlpha" type="matrix" values="0 0 0 0 0 0 0 0 0 0 0 0 0 0 0 0 0 0 127 0" result="hardAlpha"/>
<feMorphology radius="11" operator="dilate" in="SourceAlpha" result="effect1_dropShadow_333_843"/>
<feOffset dy="12"/>
<feGaussianBlur stdDeviation="25"/>
<feComposite in2="hardAlpha" operator="out"/>
<feColorMatrix type="matrix" values="0 0 0 0 0 0 0 0 0 0 0 0 0 0 0 0 0 0 0.25 0"/>
<feBlend mode="normal" in2="BackgroundImageFix" result="effect1_dropShadow_333_843"/>
<feBlend mode="normal" in="SourceGraphic" in2="effect1_dropShadow_333_843" result="shape"/>
</filter>
<filter id="filter2_d_333_843" x="165.3" y="299.3" width="48.4" height="48.4" filterUnits="userSpaceOnUse" color-interpolation-filters="sRGB">
<feFlood flood-opacity="0" result="BackgroundImageFix"/>
<feColorMatrix in="SourceAlpha" type="matrix" values="0 0 0 0 0 0 0 0 0 0 0 0 0 0 0 0 0 0 127 0" result="hardAlpha"/>
<feMorphology radius="5" operator="erode" in="SourceAlpha" result="effect1_dropShadow_333_843"/>
<feOffset/>
<feGaussianBlur stdDeviation="8.35"/>
<feComposite in2="hardAlpha" operator="out"/>
<feColorMatrix type="matrix" values="0 0 0 0 0 0 0 0 0 0 0 0 0 0 0 0 0 0 0.25 0"/>
<feBlend mode="normal" in2="BackgroundImageFix" result="effect1_dropShadow_333_843"/>
<feBlend mode="normal" in="SourceGraphic" in2="effect1_dropShadow_333_843" result="shape"/>
</filter>
<filter id="filter3_d_333_843" x="202.3" y="340.3" width="48.4" height="48.4" filterUnits="userSpaceOnUse" color-interpolation-filters="sRGB">
<feFlood flood-opacity="0" result="BackgroundImageFix"/>
<feColorMatrix in="SourceAlpha" type="matrix" values="0 0 0 0 0 0 0 0 0 0 0 0 0 0 0 0 0 0 127 0" result="hardAlpha"/>
<feMorphology radius="5" operator="erode" in="SourceAlpha" result="effect1_dropShadow_333_843"/>
<feOffset/>
<feGaussianBlur stdDeviation="8.35"/>
<feComposite in2="hardAlpha" operator="out"/>
<feColorMatrix type="matrix" values="0 0 0 0 0 0 0 0 0 0 0 0 0 0 0 0 0 0 0.25 0"/>
<feBlend mode="normal" in2="BackgroundImageFix" result="effect1_dropShadow_333_843"/>
<feBlend mode="normal" in="SourceGraphic" in2="effect1_dropShadow_333_843" result="shape"/>
</filter>
<filter id="filter4_d_333_843" x="237.3" y="380.3" width="48.4" height="48.4" filterUnits="userSpaceOnUse" color-interpolation-filters="sRGB">
<feFlood flood-opacity="0" result="BackgroundImageFix"/>
<feColorMatrix in="SourceAlpha" type="matrix" values="0 0 0 0 0 0 0 0 0 0 0 0 0 0 0 0 0 0 127 0" result="hardAlpha"/>
<feMorphology radius="5" operator="erode" in="SourceAlpha" result="effect1_dropShadow_333_843"/>
<feOffset/>
<feGaussianBlur stdDeviation="8.35"/>
<feComposite in2="hardAlpha" operator="out"/>
<feColorMatrix type="matrix" values="0 0 0 0 0 0 0 0 0 0 0 0 0 0 0 0 0 0 0.25 0"/>
<feBlend mode="normal" in2="BackgroundImageFix" result="effect1_dropShadow_333_843"/>
<feBlend mode="normal" in="SourceGraphic" in2="effect1_dropShadow_333_843" result="shape"/>
</filter>
<filter id="filter5_d_333_843" x="237.3" y="420.3" width="48.4" height="48.4" filterUnits="userSpaceOnUse" color-interpolation-filters="sRGB">
<feFlood flood-opacity="0" result="BackgroundImageFix"/>
<feColorMatrix in="SourceAlpha" type="matrix" values="0 0 0 0 0 0 0 0 0 0 0 0 0 0 0 0 0 0 127 0" result="hardAlpha"/>
<feMorphology radius="5" operator="erode" in="SourceAlpha" result="effect1_dropShadow_333_843"/>
<feOffset/>
<feGaussianBlur stdDeviation="8.35"/>
<feComposite in2="hardAlpha" operator="out"/>
<feColorMatrix type="matrix" values="0 0 0 0 0 0 0 0 0 0 0 0 0 0 0 0 0 0 0.25 0"/>
<feBlend mode="normal" in2="BackgroundImageFix" result="effect1_dropShadow_333_843"/>
<feBlend mode="normal" in="SourceGraphic" in2="effect1_dropShadow_333_843" result="shape"/>
</filter>
</defs>
</svg>
