<svg width="766" height="937" viewBox="0 0 766 937" fill="none" xmlns="http://www.w3.org/2000/svg">
<g filter="url(#filter0_d_330_812)">
<rect x="437.961" y="157" width="395.922" height="395.922" rx="30" transform="rotate(30 437.961 157)" fill="#D094FF"/>
</g>
<g filter="url(#filter1_d_330_812)">
<rect x="129" y="192" width="430" height="580" rx="10" fill="white"/>
<path d="M218.623 285.184H214.734C214.663 284.681 214.518 284.234 214.299 283.843C214.08 283.446 213.799 283.109 213.456 282.831C213.112 282.553 212.716 282.34 212.266 282.192C211.822 282.044 211.34 281.97 210.819 281.97C209.878 281.97 209.058 282.204 208.36 282.671C207.661 283.133 207.12 283.808 206.735 284.695C206.35 285.577 206.158 286.648 206.158 287.909C206.158 289.205 206.35 290.294 206.735 291.176C207.126 292.058 207.67 292.724 208.369 293.174C209.067 293.623 209.875 293.848 210.792 293.848C211.307 293.848 211.784 293.78 212.222 293.644C212.665 293.508 213.059 293.31 213.402 293.049C213.746 292.783 214.03 292.46 214.255 292.082C214.485 291.703 214.645 291.271 214.734 290.786L218.623 290.803C218.522 291.638 218.27 292.443 217.868 293.218C217.471 293.987 216.936 294.677 216.261 295.287C215.592 295.89 214.793 296.37 213.864 296.725C212.941 297.074 211.896 297.249 210.73 297.249C209.108 297.249 207.658 296.882 206.38 296.148C205.107 295.414 204.101 294.351 203.362 292.961C202.628 291.57 202.261 289.886 202.261 287.909C202.261 285.926 202.634 284.24 203.379 282.849C204.125 281.458 205.137 280.398 206.415 279.67C207.694 278.937 209.132 278.57 210.73 278.57C211.784 278.57 212.76 278.718 213.66 279.013C214.565 279.309 215.367 279.741 216.066 280.31C216.764 280.872 217.332 281.561 217.77 282.378C218.214 283.195 218.498 284.13 218.623 285.184ZM221.379 297V278.818H225.223V286.32H233.027V278.818H236.862V297H233.027V289.489H225.223V297H221.379ZM240.031 297V278.818H252.283V281.988H243.876V286.32H251.653V289.489H243.876V293.831H252.318V297H240.031ZM271.381 285.184H267.493C267.422 284.681 267.277 284.234 267.058 283.843C266.839 283.446 266.558 283.109 266.214 282.831C265.871 282.553 265.475 282.34 265.025 282.192C264.581 282.044 264.099 281.97 263.578 281.97C262.637 281.97 261.817 282.204 261.119 282.671C260.42 283.133 259.879 283.808 259.494 284.695C259.109 285.577 258.917 286.648 258.917 287.909C258.917 289.205 259.109 290.294 259.494 291.176C259.884 292.058 260.429 292.724 261.127 293.174C261.826 293.623 262.634 293.848 263.551 293.848C264.066 293.848 264.542 293.78 264.98 293.644C265.424 293.508 265.818 293.31 266.161 293.049C266.504 292.783 266.789 292.46 267.013 292.082C267.244 291.703 267.404 291.271 267.493 290.786L271.381 290.803C271.281 291.638 271.029 292.443 270.627 293.218C270.23 293.987 269.695 294.677 269.02 295.287C268.351 295.89 267.552 296.37 266.623 296.725C265.699 297.074 264.655 297.249 263.489 297.249C261.867 297.249 260.417 296.882 259.139 296.148C257.866 295.414 256.86 294.351 256.12 292.961C255.386 291.57 255.019 289.886 255.019 287.909C255.019 285.926 255.392 284.24 256.138 282.849C256.884 281.458 257.896 280.398 259.174 279.67C260.453 278.937 261.891 278.57 263.489 278.57C264.542 278.57 265.519 278.718 266.419 279.013C267.324 279.309 268.126 279.741 268.824 280.31C269.523 280.872 270.091 281.561 270.529 282.378C270.973 283.195 271.257 284.13 271.381 285.184ZM274.138 297V278.818H277.982V286.835H278.222L284.765 278.818H289.372L282.625 286.959L289.452 297H284.853L279.873 289.525L277.982 291.833V297H274.138ZM291.374 297V278.818H295.218V293.831H303.013V297H291.374ZM309.403 278.818V297H305.559V278.818H309.403ZM322.429 284.047C322.358 283.331 322.053 282.775 321.514 282.378C320.976 281.982 320.245 281.783 319.322 281.783C318.694 281.783 318.165 281.872 317.733 282.05C317.3 282.221 316.969 282.461 316.738 282.769C316.513 283.077 316.401 283.426 316.401 283.816C316.389 284.142 316.457 284.426 316.605 284.669C316.759 284.911 316.969 285.121 317.235 285.299C317.502 285.471 317.809 285.622 318.159 285.752C318.508 285.876 318.881 285.983 319.277 286.071L320.911 286.462C321.704 286.64 322.432 286.876 323.095 287.172C323.758 287.468 324.332 287.832 324.817 288.264C325.302 288.696 325.678 289.205 325.945 289.791C326.217 290.377 326.356 291.049 326.362 291.806C326.356 292.919 326.072 293.884 325.509 294.701C324.953 295.511 324.148 296.142 323.095 296.592C322.047 297.036 320.784 297.257 319.304 297.257C317.836 297.257 316.558 297.033 315.469 296.583C314.386 296.133 313.539 295.467 312.93 294.585C312.326 293.697 312.009 292.6 311.98 291.292H315.699C315.741 291.901 315.916 292.41 316.223 292.819C316.537 293.221 316.954 293.526 317.475 293.733C318.002 293.934 318.597 294.035 319.259 294.035C319.911 294.035 320.476 293.94 320.955 293.751C321.44 293.561 321.816 293.298 322.083 292.961C322.349 292.623 322.482 292.236 322.482 291.798C322.482 291.389 322.361 291.046 322.118 290.768C321.881 290.49 321.532 290.253 321.071 290.058C320.615 289.862 320.056 289.685 319.393 289.525L317.413 289.028C315.88 288.655 314.67 288.072 313.782 287.279C312.894 286.486 312.453 285.417 312.459 284.074C312.453 282.973 312.746 282.011 313.338 281.189C313.936 280.366 314.755 279.724 315.797 279.262C316.839 278.8 318.023 278.57 319.348 278.57C320.698 278.57 321.876 278.8 322.882 279.262C323.894 279.724 324.681 280.366 325.243 281.189C325.805 282.011 326.095 282.964 326.113 284.047H322.429ZM328.255 281.988V278.818H343.188V281.988H337.621V297H333.821V281.988H328.255ZM359.236 278.818V297H355.392V282.467H355.286L351.122 285.077V281.668L355.623 278.818H359.236ZM371.512 277.966L365.653 299.734H362.395L368.254 277.966H371.512ZM380.019 297.249C378.694 297.249 377.513 297.021 376.477 296.565C375.447 296.103 374.634 295.47 374.036 294.665C373.444 293.854 373.139 292.919 373.121 291.86H376.992C377.016 292.304 377.161 292.694 377.427 293.032C377.699 293.363 378.06 293.621 378.51 293.804C378.96 293.987 379.466 294.079 380.028 294.079C380.614 294.079 381.132 293.976 381.582 293.768C382.032 293.561 382.384 293.274 382.638 292.907C382.893 292.54 383.02 292.117 383.02 291.638C383.02 291.152 382.884 290.723 382.612 290.35C382.345 289.972 381.961 289.676 381.458 289.463C380.96 289.25 380.369 289.143 379.682 289.143H377.986V286.32H379.682C380.262 286.32 380.774 286.219 381.218 286.018C381.668 285.817 382.017 285.539 382.266 285.184C382.514 284.823 382.638 284.402 382.638 283.923C382.638 283.467 382.529 283.068 382.31 282.724C382.097 282.375 381.795 282.103 381.404 281.908C381.02 281.712 380.57 281.615 380.055 281.615C379.534 281.615 379.058 281.709 378.626 281.899C378.194 282.082 377.847 282.346 377.587 282.689C377.326 283.032 377.187 283.435 377.17 283.896H373.485C373.503 282.849 373.802 281.925 374.382 281.126C374.962 280.327 375.743 279.703 376.726 279.253C377.714 278.797 378.83 278.57 380.073 278.57C381.327 278.57 382.425 278.797 383.366 279.253C384.307 279.709 385.038 280.324 385.559 281.1C386.086 281.869 386.346 282.733 386.34 283.692C386.346 284.71 386.03 285.559 385.391 286.24C384.757 286.921 383.932 287.353 382.914 287.536V287.678C384.251 287.85 385.269 288.315 385.968 289.072C386.672 289.824 387.021 290.765 387.015 291.895C387.021 292.931 386.722 293.851 386.119 294.656C385.521 295.461 384.695 296.094 383.642 296.556C382.588 297.018 381.381 297.249 380.019 297.249Z" fill="#929292"/>
<g filter="url(#filter2_d_330_812)">
<circle cx="218.5" cy="335.5" r="12.5" fill="white"/>
<circle cx="218.5" cy="335.5" r="12.25" stroke="#E4E3E3" stroke-width="0.5"/>
</g>
<path d="M244.758 344V328H247.172V334.953H255.148V328H257.57V344H255.148V337.023H247.172V344H244.758ZM265.953 344.242C264.828 344.242 263.846 343.984 263.008 343.469C262.169 342.953 261.518 342.232 261.055 341.305C260.591 340.378 260.359 339.294 260.359 338.055C260.359 336.81 260.591 335.721 261.055 334.789C261.518 333.857 262.169 333.133 263.008 332.617C263.846 332.102 264.828 331.844 265.953 331.844C267.078 331.844 268.06 332.102 268.898 332.617C269.737 333.133 270.388 333.857 270.852 334.789C271.315 335.721 271.547 336.81 271.547 338.055C271.547 339.294 271.315 340.378 270.852 341.305C270.388 342.232 269.737 342.953 268.898 343.469C268.06 343.984 267.078 344.242 265.953 344.242ZM265.961 342.281C266.69 342.281 267.294 342.089 267.773 341.703C268.253 341.318 268.607 340.805 268.836 340.164C269.07 339.523 269.188 338.818 269.188 338.047C269.188 337.281 269.07 336.578 268.836 335.937C268.607 335.292 268.253 334.773 267.773 334.383C267.294 333.992 266.69 333.797 265.961 333.797C265.227 333.797 264.617 333.992 264.133 334.383C263.654 334.773 263.297 335.292 263.063 335.937C262.833 336.578 262.719 337.281 262.719 338.047C262.719 338.818 262.833 339.523 263.063 340.164C263.297 340.805 263.654 341.318 264.133 341.703C264.617 342.089 265.227 342.281 265.961 342.281ZM274.154 344V332H276.396V333.953H276.545C276.795 333.292 277.204 332.776 277.771 332.406C278.339 332.031 279.019 331.844 279.811 331.844C280.613 331.844 281.285 332.031 281.826 332.406C282.373 332.781 282.777 333.297 283.037 333.953H283.162C283.449 333.312 283.904 332.802 284.529 332.422C285.154 332.036 285.899 331.844 286.764 331.844C287.852 331.844 288.74 332.185 289.428 332.867C290.12 333.549 290.467 334.578 290.467 335.953V344H288.131V336.172C288.131 335.359 287.91 334.771 287.467 334.406C287.024 334.042 286.495 333.859 285.881 333.859C285.12 333.859 284.529 334.094 284.107 334.562C283.686 335.026 283.475 335.622 283.475 336.352V344H281.146V336.023C281.146 335.372 280.943 334.849 280.537 334.453C280.131 334.057 279.602 333.859 278.951 333.859C278.508 333.859 278.1 333.977 277.725 334.211C277.355 334.44 277.055 334.76 276.826 335.172C276.602 335.583 276.49 336.06 276.49 336.602V344H274.154ZM298.77 344.242C297.587 344.242 296.569 343.99 295.715 343.484C294.866 342.974 294.21 342.258 293.746 341.336C293.288 340.409 293.059 339.323 293.059 338.078C293.059 336.849 293.288 335.766 293.746 334.828C294.21 333.891 294.855 333.159 295.684 332.633C296.517 332.107 297.491 331.844 298.605 331.844C299.283 331.844 299.939 331.956 300.574 332.18C301.21 332.404 301.78 332.755 302.285 333.234C302.79 333.714 303.189 334.336 303.48 335.102C303.772 335.862 303.918 336.786 303.918 337.875V338.703H294.379V336.953H301.629C301.629 336.339 301.504 335.794 301.254 335.32C301.004 334.841 300.652 334.464 300.199 334.187C299.751 333.911 299.225 333.773 298.621 333.773C297.965 333.773 297.392 333.935 296.902 334.258C296.418 334.576 296.043 334.992 295.777 335.508C295.517 336.018 295.387 336.573 295.387 337.172V338.539C295.387 339.341 295.527 340.023 295.809 340.586C296.095 341.148 296.493 341.578 297.004 341.875C297.514 342.167 298.111 342.312 298.793 342.312C299.236 342.312 299.639 342.25 300.004 342.125C300.368 341.995 300.684 341.802 300.949 341.547C301.215 341.292 301.418 340.977 301.559 340.602L303.77 341C303.592 341.651 303.275 342.221 302.816 342.711C302.363 343.195 301.793 343.573 301.105 343.844C300.423 344.109 299.645 344.242 298.77 344.242ZM309.09 344L305.559 332H307.973L310.324 340.812H310.441L312.801 332H315.215L317.559 340.773H317.676L320.012 332H322.426L318.902 344H316.52L314.082 335.336H313.902L311.465 344H309.09ZM329.332 344.242C328.207 344.242 327.225 343.984 326.387 343.469C325.548 342.953 324.897 342.232 324.434 341.305C323.97 340.378 323.738 339.294 323.738 338.055C323.738 336.81 323.97 335.721 324.434 334.789C324.897 333.857 325.548 333.133 326.387 332.617C327.225 332.102 328.207 331.844 329.332 331.844C330.457 331.844 331.439 332.102 332.277 332.617C333.116 333.133 333.767 333.857 334.23 334.789C334.694 335.721 334.926 336.81 334.926 338.055C334.926 339.294 334.694 340.378 334.23 341.305C333.767 342.232 333.116 342.953 332.277 343.469C331.439 343.984 330.457 344.242 329.332 344.242ZM329.34 342.281C330.069 342.281 330.673 342.089 331.152 341.703C331.632 341.318 331.986 340.805 332.215 340.164C332.449 339.523 332.566 338.818 332.566 338.047C332.566 337.281 332.449 336.578 332.215 335.937C331.986 335.292 331.632 334.773 331.152 334.383C330.673 333.992 330.069 333.797 329.34 333.797C328.605 333.797 327.996 333.992 327.512 334.383C327.033 334.773 326.676 335.292 326.441 335.937C326.212 336.578 326.098 337.281 326.098 338.047C326.098 338.818 326.212 339.523 326.441 340.164C326.676 340.805 327.033 341.318 327.512 341.703C327.996 342.089 328.605 342.281 329.34 342.281ZM337.533 344V332H339.791V333.906H339.916C340.135 333.26 340.52 332.753 341.072 332.383C341.63 332.008 342.26 331.82 342.963 331.82C343.109 331.82 343.281 331.826 343.479 331.836C343.682 331.846 343.84 331.859 343.955 331.875V334.109C343.861 334.083 343.695 334.055 343.455 334.023C343.215 333.987 342.976 333.969 342.736 333.969C342.184 333.969 341.692 334.086 341.26 334.32C340.833 334.549 340.494 334.87 340.244 335.281C339.994 335.687 339.869 336.151 339.869 336.672V344H337.533ZM348.125 339.93L348.109 337.078H348.516L353.297 332H356.094L350.641 337.781H350.273L348.125 339.93ZM345.977 344V328H348.313V344H345.977ZM353.555 344L349.258 338.297L350.867 336.664L356.422 344H353.555ZM365.584 344H363.021L368.779 328H371.568L377.326 344H374.764L370.24 330.906H370.115L365.584 344ZM366.014 337.734H374.326V339.766H366.014V337.734ZM388.355 334.93L386.238 335.305C386.15 335.034 386.009 334.776 385.816 334.531C385.629 334.286 385.374 334.086 385.051 333.93C384.728 333.773 384.324 333.695 383.84 333.695C383.178 333.695 382.626 333.844 382.184 334.141C381.741 334.432 381.52 334.81 381.52 335.273C381.52 335.674 381.668 335.997 381.965 336.242C382.262 336.487 382.741 336.687 383.402 336.844L385.309 337.281C386.413 337.536 387.236 337.93 387.777 338.461C388.319 338.992 388.59 339.682 388.59 340.531C388.59 341.25 388.382 341.891 387.965 342.453C387.553 343.01 386.978 343.448 386.238 343.766C385.504 344.083 384.652 344.242 383.684 344.242C382.34 344.242 381.243 343.956 380.395 343.383C379.546 342.805 379.025 341.984 378.832 340.922L381.09 340.578C381.23 341.167 381.52 341.612 381.957 341.914C382.395 342.211 382.965 342.359 383.668 342.359C384.434 342.359 385.046 342.201 385.504 341.883C385.962 341.56 386.191 341.167 386.191 340.703C386.191 340.328 386.051 340.013 385.77 339.758C385.493 339.503 385.069 339.31 384.496 339.18L382.465 338.734C381.345 338.479 380.517 338.073 379.98 337.516C379.449 336.958 379.184 336.253 379.184 335.398C379.184 334.69 379.382 334.07 379.777 333.539C380.173 333.008 380.72 332.594 381.418 332.297C382.116 331.995 382.915 331.844 383.816 331.844C385.113 331.844 386.134 332.125 386.879 332.687C387.624 333.245 388.116 333.992 388.355 334.93ZM400.15 334.93L398.033 335.305C397.945 335.034 397.804 334.776 397.611 334.531C397.424 334.286 397.169 334.086 396.846 333.93C396.523 333.773 396.119 333.695 395.635 333.695C394.973 333.695 394.421 333.844 393.979 334.141C393.536 334.432 393.314 334.81 393.314 335.273C393.314 335.674 393.463 335.997 393.76 336.242C394.057 336.487 394.536 336.687 395.197 336.844L397.104 337.281C398.208 337.536 399.031 337.93 399.572 338.461C400.114 338.992 400.385 339.682 400.385 340.531C400.385 341.25 400.176 341.891 399.76 342.453C399.348 343.01 398.773 343.448 398.033 343.766C397.299 344.083 396.447 344.242 395.479 344.242C394.135 344.242 393.038 343.956 392.189 343.383C391.34 342.805 390.82 341.984 390.627 340.922L392.885 340.578C393.025 341.167 393.314 341.612 393.752 341.914C394.189 342.211 394.76 342.359 395.463 342.359C396.229 342.359 396.84 342.201 397.299 341.883C397.757 341.56 397.986 341.167 397.986 340.703C397.986 340.328 397.846 340.013 397.564 339.758C397.288 339.503 396.864 339.31 396.291 339.18L394.26 338.734C393.14 338.479 392.312 338.073 391.775 337.516C391.244 336.958 390.979 336.253 390.979 335.398C390.979 334.69 391.176 334.07 391.572 333.539C391.968 333.008 392.515 332.594 393.213 332.297C393.911 331.995 394.71 331.844 395.611 331.844C396.908 331.844 397.929 332.125 398.674 332.687C399.419 333.245 399.911 333.992 400.15 334.93ZM402.953 344V332H405.289V344H402.953ZM404.133 330.148C403.727 330.148 403.378 330.013 403.086 329.742C402.799 329.466 402.656 329.138 402.656 328.758C402.656 328.372 402.799 328.044 403.086 327.773C403.378 327.497 403.727 327.359 404.133 327.359C404.539 327.359 404.885 327.497 405.172 327.773C405.464 328.044 405.609 328.372 405.609 328.758C405.609 329.138 405.464 329.466 405.172 329.742C404.885 330.013 404.539 330.148 404.133 330.148ZM413.463 348.75C412.51 348.75 411.689 348.625 411.002 348.375C410.32 348.125 409.762 347.794 409.33 347.383C408.898 346.971 408.575 346.521 408.361 346.031L410.369 345.203C410.51 345.432 410.697 345.674 410.932 345.93C411.171 346.19 411.494 346.411 411.9 346.594C412.312 346.776 412.84 346.867 413.486 346.867C414.372 346.867 415.104 346.651 415.682 346.219C416.26 345.792 416.549 345.109 416.549 344.172V341.812H416.4C416.26 342.068 416.057 342.352 415.791 342.664C415.531 342.977 415.171 343.247 414.713 343.477C414.255 343.706 413.658 343.82 412.924 343.82C411.976 343.82 411.122 343.599 410.361 343.156C409.606 342.708 409.007 342.049 408.564 341.18C408.127 340.305 407.908 339.229 407.908 337.953C407.908 336.677 408.124 335.583 408.557 334.672C408.994 333.76 409.593 333.062 410.354 332.578C411.114 332.089 411.976 331.844 412.939 331.844C413.684 331.844 414.286 331.969 414.744 332.219C415.202 332.464 415.559 332.75 415.814 333.078C416.075 333.406 416.275 333.695 416.416 333.945H416.588V332H418.877V344.266C418.877 345.297 418.637 346.143 418.158 346.805C417.679 347.466 417.031 347.956 416.213 348.273C415.4 348.591 414.484 348.75 413.463 348.75ZM413.439 341.883C414.111 341.883 414.679 341.727 415.143 341.414C415.611 341.096 415.965 340.643 416.205 340.055C416.45 339.461 416.572 338.75 416.572 337.922C416.572 337.115 416.452 336.404 416.213 335.789C415.973 335.174 415.622 334.695 415.158 334.352C414.695 334.003 414.122 333.828 413.439 333.828C412.736 333.828 412.15 334.01 411.682 334.375C411.213 334.734 410.859 335.224 410.619 335.844C410.385 336.464 410.268 337.156 410.268 337.922C410.268 338.708 410.387 339.398 410.627 339.992C410.867 340.586 411.221 341.049 411.689 341.383C412.163 341.716 412.747 341.883 413.439 341.883ZM424.346 336.875V344H422.01V332H424.252V333.953H424.4C424.676 333.318 425.109 332.807 425.697 332.422C426.291 332.036 427.038 331.844 427.939 331.844C428.757 331.844 429.473 332.016 430.088 332.359C430.702 332.698 431.179 333.203 431.518 333.875C431.856 334.547 432.025 335.378 432.025 336.367V344H429.689V336.648C429.689 335.779 429.463 335.099 429.01 334.609C428.557 334.115 427.934 333.867 427.143 333.867C426.601 333.867 426.119 333.984 425.697 334.219C425.281 334.453 424.95 334.797 424.705 335.25C424.465 335.698 424.346 336.24 424.346 336.875ZM435.158 344V332H437.4V333.953H437.549C437.799 333.292 438.208 332.776 438.775 332.406C439.343 332.031 440.023 331.844 440.814 331.844C441.617 331.844 442.288 332.031 442.83 332.406C443.377 332.781 443.781 333.297 444.041 333.953H444.166C444.452 333.312 444.908 332.802 445.533 332.422C446.158 332.036 446.903 331.844 447.768 331.844C448.856 331.844 449.744 332.185 450.432 332.867C451.124 333.549 451.471 334.578 451.471 335.953V344H449.135V336.172C449.135 335.359 448.913 334.771 448.471 334.406C448.028 334.042 447.499 333.859 446.885 333.859C446.124 333.859 445.533 334.094 445.111 334.562C444.689 335.026 444.479 335.622 444.479 336.352V344H442.15V336.023C442.15 335.372 441.947 334.849 441.541 334.453C441.135 334.057 440.606 333.859 439.955 333.859C439.512 333.859 439.104 333.977 438.729 334.211C438.359 334.44 438.059 334.76 437.83 335.172C437.606 335.583 437.494 336.06 437.494 336.602V344H435.158ZM459.773 344.242C458.591 344.242 457.573 343.99 456.719 343.484C455.87 342.974 455.214 342.258 454.75 341.336C454.292 340.409 454.062 339.323 454.062 338.078C454.062 336.849 454.292 335.766 454.75 334.828C455.214 333.891 455.859 333.159 456.688 332.633C457.521 332.107 458.495 331.844 459.609 331.844C460.286 331.844 460.943 331.956 461.578 332.18C462.214 332.404 462.784 332.755 463.289 333.234C463.794 333.714 464.193 334.336 464.484 335.102C464.776 335.862 464.922 336.786 464.922 337.875V338.703H455.383V336.953H462.633C462.633 336.339 462.508 335.794 462.258 335.32C462.008 334.841 461.656 334.464 461.203 334.187C460.755 333.911 460.229 333.773 459.625 333.773C458.969 333.773 458.396 333.935 457.906 334.258C457.422 334.576 457.047 334.992 456.781 335.508C456.521 336.018 456.391 336.573 456.391 337.172V338.539C456.391 339.341 456.531 340.023 456.812 340.586C457.099 341.148 457.497 341.578 458.008 341.875C458.518 342.167 459.115 342.312 459.797 342.312C460.24 342.312 460.643 342.25 461.008 342.125C461.372 341.995 461.688 341.802 461.953 341.547C462.219 341.292 462.422 340.977 462.563 340.602L464.773 341C464.596 341.651 464.279 342.221 463.82 342.711C463.367 343.195 462.797 343.573 462.109 343.844C461.427 344.109 460.648 344.242 459.773 344.242ZM469.85 336.875V344H467.514V332H469.756V333.953H469.904C470.18 333.318 470.613 332.807 471.201 332.422C471.795 332.036 472.542 331.844 473.443 331.844C474.261 331.844 474.977 332.016 475.592 332.359C476.206 332.698 476.683 333.203 477.021 333.875C477.36 334.547 477.529 335.378 477.529 336.367V344H475.193V336.648C475.193 335.779 474.967 335.099 474.514 334.609C474.061 334.115 473.438 333.867 472.646 333.867C472.105 333.867 471.623 333.984 471.201 334.219C470.785 334.453 470.454 334.797 470.209 335.25C469.969 335.698 469.85 336.24 469.85 336.875ZM486.264 332V333.875H479.709V332H486.264ZM481.467 329.125H483.803V340.477C483.803 340.93 483.87 341.271 484.006 341.5C484.141 341.724 484.316 341.878 484.529 341.961C484.748 342.039 484.985 342.078 485.24 342.078C485.428 342.078 485.592 342.065 485.732 342.039C485.873 342.013 485.982 341.992 486.061 341.977L486.482 343.906C486.347 343.958 486.154 344.01 485.904 344.063C485.654 344.12 485.342 344.151 484.967 344.156C484.352 344.167 483.779 344.057 483.248 343.828C482.717 343.599 482.287 343.245 481.959 342.766C481.631 342.286 481.467 341.685 481.467 340.961V329.125Z" fill="#999999"/>
<g filter="url(#filter3_d_330_812)">
<circle cx="218.5" cy="376.5" r="12.5" fill="white"/>
<circle cx="218.5" cy="376.5" r="12.25" stroke="#E4E3E3" stroke-width="0.5"/>
</g>
<path d="M244.758 385V369H250.461C251.701 369 252.729 369.214 253.547 369.641C254.37 370.068 254.984 370.659 255.391 371.414C255.797 372.164 256 373.031 256 374.016C256 374.995 255.794 375.857 255.383 376.602C254.977 377.341 254.362 377.917 253.539 378.328C252.721 378.74 251.693 378.945 250.453 378.945H246.133V376.867H250.234C251.016 376.867 251.651 376.755 252.141 376.531C252.635 376.307 252.997 375.982 253.227 375.555C253.456 375.128 253.57 374.615 253.57 374.016C253.57 373.411 253.453 372.888 253.219 372.445C252.99 372.003 252.628 371.664 252.133 371.43C251.643 371.19 251 371.07 250.203 371.07H247.172V385H244.758ZM252.656 377.781L256.609 385H253.859L249.984 377.781H252.656ZM263.771 385.242C262.589 385.242 261.571 384.99 260.717 384.484C259.868 383.974 259.212 383.258 258.748 382.336C258.29 381.409 258.061 380.323 258.061 379.078C258.061 377.849 258.29 376.766 258.748 375.828C259.212 374.891 259.857 374.159 260.686 373.633C261.519 373.107 262.493 372.844 263.607 372.844C264.285 372.844 264.941 372.956 265.576 373.18C266.212 373.404 266.782 373.755 267.287 374.234C267.792 374.714 268.191 375.336 268.482 376.102C268.774 376.862 268.92 377.786 268.92 378.875V379.703H259.381V377.953H266.631C266.631 377.339 266.506 376.794 266.256 376.32C266.006 375.841 265.654 375.464 265.201 375.187C264.753 374.911 264.227 374.773 263.623 374.773C262.967 374.773 262.394 374.935 261.904 375.258C261.42 375.576 261.045 375.992 260.779 376.508C260.519 377.018 260.389 377.573 260.389 378.172V379.539C260.389 380.341 260.529 381.023 260.811 381.586C261.097 382.148 261.495 382.578 262.006 382.875C262.516 383.167 263.113 383.312 263.795 383.312C264.238 383.312 264.641 383.25 265.006 383.125C265.37 382.995 265.686 382.802 265.951 382.547C266.217 382.292 266.42 381.977 266.561 381.602L268.771 382C268.594 382.651 268.277 383.221 267.818 383.711C267.365 384.195 266.795 384.573 266.107 384.844C265.425 385.109 264.646 385.242 263.771 385.242ZM275.004 385.266C274.243 385.266 273.556 385.125 272.941 384.844C272.327 384.557 271.84 384.143 271.48 383.602C271.126 383.06 270.949 382.396 270.949 381.609C270.949 380.932 271.079 380.375 271.34 379.937C271.6 379.5 271.952 379.154 272.395 378.898C272.837 378.643 273.332 378.451 273.879 378.32C274.426 378.19 274.983 378.091 275.551 378.023C276.27 377.94 276.853 377.872 277.301 377.82C277.749 377.763 278.074 377.672 278.277 377.547C278.48 377.422 278.582 377.219 278.582 376.937V376.883C278.582 376.201 278.389 375.672 278.004 375.297C277.624 374.922 277.056 374.734 276.301 374.734C275.514 374.734 274.895 374.909 274.441 375.258C273.993 375.602 273.684 375.984 273.512 376.406L271.316 375.906C271.577 375.177 271.957 374.589 272.457 374.141C272.962 373.687 273.543 373.359 274.199 373.156C274.855 372.948 275.546 372.844 276.27 372.844C276.749 372.844 277.257 372.901 277.793 373.016C278.335 373.125 278.84 373.328 279.309 373.625C279.783 373.922 280.171 374.346 280.473 374.898C280.775 375.445 280.926 376.156 280.926 377.031V385H278.645V383.359H278.551C278.4 383.661 278.173 383.958 277.871 384.25C277.569 384.542 277.181 384.784 276.707 384.977C276.233 385.169 275.665 385.266 275.004 385.266ZM275.512 383.391C276.158 383.391 276.71 383.263 277.168 383.008C277.632 382.753 277.983 382.419 278.223 382.008C278.467 381.591 278.59 381.146 278.59 380.672V379.125C278.507 379.208 278.345 379.286 278.105 379.359C277.871 379.427 277.603 379.487 277.301 379.539C276.999 379.586 276.704 379.63 276.418 379.672C276.132 379.708 275.892 379.74 275.699 379.766C275.246 379.823 274.832 379.919 274.457 380.055C274.087 380.19 273.79 380.385 273.566 380.641C273.348 380.891 273.238 381.224 273.238 381.641C273.238 382.219 273.452 382.656 273.879 382.953C274.306 383.245 274.85 383.391 275.512 383.391ZM288.529 385.234C287.561 385.234 286.696 384.987 285.936 384.492C285.18 383.992 284.587 383.281 284.154 382.359C283.727 381.432 283.514 380.32 283.514 379.023C283.514 377.727 283.73 376.617 284.162 375.695C284.6 374.773 285.199 374.068 285.959 373.578C286.719 373.089 287.581 372.844 288.545 372.844C289.29 372.844 289.889 372.969 290.342 373.219C290.8 373.464 291.154 373.75 291.404 374.078C291.66 374.406 291.857 374.695 291.998 374.945H292.139V369H294.475V385H292.193V383.133H291.998C291.857 383.388 291.654 383.68 291.389 384.008C291.128 384.336 290.769 384.622 290.311 384.867C289.852 385.112 289.258 385.234 288.529 385.234ZM289.045 383.242C289.717 383.242 290.285 383.065 290.748 382.711C291.217 382.352 291.571 381.854 291.811 381.219C292.055 380.583 292.178 379.844 292.178 379C292.178 378.167 292.058 377.437 291.818 376.812C291.579 376.187 291.227 375.701 290.764 375.352C290.3 375.003 289.727 374.828 289.045 374.828C288.342 374.828 287.756 375.01 287.287 375.375C286.818 375.74 286.464 376.237 286.225 376.867C285.99 377.497 285.873 378.208 285.873 379C285.873 379.802 285.993 380.523 286.232 381.164C286.472 381.805 286.826 382.312 287.295 382.687C287.769 383.057 288.352 383.242 289.045 383.242ZM297.809 385V373H300.145V385H297.809ZM298.988 371.148C298.582 371.148 298.233 371.013 297.941 370.742C297.655 370.466 297.512 370.138 297.512 369.758C297.512 369.372 297.655 369.044 297.941 368.773C298.233 368.497 298.582 368.359 298.988 368.359C299.395 368.359 299.741 368.497 300.027 368.773C300.319 369.044 300.465 369.372 300.465 369.758C300.465 370.138 300.319 370.466 300.027 370.742C299.741 371.013 299.395 371.148 298.988 371.148ZM305.623 377.875V385H303.287V373H305.529V374.953H305.678C305.954 374.318 306.386 373.807 306.975 373.422C307.568 373.036 308.316 372.844 309.217 372.844C310.035 372.844 310.751 373.016 311.365 373.359C311.98 373.698 312.456 374.203 312.795 374.875C313.133 375.547 313.303 376.378 313.303 377.367V385H310.967V377.648C310.967 376.779 310.74 376.099 310.287 375.609C309.834 375.115 309.212 374.867 308.42 374.867C307.878 374.867 307.396 374.984 306.975 375.219C306.558 375.453 306.227 375.797 305.982 376.25C305.743 376.698 305.623 377.24 305.623 377.875ZM321.467 389.75C320.514 389.75 319.693 389.625 319.006 389.375C318.324 389.125 317.766 388.794 317.334 388.383C316.902 387.971 316.579 387.521 316.365 387.031L318.373 386.203C318.514 386.432 318.701 386.674 318.936 386.93C319.175 387.19 319.498 387.411 319.904 387.594C320.316 387.776 320.844 387.867 321.49 387.867C322.376 387.867 323.107 387.651 323.686 387.219C324.264 386.792 324.553 386.109 324.553 385.172V382.812H324.404C324.264 383.068 324.061 383.352 323.795 383.664C323.535 383.977 323.175 384.247 322.717 384.477C322.258 384.706 321.662 384.82 320.928 384.82C319.98 384.82 319.126 384.599 318.365 384.156C317.61 383.708 317.011 383.049 316.568 382.18C316.131 381.305 315.912 380.229 315.912 378.953C315.912 377.677 316.128 376.583 316.561 375.672C316.998 374.76 317.597 374.062 318.357 373.578C319.118 373.089 319.98 372.844 320.943 372.844C321.688 372.844 322.29 372.969 322.748 373.219C323.206 373.464 323.563 373.75 323.818 374.078C324.079 374.406 324.279 374.695 324.42 374.945H324.592V373H326.881V385.266C326.881 386.297 326.641 387.143 326.162 387.805C325.683 388.466 325.035 388.956 324.217 389.273C323.404 389.591 322.488 389.75 321.467 389.75ZM321.443 382.883C322.115 382.883 322.683 382.727 323.146 382.414C323.615 382.096 323.969 381.643 324.209 381.055C324.454 380.461 324.576 379.75 324.576 378.922C324.576 378.115 324.456 377.404 324.217 376.789C323.977 376.174 323.626 375.695 323.162 375.352C322.699 375.003 322.126 374.828 321.443 374.828C320.74 374.828 320.154 375.01 319.686 375.375C319.217 375.734 318.863 376.224 318.623 376.844C318.389 377.464 318.271 378.156 318.271 378.922C318.271 379.708 318.391 380.398 318.631 380.992C318.87 381.586 319.225 382.049 319.693 382.383C320.167 382.716 320.751 382.883 321.443 382.883ZM336.023 385V369H341.883C343.018 369 343.958 369.187 344.703 369.562C345.448 369.932 346.005 370.435 346.375 371.07C346.745 371.701 346.93 372.411 346.93 373.203C346.93 373.87 346.807 374.432 346.563 374.891C346.318 375.344 345.99 375.708 345.578 375.984C345.172 376.255 344.724 376.453 344.234 376.578V376.734C344.766 376.76 345.284 376.932 345.789 377.25C346.299 377.562 346.721 378.008 347.055 378.586C347.388 379.164 347.555 379.867 347.555 380.695C347.555 381.513 347.362 382.247 346.977 382.898C346.596 383.544 346.008 384.057 345.211 384.437C344.414 384.812 343.396 385 342.156 385H336.023ZM338.438 382.93H341.922C343.078 382.93 343.906 382.706 344.406 382.258C344.906 381.81 345.156 381.25 345.156 380.578C345.156 380.073 345.029 379.609 344.773 379.187C344.518 378.766 344.154 378.43 343.68 378.18C343.211 377.93 342.654 377.805 342.008 377.805H338.438V382.93ZM338.438 375.922H341.672C342.214 375.922 342.701 375.818 343.133 375.609C343.57 375.401 343.917 375.109 344.172 374.734C344.432 374.354 344.563 373.906 344.563 373.391C344.563 372.729 344.331 372.174 343.867 371.727C343.404 371.279 342.693 371.055 341.734 371.055H338.438V375.922ZM355.285 385.242C354.16 385.242 353.178 384.984 352.34 384.469C351.501 383.953 350.85 383.232 350.387 382.305C349.923 381.378 349.691 380.294 349.691 379.055C349.691 377.81 349.923 376.721 350.387 375.789C350.85 374.857 351.501 374.133 352.34 373.617C353.178 373.102 354.16 372.844 355.285 372.844C356.41 372.844 357.392 373.102 358.23 373.617C359.069 374.133 359.72 374.857 360.184 375.789C360.647 376.721 360.879 377.81 360.879 379.055C360.879 380.294 360.647 381.378 360.184 382.305C359.72 383.232 359.069 383.953 358.23 384.469C357.392 384.984 356.41 385.242 355.285 385.242ZM355.293 383.281C356.022 383.281 356.626 383.089 357.105 382.703C357.585 382.318 357.939 381.805 358.168 381.164C358.402 380.523 358.52 379.818 358.52 379.047C358.52 378.281 358.402 377.578 358.168 376.937C357.939 376.292 357.585 375.773 357.105 375.383C356.626 374.992 356.022 374.797 355.293 374.797C354.559 374.797 353.949 374.992 353.465 375.383C352.986 375.773 352.629 376.292 352.395 376.937C352.165 377.578 352.051 378.281 352.051 379.047C352.051 379.818 352.165 380.523 352.395 381.164C352.629 381.805 352.986 382.318 353.465 382.703C353.949 383.089 354.559 383.281 355.293 383.281ZM368.541 385.242C367.416 385.242 366.434 384.984 365.596 384.469C364.757 383.953 364.106 383.232 363.643 382.305C363.179 381.378 362.947 380.294 362.947 379.055C362.947 377.81 363.179 376.721 363.643 375.789C364.106 374.857 364.757 374.133 365.596 373.617C366.434 373.102 367.416 372.844 368.541 372.844C369.666 372.844 370.648 373.102 371.486 373.617C372.325 374.133 372.976 374.857 373.439 375.789C373.903 376.721 374.135 377.81 374.135 379.055C374.135 380.294 373.903 381.378 373.439 382.305C372.976 383.232 372.325 383.953 371.486 384.469C370.648 384.984 369.666 385.242 368.541 385.242ZM368.549 383.281C369.278 383.281 369.882 383.089 370.361 382.703C370.84 382.318 371.195 381.805 371.424 381.164C371.658 380.523 371.775 379.818 371.775 379.047C371.775 378.281 371.658 377.578 371.424 376.937C371.195 376.292 370.84 375.773 370.361 375.383C369.882 374.992 369.278 374.797 368.549 374.797C367.814 374.797 367.205 374.992 366.721 375.383C366.242 375.773 365.885 376.292 365.65 376.937C365.421 377.578 365.307 378.281 365.307 379.047C365.307 379.818 365.421 380.523 365.65 381.164C365.885 381.805 366.242 382.318 366.721 382.703C367.205 383.089 367.814 383.281 368.549 383.281ZM378.891 380.93L378.875 378.078H379.281L384.063 373H386.859L381.406 378.781H381.039L378.891 380.93ZM376.742 385V369H379.078V385H376.742ZM384.32 385L380.023 379.297L381.633 377.664L387.188 385H384.32Z" fill="#999999"/>
<path d="M246.109 427H243.547L249.305 411H252.094L257.852 427H255.289L250.766 413.906H250.641L246.109 427ZM246.539 420.734H254.852V422.766H246.539V420.734ZM262.311 419.875V427H259.975V415H262.217V416.953H262.365C262.641 416.318 263.074 415.807 263.662 415.422C264.256 415.036 265.003 414.844 265.904 414.844C266.722 414.844 267.438 415.016 268.053 415.359C268.667 415.698 269.144 416.203 269.482 416.875C269.821 417.547 269.99 418.378 269.99 419.367V427H267.654V419.648C267.654 418.779 267.428 418.099 266.975 417.609C266.521 417.115 265.899 416.867 265.107 416.867C264.566 416.867 264.084 416.984 263.662 417.219C263.245 417.453 262.915 417.797 262.67 418.25C262.43 418.698 262.311 419.24 262.311 419.875ZM276.615 427.266C275.855 427.266 275.167 427.125 274.553 426.844C273.938 426.557 273.451 426.143 273.092 425.602C272.738 425.06 272.561 424.396 272.561 423.609C272.561 422.932 272.691 422.375 272.951 421.937C273.212 421.5 273.563 421.154 274.006 420.898C274.449 420.643 274.943 420.451 275.49 420.32C276.037 420.19 276.594 420.091 277.162 420.023C277.881 419.94 278.464 419.872 278.912 419.82C279.36 419.763 279.686 419.672 279.889 419.547C280.092 419.422 280.193 419.219 280.193 418.937V418.883C280.193 418.201 280.001 417.672 279.615 417.297C279.235 416.922 278.667 416.734 277.912 416.734C277.126 416.734 276.506 416.909 276.053 417.258C275.605 417.602 275.295 417.984 275.123 418.406L272.928 417.906C273.188 417.177 273.568 416.589 274.068 416.141C274.574 415.687 275.154 415.359 275.811 415.156C276.467 414.948 277.157 414.844 277.881 414.844C278.36 414.844 278.868 414.901 279.404 415.016C279.946 415.125 280.451 415.328 280.92 415.625C281.394 415.922 281.782 416.346 282.084 416.898C282.386 417.445 282.537 418.156 282.537 419.031V427H280.256V425.359H280.162C280.011 425.661 279.785 425.958 279.482 426.25C279.18 426.542 278.792 426.784 278.318 426.977C277.844 427.169 277.277 427.266 276.615 427.266ZM277.123 425.391C277.769 425.391 278.321 425.263 278.779 425.008C279.243 424.753 279.594 424.419 279.834 424.008C280.079 423.591 280.201 423.146 280.201 422.672V421.125C280.118 421.208 279.956 421.286 279.717 421.359C279.482 421.427 279.214 421.487 278.912 421.539C278.61 421.586 278.316 421.63 278.029 421.672C277.743 421.708 277.503 421.74 277.311 421.766C276.857 421.823 276.443 421.919 276.068 422.055C275.699 422.19 275.402 422.385 275.178 422.641C274.959 422.891 274.85 423.224 274.85 423.641C274.85 424.219 275.063 424.656 275.49 424.953C275.917 425.245 276.462 425.391 277.123 425.391ZM287.984 411V427H285.648V411H287.984ZM292.604 431.5C292.255 431.5 291.937 431.471 291.65 431.414C291.364 431.362 291.15 431.305 291.01 431.242L291.572 429.328C291.999 429.443 292.38 429.492 292.713 429.477C293.046 429.461 293.34 429.336 293.596 429.102C293.856 428.867 294.085 428.484 294.283 427.953L294.572 427.156L290.182 415H292.682L295.721 424.312H295.846L298.885 415H301.393L296.447 428.602C296.218 429.227 295.926 429.755 295.572 430.188C295.218 430.625 294.796 430.953 294.307 431.172C293.817 431.391 293.249 431.5 292.604 431.5ZM303.338 427V425.398L309.838 417.141V417.031H303.549V415H312.752V416.703L306.502 424.859V424.969H312.971V427H303.338ZM320.555 427.242C319.372 427.242 318.354 426.99 317.5 426.484C316.651 425.974 315.995 425.258 315.531 424.336C315.073 423.409 314.844 422.323 314.844 421.078C314.844 419.849 315.073 418.766 315.531 417.828C315.995 416.891 316.641 416.159 317.469 415.633C318.302 415.107 319.276 414.844 320.391 414.844C321.068 414.844 321.724 414.956 322.359 415.18C322.995 415.404 323.565 415.755 324.07 416.234C324.576 416.714 324.974 417.336 325.266 418.102C325.557 418.862 325.703 419.786 325.703 420.875V421.703H316.164V419.953H323.414C323.414 419.339 323.289 418.794 323.039 418.32C322.789 417.841 322.438 417.464 321.984 417.187C321.536 416.911 321.01 416.773 320.406 416.773C319.75 416.773 319.177 416.935 318.688 417.258C318.203 417.576 317.828 417.992 317.563 418.508C317.302 419.018 317.172 419.573 317.172 420.172V421.539C317.172 422.341 317.313 423.023 317.594 423.586C317.88 424.148 318.279 424.578 318.789 424.875C319.299 425.167 319.896 425.312 320.578 425.312C321.021 425.312 321.424 425.25 321.789 425.125C322.154 424.995 322.469 424.802 322.734 424.547C323 424.292 323.203 423.977 323.344 423.602L325.555 424C325.378 424.651 325.06 425.221 324.602 425.711C324.148 426.195 323.578 426.573 322.891 426.844C322.208 427.109 321.43 427.242 320.555 427.242ZM334.305 427V411H340.008C341.247 411 342.276 411.214 343.094 411.641C343.917 412.068 344.531 412.659 344.938 413.414C345.344 414.164 345.547 415.031 345.547 416.016C345.547 416.995 345.341 417.857 344.93 418.602C344.523 419.341 343.909 419.917 343.086 420.328C342.268 420.74 341.24 420.945 340 420.945H335.68V418.867H339.781C340.563 418.867 341.198 418.755 341.688 418.531C342.182 418.307 342.544 417.982 342.773 417.555C343.003 417.128 343.117 416.615 343.117 416.016C343.117 415.411 343 414.888 342.766 414.445C342.536 414.003 342.174 413.664 341.68 413.43C341.19 413.19 340.547 413.07 339.75 413.07H336.719V427H334.305ZM342.203 419.781L346.156 427H343.406L339.531 419.781H342.203ZM353.318 427.242C352.136 427.242 351.118 426.99 350.264 426.484C349.415 425.974 348.758 425.258 348.295 424.336C347.837 423.409 347.607 422.323 347.607 421.078C347.607 419.849 347.837 418.766 348.295 417.828C348.758 416.891 349.404 416.159 350.232 415.633C351.066 415.107 352.04 414.844 353.154 414.844C353.831 414.844 354.488 414.956 355.123 415.18C355.758 415.404 356.329 415.755 356.834 416.234C357.339 416.714 357.738 417.336 358.029 418.102C358.321 418.862 358.467 419.786 358.467 420.875V421.703H348.928V419.953H356.178C356.178 419.339 356.053 418.794 355.803 418.32C355.553 417.841 355.201 417.464 354.748 417.187C354.3 416.911 353.774 416.773 353.17 416.773C352.514 416.773 351.941 416.935 351.451 417.258C350.967 417.576 350.592 417.992 350.326 418.508C350.066 419.018 349.936 419.573 349.936 420.172V421.539C349.936 422.341 350.076 423.023 350.357 423.586C350.644 424.148 351.042 424.578 351.553 424.875C352.063 425.167 352.66 425.312 353.342 425.312C353.785 425.312 354.188 425.25 354.553 425.125C354.917 424.995 355.232 424.802 355.498 424.547C355.764 424.292 355.967 423.977 356.107 423.602L358.318 424C358.141 424.651 357.824 425.221 357.365 425.711C356.912 426.195 356.342 426.573 355.654 426.844C354.972 427.109 354.193 427.242 353.318 427.242ZM370.051 417.93L367.934 418.305C367.845 418.034 367.704 417.776 367.512 417.531C367.324 417.286 367.069 417.086 366.746 416.93C366.423 416.773 366.02 416.695 365.535 416.695C364.874 416.695 364.322 416.844 363.879 417.141C363.436 417.432 363.215 417.81 363.215 418.273C363.215 418.674 363.363 418.997 363.66 419.242C363.957 419.487 364.436 419.687 365.098 419.844L367.004 420.281C368.108 420.536 368.931 420.93 369.473 421.461C370.014 421.992 370.285 422.682 370.285 423.531C370.285 424.25 370.077 424.891 369.66 425.453C369.249 426.01 368.673 426.448 367.934 426.766C367.199 427.083 366.348 427.242 365.379 427.242C364.035 427.242 362.939 426.956 362.09 426.383C361.241 425.805 360.72 424.984 360.527 423.922L362.785 423.578C362.926 424.167 363.215 424.612 363.652 424.914C364.09 425.211 364.66 425.359 365.363 425.359C366.129 425.359 366.741 425.201 367.199 424.883C367.658 424.56 367.887 424.167 367.887 423.703C367.887 423.328 367.746 423.013 367.465 422.758C367.189 422.503 366.764 422.31 366.191 422.18L364.16 421.734C363.04 421.479 362.212 421.073 361.676 420.516C361.145 419.958 360.879 419.253 360.879 418.398C360.879 417.69 361.077 417.07 361.473 416.539C361.868 416.008 362.415 415.594 363.113 415.297C363.811 414.995 364.611 414.844 365.512 414.844C366.809 414.844 367.829 415.125 368.574 415.687C369.319 416.245 369.811 416.992 370.051 417.93ZM380.455 422.023V415H382.799V427H380.502V424.922H380.377C380.101 425.563 379.658 426.096 379.049 426.523C378.445 426.945 377.692 427.156 376.791 427.156C376.02 427.156 375.338 426.987 374.744 426.648C374.156 426.305 373.692 425.797 373.354 425.125C373.02 424.453 372.854 423.622 372.854 422.633V415H375.189V422.352C375.189 423.169 375.416 423.82 375.869 424.305C376.322 424.789 376.911 425.031 377.635 425.031C378.072 425.031 378.507 424.922 378.939 424.703C379.377 424.484 379.739 424.154 380.025 423.711C380.317 423.268 380.46 422.706 380.455 422.023ZM388.273 411V427H385.938V411H388.273ZM397.018 415V416.875H390.463V415H397.018ZM392.221 412.125H394.557V423.477C394.557 423.93 394.624 424.271 394.76 424.5C394.895 424.724 395.07 424.878 395.283 424.961C395.502 425.039 395.739 425.078 395.994 425.078C396.182 425.078 396.346 425.065 396.486 425.039C396.627 425.013 396.736 424.992 396.814 424.977L397.236 426.906C397.101 426.958 396.908 427.01 396.658 427.063C396.408 427.12 396.096 427.151 395.721 427.156C395.106 427.167 394.533 427.057 394.002 426.828C393.471 426.599 393.041 426.245 392.713 425.766C392.385 425.286 392.221 424.685 392.221 423.961V412.125Z" fill="#999999"/>
<g filter="url(#filter4_d_330_812)">
<circle cx="218.5" cy="418.5" r="12.5" fill="white"/>
<circle cx="218.5" cy="418.5" r="12.25" stroke="#8B8B8B" stroke-width="0.5"/>
</g>
<circle cx="218.5" cy="418.5" r="9.5" fill="#D55CFF"/>
<path d="M218.623 544.184H214.734C214.663 543.681 214.518 543.234 214.299 542.843C214.08 542.446 213.799 542.109 213.456 541.831C213.112 541.553 212.716 541.34 212.266 541.192C211.822 541.044 211.34 540.97 210.819 540.97C209.878 540.97 209.058 541.204 208.36 541.671C207.661 542.133 207.12 542.808 206.735 543.695C206.35 544.577 206.158 545.648 206.158 546.909C206.158 548.205 206.35 549.294 206.735 550.176C207.126 551.058 207.67 551.724 208.369 552.174C209.067 552.623 209.875 552.848 210.792 552.848C211.307 552.848 211.784 552.78 212.222 552.644C212.665 552.508 213.059 552.31 213.402 552.049C213.746 551.783 214.03 551.46 214.255 551.082C214.485 550.703 214.645 550.271 214.734 549.786L218.623 549.803C218.522 550.638 218.27 551.443 217.868 552.218C217.471 552.987 216.936 553.677 216.261 554.287C215.592 554.89 214.793 555.37 213.864 555.725C212.941 556.074 211.896 556.249 210.73 556.249C209.108 556.249 207.658 555.882 206.38 555.148C205.107 554.414 204.101 553.351 203.362 551.961C202.628 550.57 202.261 548.886 202.261 546.909C202.261 544.926 202.634 543.24 203.379 541.849C204.125 540.458 205.137 539.398 206.415 538.67C207.694 537.937 209.132 537.57 210.73 537.57C211.784 537.57 212.76 537.718 213.66 538.013C214.565 538.309 215.367 538.741 216.066 539.31C216.764 539.872 217.332 540.561 217.77 541.378C218.214 542.195 218.498 543.13 218.623 544.184ZM221.379 556V537.818H225.223V545.32H233.027V537.818H236.862V556H233.027V548.489H225.223V556H221.379ZM240.031 556V537.818H252.283V540.988H243.876V545.32H251.653V548.489H243.876V552.831H252.318V556H240.031ZM271.381 544.184H267.493C267.422 543.681 267.277 543.234 267.058 542.843C266.839 542.446 266.558 542.109 266.214 541.831C265.871 541.553 265.475 541.34 265.025 541.192C264.581 541.044 264.099 540.97 263.578 540.97C262.637 540.97 261.817 541.204 261.119 541.671C260.42 542.133 259.879 542.808 259.494 543.695C259.109 544.577 258.917 545.648 258.917 546.909C258.917 548.205 259.109 549.294 259.494 550.176C259.884 551.058 260.429 551.724 261.127 552.174C261.826 552.623 262.634 552.848 263.551 552.848C264.066 552.848 264.542 552.78 264.98 552.644C265.424 552.508 265.818 552.31 266.161 552.049C266.504 551.783 266.789 551.46 267.013 551.082C267.244 550.703 267.404 550.271 267.493 549.786L271.381 549.803C271.281 550.638 271.029 551.443 270.627 552.218C270.23 552.987 269.695 553.677 269.02 554.287C268.351 554.89 267.552 555.37 266.623 555.725C265.699 556.074 264.655 556.249 263.489 556.249C261.867 556.249 260.417 555.882 259.139 555.148C257.866 554.414 256.86 553.351 256.12 551.961C255.386 550.57 255.019 548.886 255.019 546.909C255.019 544.926 255.392 543.24 256.138 541.849C256.884 540.458 257.896 539.398 259.174 538.67C260.453 537.937 261.891 537.57 263.489 537.57C264.542 537.57 265.519 537.718 266.419 538.013C267.324 538.309 268.126 538.741 268.824 539.31C269.523 539.872 270.091 540.561 270.529 541.378C270.973 542.195 271.257 543.13 271.381 544.184ZM274.138 556V537.818H277.982V545.835H278.222L284.765 537.818H289.372L282.625 545.959L289.452 556H284.853L279.873 548.525L277.982 550.833V556H274.138ZM291.374 556V537.818H295.218V552.831H303.013V556H291.374ZM309.403 537.818V556H305.559V537.818H309.403ZM322.429 543.047C322.358 542.331 322.053 541.775 321.514 541.378C320.976 540.982 320.245 540.783 319.322 540.783C318.694 540.783 318.165 540.872 317.733 541.05C317.3 541.221 316.969 541.461 316.738 541.769C316.513 542.077 316.401 542.426 316.401 542.816C316.389 543.142 316.457 543.426 316.605 543.669C316.759 543.911 316.969 544.121 317.235 544.299C317.502 544.471 317.809 544.622 318.159 544.752C318.508 544.876 318.881 544.983 319.277 545.071L320.911 545.462C321.704 545.64 322.432 545.876 323.095 546.172C323.758 546.468 324.332 546.832 324.817 547.264C325.302 547.696 325.678 548.205 325.945 548.791C326.217 549.377 326.356 550.049 326.362 550.806C326.356 551.919 326.072 552.884 325.509 553.701C324.953 554.511 324.148 555.142 323.095 555.592C322.047 556.036 320.784 556.257 319.304 556.257C317.836 556.257 316.558 556.033 315.469 555.583C314.386 555.133 313.539 554.467 312.93 553.585C312.326 552.697 312.009 551.6 311.98 550.292H315.699C315.741 550.901 315.916 551.41 316.223 551.819C316.537 552.221 316.954 552.526 317.475 552.733C318.002 552.934 318.597 553.035 319.259 553.035C319.911 553.035 320.476 552.94 320.955 552.751C321.44 552.561 321.816 552.298 322.083 551.961C322.349 551.623 322.482 551.236 322.482 550.798C322.482 550.389 322.361 550.046 322.118 549.768C321.881 549.49 321.532 549.253 321.071 549.058C320.615 548.862 320.056 548.685 319.393 548.525L317.413 548.028C315.88 547.655 314.67 547.072 313.782 546.279C312.894 545.486 312.453 544.417 312.459 543.074C312.453 541.973 312.746 541.011 313.338 540.189C313.936 539.366 314.755 538.724 315.797 538.262C316.839 537.8 318.023 537.57 319.348 537.57C320.698 537.57 321.876 537.8 322.882 538.262C323.894 538.724 324.681 539.366 325.243 540.189C325.805 541.011 326.095 541.964 326.113 543.047H322.429ZM328.255 540.988V537.818H343.188V540.988H337.621V556H333.821V540.988H328.255ZM359.236 537.818V556H355.392V541.467H355.286L351.122 544.077V540.668L355.623 537.818H359.236ZM371.512 536.966L365.653 558.734H362.395L368.254 536.966H371.512ZM380.019 556.249C378.694 556.249 377.513 556.021 376.477 555.565C375.447 555.103 374.634 554.47 374.036 553.665C373.444 552.854 373.139 551.919 373.121 550.86H376.992C377.016 551.304 377.161 551.694 377.427 552.032C377.699 552.363 378.06 552.621 378.51 552.804C378.96 552.987 379.466 553.079 380.028 553.079C380.614 553.079 381.132 552.976 381.582 552.768C382.032 552.561 382.384 552.274 382.638 551.907C382.893 551.54 383.02 551.117 383.02 550.638C383.02 550.152 382.884 549.723 382.612 549.35C382.345 548.972 381.961 548.676 381.458 548.463C380.96 548.25 380.369 548.143 379.682 548.143H377.986V545.32H379.682C380.262 545.32 380.774 545.219 381.218 545.018C381.668 544.817 382.017 544.539 382.266 544.184C382.514 543.823 382.638 543.402 382.638 542.923C382.638 542.467 382.529 542.068 382.31 541.724C382.097 541.375 381.795 541.103 381.404 540.908C381.02 540.712 380.57 540.615 380.055 540.615C379.534 540.615 379.058 540.709 378.626 540.899C378.194 541.082 377.847 541.346 377.587 541.689C377.326 542.032 377.187 542.435 377.17 542.896H373.485C373.503 541.849 373.802 540.925 374.382 540.126C374.962 539.327 375.743 538.703 376.726 538.253C377.714 537.797 378.83 537.57 380.073 537.57C381.327 537.57 382.425 537.797 383.366 538.253C384.307 538.709 385.038 539.324 385.559 540.1C386.086 540.869 386.346 541.733 386.34 542.692C386.346 543.71 386.03 544.559 385.391 545.24C384.757 545.921 383.932 546.353 382.914 546.536V546.678C384.251 546.85 385.269 547.315 385.968 548.072C386.672 548.824 387.021 549.765 387.015 550.895C387.021 551.931 386.722 552.851 386.119 553.656C385.521 554.461 384.695 555.094 383.642 555.556C382.588 556.018 381.381 556.249 380.019 556.249Z" fill="#929292"/>
<g filter="url(#filter5_d_330_812)">
<circle cx="218.5" cy="594.5" r="12.5" fill="white"/>
<circle cx="218.5" cy="594.5" r="12.25" stroke="#E4E3E3" stroke-width="0.5"/>
</g>
<path d="M244.758 603V587H247.172V593.953H255.148V587H257.57V603H255.148V596.023H247.172V603H244.758ZM265.953 603.242C264.828 603.242 263.846 602.984 263.008 602.469C262.169 601.953 261.518 601.232 261.055 600.305C260.591 599.378 260.359 598.294 260.359 597.055C260.359 595.81 260.591 594.721 261.055 593.789C261.518 592.857 262.169 592.133 263.008 591.617C263.846 591.102 264.828 590.844 265.953 590.844C267.078 590.844 268.06 591.102 268.898 591.617C269.737 592.133 270.388 592.857 270.852 593.789C271.315 594.721 271.547 595.81 271.547 597.055C271.547 598.294 271.315 599.378 270.852 600.305C270.388 601.232 269.737 601.953 268.898 602.469C268.06 602.984 267.078 603.242 265.953 603.242ZM265.961 601.281C266.69 601.281 267.294 601.089 267.773 600.703C268.253 600.318 268.607 599.805 268.836 599.164C269.07 598.523 269.188 597.818 269.188 597.047C269.188 596.281 269.07 595.578 268.836 594.937C268.607 594.292 268.253 593.773 267.773 593.383C267.294 592.992 266.69 592.797 265.961 592.797C265.227 592.797 264.617 592.992 264.133 593.383C263.654 593.773 263.297 594.292 263.063 594.937C262.833 595.578 262.719 596.281 262.719 597.047C262.719 597.818 262.833 598.523 263.063 599.164C263.297 599.805 263.654 600.318 264.133 600.703C264.617 601.089 265.227 601.281 265.961 601.281ZM274.154 603V591H276.396V592.953H276.545C276.795 592.292 277.204 591.776 277.771 591.406C278.339 591.031 279.019 590.844 279.811 590.844C280.613 590.844 281.285 591.031 281.826 591.406C282.373 591.781 282.777 592.297 283.037 592.953H283.162C283.449 592.312 283.904 591.802 284.529 591.422C285.154 591.036 285.899 590.844 286.764 590.844C287.852 590.844 288.74 591.185 289.428 591.867C290.12 592.549 290.467 593.578 290.467 594.953V603H288.131V595.172C288.131 594.359 287.91 593.771 287.467 593.406C287.024 593.042 286.495 592.859 285.881 592.859C285.12 592.859 284.529 593.094 284.107 593.562C283.686 594.026 283.475 594.622 283.475 595.352V603H281.146V595.023C281.146 594.372 280.943 593.849 280.537 593.453C280.131 593.057 279.602 592.859 278.951 592.859C278.508 592.859 278.1 592.977 277.725 593.211C277.355 593.44 277.055 593.76 276.826 594.172C276.602 594.583 276.49 595.06 276.49 595.602V603H274.154ZM298.77 603.242C297.587 603.242 296.569 602.99 295.715 602.484C294.866 601.974 294.21 601.258 293.746 600.336C293.288 599.409 293.059 598.323 293.059 597.078C293.059 595.849 293.288 594.766 293.746 593.828C294.21 592.891 294.855 592.159 295.684 591.633C296.517 591.107 297.491 590.844 298.605 590.844C299.283 590.844 299.939 590.956 300.574 591.18C301.21 591.404 301.78 591.755 302.285 592.234C302.79 592.714 303.189 593.336 303.48 594.102C303.772 594.862 303.918 595.786 303.918 596.875V597.703H294.379V595.953H301.629C301.629 595.339 301.504 594.794 301.254 594.32C301.004 593.841 300.652 593.464 300.199 593.187C299.751 592.911 299.225 592.773 298.621 592.773C297.965 592.773 297.392 592.935 296.902 593.258C296.418 593.576 296.043 593.992 295.777 594.508C295.517 595.018 295.387 595.573 295.387 596.172V597.539C295.387 598.341 295.527 599.023 295.809 599.586C296.095 600.148 296.493 600.578 297.004 600.875C297.514 601.167 298.111 601.312 298.793 601.312C299.236 601.312 299.639 601.25 300.004 601.125C300.368 600.995 300.684 600.802 300.949 600.547C301.215 600.292 301.418 599.977 301.559 599.602L303.77 600C303.592 600.651 303.275 601.221 302.816 601.711C302.363 602.195 301.793 602.573 301.105 602.844C300.423 603.109 299.645 603.242 298.77 603.242ZM309.09 603L305.559 591H307.973L310.324 599.812H310.441L312.801 591H315.215L317.559 599.773H317.676L320.012 591H322.426L318.902 603H316.52L314.082 594.336H313.902L311.465 603H309.09ZM329.332 603.242C328.207 603.242 327.225 602.984 326.387 602.469C325.548 601.953 324.897 601.232 324.434 600.305C323.97 599.378 323.738 598.294 323.738 597.055C323.738 595.81 323.97 594.721 324.434 593.789C324.897 592.857 325.548 592.133 326.387 591.617C327.225 591.102 328.207 590.844 329.332 590.844C330.457 590.844 331.439 591.102 332.277 591.617C333.116 592.133 333.767 592.857 334.23 593.789C334.694 594.721 334.926 595.81 334.926 597.055C334.926 598.294 334.694 599.378 334.23 600.305C333.767 601.232 333.116 601.953 332.277 602.469C331.439 602.984 330.457 603.242 329.332 603.242ZM329.34 601.281C330.069 601.281 330.673 601.089 331.152 600.703C331.632 600.318 331.986 599.805 332.215 599.164C332.449 598.523 332.566 597.818 332.566 597.047C332.566 596.281 332.449 595.578 332.215 594.937C331.986 594.292 331.632 593.773 331.152 593.383C330.673 592.992 330.069 592.797 329.34 592.797C328.605 592.797 327.996 592.992 327.512 593.383C327.033 593.773 326.676 594.292 326.441 594.937C326.212 595.578 326.098 596.281 326.098 597.047C326.098 597.818 326.212 598.523 326.441 599.164C326.676 599.805 327.033 600.318 327.512 600.703C327.996 601.089 328.605 601.281 329.34 601.281ZM337.533 603V591H339.791V592.906H339.916C340.135 592.26 340.52 591.753 341.072 591.383C341.63 591.008 342.26 590.82 342.963 590.82C343.109 590.82 343.281 590.826 343.479 590.836C343.682 590.846 343.84 590.859 343.955 590.875V593.109C343.861 593.083 343.695 593.055 343.455 593.023C343.215 592.987 342.976 592.969 342.736 592.969C342.184 592.969 341.692 593.086 341.26 593.32C340.833 593.549 340.494 593.87 340.244 594.281C339.994 594.687 339.869 595.151 339.869 595.672V603H337.533ZM348.125 598.93L348.109 596.078H348.516L353.297 591H356.094L350.641 596.781H350.273L348.125 598.93ZM345.977 603V587H348.313V603H345.977ZM353.555 603L349.258 597.297L350.867 595.664L356.422 603H353.555ZM365.584 603H363.021L368.779 587H371.568L377.326 603H374.764L370.24 589.906H370.115L365.584 603ZM366.014 596.734H374.326V598.766H366.014V596.734ZM388.355 593.93L386.238 594.305C386.15 594.034 386.009 593.776 385.816 593.531C385.629 593.286 385.374 593.086 385.051 592.93C384.728 592.773 384.324 592.695 383.84 592.695C383.178 592.695 382.626 592.844 382.184 593.141C381.741 593.432 381.52 593.81 381.52 594.273C381.52 594.674 381.668 594.997 381.965 595.242C382.262 595.487 382.741 595.687 383.402 595.844L385.309 596.281C386.413 596.536 387.236 596.93 387.777 597.461C388.319 597.992 388.59 598.682 388.59 599.531C388.59 600.25 388.382 600.891 387.965 601.453C387.553 602.01 386.978 602.448 386.238 602.766C385.504 603.083 384.652 603.242 383.684 603.242C382.34 603.242 381.243 602.956 380.395 602.383C379.546 601.805 379.025 600.984 378.832 599.922L381.09 599.578C381.23 600.167 381.52 600.612 381.957 600.914C382.395 601.211 382.965 601.359 383.668 601.359C384.434 601.359 385.046 601.201 385.504 600.883C385.962 600.56 386.191 600.167 386.191 599.703C386.191 599.328 386.051 599.013 385.77 598.758C385.493 598.503 385.069 598.31 384.496 598.18L382.465 597.734C381.345 597.479 380.517 597.073 379.98 596.516C379.449 595.958 379.184 595.253 379.184 594.398C379.184 593.69 379.382 593.07 379.777 592.539C380.173 592.008 380.72 591.594 381.418 591.297C382.116 590.995 382.915 590.844 383.816 590.844C385.113 590.844 386.134 591.125 386.879 591.687C387.624 592.245 388.116 592.992 388.355 593.93ZM400.15 593.93L398.033 594.305C397.945 594.034 397.804 593.776 397.611 593.531C397.424 593.286 397.169 593.086 396.846 592.93C396.523 592.773 396.119 592.695 395.635 592.695C394.973 592.695 394.421 592.844 393.979 593.141C393.536 593.432 393.314 593.81 393.314 594.273C393.314 594.674 393.463 594.997 393.76 595.242C394.057 595.487 394.536 595.687 395.197 595.844L397.104 596.281C398.208 596.536 399.031 596.93 399.572 597.461C400.114 597.992 400.385 598.682 400.385 599.531C400.385 600.25 400.176 600.891 399.76 601.453C399.348 602.01 398.773 602.448 398.033 602.766C397.299 603.083 396.447 603.242 395.479 603.242C394.135 603.242 393.038 602.956 392.189 602.383C391.34 601.805 390.82 600.984 390.627 599.922L392.885 599.578C393.025 600.167 393.314 600.612 393.752 600.914C394.189 601.211 394.76 601.359 395.463 601.359C396.229 601.359 396.84 601.201 397.299 600.883C397.757 600.56 397.986 600.167 397.986 599.703C397.986 599.328 397.846 599.013 397.564 598.758C397.288 598.503 396.864 598.31 396.291 598.18L394.26 597.734C393.14 597.479 392.312 597.073 391.775 596.516C391.244 595.958 390.979 595.253 390.979 594.398C390.979 593.69 391.176 593.07 391.572 592.539C391.968 592.008 392.515 591.594 393.213 591.297C393.911 590.995 394.71 590.844 395.611 590.844C396.908 590.844 397.929 591.125 398.674 591.687C399.419 592.245 399.911 592.992 400.15 593.93ZM402.953 603V591H405.289V603H402.953ZM404.133 589.148C403.727 589.148 403.378 589.013 403.086 588.742C402.799 588.466 402.656 588.138 402.656 587.758C402.656 587.372 402.799 587.044 403.086 586.773C403.378 586.497 403.727 586.359 404.133 586.359C404.539 586.359 404.885 586.497 405.172 586.773C405.464 587.044 405.609 587.372 405.609 587.758C405.609 588.138 405.464 588.466 405.172 588.742C404.885 589.013 404.539 589.148 404.133 589.148ZM413.463 607.75C412.51 607.75 411.689 607.625 411.002 607.375C410.32 607.125 409.762 606.794 409.33 606.383C408.898 605.971 408.575 605.521 408.361 605.031L410.369 604.203C410.51 604.432 410.697 604.674 410.932 604.93C411.171 605.19 411.494 605.411 411.9 605.594C412.312 605.776 412.84 605.867 413.486 605.867C414.372 605.867 415.104 605.651 415.682 605.219C416.26 604.792 416.549 604.109 416.549 603.172V600.812H416.4C416.26 601.068 416.057 601.352 415.791 601.664C415.531 601.977 415.171 602.247 414.713 602.477C414.255 602.706 413.658 602.82 412.924 602.82C411.976 602.82 411.122 602.599 410.361 602.156C409.606 601.708 409.007 601.049 408.564 600.18C408.127 599.305 407.908 598.229 407.908 596.953C407.908 595.677 408.124 594.583 408.557 593.672C408.994 592.76 409.593 592.062 410.354 591.578C411.114 591.089 411.976 590.844 412.939 590.844C413.684 590.844 414.286 590.969 414.744 591.219C415.202 591.464 415.559 591.75 415.814 592.078C416.075 592.406 416.275 592.695 416.416 592.945H416.588V591H418.877V603.266C418.877 604.297 418.637 605.143 418.158 605.805C417.679 606.466 417.031 606.956 416.213 607.273C415.4 607.591 414.484 607.75 413.463 607.75ZM413.439 600.883C414.111 600.883 414.679 600.727 415.143 600.414C415.611 600.096 415.965 599.643 416.205 599.055C416.45 598.461 416.572 597.75 416.572 596.922C416.572 596.115 416.452 595.404 416.213 594.789C415.973 594.174 415.622 593.695 415.158 593.352C414.695 593.003 414.122 592.828 413.439 592.828C412.736 592.828 412.15 593.01 411.682 593.375C411.213 593.734 410.859 594.224 410.619 594.844C410.385 595.464 410.268 596.156 410.268 596.922C410.268 597.708 410.387 598.398 410.627 598.992C410.867 599.586 411.221 600.049 411.689 600.383C412.163 600.716 412.747 600.883 413.439 600.883ZM424.346 595.875V603H422.01V591H424.252V592.953H424.4C424.676 592.318 425.109 591.807 425.697 591.422C426.291 591.036 427.038 590.844 427.939 590.844C428.757 590.844 429.473 591.016 430.088 591.359C430.702 591.698 431.179 592.203 431.518 592.875C431.856 593.547 432.025 594.378 432.025 595.367V603H429.689V595.648C429.689 594.779 429.463 594.099 429.01 593.609C428.557 593.115 427.934 592.867 427.143 592.867C426.601 592.867 426.119 592.984 425.697 593.219C425.281 593.453 424.95 593.797 424.705 594.25C424.465 594.698 424.346 595.24 424.346 595.875ZM435.158 603V591H437.4V592.953H437.549C437.799 592.292 438.208 591.776 438.775 591.406C439.343 591.031 440.023 590.844 440.814 590.844C441.617 590.844 442.288 591.031 442.83 591.406C443.377 591.781 443.781 592.297 444.041 592.953H444.166C444.452 592.312 444.908 591.802 445.533 591.422C446.158 591.036 446.903 590.844 447.768 590.844C448.856 590.844 449.744 591.185 450.432 591.867C451.124 592.549 451.471 593.578 451.471 594.953V603H449.135V595.172C449.135 594.359 448.913 593.771 448.471 593.406C448.028 593.042 447.499 592.859 446.885 592.859C446.124 592.859 445.533 593.094 445.111 593.562C444.689 594.026 444.479 594.622 444.479 595.352V603H442.15V595.023C442.15 594.372 441.947 593.849 441.541 593.453C441.135 593.057 440.606 592.859 439.955 592.859C439.512 592.859 439.104 592.977 438.729 593.211C438.359 593.44 438.059 593.76 437.83 594.172C437.606 594.583 437.494 595.06 437.494 595.602V603H435.158ZM459.773 603.242C458.591 603.242 457.573 602.99 456.719 602.484C455.87 601.974 455.214 601.258 454.75 600.336C454.292 599.409 454.062 598.323 454.062 597.078C454.062 595.849 454.292 594.766 454.75 593.828C455.214 592.891 455.859 592.159 456.688 591.633C457.521 591.107 458.495 590.844 459.609 590.844C460.286 590.844 460.943 590.956 461.578 591.18C462.214 591.404 462.784 591.755 463.289 592.234C463.794 592.714 464.193 593.336 464.484 594.102C464.776 594.862 464.922 595.786 464.922 596.875V597.703H455.383V595.953H462.633C462.633 595.339 462.508 594.794 462.258 594.32C462.008 593.841 461.656 593.464 461.203 593.187C460.755 592.911 460.229 592.773 459.625 592.773C458.969 592.773 458.396 592.935 457.906 593.258C457.422 593.576 457.047 593.992 456.781 594.508C456.521 595.018 456.391 595.573 456.391 596.172V597.539C456.391 598.341 456.531 599.023 456.812 599.586C457.099 600.148 457.497 600.578 458.008 600.875C458.518 601.167 459.115 601.312 459.797 601.312C460.24 601.312 460.643 601.25 461.008 601.125C461.372 600.995 461.688 600.802 461.953 600.547C462.219 600.292 462.422 599.977 462.563 599.602L464.773 600C464.596 600.651 464.279 601.221 463.82 601.711C463.367 602.195 462.797 602.573 462.109 602.844C461.427 603.109 460.648 603.242 459.773 603.242ZM469.85 595.875V603H467.514V591H469.756V592.953H469.904C470.18 592.318 470.613 591.807 471.201 591.422C471.795 591.036 472.542 590.844 473.443 590.844C474.261 590.844 474.977 591.016 475.592 591.359C476.206 591.698 476.683 592.203 477.021 592.875C477.36 593.547 477.529 594.378 477.529 595.367V603H475.193V595.648C475.193 594.779 474.967 594.099 474.514 593.609C474.061 593.115 473.438 592.867 472.646 592.867C472.105 592.867 471.623 592.984 471.201 593.219C470.785 593.453 470.454 593.797 470.209 594.25C469.969 594.698 469.85 595.24 469.85 595.875ZM486.264 591V592.875H479.709V591H486.264ZM481.467 588.125H483.803V599.477C483.803 599.93 483.87 600.271 484.006 600.5C484.141 600.724 484.316 600.878 484.529 600.961C484.748 601.039 484.985 601.078 485.24 601.078C485.428 601.078 485.592 601.065 485.732 601.039C485.873 601.013 485.982 600.992 486.061 600.977L486.482 602.906C486.347 602.958 486.154 603.01 485.904 603.063C485.654 603.12 485.342 603.151 484.967 603.156C484.352 603.167 483.779 603.057 483.248 602.828C482.717 602.599 482.287 602.245 481.959 601.766C481.631 601.286 481.467 600.685 481.467 599.961V588.125Z" fill="#999999"/>
<g filter="url(#filter6_d_330_812)">
<circle cx="218.5" cy="635.5" r="12.5" fill="white"/>
<circle cx="218.5" cy="635.5" r="12.25" stroke="#E4E3E3" stroke-width="0.5"/>
</g>
<path d="M244.758 644V628H250.461C251.701 628 252.729 628.214 253.547 628.641C254.37 629.068 254.984 629.659 255.391 630.414C255.797 631.164 256 632.031 256 633.016C256 633.995 255.794 634.857 255.383 635.602C254.977 636.341 254.362 636.917 253.539 637.328C252.721 637.74 251.693 637.945 250.453 637.945H246.133V635.867H250.234C251.016 635.867 251.651 635.755 252.141 635.531C252.635 635.307 252.997 634.982 253.227 634.555C253.456 634.128 253.57 633.615 253.57 633.016C253.57 632.411 253.453 631.888 253.219 631.445C252.99 631.003 252.628 630.664 252.133 630.43C251.643 630.19 251 630.07 250.203 630.07H247.172V644H244.758ZM252.656 636.781L256.609 644H253.859L249.984 636.781H252.656ZM263.771 644.242C262.589 644.242 261.571 643.99 260.717 643.484C259.868 642.974 259.212 642.258 258.748 641.336C258.29 640.409 258.061 639.323 258.061 638.078C258.061 636.849 258.29 635.766 258.748 634.828C259.212 633.891 259.857 633.159 260.686 632.633C261.519 632.107 262.493 631.844 263.607 631.844C264.285 631.844 264.941 631.956 265.576 632.18C266.212 632.404 266.782 632.755 267.287 633.234C267.792 633.714 268.191 634.336 268.482 635.102C268.774 635.862 268.92 636.786 268.92 637.875V638.703H259.381V636.953H266.631C266.631 636.339 266.506 635.794 266.256 635.32C266.006 634.841 265.654 634.464 265.201 634.187C264.753 633.911 264.227 633.773 263.623 633.773C262.967 633.773 262.394 633.935 261.904 634.258C261.42 634.576 261.045 634.992 260.779 635.508C260.519 636.018 260.389 636.573 260.389 637.172V638.539C260.389 639.341 260.529 640.023 260.811 640.586C261.097 641.148 261.495 641.578 262.006 641.875C262.516 642.167 263.113 642.312 263.795 642.312C264.238 642.312 264.641 642.25 265.006 642.125C265.37 641.995 265.686 641.802 265.951 641.547C266.217 641.292 266.42 640.977 266.561 640.602L268.771 641C268.594 641.651 268.277 642.221 267.818 642.711C267.365 643.195 266.795 643.573 266.107 643.844C265.425 644.109 264.646 644.242 263.771 644.242ZM275.004 644.266C274.243 644.266 273.556 644.125 272.941 643.844C272.327 643.557 271.84 643.143 271.48 642.602C271.126 642.06 270.949 641.396 270.949 640.609C270.949 639.932 271.079 639.375 271.34 638.937C271.6 638.5 271.952 638.154 272.395 637.898C272.837 637.643 273.332 637.451 273.879 637.32C274.426 637.19 274.983 637.091 275.551 637.023C276.27 636.94 276.853 636.872 277.301 636.82C277.749 636.763 278.074 636.672 278.277 636.547C278.48 636.422 278.582 636.219 278.582 635.937V635.883C278.582 635.201 278.389 634.672 278.004 634.297C277.624 633.922 277.056 633.734 276.301 633.734C275.514 633.734 274.895 633.909 274.441 634.258C273.993 634.602 273.684 634.984 273.512 635.406L271.316 634.906C271.577 634.177 271.957 633.589 272.457 633.141C272.962 632.687 273.543 632.359 274.199 632.156C274.855 631.948 275.546 631.844 276.27 631.844C276.749 631.844 277.257 631.901 277.793 632.016C278.335 632.125 278.84 632.328 279.309 632.625C279.783 632.922 280.171 633.346 280.473 633.898C280.775 634.445 280.926 635.156 280.926 636.031V644H278.645V642.359H278.551C278.4 642.661 278.173 642.958 277.871 643.25C277.569 643.542 277.181 643.784 276.707 643.977C276.233 644.169 275.665 644.266 275.004 644.266ZM275.512 642.391C276.158 642.391 276.71 642.263 277.168 642.008C277.632 641.753 277.983 641.419 278.223 641.008C278.467 640.591 278.59 640.146 278.59 639.672V638.125C278.507 638.208 278.345 638.286 278.105 638.359C277.871 638.427 277.603 638.487 277.301 638.539C276.999 638.586 276.704 638.63 276.418 638.672C276.132 638.708 275.892 638.74 275.699 638.766C275.246 638.823 274.832 638.919 274.457 639.055C274.087 639.19 273.79 639.385 273.566 639.641C273.348 639.891 273.238 640.224 273.238 640.641C273.238 641.219 273.452 641.656 273.879 641.953C274.306 642.245 274.85 642.391 275.512 642.391ZM288.529 644.234C287.561 644.234 286.696 643.987 285.936 643.492C285.18 642.992 284.587 642.281 284.154 641.359C283.727 640.432 283.514 639.32 283.514 638.023C283.514 636.727 283.73 635.617 284.162 634.695C284.6 633.773 285.199 633.068 285.959 632.578C286.719 632.089 287.581 631.844 288.545 631.844C289.29 631.844 289.889 631.969 290.342 632.219C290.8 632.464 291.154 632.75 291.404 633.078C291.66 633.406 291.857 633.695 291.998 633.945H292.139V628H294.475V644H292.193V642.133H291.998C291.857 642.388 291.654 642.68 291.389 643.008C291.128 643.336 290.769 643.622 290.311 643.867C289.852 644.112 289.258 644.234 288.529 644.234ZM289.045 642.242C289.717 642.242 290.285 642.065 290.748 641.711C291.217 641.352 291.571 640.854 291.811 640.219C292.055 639.583 292.178 638.844 292.178 638C292.178 637.167 292.058 636.437 291.818 635.812C291.579 635.187 291.227 634.701 290.764 634.352C290.3 634.003 289.727 633.828 289.045 633.828C288.342 633.828 287.756 634.01 287.287 634.375C286.818 634.74 286.464 635.237 286.225 635.867C285.99 636.497 285.873 637.208 285.873 638C285.873 638.802 285.993 639.523 286.232 640.164C286.472 640.805 286.826 641.312 287.295 641.687C287.769 642.057 288.352 642.242 289.045 642.242ZM297.809 644V632H300.145V644H297.809ZM298.988 630.148C298.582 630.148 298.233 630.013 297.941 629.742C297.655 629.466 297.512 629.138 297.512 628.758C297.512 628.372 297.655 628.044 297.941 627.773C298.233 627.497 298.582 627.359 298.988 627.359C299.395 627.359 299.741 627.497 300.027 627.773C300.319 628.044 300.465 628.372 300.465 628.758C300.465 629.138 300.319 629.466 300.027 629.742C299.741 630.013 299.395 630.148 298.988 630.148ZM305.623 636.875V644H303.287V632H305.529V633.953H305.678C305.954 633.318 306.386 632.807 306.975 632.422C307.568 632.036 308.316 631.844 309.217 631.844C310.035 631.844 310.751 632.016 311.365 632.359C311.98 632.698 312.456 633.203 312.795 633.875C313.133 634.547 313.303 635.378 313.303 636.367V644H310.967V636.648C310.967 635.779 310.74 635.099 310.287 634.609C309.834 634.115 309.212 633.867 308.42 633.867C307.878 633.867 307.396 633.984 306.975 634.219C306.558 634.453 306.227 634.797 305.982 635.25C305.743 635.698 305.623 636.24 305.623 636.875ZM321.467 648.75C320.514 648.75 319.693 648.625 319.006 648.375C318.324 648.125 317.766 647.794 317.334 647.383C316.902 646.971 316.579 646.521 316.365 646.031L318.373 645.203C318.514 645.432 318.701 645.674 318.936 645.93C319.175 646.19 319.498 646.411 319.904 646.594C320.316 646.776 320.844 646.867 321.49 646.867C322.376 646.867 323.107 646.651 323.686 646.219C324.264 645.792 324.553 645.109 324.553 644.172V641.812H324.404C324.264 642.068 324.061 642.352 323.795 642.664C323.535 642.977 323.175 643.247 322.717 643.477C322.258 643.706 321.662 643.82 320.928 643.82C319.98 643.82 319.126 643.599 318.365 643.156C317.61 642.708 317.011 642.049 316.568 641.18C316.131 640.305 315.912 639.229 315.912 637.953C315.912 636.677 316.128 635.583 316.561 634.672C316.998 633.76 317.597 633.062 318.357 632.578C319.118 632.089 319.98 631.844 320.943 631.844C321.688 631.844 322.29 631.969 322.748 632.219C323.206 632.464 323.563 632.75 323.818 633.078C324.079 633.406 324.279 633.695 324.42 633.945H324.592V632H326.881V644.266C326.881 645.297 326.641 646.143 326.162 646.805C325.683 647.466 325.035 647.956 324.217 648.273C323.404 648.591 322.488 648.75 321.467 648.75ZM321.443 641.883C322.115 641.883 322.683 641.727 323.146 641.414C323.615 641.096 323.969 640.643 324.209 640.055C324.454 639.461 324.576 638.75 324.576 637.922C324.576 637.115 324.456 636.404 324.217 635.789C323.977 635.174 323.626 634.695 323.162 634.352C322.699 634.003 322.126 633.828 321.443 633.828C320.74 633.828 320.154 634.01 319.686 634.375C319.217 634.734 318.863 635.224 318.623 635.844C318.389 636.464 318.271 637.156 318.271 637.922C318.271 638.708 318.391 639.398 318.631 639.992C318.87 640.586 319.225 641.049 319.693 641.383C320.167 641.716 320.751 641.883 321.443 641.883ZM336.023 644V628H341.883C343.018 628 343.958 628.187 344.703 628.562C345.448 628.932 346.005 629.435 346.375 630.07C346.745 630.701 346.93 631.411 346.93 632.203C346.93 632.87 346.807 633.432 346.563 633.891C346.318 634.344 345.99 634.708 345.578 634.984C345.172 635.255 344.724 635.453 344.234 635.578V635.734C344.766 635.76 345.284 635.932 345.789 636.25C346.299 636.562 346.721 637.008 347.055 637.586C347.388 638.164 347.555 638.867 347.555 639.695C347.555 640.513 347.362 641.247 346.977 641.898C346.596 642.544 346.008 643.057 345.211 643.437C344.414 643.812 343.396 644 342.156 644H336.023ZM338.438 641.93H341.922C343.078 641.93 343.906 641.706 344.406 641.258C344.906 640.81 345.156 640.25 345.156 639.578C345.156 639.073 345.029 638.609 344.773 638.187C344.518 637.766 344.154 637.43 343.68 637.18C343.211 636.93 342.654 636.805 342.008 636.805H338.438V641.93ZM338.438 634.922H341.672C342.214 634.922 342.701 634.818 343.133 634.609C343.57 634.401 343.917 634.109 344.172 633.734C344.432 633.354 344.563 632.906 344.563 632.391C344.563 631.729 344.331 631.174 343.867 630.727C343.404 630.279 342.693 630.055 341.734 630.055H338.438V634.922ZM355.285 644.242C354.16 644.242 353.178 643.984 352.34 643.469C351.501 642.953 350.85 642.232 350.387 641.305C349.923 640.378 349.691 639.294 349.691 638.055C349.691 636.81 349.923 635.721 350.387 634.789C350.85 633.857 351.501 633.133 352.34 632.617C353.178 632.102 354.16 631.844 355.285 631.844C356.41 631.844 357.392 632.102 358.23 632.617C359.069 633.133 359.72 633.857 360.184 634.789C360.647 635.721 360.879 636.81 360.879 638.055C360.879 639.294 360.647 640.378 360.184 641.305C359.72 642.232 359.069 642.953 358.23 643.469C357.392 643.984 356.41 644.242 355.285 644.242ZM355.293 642.281C356.022 642.281 356.626 642.089 357.105 641.703C357.585 641.318 357.939 640.805 358.168 640.164C358.402 639.523 358.52 638.818 358.52 638.047C358.52 637.281 358.402 636.578 358.168 635.937C357.939 635.292 357.585 634.773 357.105 634.383C356.626 633.992 356.022 633.797 355.293 633.797C354.559 633.797 353.949 633.992 353.465 634.383C352.986 634.773 352.629 635.292 352.395 635.937C352.165 636.578 352.051 637.281 352.051 638.047C352.051 638.818 352.165 639.523 352.395 640.164C352.629 640.805 352.986 641.318 353.465 641.703C353.949 642.089 354.559 642.281 355.293 642.281ZM368.541 644.242C367.416 644.242 366.434 643.984 365.596 643.469C364.757 642.953 364.106 642.232 363.643 641.305C363.179 640.378 362.947 639.294 362.947 638.055C362.947 636.81 363.179 635.721 363.643 634.789C364.106 633.857 364.757 633.133 365.596 632.617C366.434 632.102 367.416 631.844 368.541 631.844C369.666 631.844 370.648 632.102 371.486 632.617C372.325 633.133 372.976 633.857 373.439 634.789C373.903 635.721 374.135 636.81 374.135 638.055C374.135 639.294 373.903 640.378 373.439 641.305C372.976 642.232 372.325 642.953 371.486 643.469C370.648 643.984 369.666 644.242 368.541 644.242ZM368.549 642.281C369.278 642.281 369.882 642.089 370.361 641.703C370.84 641.318 371.195 640.805 371.424 640.164C371.658 639.523 371.775 638.818 371.775 638.047C371.775 637.281 371.658 636.578 371.424 635.937C371.195 635.292 370.84 634.773 370.361 634.383C369.882 633.992 369.278 633.797 368.549 633.797C367.814 633.797 367.205 633.992 366.721 634.383C366.242 634.773 365.885 635.292 365.65 635.937C365.421 636.578 365.307 637.281 365.307 638.047C365.307 638.818 365.421 639.523 365.65 640.164C365.885 640.805 366.242 641.318 366.721 641.703C367.205 642.089 367.814 642.281 368.549 642.281ZM378.891 639.93L378.875 637.078H379.281L384.063 632H386.859L381.406 637.781H381.039L378.891 639.93ZM376.742 644V628H379.078V644H376.742ZM384.32 644L380.023 638.297L381.633 636.664L387.188 644H384.32Z" fill="#999999"/>
<path d="M246.109 686H243.547L249.305 670H252.094L257.852 686H255.289L250.766 672.906H250.641L246.109 686ZM246.539 679.734H254.852V681.766H246.539V679.734ZM262.311 678.875V686H259.975V674H262.217V675.953H262.365C262.641 675.318 263.074 674.807 263.662 674.422C264.256 674.036 265.003 673.844 265.904 673.844C266.722 673.844 267.438 674.016 268.053 674.359C268.667 674.698 269.144 675.203 269.482 675.875C269.821 676.547 269.99 677.378 269.99 678.367V686H267.654V678.648C267.654 677.779 267.428 677.099 266.975 676.609C266.521 676.115 265.899 675.867 265.107 675.867C264.566 675.867 264.084 675.984 263.662 676.219C263.245 676.453 262.915 676.797 262.67 677.25C262.43 677.698 262.311 678.24 262.311 678.875ZM276.615 686.266C275.855 686.266 275.167 686.125 274.553 685.844C273.938 685.557 273.451 685.143 273.092 684.602C272.738 684.06 272.561 683.396 272.561 682.609C272.561 681.932 272.691 681.375 272.951 680.937C273.212 680.5 273.563 680.154 274.006 679.898C274.449 679.643 274.943 679.451 275.49 679.32C276.037 679.19 276.594 679.091 277.162 679.023C277.881 678.94 278.464 678.872 278.912 678.82C279.36 678.763 279.686 678.672 279.889 678.547C280.092 678.422 280.193 678.219 280.193 677.937V677.883C280.193 677.201 280.001 676.672 279.615 676.297C279.235 675.922 278.667 675.734 277.912 675.734C277.126 675.734 276.506 675.909 276.053 676.258C275.605 676.602 275.295 676.984 275.123 677.406L272.928 676.906C273.188 676.177 273.568 675.589 274.068 675.141C274.574 674.687 275.154 674.359 275.811 674.156C276.467 673.948 277.157 673.844 277.881 673.844C278.36 673.844 278.868 673.901 279.404 674.016C279.946 674.125 280.451 674.328 280.92 674.625C281.394 674.922 281.782 675.346 282.084 675.898C282.386 676.445 282.537 677.156 282.537 678.031V686H280.256V684.359H280.162C280.011 684.661 279.785 684.958 279.482 685.25C279.18 685.542 278.792 685.784 278.318 685.977C277.844 686.169 277.277 686.266 276.615 686.266ZM277.123 684.391C277.769 684.391 278.321 684.263 278.779 684.008C279.243 683.753 279.594 683.419 279.834 683.008C280.079 682.591 280.201 682.146 280.201 681.672V680.125C280.118 680.208 279.956 680.286 279.717 680.359C279.482 680.427 279.214 680.487 278.912 680.539C278.61 680.586 278.316 680.63 278.029 680.672C277.743 680.708 277.503 680.74 277.311 680.766C276.857 680.823 276.443 680.919 276.068 681.055C275.699 681.19 275.402 681.385 275.178 681.641C274.959 681.891 274.85 682.224 274.85 682.641C274.85 683.219 275.063 683.656 275.49 683.953C275.917 684.245 276.462 684.391 277.123 684.391ZM287.984 670V686H285.648V670H287.984ZM292.604 690.5C292.255 690.5 291.937 690.471 291.65 690.414C291.364 690.362 291.15 690.305 291.01 690.242L291.572 688.328C291.999 688.443 292.38 688.492 292.713 688.477C293.046 688.461 293.34 688.336 293.596 688.102C293.856 687.867 294.085 687.484 294.283 686.953L294.572 686.156L290.182 674H292.682L295.721 683.312H295.846L298.885 674H301.393L296.447 687.602C296.218 688.227 295.926 688.755 295.572 689.188C295.218 689.625 294.796 689.953 294.307 690.172C293.817 690.391 293.249 690.5 292.604 690.5ZM303.338 686V684.398L309.838 676.141V676.031H303.549V674H312.752V675.703L306.502 683.859V683.969H312.971V686H303.338ZM320.555 686.242C319.372 686.242 318.354 685.99 317.5 685.484C316.651 684.974 315.995 684.258 315.531 683.336C315.073 682.409 314.844 681.323 314.844 680.078C314.844 678.849 315.073 677.766 315.531 676.828C315.995 675.891 316.641 675.159 317.469 674.633C318.302 674.107 319.276 673.844 320.391 673.844C321.068 673.844 321.724 673.956 322.359 674.18C322.995 674.404 323.565 674.755 324.07 675.234C324.576 675.714 324.974 676.336 325.266 677.102C325.557 677.862 325.703 678.786 325.703 679.875V680.703H316.164V678.953H323.414C323.414 678.339 323.289 677.794 323.039 677.32C322.789 676.841 322.438 676.464 321.984 676.187C321.536 675.911 321.01 675.773 320.406 675.773C319.75 675.773 319.177 675.935 318.688 676.258C318.203 676.576 317.828 676.992 317.563 677.508C317.302 678.018 317.172 678.573 317.172 679.172V680.539C317.172 681.341 317.313 682.023 317.594 682.586C317.88 683.148 318.279 683.578 318.789 683.875C319.299 684.167 319.896 684.312 320.578 684.312C321.021 684.312 321.424 684.25 321.789 684.125C322.154 683.995 322.469 683.802 322.734 683.547C323 683.292 323.203 682.977 323.344 682.602L325.555 683C325.378 683.651 325.06 684.221 324.602 684.711C324.148 685.195 323.578 685.573 322.891 685.844C322.208 686.109 321.43 686.242 320.555 686.242ZM334.305 686V670H340.008C341.247 670 342.276 670.214 343.094 670.641C343.917 671.068 344.531 671.659 344.938 672.414C345.344 673.164 345.547 674.031 345.547 675.016C345.547 675.995 345.341 676.857 344.93 677.602C344.523 678.341 343.909 678.917 343.086 679.328C342.268 679.74 341.24 679.945 340 679.945H335.68V677.867H339.781C340.563 677.867 341.198 677.755 341.688 677.531C342.182 677.307 342.544 676.982 342.773 676.555C343.003 676.128 343.117 675.615 343.117 675.016C343.117 674.411 343 673.888 342.766 673.445C342.536 673.003 342.174 672.664 341.68 672.43C341.19 672.19 340.547 672.07 339.75 672.07H336.719V686H334.305ZM342.203 678.781L346.156 686H343.406L339.531 678.781H342.203ZM353.318 686.242C352.136 686.242 351.118 685.99 350.264 685.484C349.415 684.974 348.758 684.258 348.295 683.336C347.837 682.409 347.607 681.323 347.607 680.078C347.607 678.849 347.837 677.766 348.295 676.828C348.758 675.891 349.404 675.159 350.232 674.633C351.066 674.107 352.04 673.844 353.154 673.844C353.831 673.844 354.488 673.956 355.123 674.18C355.758 674.404 356.329 674.755 356.834 675.234C357.339 675.714 357.738 676.336 358.029 677.102C358.321 677.862 358.467 678.786 358.467 679.875V680.703H348.928V678.953H356.178C356.178 678.339 356.053 677.794 355.803 677.32C355.553 676.841 355.201 676.464 354.748 676.187C354.3 675.911 353.774 675.773 353.17 675.773C352.514 675.773 351.941 675.935 351.451 676.258C350.967 676.576 350.592 676.992 350.326 677.508C350.066 678.018 349.936 678.573 349.936 679.172V680.539C349.936 681.341 350.076 682.023 350.357 682.586C350.644 683.148 351.042 683.578 351.553 683.875C352.063 684.167 352.66 684.312 353.342 684.312C353.785 684.312 354.188 684.25 354.553 684.125C354.917 683.995 355.232 683.802 355.498 683.547C355.764 683.292 355.967 682.977 356.107 682.602L358.318 683C358.141 683.651 357.824 684.221 357.365 684.711C356.912 685.195 356.342 685.573 355.654 685.844C354.972 686.109 354.193 686.242 353.318 686.242ZM370.051 676.93L367.934 677.305C367.845 677.034 367.704 676.776 367.512 676.531C367.324 676.286 367.069 676.086 366.746 675.93C366.423 675.773 366.02 675.695 365.535 675.695C364.874 675.695 364.322 675.844 363.879 676.141C363.436 676.432 363.215 676.81 363.215 677.273C363.215 677.674 363.363 677.997 363.66 678.242C363.957 678.487 364.436 678.687 365.098 678.844L367.004 679.281C368.108 679.536 368.931 679.93 369.473 680.461C370.014 680.992 370.285 681.682 370.285 682.531C370.285 683.25 370.077 683.891 369.66 684.453C369.249 685.01 368.673 685.448 367.934 685.766C367.199 686.083 366.348 686.242 365.379 686.242C364.035 686.242 362.939 685.956 362.09 685.383C361.241 684.805 360.72 683.984 360.527 682.922L362.785 682.578C362.926 683.167 363.215 683.612 363.652 683.914C364.09 684.211 364.66 684.359 365.363 684.359C366.129 684.359 366.741 684.201 367.199 683.883C367.658 683.56 367.887 683.167 367.887 682.703C367.887 682.328 367.746 682.013 367.465 681.758C367.189 681.503 366.764 681.31 366.191 681.18L364.16 680.734C363.04 680.479 362.212 680.073 361.676 679.516C361.145 678.958 360.879 678.253 360.879 677.398C360.879 676.69 361.077 676.07 361.473 675.539C361.868 675.008 362.415 674.594 363.113 674.297C363.811 673.995 364.611 673.844 365.512 673.844C366.809 673.844 367.829 674.125 368.574 674.687C369.319 675.245 369.811 675.992 370.051 676.93ZM380.455 681.023V674H382.799V686H380.502V683.922H380.377C380.101 684.563 379.658 685.096 379.049 685.523C378.445 685.945 377.692 686.156 376.791 686.156C376.02 686.156 375.338 685.987 374.744 685.648C374.156 685.305 373.692 684.797 373.354 684.125C373.02 683.453 372.854 682.622 372.854 681.633V674H375.189V681.352C375.189 682.169 375.416 682.82 375.869 683.305C376.322 683.789 376.911 684.031 377.635 684.031C378.072 684.031 378.507 683.922 378.939 683.703C379.377 683.484 379.739 683.154 380.025 682.711C380.317 682.268 380.46 681.706 380.455 681.023ZM388.273 670V686H385.938V670H388.273ZM397.018 674V675.875H390.463V674H397.018ZM392.221 671.125H394.557V682.477C394.557 682.93 394.624 683.271 394.76 683.5C394.895 683.724 395.07 683.878 395.283 683.961C395.502 684.039 395.739 684.078 395.994 684.078C396.182 684.078 396.346 684.065 396.486 684.039C396.627 684.013 396.736 683.992 396.814 683.977L397.236 685.906C397.101 685.958 396.908 686.01 396.658 686.063C396.408 686.12 396.096 686.151 395.721 686.156C395.106 686.167 394.533 686.057 394.002 685.828C393.471 685.599 393.041 685.245 392.713 684.766C392.385 684.286 392.221 683.685 392.221 682.961V671.125Z" fill="#999999"/>
<g filter="url(#filter7_d_330_812)">
<circle cx="218.5" cy="677.5" r="12.5" fill="white"/>
<circle cx="218.5" cy="677.5" r="12.25" stroke="#8B8B8B" stroke-width="0.5"/>
</g>
<circle cx="218.5" cy="677.5" r="9.5" fill="#D55CFF"/>
</g>
<defs>
<filter id="filter0_d_330_812" x="0.975586" y="-82.0244" width="1018.89" height="1018.89" filterUnits="userSpaceOnUse" color-interpolation-filters="sRGB">
<feFlood flood-opacity="0" result="BackgroundImageFix"/>
<feColorMatrix in="SourceAlpha" type="matrix" values="0 0 0 0 0 0 0 0 0 0 0 0 0 0 0 0 0 0 127 0" result="hardAlpha"/>
<feOffset/>
<feGaussianBlur stdDeviation="125"/>
<feComposite in2="hardAlpha" operator="out"/>
<feColorMatrix type="matrix" values="0 0 0 0 0.815686 0 0 0 0 0.580392 0 0 0 0 1 0 0 0 1 0"/>
<feBlend mode="normal" in2="BackgroundImageFix" result="effect1_dropShadow_330_812"/>
<feBlend mode="normal" in="SourceGraphic" in2="effect1_dropShadow_330_812" result="shape"/>
</filter>
<filter id="filter1_d_330_812" x="68" y="143" width="552" height="702" filterUnits="userSpaceOnUse" color-interpolation-filters="sRGB">
<feFlood flood-opacity="0" result="BackgroundImageFix"/>
<feColorMatrix in="SourceAlpha" type="matrix" values="0 0 0 0 0 0 0 0 0 0 0 0 0 0 0 0 0 0 127 0" result="hardAlpha"/>
<feMorphology radius="11" operator="dilate" in="SourceAlpha" result="effect1_dropShadow_330_812"/>
<feOffset dy="12"/>
<feGaussianBlur stdDeviation="25"/>
<feComposite in2="hardAlpha" operator="out"/>
<feColorMatrix type="matrix" values="0 0 0 0 0 0 0 0 0 0 0 0 0 0 0 0 0 0 0.25 0"/>
<feBlend mode="normal" in2="BackgroundImageFix" result="effect1_dropShadow_330_812"/>
<feBlend mode="normal" in="SourceGraphic" in2="effect1_dropShadow_330_812" result="shape"/>
</filter>
<filter id="filter2_d_330_812" x="194.3" y="311.3" width="48.4" height="48.4" filterUnits="userSpaceOnUse" color-interpolation-filters="sRGB">
<feFlood flood-opacity="0" result="BackgroundImageFix"/>
<feColorMatrix in="SourceAlpha" type="matrix" values="0 0 0 0 0 0 0 0 0 0 0 0 0 0 0 0 0 0 127 0" result="hardAlpha"/>
<feMorphology radius="5" operator="erode" in="SourceAlpha" result="effect1_dropShadow_330_812"/>
<feOffset/>
<feGaussianBlur stdDeviation="8.35"/>
<feComposite in2="hardAlpha" operator="out"/>
<feColorMatrix type="matrix" values="0 0 0 0 0 0 0 0 0 0 0 0 0 0 0 0 0 0 0.25 0"/>
<feBlend mode="normal" in2="BackgroundImageFix" result="effect1_dropShadow_330_812"/>
<feBlend mode="normal" in="SourceGraphic" in2="effect1_dropShadow_330_812" result="shape"/>
</filter>
<filter id="filter3_d_330_812" x="194.3" y="352.3" width="48.4" height="48.4" filterUnits="userSpaceOnUse" color-interpolation-filters="sRGB">
<feFlood flood-opacity="0" result="BackgroundImageFix"/>
<feColorMatrix in="SourceAlpha" type="matrix" values="0 0 0 0 0 0 0 0 0 0 0 0 0 0 0 0 0 0 127 0" result="hardAlpha"/>
<feMorphology radius="5" operator="erode" in="SourceAlpha" result="effect1_dropShadow_330_812"/>
<feOffset/>
<feGaussianBlur stdDeviation="8.35"/>
<feComposite in2="hardAlpha" operator="out"/>
<feColorMatrix type="matrix" values="0 0 0 0 0 0 0 0 0 0 0 0 0 0 0 0 0 0 0.25 0"/>
<feBlend mode="normal" in2="BackgroundImageFix" result="effect1_dropShadow_330_812"/>
<feBlend mode="normal" in="SourceGraphic" in2="effect1_dropShadow_330_812" result="shape"/>
</filter>
<filter id="filter4_d_330_812" x="194.3" y="394.3" width="48.4" height="48.4" filterUnits="userSpaceOnUse" color-interpolation-filters="sRGB">
<feFlood flood-opacity="0" result="BackgroundImageFix"/>
<feColorMatrix in="SourceAlpha" type="matrix" values="0 0 0 0 0 0 0 0 0 0 0 0 0 0 0 0 0 0 127 0" result="hardAlpha"/>
<feMorphology radius="5" operator="erode" in="SourceAlpha" result="effect1_dropShadow_330_812"/>
<feOffset/>
<feGaussianBlur stdDeviation="8.35"/>
<feComposite in2="hardAlpha" operator="out"/>
<feColorMatrix type="matrix" values="0 0 0 0 0 0 0 0 0 0 0 0 0 0 0 0 0 0 0.25 0"/>
<feBlend mode="normal" in2="BackgroundImageFix" result="effect1_dropShadow_330_812"/>
<feBlend mode="normal" in="SourceGraphic" in2="effect1_dropShadow_330_812" result="shape"/>
</filter>
<filter id="filter5_d_330_812" x="194.3" y="570.3" width="48.4" height="48.4" filterUnits="userSpaceOnUse" color-interpolation-filters="sRGB">
<feFlood flood-opacity="0" result="BackgroundImageFix"/>
<feColorMatrix in="SourceAlpha" type="matrix" values="0 0 0 0 0 0 0 0 0 0 0 0 0 0 0 0 0 0 127 0" result="hardAlpha"/>
<feMorphology radius="5" operator="erode" in="SourceAlpha" result="effect1_dropShadow_330_812"/>
<feOffset/>
<feGaussianBlur stdDeviation="8.35"/>
<feComposite in2="hardAlpha" operator="out"/>
<feColorMatrix type="matrix" values="0 0 0 0 0 0 0 0 0 0 0 0 0 0 0 0 0 0 0.25 0"/>
<feBlend mode="normal" in2="BackgroundImageFix" result="effect1_dropShadow_330_812"/>
<feBlend mode="normal" in="SourceGraphic" in2="effect1_dropShadow_330_812" result="shape"/>
</filter>
<filter id="filter6_d_330_812" x="194.3" y="611.3" width="48.4" height="48.4" filterUnits="userSpaceOnUse" color-interpolation-filters="sRGB">
<feFlood flood-opacity="0" result="BackgroundImageFix"/>
<feColorMatrix in="SourceAlpha" type="matrix" values="0 0 0 0 0 0 0 0 0 0 0 0 0 0 0 0 0 0 127 0" result="hardAlpha"/>
<feMorphology radius="5" operator="erode" in="SourceAlpha" result="effect1_dropShadow_330_812"/>
<feOffset/>
<feGaussianBlur stdDeviation="8.35"/>
<feComposite in2="hardAlpha" operator="out"/>
<feColorMatrix type="matrix" values="0 0 0 0 0 0 0 0 0 0 0 0 0 0 0 0 0 0 0.25 0"/>
<feBlend mode="normal" in2="BackgroundImageFix" result="effect1_dropShadow_330_812"/>
<feBlend mode="normal" in="SourceGraphic" in2="effect1_dropShadow_330_812" result="shape"/>
</filter>
<filter id="filter7_d_330_812" x="194.3" y="653.3" width="48.4" height="48.4" filterUnits="userSpaceOnUse" color-interpolation-filters="sRGB">
<feFlood flood-opacity="0" result="BackgroundImageFix"/>
<feColorMatrix in="SourceAlpha" type="matrix" values="0 0 0 0 0 0 0 0 0 0 0 0 0 0 0 0 0 0 127 0" result="hardAlpha"/>
<feMorphology radius="5" operator="erode" in="SourceAlpha" result="effect1_dropShadow_330_812"/>
<feOffset/>
<feGaussianBlur stdDeviation="8.35"/>
<feComposite in2="hardAlpha" operator="out"/>
<feColorMatrix type="matrix" values="0 0 0 0 0 0 0 0 0 0 0 0 0 0 0 0 0 0 0.25 0"/>
<feBlend mode="normal" in2="BackgroundImageFix" result="effect1_dropShadow_330_812"/>
<feBlend mode="normal" in="SourceGraphic" in2="effect1_dropShadow_330_812" result="shape"/>
</filter>
</defs>
</svg>
