<svg width="723" height="945" viewBox="0 0 723 945" fill="none" xmlns="http://www.w3.org/2000/svg">
<g filter="url(#filter0_d_333_844)">
<rect x="79.96" y="165" width="395.922" height="395.922" rx="30" transform="rotate(30 79.96 165)" fill="#FF53D9"/>
</g>
<g filter="url(#filter1_d_333_844)">
<rect x="232" y="178" width="430" height="580" rx="10" fill="white"/>
<path d="M321.623 271.184H317.734C317.663 270.681 317.518 270.234 317.299 269.843C317.08 269.446 316.799 269.109 316.456 268.831C316.112 268.553 315.716 268.34 315.266 268.192C314.822 268.044 314.34 267.97 313.819 267.97C312.878 267.97 312.058 268.204 311.36 268.671C310.661 269.133 310.12 269.808 309.735 270.695C309.35 271.577 309.158 272.648 309.158 273.909C309.158 275.205 309.35 276.294 309.735 277.176C310.126 278.058 310.67 278.724 311.369 279.174C312.067 279.623 312.875 279.848 313.792 279.848C314.307 279.848 314.784 279.78 315.222 279.644C315.665 279.508 316.059 279.31 316.402 279.049C316.746 278.783 317.03 278.46 317.255 278.082C317.485 277.703 317.645 277.271 317.734 276.786L321.623 276.803C321.522 277.638 321.27 278.443 320.868 279.218C320.471 279.987 319.936 280.677 319.261 281.287C318.592 281.89 317.793 282.37 316.864 282.725C315.941 283.074 314.896 283.249 313.73 283.249C312.108 283.249 310.658 282.882 309.38 282.148C308.107 281.414 307.101 280.351 306.362 278.961C305.628 277.57 305.261 275.886 305.261 273.909C305.261 271.926 305.634 270.24 306.379 268.849C307.125 267.458 308.137 266.398 309.415 265.67C310.694 264.937 312.132 264.57 313.73 264.57C314.784 264.57 315.76 264.718 316.66 265.013C317.565 265.309 318.367 265.741 319.066 266.31C319.764 266.872 320.332 267.561 320.77 268.378C321.214 269.195 321.498 270.13 321.623 271.184ZM324.379 283V264.818H328.223V272.32H336.027V264.818H339.862V283H336.027V275.489H328.223V283H324.379ZM343.031 283V264.818H355.283V267.988H346.876V272.32H354.653V275.489H346.876V279.831H355.318V283H343.031ZM374.381 271.184H370.493C370.422 270.681 370.277 270.234 370.058 269.843C369.839 269.446 369.558 269.109 369.214 268.831C368.871 268.553 368.475 268.34 368.025 268.192C367.581 268.044 367.099 267.97 366.578 267.97C365.637 267.97 364.817 268.204 364.119 268.671C363.42 269.133 362.879 269.808 362.494 270.695C362.109 271.577 361.917 272.648 361.917 273.909C361.917 275.205 362.109 276.294 362.494 277.176C362.884 278.058 363.429 278.724 364.127 279.174C364.826 279.623 365.634 279.848 366.551 279.848C367.066 279.848 367.542 279.78 367.98 279.644C368.424 279.508 368.818 279.31 369.161 279.049C369.504 278.783 369.789 278.46 370.013 278.082C370.244 277.703 370.404 277.271 370.493 276.786L374.381 276.803C374.281 277.638 374.029 278.443 373.627 279.218C373.23 279.987 372.695 280.677 372.02 281.287C371.351 281.89 370.552 282.37 369.623 282.725C368.699 283.074 367.655 283.249 366.489 283.249C364.867 283.249 363.417 282.882 362.139 282.148C360.866 281.414 359.86 280.351 359.12 278.961C358.386 277.57 358.019 275.886 358.019 273.909C358.019 271.926 358.392 270.24 359.138 268.849C359.884 267.458 360.896 266.398 362.174 265.67C363.453 264.937 364.891 264.57 366.489 264.57C367.542 264.57 368.519 264.718 369.419 265.013C370.324 265.309 371.126 265.741 371.824 266.31C372.523 266.872 373.091 267.561 373.529 268.378C373.973 269.195 374.257 270.13 374.381 271.184ZM377.138 283V264.818H380.982V272.835H381.222L387.765 264.818H392.372L385.625 272.959L392.452 283H387.853L382.873 275.525L380.982 277.833V283H377.138ZM394.374 283V264.818H398.218V279.831H406.013V283H394.374ZM412.403 264.818V283H408.559V264.818H412.403ZM425.429 270.047C425.358 269.331 425.053 268.775 424.514 268.378C423.976 267.982 423.245 267.783 422.322 267.783C421.694 267.783 421.165 267.872 420.733 268.05C420.3 268.221 419.969 268.461 419.738 268.769C419.513 269.077 419.401 269.426 419.401 269.816C419.389 270.142 419.457 270.426 419.605 270.669C419.759 270.911 419.969 271.121 420.235 271.299C420.502 271.471 420.809 271.622 421.159 271.752C421.508 271.876 421.881 271.983 422.277 272.071L423.911 272.462C424.704 272.64 425.432 272.876 426.095 273.172C426.758 273.468 427.332 273.832 427.817 274.264C428.302 274.696 428.678 275.205 428.945 275.791C429.217 276.377 429.356 277.049 429.362 277.806C429.356 278.919 429.072 279.884 428.509 280.701C427.953 281.511 427.148 282.142 426.095 282.592C425.047 283.036 423.784 283.257 422.304 283.257C420.836 283.257 419.558 283.033 418.469 282.583C417.386 282.133 416.539 281.467 415.93 280.585C415.326 279.697 415.009 278.6 414.98 277.292H418.699C418.741 277.901 418.916 278.41 419.223 278.819C419.537 279.221 419.954 279.526 420.475 279.733C421.002 279.934 421.597 280.035 422.259 280.035C422.911 280.035 423.476 279.94 423.955 279.751C424.44 279.561 424.816 279.298 425.083 278.961C425.349 278.623 425.482 278.236 425.482 277.798C425.482 277.389 425.361 277.046 425.118 276.768C424.881 276.49 424.532 276.253 424.071 276.058C423.615 275.862 423.056 275.685 422.393 275.525L420.413 275.028C418.88 274.655 417.67 274.072 416.782 273.279C415.894 272.486 415.453 271.417 415.459 270.074C415.453 268.973 415.746 268.011 416.338 267.189C416.936 266.366 417.755 265.724 418.797 265.262C419.839 264.8 421.023 264.57 422.348 264.57C423.698 264.57 424.876 264.8 425.882 265.262C426.894 265.724 427.681 266.366 428.243 267.189C428.805 268.011 429.095 268.964 429.113 270.047H425.429ZM431.255 267.988V264.818H446.188V267.988H440.621V283H436.821V267.988H431.255ZM462.236 264.818V283H458.392V268.467H458.286L454.122 271.077V267.668L458.623 264.818H462.236ZM474.512 263.966L468.653 285.734H465.395L471.254 263.966H474.512ZM483.019 283.249C481.694 283.249 480.513 283.021 479.477 282.565C478.447 282.103 477.634 281.47 477.036 280.665C476.444 279.854 476.139 278.919 476.121 277.86H479.992C480.016 278.304 480.161 278.694 480.427 279.032C480.699 279.363 481.06 279.621 481.51 279.804C481.96 279.987 482.466 280.079 483.028 280.079C483.614 280.079 484.132 279.976 484.582 279.768C485.032 279.561 485.384 279.274 485.638 278.907C485.893 278.54 486.02 278.117 486.02 277.638C486.02 277.152 485.884 276.723 485.612 276.35C485.345 275.972 484.961 275.676 484.458 275.463C483.96 275.25 483.369 275.143 482.682 275.143H480.986V272.32H482.682C483.262 272.32 483.774 272.219 484.218 272.018C484.668 271.817 485.017 271.539 485.266 271.184C485.514 270.823 485.638 270.402 485.638 269.923C485.638 269.467 485.529 269.068 485.31 268.724C485.097 268.375 484.795 268.103 484.404 267.908C484.02 267.712 483.57 267.615 483.055 267.615C482.534 267.615 482.058 267.709 481.626 267.899C481.194 268.082 480.847 268.346 480.587 268.689C480.326 269.032 480.187 269.435 480.17 269.896H476.485C476.503 268.849 476.802 267.925 477.382 267.126C477.962 266.327 478.743 265.703 479.726 265.253C480.714 264.797 481.83 264.57 483.073 264.57C484.327 264.57 485.425 264.797 486.366 265.253C487.307 265.709 488.038 266.324 488.559 267.1C489.086 267.869 489.346 268.733 489.34 269.692C489.346 270.71 489.03 271.559 488.391 272.24C487.757 272.921 486.932 273.353 485.914 273.536V273.678C487.251 273.85 488.269 274.315 488.968 275.072C489.672 275.824 490.021 276.765 490.015 277.895C490.021 278.931 489.722 279.851 489.119 280.656C488.521 281.461 487.695 282.094 486.642 282.556C485.588 283.018 484.381 283.249 483.019 283.249Z" fill="#929292"/>
<g filter="url(#filter2_d_333_844)">
<circle cx="321.5" cy="321.5" r="12.5" fill="white"/>
<circle cx="321.5" cy="321.5" r="12.25" stroke="#E4E3E3" stroke-width="0.5"/>
</g>
<path d="M347.758 330V314H350.172V320.953H358.148V314H360.57V330H358.148V323.023H350.172V330H347.758ZM368.953 330.242C367.828 330.242 366.846 329.984 366.008 329.469C365.169 328.953 364.518 328.232 364.055 327.305C363.591 326.378 363.359 325.294 363.359 324.055C363.359 322.81 363.591 321.721 364.055 320.789C364.518 319.857 365.169 319.133 366.008 318.617C366.846 318.102 367.828 317.844 368.953 317.844C370.078 317.844 371.06 318.102 371.898 318.617C372.737 319.133 373.388 319.857 373.852 320.789C374.315 321.721 374.547 322.81 374.547 324.055C374.547 325.294 374.315 326.378 373.852 327.305C373.388 328.232 372.737 328.953 371.898 329.469C371.06 329.984 370.078 330.242 368.953 330.242ZM368.961 328.281C369.69 328.281 370.294 328.089 370.773 327.703C371.253 327.318 371.607 326.805 371.836 326.164C372.07 325.523 372.188 324.818 372.188 324.047C372.188 323.281 372.07 322.578 371.836 321.937C371.607 321.292 371.253 320.773 370.773 320.383C370.294 319.992 369.69 319.797 368.961 319.797C368.227 319.797 367.617 319.992 367.133 320.383C366.654 320.773 366.297 321.292 366.063 321.937C365.833 322.578 365.719 323.281 365.719 324.047C365.719 324.818 365.833 325.523 366.063 326.164C366.297 326.805 366.654 327.318 367.133 327.703C367.617 328.089 368.227 328.281 368.961 328.281ZM377.154 330V318H379.396V319.953H379.545C379.795 319.292 380.204 318.776 380.771 318.406C381.339 318.031 382.019 317.844 382.811 317.844C383.613 317.844 384.285 318.031 384.826 318.406C385.373 318.781 385.777 319.297 386.037 319.953H386.162C386.449 319.312 386.904 318.802 387.529 318.422C388.154 318.036 388.899 317.844 389.764 317.844C390.852 317.844 391.74 318.185 392.428 318.867C393.12 319.549 393.467 320.578 393.467 321.953V330H391.131V322.172C391.131 321.359 390.91 320.771 390.467 320.406C390.024 320.042 389.495 319.859 388.881 319.859C388.12 319.859 387.529 320.094 387.107 320.562C386.686 321.026 386.475 321.622 386.475 322.352V330H384.146V322.023C384.146 321.372 383.943 320.849 383.537 320.453C383.131 320.057 382.602 319.859 381.951 319.859C381.508 319.859 381.1 319.977 380.725 320.211C380.355 320.44 380.055 320.76 379.826 321.172C379.602 321.583 379.49 322.06 379.49 322.602V330H377.154ZM401.77 330.242C400.587 330.242 399.569 329.99 398.715 329.484C397.866 328.974 397.21 328.258 396.746 327.336C396.288 326.409 396.059 325.323 396.059 324.078C396.059 322.849 396.288 321.766 396.746 320.828C397.21 319.891 397.855 319.159 398.684 318.633C399.517 318.107 400.491 317.844 401.605 317.844C402.283 317.844 402.939 317.956 403.574 318.18C404.21 318.404 404.78 318.755 405.285 319.234C405.79 319.714 406.189 320.336 406.48 321.102C406.772 321.862 406.918 322.786 406.918 323.875V324.703H397.379V322.953H404.629C404.629 322.339 404.504 321.794 404.254 321.32C404.004 320.841 403.652 320.464 403.199 320.187C402.751 319.911 402.225 319.773 401.621 319.773C400.965 319.773 400.392 319.935 399.902 320.258C399.418 320.576 399.043 320.992 398.777 321.508C398.517 322.018 398.387 322.573 398.387 323.172V324.539C398.387 325.341 398.527 326.023 398.809 326.586C399.095 327.148 399.493 327.578 400.004 327.875C400.514 328.167 401.111 328.312 401.793 328.312C402.236 328.312 402.639 328.25 403.004 328.125C403.368 327.995 403.684 327.802 403.949 327.547C404.215 327.292 404.418 326.977 404.559 326.602L406.77 327C406.592 327.651 406.275 328.221 405.816 328.711C405.363 329.195 404.793 329.573 404.105 329.844C403.423 330.109 402.645 330.242 401.77 330.242ZM412.09 330L408.559 318H410.973L413.324 326.812H413.441L415.801 318H418.215L420.559 326.773H420.676L423.012 318H425.426L421.902 330H419.52L417.082 321.336H416.902L414.465 330H412.09ZM432.332 330.242C431.207 330.242 430.225 329.984 429.387 329.469C428.548 328.953 427.897 328.232 427.434 327.305C426.97 326.378 426.738 325.294 426.738 324.055C426.738 322.81 426.97 321.721 427.434 320.789C427.897 319.857 428.548 319.133 429.387 318.617C430.225 318.102 431.207 317.844 432.332 317.844C433.457 317.844 434.439 318.102 435.277 318.617C436.116 319.133 436.767 319.857 437.23 320.789C437.694 321.721 437.926 322.81 437.926 324.055C437.926 325.294 437.694 326.378 437.23 327.305C436.767 328.232 436.116 328.953 435.277 329.469C434.439 329.984 433.457 330.242 432.332 330.242ZM432.34 328.281C433.069 328.281 433.673 328.089 434.152 327.703C434.632 327.318 434.986 326.805 435.215 326.164C435.449 325.523 435.566 324.818 435.566 324.047C435.566 323.281 435.449 322.578 435.215 321.937C434.986 321.292 434.632 320.773 434.152 320.383C433.673 319.992 433.069 319.797 432.34 319.797C431.605 319.797 430.996 319.992 430.512 320.383C430.033 320.773 429.676 321.292 429.441 321.937C429.212 322.578 429.098 323.281 429.098 324.047C429.098 324.818 429.212 325.523 429.441 326.164C429.676 326.805 430.033 327.318 430.512 327.703C430.996 328.089 431.605 328.281 432.34 328.281ZM440.533 330V318H442.791V319.906H442.916C443.135 319.26 443.52 318.753 444.072 318.383C444.63 318.008 445.26 317.82 445.963 317.82C446.109 317.82 446.281 317.826 446.479 317.836C446.682 317.846 446.84 317.859 446.955 317.875V320.109C446.861 320.083 446.695 320.055 446.455 320.023C446.215 319.987 445.976 319.969 445.736 319.969C445.184 319.969 444.692 320.086 444.26 320.32C443.833 320.549 443.494 320.87 443.244 321.281C442.994 321.687 442.869 322.151 442.869 322.672V330H440.533ZM451.125 325.93L451.109 323.078H451.516L456.297 318H459.094L453.641 323.781H453.273L451.125 325.93ZM448.977 330V314H451.313V330H448.977ZM456.555 330L452.258 324.297L453.867 322.664L459.422 330H456.555ZM468.584 330H466.021L471.779 314H474.568L480.326 330H477.764L473.24 316.906H473.115L468.584 330ZM469.014 323.734H477.326V325.766H469.014V323.734ZM491.355 320.93L489.238 321.305C489.15 321.034 489.009 320.776 488.816 320.531C488.629 320.286 488.374 320.086 488.051 319.93C487.728 319.773 487.324 319.695 486.84 319.695C486.178 319.695 485.626 319.844 485.184 320.141C484.741 320.432 484.52 320.81 484.52 321.273C484.52 321.674 484.668 321.997 484.965 322.242C485.262 322.487 485.741 322.687 486.402 322.844L488.309 323.281C489.413 323.536 490.236 323.93 490.777 324.461C491.319 324.992 491.59 325.682 491.59 326.531C491.59 327.25 491.382 327.891 490.965 328.453C490.553 329.01 489.978 329.448 489.238 329.766C488.504 330.083 487.652 330.242 486.684 330.242C485.34 330.242 484.243 329.956 483.395 329.383C482.546 328.805 482.025 327.984 481.832 326.922L484.09 326.578C484.23 327.167 484.52 327.612 484.957 327.914C485.395 328.211 485.965 328.359 486.668 328.359C487.434 328.359 488.046 328.201 488.504 327.883C488.962 327.56 489.191 327.167 489.191 326.703C489.191 326.328 489.051 326.013 488.77 325.758C488.493 325.503 488.069 325.31 487.496 325.18L485.465 324.734C484.345 324.479 483.517 324.073 482.98 323.516C482.449 322.958 482.184 322.253 482.184 321.398C482.184 320.69 482.382 320.07 482.777 319.539C483.173 319.008 483.72 318.594 484.418 318.297C485.116 317.995 485.915 317.844 486.816 317.844C488.113 317.844 489.134 318.125 489.879 318.687C490.624 319.245 491.116 319.992 491.355 320.93ZM503.15 320.93L501.033 321.305C500.945 321.034 500.804 320.776 500.611 320.531C500.424 320.286 500.169 320.086 499.846 319.93C499.523 319.773 499.119 319.695 498.635 319.695C497.973 319.695 497.421 319.844 496.979 320.141C496.536 320.432 496.314 320.81 496.314 321.273C496.314 321.674 496.463 321.997 496.76 322.242C497.057 322.487 497.536 322.687 498.197 322.844L500.104 323.281C501.208 323.536 502.031 323.93 502.572 324.461C503.114 324.992 503.385 325.682 503.385 326.531C503.385 327.25 503.176 327.891 502.76 328.453C502.348 329.01 501.773 329.448 501.033 329.766C500.299 330.083 499.447 330.242 498.479 330.242C497.135 330.242 496.038 329.956 495.189 329.383C494.34 328.805 493.82 327.984 493.627 326.922L495.885 326.578C496.025 327.167 496.314 327.612 496.752 327.914C497.189 328.211 497.76 328.359 498.463 328.359C499.229 328.359 499.84 328.201 500.299 327.883C500.757 327.56 500.986 327.167 500.986 326.703C500.986 326.328 500.846 326.013 500.564 325.758C500.288 325.503 499.864 325.31 499.291 325.18L497.26 324.734C496.14 324.479 495.312 324.073 494.775 323.516C494.244 322.958 493.979 322.253 493.979 321.398C493.979 320.69 494.176 320.07 494.572 319.539C494.968 319.008 495.515 318.594 496.213 318.297C496.911 317.995 497.71 317.844 498.611 317.844C499.908 317.844 500.929 318.125 501.674 318.687C502.419 319.245 502.911 319.992 503.15 320.93ZM505.953 330V318H508.289V330H505.953ZM507.133 316.148C506.727 316.148 506.378 316.013 506.086 315.742C505.799 315.466 505.656 315.138 505.656 314.758C505.656 314.372 505.799 314.044 506.086 313.773C506.378 313.497 506.727 313.359 507.133 313.359C507.539 313.359 507.885 313.497 508.172 313.773C508.464 314.044 508.609 314.372 508.609 314.758C508.609 315.138 508.464 315.466 508.172 315.742C507.885 316.013 507.539 316.148 507.133 316.148ZM516.463 334.75C515.51 334.75 514.689 334.625 514.002 334.375C513.32 334.125 512.762 333.794 512.33 333.383C511.898 332.971 511.575 332.521 511.361 332.031L513.369 331.203C513.51 331.432 513.697 331.674 513.932 331.93C514.171 332.19 514.494 332.411 514.9 332.594C515.312 332.776 515.84 332.867 516.486 332.867C517.372 332.867 518.104 332.651 518.682 332.219C519.26 331.792 519.549 331.109 519.549 330.172V327.812H519.4C519.26 328.068 519.057 328.352 518.791 328.664C518.531 328.977 518.171 329.247 517.713 329.477C517.255 329.706 516.658 329.82 515.924 329.82C514.976 329.82 514.122 329.599 513.361 329.156C512.606 328.708 512.007 328.049 511.564 327.18C511.127 326.305 510.908 325.229 510.908 323.953C510.908 322.677 511.124 321.583 511.557 320.672C511.994 319.76 512.593 319.062 513.354 318.578C514.114 318.089 514.976 317.844 515.939 317.844C516.684 317.844 517.286 317.969 517.744 318.219C518.202 318.464 518.559 318.75 518.814 319.078C519.075 319.406 519.275 319.695 519.416 319.945H519.588V318H521.877V330.266C521.877 331.297 521.637 332.143 521.158 332.805C520.679 333.466 520.031 333.956 519.213 334.273C518.4 334.591 517.484 334.75 516.463 334.75ZM516.439 327.883C517.111 327.883 517.679 327.727 518.143 327.414C518.611 327.096 518.965 326.643 519.205 326.055C519.45 325.461 519.572 324.75 519.572 323.922C519.572 323.115 519.452 322.404 519.213 321.789C518.973 321.174 518.622 320.695 518.158 320.352C517.695 320.003 517.122 319.828 516.439 319.828C515.736 319.828 515.15 320.01 514.682 320.375C514.213 320.734 513.859 321.224 513.619 321.844C513.385 322.464 513.268 323.156 513.268 323.922C513.268 324.708 513.387 325.398 513.627 325.992C513.867 326.586 514.221 327.049 514.689 327.383C515.163 327.716 515.747 327.883 516.439 327.883ZM527.346 322.875V330H525.01V318H527.252V319.953H527.4C527.676 319.318 528.109 318.807 528.697 318.422C529.291 318.036 530.038 317.844 530.939 317.844C531.757 317.844 532.473 318.016 533.088 318.359C533.702 318.698 534.179 319.203 534.518 319.875C534.856 320.547 535.025 321.378 535.025 322.367V330H532.689V322.648C532.689 321.779 532.463 321.099 532.01 320.609C531.557 320.115 530.934 319.867 530.143 319.867C529.601 319.867 529.119 319.984 528.697 320.219C528.281 320.453 527.95 320.797 527.705 321.25C527.465 321.698 527.346 322.24 527.346 322.875ZM538.158 330V318H540.4V319.953H540.549C540.799 319.292 541.208 318.776 541.775 318.406C542.343 318.031 543.023 317.844 543.814 317.844C544.617 317.844 545.288 318.031 545.83 318.406C546.377 318.781 546.781 319.297 547.041 319.953H547.166C547.452 319.312 547.908 318.802 548.533 318.422C549.158 318.036 549.903 317.844 550.768 317.844C551.856 317.844 552.744 318.185 553.432 318.867C554.124 319.549 554.471 320.578 554.471 321.953V330H552.135V322.172C552.135 321.359 551.913 320.771 551.471 320.406C551.028 320.042 550.499 319.859 549.885 319.859C549.124 319.859 548.533 320.094 548.111 320.562C547.689 321.026 547.479 321.622 547.479 322.352V330H545.15V322.023C545.15 321.372 544.947 320.849 544.541 320.453C544.135 320.057 543.606 319.859 542.955 319.859C542.512 319.859 542.104 319.977 541.729 320.211C541.359 320.44 541.059 320.76 540.83 321.172C540.606 321.583 540.494 322.06 540.494 322.602V330H538.158ZM562.773 330.242C561.591 330.242 560.573 329.99 559.719 329.484C558.87 328.974 558.214 328.258 557.75 327.336C557.292 326.409 557.062 325.323 557.062 324.078C557.062 322.849 557.292 321.766 557.75 320.828C558.214 319.891 558.859 319.159 559.688 318.633C560.521 318.107 561.495 317.844 562.609 317.844C563.286 317.844 563.943 317.956 564.578 318.18C565.214 318.404 565.784 318.755 566.289 319.234C566.794 319.714 567.193 320.336 567.484 321.102C567.776 321.862 567.922 322.786 567.922 323.875V324.703H558.383V322.953H565.633C565.633 322.339 565.508 321.794 565.258 321.32C565.008 320.841 564.656 320.464 564.203 320.187C563.755 319.911 563.229 319.773 562.625 319.773C561.969 319.773 561.396 319.935 560.906 320.258C560.422 320.576 560.047 320.992 559.781 321.508C559.521 322.018 559.391 322.573 559.391 323.172V324.539C559.391 325.341 559.531 326.023 559.812 326.586C560.099 327.148 560.497 327.578 561.008 327.875C561.518 328.167 562.115 328.312 562.797 328.312C563.24 328.312 563.643 328.25 564.008 328.125C564.372 327.995 564.688 327.802 564.953 327.547C565.219 327.292 565.422 326.977 565.563 326.602L567.773 327C567.596 327.651 567.279 328.221 566.82 328.711C566.367 329.195 565.797 329.573 565.109 329.844C564.427 330.109 563.648 330.242 562.773 330.242ZM572.85 322.875V330H570.514V318H572.756V319.953H572.904C573.18 319.318 573.613 318.807 574.201 318.422C574.795 318.036 575.542 317.844 576.443 317.844C577.261 317.844 577.977 318.016 578.592 318.359C579.206 318.698 579.683 319.203 580.021 319.875C580.36 320.547 580.529 321.378 580.529 322.367V330H578.193V322.648C578.193 321.779 577.967 321.099 577.514 320.609C577.061 320.115 576.438 319.867 575.646 319.867C575.105 319.867 574.623 319.984 574.201 320.219C573.785 320.453 573.454 320.797 573.209 321.25C572.969 321.698 572.85 322.24 572.85 322.875ZM589.264 318V319.875H582.709V318H589.264ZM584.467 315.125H586.803V326.477C586.803 326.93 586.87 327.271 587.006 327.5C587.141 327.724 587.316 327.878 587.529 327.961C587.748 328.039 587.985 328.078 588.24 328.078C588.428 328.078 588.592 328.065 588.732 328.039C588.873 328.013 588.982 327.992 589.061 327.977L589.482 329.906C589.347 329.958 589.154 330.01 588.904 330.063C588.654 330.12 588.342 330.151 587.967 330.156C587.352 330.167 586.779 330.057 586.248 329.828C585.717 329.599 585.287 329.245 584.959 328.766C584.631 328.286 584.467 327.685 584.467 326.961V315.125Z" fill="#999999"/>
<g filter="url(#filter3_d_333_844)">
<circle cx="321.5" cy="362.5" r="12.5" fill="white"/>
<circle cx="321.5" cy="362.5" r="12.25" stroke="#E4E3E3" stroke-width="0.5"/>
</g>
<path d="M347.758 371V355H353.461C354.701 355 355.729 355.214 356.547 355.641C357.37 356.068 357.984 356.659 358.391 357.414C358.797 358.164 359 359.031 359 360.016C359 360.995 358.794 361.857 358.383 362.602C357.977 363.341 357.362 363.917 356.539 364.328C355.721 364.74 354.693 364.945 353.453 364.945H349.133V362.867H353.234C354.016 362.867 354.651 362.755 355.141 362.531C355.635 362.307 355.997 361.982 356.227 361.555C356.456 361.128 356.57 360.615 356.57 360.016C356.57 359.411 356.453 358.888 356.219 358.445C355.99 358.003 355.628 357.664 355.133 357.43C354.643 357.19 354 357.07 353.203 357.07H350.172V371H347.758ZM355.656 363.781L359.609 371H356.859L352.984 363.781H355.656ZM366.771 371.242C365.589 371.242 364.571 370.99 363.717 370.484C362.868 369.974 362.212 369.258 361.748 368.336C361.29 367.409 361.061 366.323 361.061 365.078C361.061 363.849 361.29 362.766 361.748 361.828C362.212 360.891 362.857 360.159 363.686 359.633C364.519 359.107 365.493 358.844 366.607 358.844C367.285 358.844 367.941 358.956 368.576 359.18C369.212 359.404 369.782 359.755 370.287 360.234C370.792 360.714 371.191 361.336 371.482 362.102C371.774 362.862 371.92 363.786 371.92 364.875V365.703H362.381V363.953H369.631C369.631 363.339 369.506 362.794 369.256 362.32C369.006 361.841 368.654 361.464 368.201 361.187C367.753 360.911 367.227 360.773 366.623 360.773C365.967 360.773 365.394 360.935 364.904 361.258C364.42 361.576 364.045 361.992 363.779 362.508C363.519 363.018 363.389 363.573 363.389 364.172V365.539C363.389 366.341 363.529 367.023 363.811 367.586C364.097 368.148 364.495 368.578 365.006 368.875C365.516 369.167 366.113 369.312 366.795 369.312C367.238 369.312 367.641 369.25 368.006 369.125C368.37 368.995 368.686 368.802 368.951 368.547C369.217 368.292 369.42 367.977 369.561 367.602L371.771 368C371.594 368.651 371.277 369.221 370.818 369.711C370.365 370.195 369.795 370.573 369.107 370.844C368.425 371.109 367.646 371.242 366.771 371.242ZM378.004 371.266C377.243 371.266 376.556 371.125 375.941 370.844C375.327 370.557 374.84 370.143 374.48 369.602C374.126 369.06 373.949 368.396 373.949 367.609C373.949 366.932 374.079 366.375 374.34 365.937C374.6 365.5 374.952 365.154 375.395 364.898C375.837 364.643 376.332 364.451 376.879 364.32C377.426 364.19 377.983 364.091 378.551 364.023C379.27 363.94 379.853 363.872 380.301 363.82C380.749 363.763 381.074 363.672 381.277 363.547C381.48 363.422 381.582 363.219 381.582 362.937V362.883C381.582 362.201 381.389 361.672 381.004 361.297C380.624 360.922 380.056 360.734 379.301 360.734C378.514 360.734 377.895 360.909 377.441 361.258C376.993 361.602 376.684 361.984 376.512 362.406L374.316 361.906C374.577 361.177 374.957 360.589 375.457 360.141C375.962 359.687 376.543 359.359 377.199 359.156C377.855 358.948 378.546 358.844 379.27 358.844C379.749 358.844 380.257 358.901 380.793 359.016C381.335 359.125 381.84 359.328 382.309 359.625C382.783 359.922 383.171 360.346 383.473 360.898C383.775 361.445 383.926 362.156 383.926 363.031V371H381.645V369.359H381.551C381.4 369.661 381.173 369.958 380.871 370.25C380.569 370.542 380.181 370.784 379.707 370.977C379.233 371.169 378.665 371.266 378.004 371.266ZM378.512 369.391C379.158 369.391 379.71 369.263 380.168 369.008C380.632 368.753 380.983 368.419 381.223 368.008C381.467 367.591 381.59 367.146 381.59 366.672V365.125C381.507 365.208 381.345 365.286 381.105 365.359C380.871 365.427 380.603 365.487 380.301 365.539C379.999 365.586 379.704 365.63 379.418 365.672C379.132 365.708 378.892 365.74 378.699 365.766C378.246 365.823 377.832 365.919 377.457 366.055C377.087 366.19 376.79 366.385 376.566 366.641C376.348 366.891 376.238 367.224 376.238 367.641C376.238 368.219 376.452 368.656 376.879 368.953C377.306 369.245 377.85 369.391 378.512 369.391ZM391.529 371.234C390.561 371.234 389.696 370.987 388.936 370.492C388.18 369.992 387.587 369.281 387.154 368.359C386.727 367.432 386.514 366.32 386.514 365.023C386.514 363.727 386.73 362.617 387.162 361.695C387.6 360.773 388.199 360.068 388.959 359.578C389.719 359.089 390.581 358.844 391.545 358.844C392.29 358.844 392.889 358.969 393.342 359.219C393.8 359.464 394.154 359.75 394.404 360.078C394.66 360.406 394.857 360.695 394.998 360.945H395.139V355H397.475V371H395.193V369.133H394.998C394.857 369.388 394.654 369.68 394.389 370.008C394.128 370.336 393.769 370.622 393.311 370.867C392.852 371.112 392.258 371.234 391.529 371.234ZM392.045 369.242C392.717 369.242 393.285 369.065 393.748 368.711C394.217 368.352 394.571 367.854 394.811 367.219C395.055 366.583 395.178 365.844 395.178 365C395.178 364.167 395.058 363.437 394.818 362.812C394.579 362.187 394.227 361.701 393.764 361.352C393.3 361.003 392.727 360.828 392.045 360.828C391.342 360.828 390.756 361.01 390.287 361.375C389.818 361.74 389.464 362.237 389.225 362.867C388.99 363.497 388.873 364.208 388.873 365C388.873 365.802 388.993 366.523 389.232 367.164C389.472 367.805 389.826 368.312 390.295 368.687C390.769 369.057 391.352 369.242 392.045 369.242ZM400.809 371V359H403.145V371H400.809ZM401.988 357.148C401.582 357.148 401.233 357.013 400.941 356.742C400.655 356.466 400.512 356.138 400.512 355.758C400.512 355.372 400.655 355.044 400.941 354.773C401.233 354.497 401.582 354.359 401.988 354.359C402.395 354.359 402.741 354.497 403.027 354.773C403.319 355.044 403.465 355.372 403.465 355.758C403.465 356.138 403.319 356.466 403.027 356.742C402.741 357.013 402.395 357.148 401.988 357.148ZM408.623 363.875V371H406.287V359H408.529V360.953H408.678C408.954 360.318 409.386 359.807 409.975 359.422C410.568 359.036 411.316 358.844 412.217 358.844C413.035 358.844 413.751 359.016 414.365 359.359C414.98 359.698 415.456 360.203 415.795 360.875C416.133 361.547 416.303 362.378 416.303 363.367V371H413.967V363.648C413.967 362.779 413.74 362.099 413.287 361.609C412.834 361.115 412.212 360.867 411.42 360.867C410.878 360.867 410.396 360.984 409.975 361.219C409.558 361.453 409.227 361.797 408.982 362.25C408.743 362.698 408.623 363.24 408.623 363.875ZM424.467 375.75C423.514 375.75 422.693 375.625 422.006 375.375C421.324 375.125 420.766 374.794 420.334 374.383C419.902 373.971 419.579 373.521 419.365 373.031L421.373 372.203C421.514 372.432 421.701 372.674 421.936 372.93C422.175 373.19 422.498 373.411 422.904 373.594C423.316 373.776 423.844 373.867 424.49 373.867C425.376 373.867 426.107 373.651 426.686 373.219C427.264 372.792 427.553 372.109 427.553 371.172V368.812H427.404C427.264 369.068 427.061 369.352 426.795 369.664C426.535 369.977 426.175 370.247 425.717 370.477C425.258 370.706 424.662 370.82 423.928 370.82C422.98 370.82 422.126 370.599 421.365 370.156C420.61 369.708 420.011 369.049 419.568 368.18C419.131 367.305 418.912 366.229 418.912 364.953C418.912 363.677 419.128 362.583 419.561 361.672C419.998 360.76 420.597 360.062 421.357 359.578C422.118 359.089 422.98 358.844 423.943 358.844C424.688 358.844 425.29 358.969 425.748 359.219C426.206 359.464 426.563 359.75 426.818 360.078C427.079 360.406 427.279 360.695 427.42 360.945H427.592V359H429.881V371.266C429.881 372.297 429.641 373.143 429.162 373.805C428.683 374.466 428.035 374.956 427.217 375.273C426.404 375.591 425.488 375.75 424.467 375.75ZM424.443 368.883C425.115 368.883 425.683 368.727 426.146 368.414C426.615 368.096 426.969 367.643 427.209 367.055C427.454 366.461 427.576 365.75 427.576 364.922C427.576 364.115 427.456 363.404 427.217 362.789C426.977 362.174 426.626 361.695 426.162 361.352C425.699 361.003 425.126 360.828 424.443 360.828C423.74 360.828 423.154 361.01 422.686 361.375C422.217 361.734 421.863 362.224 421.623 362.844C421.389 363.464 421.271 364.156 421.271 364.922C421.271 365.708 421.391 366.398 421.631 366.992C421.87 367.586 422.225 368.049 422.693 368.383C423.167 368.716 423.751 368.883 424.443 368.883ZM439.023 371V355H444.883C446.018 355 446.958 355.187 447.703 355.562C448.448 355.932 449.005 356.435 449.375 357.07C449.745 357.701 449.93 358.411 449.93 359.203C449.93 359.87 449.807 360.432 449.563 360.891C449.318 361.344 448.99 361.708 448.578 361.984C448.172 362.255 447.724 362.453 447.234 362.578V362.734C447.766 362.76 448.284 362.932 448.789 363.25C449.299 363.562 449.721 364.008 450.055 364.586C450.388 365.164 450.555 365.867 450.555 366.695C450.555 367.513 450.362 368.247 449.977 368.898C449.596 369.544 449.008 370.057 448.211 370.437C447.414 370.812 446.396 371 445.156 371H439.023ZM441.438 368.93H444.922C446.078 368.93 446.906 368.706 447.406 368.258C447.906 367.81 448.156 367.25 448.156 366.578C448.156 366.073 448.029 365.609 447.773 365.187C447.518 364.766 447.154 364.43 446.68 364.18C446.211 363.93 445.654 363.805 445.008 363.805H441.438V368.93ZM441.438 361.922H444.672C445.214 361.922 445.701 361.818 446.133 361.609C446.57 361.401 446.917 361.109 447.172 360.734C447.432 360.354 447.563 359.906 447.563 359.391C447.563 358.729 447.331 358.174 446.867 357.727C446.404 357.279 445.693 357.055 444.734 357.055H441.438V361.922ZM458.285 371.242C457.16 371.242 456.178 370.984 455.34 370.469C454.501 369.953 453.85 369.232 453.387 368.305C452.923 367.378 452.691 366.294 452.691 365.055C452.691 363.81 452.923 362.721 453.387 361.789C453.85 360.857 454.501 360.133 455.34 359.617C456.178 359.102 457.16 358.844 458.285 358.844C459.41 358.844 460.392 359.102 461.23 359.617C462.069 360.133 462.72 360.857 463.184 361.789C463.647 362.721 463.879 363.81 463.879 365.055C463.879 366.294 463.647 367.378 463.184 368.305C462.72 369.232 462.069 369.953 461.23 370.469C460.392 370.984 459.41 371.242 458.285 371.242ZM458.293 369.281C459.022 369.281 459.626 369.089 460.105 368.703C460.585 368.318 460.939 367.805 461.168 367.164C461.402 366.523 461.52 365.818 461.52 365.047C461.52 364.281 461.402 363.578 461.168 362.937C460.939 362.292 460.585 361.773 460.105 361.383C459.626 360.992 459.022 360.797 458.293 360.797C457.559 360.797 456.949 360.992 456.465 361.383C455.986 361.773 455.629 362.292 455.395 362.937C455.165 363.578 455.051 364.281 455.051 365.047C455.051 365.818 455.165 366.523 455.395 367.164C455.629 367.805 455.986 368.318 456.465 368.703C456.949 369.089 457.559 369.281 458.293 369.281ZM471.541 371.242C470.416 371.242 469.434 370.984 468.596 370.469C467.757 369.953 467.106 369.232 466.643 368.305C466.179 367.378 465.947 366.294 465.947 365.055C465.947 363.81 466.179 362.721 466.643 361.789C467.106 360.857 467.757 360.133 468.596 359.617C469.434 359.102 470.416 358.844 471.541 358.844C472.666 358.844 473.648 359.102 474.486 359.617C475.325 360.133 475.976 360.857 476.439 361.789C476.903 362.721 477.135 363.81 477.135 365.055C477.135 366.294 476.903 367.378 476.439 368.305C475.976 369.232 475.325 369.953 474.486 370.469C473.648 370.984 472.666 371.242 471.541 371.242ZM471.549 369.281C472.278 369.281 472.882 369.089 473.361 368.703C473.84 368.318 474.195 367.805 474.424 367.164C474.658 366.523 474.775 365.818 474.775 365.047C474.775 364.281 474.658 363.578 474.424 362.937C474.195 362.292 473.84 361.773 473.361 361.383C472.882 360.992 472.278 360.797 471.549 360.797C470.814 360.797 470.205 360.992 469.721 361.383C469.242 361.773 468.885 362.292 468.65 362.937C468.421 363.578 468.307 364.281 468.307 365.047C468.307 365.818 468.421 366.523 468.65 367.164C468.885 367.805 469.242 368.318 469.721 368.703C470.205 369.089 470.814 369.281 471.549 369.281ZM481.891 366.93L481.875 364.078H482.281L487.063 359H489.859L484.406 364.781H484.039L481.891 366.93ZM479.742 371V355H482.078V371H479.742ZM487.32 371L483.023 365.297L484.633 363.664L490.188 371H487.32Z" fill="#999999"/>
<path d="M349.109 413H346.547L352.305 397H355.094L360.852 413H358.289L353.766 399.906H353.641L349.109 413ZM349.539 406.734H357.852V408.766H349.539V406.734ZM365.311 405.875V413H362.975V401H365.217V402.953H365.365C365.641 402.318 366.074 401.807 366.662 401.422C367.256 401.036 368.003 400.844 368.904 400.844C369.722 400.844 370.438 401.016 371.053 401.359C371.667 401.698 372.144 402.203 372.482 402.875C372.821 403.547 372.99 404.378 372.99 405.367V413H370.654V405.648C370.654 404.779 370.428 404.099 369.975 403.609C369.521 403.115 368.899 402.867 368.107 402.867C367.566 402.867 367.084 402.984 366.662 403.219C366.245 403.453 365.915 403.797 365.67 404.25C365.43 404.698 365.311 405.24 365.311 405.875ZM379.615 413.266C378.855 413.266 378.167 413.125 377.553 412.844C376.938 412.557 376.451 412.143 376.092 411.602C375.738 411.06 375.561 410.396 375.561 409.609C375.561 408.932 375.691 408.375 375.951 407.937C376.212 407.5 376.563 407.154 377.006 406.898C377.449 406.643 377.943 406.451 378.49 406.32C379.037 406.19 379.594 406.091 380.162 406.023C380.881 405.94 381.464 405.872 381.912 405.82C382.36 405.763 382.686 405.672 382.889 405.547C383.092 405.422 383.193 405.219 383.193 404.937V404.883C383.193 404.201 383.001 403.672 382.615 403.297C382.235 402.922 381.667 402.734 380.912 402.734C380.126 402.734 379.506 402.909 379.053 403.258C378.605 403.602 378.295 403.984 378.123 404.406L375.928 403.906C376.188 403.177 376.568 402.589 377.068 402.141C377.574 401.687 378.154 401.359 378.811 401.156C379.467 400.948 380.157 400.844 380.881 400.844C381.36 400.844 381.868 400.901 382.404 401.016C382.946 401.125 383.451 401.328 383.92 401.625C384.394 401.922 384.782 402.346 385.084 402.898C385.386 403.445 385.537 404.156 385.537 405.031V413H383.256V411.359H383.162C383.011 411.661 382.785 411.958 382.482 412.25C382.18 412.542 381.792 412.784 381.318 412.977C380.844 413.169 380.277 413.266 379.615 413.266ZM380.123 411.391C380.769 411.391 381.321 411.263 381.779 411.008C382.243 410.753 382.594 410.419 382.834 410.008C383.079 409.591 383.201 409.146 383.201 408.672V407.125C383.118 407.208 382.956 407.286 382.717 407.359C382.482 407.427 382.214 407.487 381.912 407.539C381.61 407.586 381.316 407.63 381.029 407.672C380.743 407.708 380.503 407.74 380.311 407.766C379.857 407.823 379.443 407.919 379.068 408.055C378.699 408.19 378.402 408.385 378.178 408.641C377.959 408.891 377.85 409.224 377.85 409.641C377.85 410.219 378.063 410.656 378.49 410.953C378.917 411.245 379.462 411.391 380.123 411.391ZM390.984 397V413H388.648V397H390.984ZM395.604 417.5C395.255 417.5 394.937 417.471 394.65 417.414C394.364 417.362 394.15 417.305 394.01 417.242L394.572 415.328C394.999 415.443 395.38 415.492 395.713 415.477C396.046 415.461 396.34 415.336 396.596 415.102C396.856 414.867 397.085 414.484 397.283 413.953L397.572 413.156L393.182 401H395.682L398.721 410.312H398.846L401.885 401H404.393L399.447 414.602C399.218 415.227 398.926 415.755 398.572 416.188C398.218 416.625 397.796 416.953 397.307 417.172C396.817 417.391 396.249 417.5 395.604 417.5ZM406.338 413V411.398L412.838 403.141V403.031H406.549V401H415.752V402.703L409.502 410.859V410.969H415.971V413H406.338ZM423.555 413.242C422.372 413.242 421.354 412.99 420.5 412.484C419.651 411.974 418.995 411.258 418.531 410.336C418.073 409.409 417.844 408.323 417.844 407.078C417.844 405.849 418.073 404.766 418.531 403.828C418.995 402.891 419.641 402.159 420.469 401.633C421.302 401.107 422.276 400.844 423.391 400.844C424.068 400.844 424.724 400.956 425.359 401.18C425.995 401.404 426.565 401.755 427.07 402.234C427.576 402.714 427.974 403.336 428.266 404.102C428.557 404.862 428.703 405.786 428.703 406.875V407.703H419.164V405.953H426.414C426.414 405.339 426.289 404.794 426.039 404.32C425.789 403.841 425.438 403.464 424.984 403.187C424.536 402.911 424.01 402.773 423.406 402.773C422.75 402.773 422.177 402.935 421.688 403.258C421.203 403.576 420.828 403.992 420.563 404.508C420.302 405.018 420.172 405.573 420.172 406.172V407.539C420.172 408.341 420.313 409.023 420.594 409.586C420.88 410.148 421.279 410.578 421.789 410.875C422.299 411.167 422.896 411.312 423.578 411.312C424.021 411.312 424.424 411.25 424.789 411.125C425.154 410.995 425.469 410.802 425.734 410.547C426 410.292 426.203 409.977 426.344 409.602L428.555 410C428.378 410.651 428.06 411.221 427.602 411.711C427.148 412.195 426.578 412.573 425.891 412.844C425.208 413.109 424.43 413.242 423.555 413.242ZM437.305 413V397H443.008C444.247 397 445.276 397.214 446.094 397.641C446.917 398.068 447.531 398.659 447.938 399.414C448.344 400.164 448.547 401.031 448.547 402.016C448.547 402.995 448.341 403.857 447.93 404.602C447.523 405.341 446.909 405.917 446.086 406.328C445.268 406.74 444.24 406.945 443 406.945H438.68V404.867H442.781C443.563 404.867 444.198 404.755 444.688 404.531C445.182 404.307 445.544 403.982 445.773 403.555C446.003 403.128 446.117 402.615 446.117 402.016C446.117 401.411 446 400.888 445.766 400.445C445.536 400.003 445.174 399.664 444.68 399.43C444.19 399.19 443.547 399.07 442.75 399.07H439.719V413H437.305ZM445.203 405.781L449.156 413H446.406L442.531 405.781H445.203ZM456.318 413.242C455.136 413.242 454.118 412.99 453.264 412.484C452.415 411.974 451.758 411.258 451.295 410.336C450.837 409.409 450.607 408.323 450.607 407.078C450.607 405.849 450.837 404.766 451.295 403.828C451.758 402.891 452.404 402.159 453.232 401.633C454.066 401.107 455.04 400.844 456.154 400.844C456.831 400.844 457.488 400.956 458.123 401.18C458.758 401.404 459.329 401.755 459.834 402.234C460.339 402.714 460.738 403.336 461.029 404.102C461.321 404.862 461.467 405.786 461.467 406.875V407.703H451.928V405.953H459.178C459.178 405.339 459.053 404.794 458.803 404.32C458.553 403.841 458.201 403.464 457.748 403.187C457.3 402.911 456.774 402.773 456.17 402.773C455.514 402.773 454.941 402.935 454.451 403.258C453.967 403.576 453.592 403.992 453.326 404.508C453.066 405.018 452.936 405.573 452.936 406.172V407.539C452.936 408.341 453.076 409.023 453.357 409.586C453.644 410.148 454.042 410.578 454.553 410.875C455.063 411.167 455.66 411.312 456.342 411.312C456.785 411.312 457.188 411.25 457.553 411.125C457.917 410.995 458.232 410.802 458.498 410.547C458.764 410.292 458.967 409.977 459.107 409.602L461.318 410C461.141 410.651 460.824 411.221 460.365 411.711C459.912 412.195 459.342 412.573 458.654 412.844C457.972 413.109 457.193 413.242 456.318 413.242ZM473.051 403.93L470.934 404.305C470.845 404.034 470.704 403.776 470.512 403.531C470.324 403.286 470.069 403.086 469.746 402.93C469.423 402.773 469.02 402.695 468.535 402.695C467.874 402.695 467.322 402.844 466.879 403.141C466.436 403.432 466.215 403.81 466.215 404.273C466.215 404.674 466.363 404.997 466.66 405.242C466.957 405.487 467.436 405.687 468.098 405.844L470.004 406.281C471.108 406.536 471.931 406.93 472.473 407.461C473.014 407.992 473.285 408.682 473.285 409.531C473.285 410.25 473.077 410.891 472.66 411.453C472.249 412.01 471.673 412.448 470.934 412.766C470.199 413.083 469.348 413.242 468.379 413.242C467.035 413.242 465.939 412.956 465.09 412.383C464.241 411.805 463.72 410.984 463.527 409.922L465.785 409.578C465.926 410.167 466.215 410.612 466.652 410.914C467.09 411.211 467.66 411.359 468.363 411.359C469.129 411.359 469.741 411.201 470.199 410.883C470.658 410.56 470.887 410.167 470.887 409.703C470.887 409.328 470.746 409.013 470.465 408.758C470.189 408.503 469.764 408.31 469.191 408.18L467.16 407.734C466.04 407.479 465.212 407.073 464.676 406.516C464.145 405.958 463.879 405.253 463.879 404.398C463.879 403.69 464.077 403.07 464.473 402.539C464.868 402.008 465.415 401.594 466.113 401.297C466.811 400.995 467.611 400.844 468.512 400.844C469.809 400.844 470.829 401.125 471.574 401.687C472.319 402.245 472.811 402.992 473.051 403.93ZM483.455 408.023V401H485.799V413H483.502V410.922H483.377C483.101 411.563 482.658 412.096 482.049 412.523C481.445 412.945 480.692 413.156 479.791 413.156C479.02 413.156 478.338 412.987 477.744 412.648C477.156 412.305 476.692 411.797 476.354 411.125C476.02 410.453 475.854 409.622 475.854 408.633V401H478.189V408.352C478.189 409.169 478.416 409.82 478.869 410.305C479.322 410.789 479.911 411.031 480.635 411.031C481.072 411.031 481.507 410.922 481.939 410.703C482.377 410.484 482.739 410.154 483.025 409.711C483.317 409.268 483.46 408.706 483.455 408.023ZM491.273 397V413H488.938V397H491.273ZM500.018 401V402.875H493.463V401H500.018ZM495.221 398.125H497.557V409.477C497.557 409.93 497.624 410.271 497.76 410.5C497.895 410.724 498.07 410.878 498.283 410.961C498.502 411.039 498.739 411.078 498.994 411.078C499.182 411.078 499.346 411.065 499.486 411.039C499.627 411.013 499.736 410.992 499.814 410.977L500.236 412.906C500.101 412.958 499.908 413.01 499.658 413.063C499.408 413.12 499.096 413.151 498.721 413.156C498.106 413.167 497.533 413.057 497.002 412.828C496.471 412.599 496.041 412.245 495.713 411.766C495.385 411.286 495.221 410.685 495.221 409.961V398.125Z" fill="#999999"/>
<g filter="url(#filter4_d_333_844)">
<circle cx="321.5" cy="404.5" r="12.5" fill="white"/>
<circle cx="321.5" cy="404.5" r="12.25" stroke="#8B8B8B" stroke-width="0.5"/>
</g>
<circle cx="321.5" cy="404.5" r="9.5" fill="#D55CFF"/>
<path d="M321.623 530.184H317.734C317.663 529.681 317.518 529.234 317.299 528.843C317.08 528.446 316.799 528.109 316.456 527.831C316.112 527.553 315.716 527.34 315.266 527.192C314.822 527.044 314.34 526.97 313.819 526.97C312.878 526.97 312.058 527.204 311.36 527.671C310.661 528.133 310.12 528.808 309.735 529.695C309.35 530.577 309.158 531.648 309.158 532.909C309.158 534.205 309.35 535.294 309.735 536.176C310.126 537.058 310.67 537.724 311.369 538.174C312.067 538.623 312.875 538.848 313.792 538.848C314.307 538.848 314.784 538.78 315.222 538.644C315.665 538.508 316.059 538.31 316.402 538.049C316.746 537.783 317.03 537.46 317.255 537.082C317.485 536.703 317.645 536.271 317.734 535.786L321.623 535.803C321.522 536.638 321.27 537.443 320.868 538.218C320.471 538.987 319.936 539.677 319.261 540.287C318.592 540.89 317.793 541.37 316.864 541.725C315.941 542.074 314.896 542.249 313.73 542.249C312.108 542.249 310.658 541.882 309.38 541.148C308.107 540.414 307.101 539.351 306.362 537.961C305.628 536.57 305.261 534.886 305.261 532.909C305.261 530.926 305.634 529.24 306.379 527.849C307.125 526.458 308.137 525.398 309.415 524.67C310.694 523.937 312.132 523.57 313.73 523.57C314.784 523.57 315.76 523.718 316.66 524.013C317.565 524.309 318.367 524.741 319.066 525.31C319.764 525.872 320.332 526.561 320.77 527.378C321.214 528.195 321.498 529.13 321.623 530.184ZM324.379 542V523.818H328.223V531.32H336.027V523.818H339.862V542H336.027V534.489H328.223V542H324.379ZM343.031 542V523.818H355.283V526.988H346.876V531.32H354.653V534.489H346.876V538.831H355.318V542H343.031ZM374.381 530.184H370.493C370.422 529.681 370.277 529.234 370.058 528.843C369.839 528.446 369.558 528.109 369.214 527.831C368.871 527.553 368.475 527.34 368.025 527.192C367.581 527.044 367.099 526.97 366.578 526.97C365.637 526.97 364.817 527.204 364.119 527.671C363.42 528.133 362.879 528.808 362.494 529.695C362.109 530.577 361.917 531.648 361.917 532.909C361.917 534.205 362.109 535.294 362.494 536.176C362.884 537.058 363.429 537.724 364.127 538.174C364.826 538.623 365.634 538.848 366.551 538.848C367.066 538.848 367.542 538.78 367.98 538.644C368.424 538.508 368.818 538.31 369.161 538.049C369.504 537.783 369.789 537.46 370.013 537.082C370.244 536.703 370.404 536.271 370.493 535.786L374.381 535.803C374.281 536.638 374.029 537.443 373.627 538.218C373.23 538.987 372.695 539.677 372.02 540.287C371.351 540.89 370.552 541.37 369.623 541.725C368.699 542.074 367.655 542.249 366.489 542.249C364.867 542.249 363.417 541.882 362.139 541.148C360.866 540.414 359.86 539.351 359.12 537.961C358.386 536.57 358.019 534.886 358.019 532.909C358.019 530.926 358.392 529.24 359.138 527.849C359.884 526.458 360.896 525.398 362.174 524.67C363.453 523.937 364.891 523.57 366.489 523.57C367.542 523.57 368.519 523.718 369.419 524.013C370.324 524.309 371.126 524.741 371.824 525.31C372.523 525.872 373.091 526.561 373.529 527.378C373.973 528.195 374.257 529.13 374.381 530.184ZM377.138 542V523.818H380.982V531.835H381.222L387.765 523.818H392.372L385.625 531.959L392.452 542H387.853L382.873 534.525L380.982 536.833V542H377.138ZM394.374 542V523.818H398.218V538.831H406.013V542H394.374ZM412.403 523.818V542H408.559V523.818H412.403ZM425.429 529.047C425.358 528.331 425.053 527.775 424.514 527.378C423.976 526.982 423.245 526.783 422.322 526.783C421.694 526.783 421.165 526.872 420.733 527.05C420.3 527.221 419.969 527.461 419.738 527.769C419.513 528.077 419.401 528.426 419.401 528.816C419.389 529.142 419.457 529.426 419.605 529.669C419.759 529.911 419.969 530.121 420.235 530.299C420.502 530.471 420.809 530.622 421.159 530.752C421.508 530.876 421.881 530.983 422.277 531.071L423.911 531.462C424.704 531.64 425.432 531.876 426.095 532.172C426.758 532.468 427.332 532.832 427.817 533.264C428.302 533.696 428.678 534.205 428.945 534.791C429.217 535.377 429.356 536.049 429.362 536.806C429.356 537.919 429.072 538.884 428.509 539.701C427.953 540.511 427.148 541.142 426.095 541.592C425.047 542.036 423.784 542.257 422.304 542.257C420.836 542.257 419.558 542.033 418.469 541.583C417.386 541.133 416.539 540.467 415.93 539.585C415.326 538.697 415.009 537.6 414.98 536.292H418.699C418.741 536.901 418.916 537.41 419.223 537.819C419.537 538.221 419.954 538.526 420.475 538.733C421.002 538.934 421.597 539.035 422.259 539.035C422.911 539.035 423.476 538.94 423.955 538.751C424.44 538.561 424.816 538.298 425.083 537.961C425.349 537.623 425.482 537.236 425.482 536.798C425.482 536.389 425.361 536.046 425.118 535.768C424.881 535.49 424.532 535.253 424.071 535.058C423.615 534.862 423.056 534.685 422.393 534.525L420.413 534.028C418.88 533.655 417.67 533.072 416.782 532.279C415.894 531.486 415.453 530.417 415.459 529.074C415.453 527.973 415.746 527.011 416.338 526.189C416.936 525.366 417.755 524.724 418.797 524.262C419.839 523.8 421.023 523.57 422.348 523.57C423.698 523.57 424.876 523.8 425.882 524.262C426.894 524.724 427.681 525.366 428.243 526.189C428.805 527.011 429.095 527.964 429.113 529.047H425.429ZM431.255 526.988V523.818H446.188V526.988H440.621V542H436.821V526.988H431.255ZM462.236 523.818V542H458.392V527.467H458.286L454.122 530.077V526.668L458.623 523.818H462.236ZM474.512 522.966L468.653 544.734H465.395L471.254 522.966H474.512ZM483.019 542.249C481.694 542.249 480.513 542.021 479.477 541.565C478.447 541.103 477.634 540.47 477.036 539.665C476.444 538.854 476.139 537.919 476.121 536.86H479.992C480.016 537.304 480.161 537.694 480.427 538.032C480.699 538.363 481.06 538.621 481.51 538.804C481.96 538.987 482.466 539.079 483.028 539.079C483.614 539.079 484.132 538.976 484.582 538.768C485.032 538.561 485.384 538.274 485.638 537.907C485.893 537.54 486.02 537.117 486.02 536.638C486.02 536.152 485.884 535.723 485.612 535.35C485.345 534.972 484.961 534.676 484.458 534.463C483.96 534.25 483.369 534.143 482.682 534.143H480.986V531.32H482.682C483.262 531.32 483.774 531.219 484.218 531.018C484.668 530.817 485.017 530.539 485.266 530.184C485.514 529.823 485.638 529.402 485.638 528.923C485.638 528.467 485.529 528.068 485.31 527.724C485.097 527.375 484.795 527.103 484.404 526.908C484.02 526.712 483.57 526.615 483.055 526.615C482.534 526.615 482.058 526.709 481.626 526.899C481.194 527.082 480.847 527.346 480.587 527.689C480.326 528.032 480.187 528.435 480.17 528.896H476.485C476.503 527.849 476.802 526.925 477.382 526.126C477.962 525.327 478.743 524.703 479.726 524.253C480.714 523.797 481.83 523.57 483.073 523.57C484.327 523.57 485.425 523.797 486.366 524.253C487.307 524.709 488.038 525.324 488.559 526.1C489.086 526.869 489.346 527.733 489.34 528.692C489.346 529.71 489.03 530.559 488.391 531.24C487.757 531.921 486.932 532.353 485.914 532.536V532.678C487.251 532.85 488.269 533.315 488.968 534.072C489.672 534.824 490.021 535.765 490.015 536.895C490.021 537.931 489.722 538.851 489.119 539.656C488.521 540.461 487.695 541.094 486.642 541.556C485.588 542.018 484.381 542.249 483.019 542.249Z" fill="#929292"/>
<g filter="url(#filter5_d_333_844)">
<circle cx="321.5" cy="580.5" r="12.5" fill="white"/>
<circle cx="321.5" cy="580.5" r="12.25" stroke="#E4E3E3" stroke-width="0.5"/>
</g>
<path d="M347.758 589V573H350.172V579.953H358.148V573H360.57V589H358.148V582.023H350.172V589H347.758ZM368.953 589.242C367.828 589.242 366.846 588.984 366.008 588.469C365.169 587.953 364.518 587.232 364.055 586.305C363.591 585.378 363.359 584.294 363.359 583.055C363.359 581.81 363.591 580.721 364.055 579.789C364.518 578.857 365.169 578.133 366.008 577.617C366.846 577.102 367.828 576.844 368.953 576.844C370.078 576.844 371.06 577.102 371.898 577.617C372.737 578.133 373.388 578.857 373.852 579.789C374.315 580.721 374.547 581.81 374.547 583.055C374.547 584.294 374.315 585.378 373.852 586.305C373.388 587.232 372.737 587.953 371.898 588.469C371.06 588.984 370.078 589.242 368.953 589.242ZM368.961 587.281C369.69 587.281 370.294 587.089 370.773 586.703C371.253 586.318 371.607 585.805 371.836 585.164C372.07 584.523 372.188 583.818 372.188 583.047C372.188 582.281 372.07 581.578 371.836 580.937C371.607 580.292 371.253 579.773 370.773 579.383C370.294 578.992 369.69 578.797 368.961 578.797C368.227 578.797 367.617 578.992 367.133 579.383C366.654 579.773 366.297 580.292 366.063 580.937C365.833 581.578 365.719 582.281 365.719 583.047C365.719 583.818 365.833 584.523 366.063 585.164C366.297 585.805 366.654 586.318 367.133 586.703C367.617 587.089 368.227 587.281 368.961 587.281ZM377.154 589V577H379.396V578.953H379.545C379.795 578.292 380.204 577.776 380.771 577.406C381.339 577.031 382.019 576.844 382.811 576.844C383.613 576.844 384.285 577.031 384.826 577.406C385.373 577.781 385.777 578.297 386.037 578.953H386.162C386.449 578.312 386.904 577.802 387.529 577.422C388.154 577.036 388.899 576.844 389.764 576.844C390.852 576.844 391.74 577.185 392.428 577.867C393.12 578.549 393.467 579.578 393.467 580.953V589H391.131V581.172C391.131 580.359 390.91 579.771 390.467 579.406C390.024 579.042 389.495 578.859 388.881 578.859C388.12 578.859 387.529 579.094 387.107 579.562C386.686 580.026 386.475 580.622 386.475 581.352V589H384.146V581.023C384.146 580.372 383.943 579.849 383.537 579.453C383.131 579.057 382.602 578.859 381.951 578.859C381.508 578.859 381.1 578.977 380.725 579.211C380.355 579.44 380.055 579.76 379.826 580.172C379.602 580.583 379.49 581.06 379.49 581.602V589H377.154ZM401.77 589.242C400.587 589.242 399.569 588.99 398.715 588.484C397.866 587.974 397.21 587.258 396.746 586.336C396.288 585.409 396.059 584.323 396.059 583.078C396.059 581.849 396.288 580.766 396.746 579.828C397.21 578.891 397.855 578.159 398.684 577.633C399.517 577.107 400.491 576.844 401.605 576.844C402.283 576.844 402.939 576.956 403.574 577.18C404.21 577.404 404.78 577.755 405.285 578.234C405.79 578.714 406.189 579.336 406.48 580.102C406.772 580.862 406.918 581.786 406.918 582.875V583.703H397.379V581.953H404.629C404.629 581.339 404.504 580.794 404.254 580.32C404.004 579.841 403.652 579.464 403.199 579.187C402.751 578.911 402.225 578.773 401.621 578.773C400.965 578.773 400.392 578.935 399.902 579.258C399.418 579.576 399.043 579.992 398.777 580.508C398.517 581.018 398.387 581.573 398.387 582.172V583.539C398.387 584.341 398.527 585.023 398.809 585.586C399.095 586.148 399.493 586.578 400.004 586.875C400.514 587.167 401.111 587.312 401.793 587.312C402.236 587.312 402.639 587.25 403.004 587.125C403.368 586.995 403.684 586.802 403.949 586.547C404.215 586.292 404.418 585.977 404.559 585.602L406.77 586C406.592 586.651 406.275 587.221 405.816 587.711C405.363 588.195 404.793 588.573 404.105 588.844C403.423 589.109 402.645 589.242 401.77 589.242ZM412.09 589L408.559 577H410.973L413.324 585.812H413.441L415.801 577H418.215L420.559 585.773H420.676L423.012 577H425.426L421.902 589H419.52L417.082 580.336H416.902L414.465 589H412.09ZM432.332 589.242C431.207 589.242 430.225 588.984 429.387 588.469C428.548 587.953 427.897 587.232 427.434 586.305C426.97 585.378 426.738 584.294 426.738 583.055C426.738 581.81 426.97 580.721 427.434 579.789C427.897 578.857 428.548 578.133 429.387 577.617C430.225 577.102 431.207 576.844 432.332 576.844C433.457 576.844 434.439 577.102 435.277 577.617C436.116 578.133 436.767 578.857 437.23 579.789C437.694 580.721 437.926 581.81 437.926 583.055C437.926 584.294 437.694 585.378 437.23 586.305C436.767 587.232 436.116 587.953 435.277 588.469C434.439 588.984 433.457 589.242 432.332 589.242ZM432.34 587.281C433.069 587.281 433.673 587.089 434.152 586.703C434.632 586.318 434.986 585.805 435.215 585.164C435.449 584.523 435.566 583.818 435.566 583.047C435.566 582.281 435.449 581.578 435.215 580.937C434.986 580.292 434.632 579.773 434.152 579.383C433.673 578.992 433.069 578.797 432.34 578.797C431.605 578.797 430.996 578.992 430.512 579.383C430.033 579.773 429.676 580.292 429.441 580.937C429.212 581.578 429.098 582.281 429.098 583.047C429.098 583.818 429.212 584.523 429.441 585.164C429.676 585.805 430.033 586.318 430.512 586.703C430.996 587.089 431.605 587.281 432.34 587.281ZM440.533 589V577H442.791V578.906H442.916C443.135 578.26 443.52 577.753 444.072 577.383C444.63 577.008 445.26 576.82 445.963 576.82C446.109 576.82 446.281 576.826 446.479 576.836C446.682 576.846 446.84 576.859 446.955 576.875V579.109C446.861 579.083 446.695 579.055 446.455 579.023C446.215 578.987 445.976 578.969 445.736 578.969C445.184 578.969 444.692 579.086 444.26 579.32C443.833 579.549 443.494 579.87 443.244 580.281C442.994 580.687 442.869 581.151 442.869 581.672V589H440.533ZM451.125 584.93L451.109 582.078H451.516L456.297 577H459.094L453.641 582.781H453.273L451.125 584.93ZM448.977 589V573H451.313V589H448.977ZM456.555 589L452.258 583.297L453.867 581.664L459.422 589H456.555ZM468.584 589H466.021L471.779 573H474.568L480.326 589H477.764L473.24 575.906H473.115L468.584 589ZM469.014 582.734H477.326V584.766H469.014V582.734ZM491.355 579.93L489.238 580.305C489.15 580.034 489.009 579.776 488.816 579.531C488.629 579.286 488.374 579.086 488.051 578.93C487.728 578.773 487.324 578.695 486.84 578.695C486.178 578.695 485.626 578.844 485.184 579.141C484.741 579.432 484.52 579.81 484.52 580.273C484.52 580.674 484.668 580.997 484.965 581.242C485.262 581.487 485.741 581.687 486.402 581.844L488.309 582.281C489.413 582.536 490.236 582.93 490.777 583.461C491.319 583.992 491.59 584.682 491.59 585.531C491.59 586.25 491.382 586.891 490.965 587.453C490.553 588.01 489.978 588.448 489.238 588.766C488.504 589.083 487.652 589.242 486.684 589.242C485.34 589.242 484.243 588.956 483.395 588.383C482.546 587.805 482.025 586.984 481.832 585.922L484.09 585.578C484.23 586.167 484.52 586.612 484.957 586.914C485.395 587.211 485.965 587.359 486.668 587.359C487.434 587.359 488.046 587.201 488.504 586.883C488.962 586.56 489.191 586.167 489.191 585.703C489.191 585.328 489.051 585.013 488.77 584.758C488.493 584.503 488.069 584.31 487.496 584.18L485.465 583.734C484.345 583.479 483.517 583.073 482.98 582.516C482.449 581.958 482.184 581.253 482.184 580.398C482.184 579.69 482.382 579.07 482.777 578.539C483.173 578.008 483.72 577.594 484.418 577.297C485.116 576.995 485.915 576.844 486.816 576.844C488.113 576.844 489.134 577.125 489.879 577.687C490.624 578.245 491.116 578.992 491.355 579.93ZM503.15 579.93L501.033 580.305C500.945 580.034 500.804 579.776 500.611 579.531C500.424 579.286 500.169 579.086 499.846 578.93C499.523 578.773 499.119 578.695 498.635 578.695C497.973 578.695 497.421 578.844 496.979 579.141C496.536 579.432 496.314 579.81 496.314 580.273C496.314 580.674 496.463 580.997 496.76 581.242C497.057 581.487 497.536 581.687 498.197 581.844L500.104 582.281C501.208 582.536 502.031 582.93 502.572 583.461C503.114 583.992 503.385 584.682 503.385 585.531C503.385 586.25 503.176 586.891 502.76 587.453C502.348 588.01 501.773 588.448 501.033 588.766C500.299 589.083 499.447 589.242 498.479 589.242C497.135 589.242 496.038 588.956 495.189 588.383C494.34 587.805 493.82 586.984 493.627 585.922L495.885 585.578C496.025 586.167 496.314 586.612 496.752 586.914C497.189 587.211 497.76 587.359 498.463 587.359C499.229 587.359 499.84 587.201 500.299 586.883C500.757 586.56 500.986 586.167 500.986 585.703C500.986 585.328 500.846 585.013 500.564 584.758C500.288 584.503 499.864 584.31 499.291 584.18L497.26 583.734C496.14 583.479 495.312 583.073 494.775 582.516C494.244 581.958 493.979 581.253 493.979 580.398C493.979 579.69 494.176 579.07 494.572 578.539C494.968 578.008 495.515 577.594 496.213 577.297C496.911 576.995 497.71 576.844 498.611 576.844C499.908 576.844 500.929 577.125 501.674 577.687C502.419 578.245 502.911 578.992 503.15 579.93ZM505.953 589V577H508.289V589H505.953ZM507.133 575.148C506.727 575.148 506.378 575.013 506.086 574.742C505.799 574.466 505.656 574.138 505.656 573.758C505.656 573.372 505.799 573.044 506.086 572.773C506.378 572.497 506.727 572.359 507.133 572.359C507.539 572.359 507.885 572.497 508.172 572.773C508.464 573.044 508.609 573.372 508.609 573.758C508.609 574.138 508.464 574.466 508.172 574.742C507.885 575.013 507.539 575.148 507.133 575.148ZM516.463 593.75C515.51 593.75 514.689 593.625 514.002 593.375C513.32 593.125 512.762 592.794 512.33 592.383C511.898 591.971 511.575 591.521 511.361 591.031L513.369 590.203C513.51 590.432 513.697 590.674 513.932 590.93C514.171 591.19 514.494 591.411 514.9 591.594C515.312 591.776 515.84 591.867 516.486 591.867C517.372 591.867 518.104 591.651 518.682 591.219C519.26 590.792 519.549 590.109 519.549 589.172V586.812H519.4C519.26 587.068 519.057 587.352 518.791 587.664C518.531 587.977 518.171 588.247 517.713 588.477C517.255 588.706 516.658 588.82 515.924 588.82C514.976 588.82 514.122 588.599 513.361 588.156C512.606 587.708 512.007 587.049 511.564 586.18C511.127 585.305 510.908 584.229 510.908 582.953C510.908 581.677 511.124 580.583 511.557 579.672C511.994 578.76 512.593 578.062 513.354 577.578C514.114 577.089 514.976 576.844 515.939 576.844C516.684 576.844 517.286 576.969 517.744 577.219C518.202 577.464 518.559 577.75 518.814 578.078C519.075 578.406 519.275 578.695 519.416 578.945H519.588V577H521.877V589.266C521.877 590.297 521.637 591.143 521.158 591.805C520.679 592.466 520.031 592.956 519.213 593.273C518.4 593.591 517.484 593.75 516.463 593.75ZM516.439 586.883C517.111 586.883 517.679 586.727 518.143 586.414C518.611 586.096 518.965 585.643 519.205 585.055C519.45 584.461 519.572 583.75 519.572 582.922C519.572 582.115 519.452 581.404 519.213 580.789C518.973 580.174 518.622 579.695 518.158 579.352C517.695 579.003 517.122 578.828 516.439 578.828C515.736 578.828 515.15 579.01 514.682 579.375C514.213 579.734 513.859 580.224 513.619 580.844C513.385 581.464 513.268 582.156 513.268 582.922C513.268 583.708 513.387 584.398 513.627 584.992C513.867 585.586 514.221 586.049 514.689 586.383C515.163 586.716 515.747 586.883 516.439 586.883ZM527.346 581.875V589H525.01V577H527.252V578.953H527.4C527.676 578.318 528.109 577.807 528.697 577.422C529.291 577.036 530.038 576.844 530.939 576.844C531.757 576.844 532.473 577.016 533.088 577.359C533.702 577.698 534.179 578.203 534.518 578.875C534.856 579.547 535.025 580.378 535.025 581.367V589H532.689V581.648C532.689 580.779 532.463 580.099 532.01 579.609C531.557 579.115 530.934 578.867 530.143 578.867C529.601 578.867 529.119 578.984 528.697 579.219C528.281 579.453 527.95 579.797 527.705 580.25C527.465 580.698 527.346 581.24 527.346 581.875ZM538.158 589V577H540.4V578.953H540.549C540.799 578.292 541.208 577.776 541.775 577.406C542.343 577.031 543.023 576.844 543.814 576.844C544.617 576.844 545.288 577.031 545.83 577.406C546.377 577.781 546.781 578.297 547.041 578.953H547.166C547.452 578.312 547.908 577.802 548.533 577.422C549.158 577.036 549.903 576.844 550.768 576.844C551.856 576.844 552.744 577.185 553.432 577.867C554.124 578.549 554.471 579.578 554.471 580.953V589H552.135V581.172C552.135 580.359 551.913 579.771 551.471 579.406C551.028 579.042 550.499 578.859 549.885 578.859C549.124 578.859 548.533 579.094 548.111 579.562C547.689 580.026 547.479 580.622 547.479 581.352V589H545.15V581.023C545.15 580.372 544.947 579.849 544.541 579.453C544.135 579.057 543.606 578.859 542.955 578.859C542.512 578.859 542.104 578.977 541.729 579.211C541.359 579.44 541.059 579.76 540.83 580.172C540.606 580.583 540.494 581.06 540.494 581.602V589H538.158ZM562.773 589.242C561.591 589.242 560.573 588.99 559.719 588.484C558.87 587.974 558.214 587.258 557.75 586.336C557.292 585.409 557.062 584.323 557.062 583.078C557.062 581.849 557.292 580.766 557.75 579.828C558.214 578.891 558.859 578.159 559.688 577.633C560.521 577.107 561.495 576.844 562.609 576.844C563.286 576.844 563.943 576.956 564.578 577.18C565.214 577.404 565.784 577.755 566.289 578.234C566.794 578.714 567.193 579.336 567.484 580.102C567.776 580.862 567.922 581.786 567.922 582.875V583.703H558.383V581.953H565.633C565.633 581.339 565.508 580.794 565.258 580.32C565.008 579.841 564.656 579.464 564.203 579.187C563.755 578.911 563.229 578.773 562.625 578.773C561.969 578.773 561.396 578.935 560.906 579.258C560.422 579.576 560.047 579.992 559.781 580.508C559.521 581.018 559.391 581.573 559.391 582.172V583.539C559.391 584.341 559.531 585.023 559.812 585.586C560.099 586.148 560.497 586.578 561.008 586.875C561.518 587.167 562.115 587.312 562.797 587.312C563.24 587.312 563.643 587.25 564.008 587.125C564.372 586.995 564.688 586.802 564.953 586.547C565.219 586.292 565.422 585.977 565.563 585.602L567.773 586C567.596 586.651 567.279 587.221 566.82 587.711C566.367 588.195 565.797 588.573 565.109 588.844C564.427 589.109 563.648 589.242 562.773 589.242ZM572.85 581.875V589H570.514V577H572.756V578.953H572.904C573.18 578.318 573.613 577.807 574.201 577.422C574.795 577.036 575.542 576.844 576.443 576.844C577.261 576.844 577.977 577.016 578.592 577.359C579.206 577.698 579.683 578.203 580.021 578.875C580.36 579.547 580.529 580.378 580.529 581.367V589H578.193V581.648C578.193 580.779 577.967 580.099 577.514 579.609C577.061 579.115 576.438 578.867 575.646 578.867C575.105 578.867 574.623 578.984 574.201 579.219C573.785 579.453 573.454 579.797 573.209 580.25C572.969 580.698 572.85 581.24 572.85 581.875ZM589.264 577V578.875H582.709V577H589.264ZM584.467 574.125H586.803V585.477C586.803 585.93 586.87 586.271 587.006 586.5C587.141 586.724 587.316 586.878 587.529 586.961C587.748 587.039 587.985 587.078 588.24 587.078C588.428 587.078 588.592 587.065 588.732 587.039C588.873 587.013 588.982 586.992 589.061 586.977L589.482 588.906C589.347 588.958 589.154 589.01 588.904 589.063C588.654 589.12 588.342 589.151 587.967 589.156C587.352 589.167 586.779 589.057 586.248 588.828C585.717 588.599 585.287 588.245 584.959 587.766C584.631 587.286 584.467 586.685 584.467 585.961V574.125Z" fill="#999999"/>
<g filter="url(#filter6_d_333_844)">
<circle cx="321.5" cy="621.5" r="12.5" fill="white"/>
<circle cx="321.5" cy="621.5" r="12.25" stroke="#E4E3E3" stroke-width="0.5"/>
</g>
<path d="M347.758 630V614H353.461C354.701 614 355.729 614.214 356.547 614.641C357.37 615.068 357.984 615.659 358.391 616.414C358.797 617.164 359 618.031 359 619.016C359 619.995 358.794 620.857 358.383 621.602C357.977 622.341 357.362 622.917 356.539 623.328C355.721 623.74 354.693 623.945 353.453 623.945H349.133V621.867H353.234C354.016 621.867 354.651 621.755 355.141 621.531C355.635 621.307 355.997 620.982 356.227 620.555C356.456 620.128 356.57 619.615 356.57 619.016C356.57 618.411 356.453 617.888 356.219 617.445C355.99 617.003 355.628 616.664 355.133 616.43C354.643 616.19 354 616.07 353.203 616.07H350.172V630H347.758ZM355.656 622.781L359.609 630H356.859L352.984 622.781H355.656ZM366.771 630.242C365.589 630.242 364.571 629.99 363.717 629.484C362.868 628.974 362.212 628.258 361.748 627.336C361.29 626.409 361.061 625.323 361.061 624.078C361.061 622.849 361.29 621.766 361.748 620.828C362.212 619.891 362.857 619.159 363.686 618.633C364.519 618.107 365.493 617.844 366.607 617.844C367.285 617.844 367.941 617.956 368.576 618.18C369.212 618.404 369.782 618.755 370.287 619.234C370.792 619.714 371.191 620.336 371.482 621.102C371.774 621.862 371.92 622.786 371.92 623.875V624.703H362.381V622.953H369.631C369.631 622.339 369.506 621.794 369.256 621.32C369.006 620.841 368.654 620.464 368.201 620.187C367.753 619.911 367.227 619.773 366.623 619.773C365.967 619.773 365.394 619.935 364.904 620.258C364.42 620.576 364.045 620.992 363.779 621.508C363.519 622.018 363.389 622.573 363.389 623.172V624.539C363.389 625.341 363.529 626.023 363.811 626.586C364.097 627.148 364.495 627.578 365.006 627.875C365.516 628.167 366.113 628.312 366.795 628.312C367.238 628.312 367.641 628.25 368.006 628.125C368.37 627.995 368.686 627.802 368.951 627.547C369.217 627.292 369.42 626.977 369.561 626.602L371.771 627C371.594 627.651 371.277 628.221 370.818 628.711C370.365 629.195 369.795 629.573 369.107 629.844C368.425 630.109 367.646 630.242 366.771 630.242ZM378.004 630.266C377.243 630.266 376.556 630.125 375.941 629.844C375.327 629.557 374.84 629.143 374.48 628.602C374.126 628.06 373.949 627.396 373.949 626.609C373.949 625.932 374.079 625.375 374.34 624.937C374.6 624.5 374.952 624.154 375.395 623.898C375.837 623.643 376.332 623.451 376.879 623.32C377.426 623.19 377.983 623.091 378.551 623.023C379.27 622.94 379.853 622.872 380.301 622.82C380.749 622.763 381.074 622.672 381.277 622.547C381.48 622.422 381.582 622.219 381.582 621.937V621.883C381.582 621.201 381.389 620.672 381.004 620.297C380.624 619.922 380.056 619.734 379.301 619.734C378.514 619.734 377.895 619.909 377.441 620.258C376.993 620.602 376.684 620.984 376.512 621.406L374.316 620.906C374.577 620.177 374.957 619.589 375.457 619.141C375.962 618.687 376.543 618.359 377.199 618.156C377.855 617.948 378.546 617.844 379.27 617.844C379.749 617.844 380.257 617.901 380.793 618.016C381.335 618.125 381.84 618.328 382.309 618.625C382.783 618.922 383.171 619.346 383.473 619.898C383.775 620.445 383.926 621.156 383.926 622.031V630H381.645V628.359H381.551C381.4 628.661 381.173 628.958 380.871 629.25C380.569 629.542 380.181 629.784 379.707 629.977C379.233 630.169 378.665 630.266 378.004 630.266ZM378.512 628.391C379.158 628.391 379.71 628.263 380.168 628.008C380.632 627.753 380.983 627.419 381.223 627.008C381.467 626.591 381.59 626.146 381.59 625.672V624.125C381.507 624.208 381.345 624.286 381.105 624.359C380.871 624.427 380.603 624.487 380.301 624.539C379.999 624.586 379.704 624.63 379.418 624.672C379.132 624.708 378.892 624.74 378.699 624.766C378.246 624.823 377.832 624.919 377.457 625.055C377.087 625.19 376.79 625.385 376.566 625.641C376.348 625.891 376.238 626.224 376.238 626.641C376.238 627.219 376.452 627.656 376.879 627.953C377.306 628.245 377.85 628.391 378.512 628.391ZM391.529 630.234C390.561 630.234 389.696 629.987 388.936 629.492C388.18 628.992 387.587 628.281 387.154 627.359C386.727 626.432 386.514 625.32 386.514 624.023C386.514 622.727 386.73 621.617 387.162 620.695C387.6 619.773 388.199 619.068 388.959 618.578C389.719 618.089 390.581 617.844 391.545 617.844C392.29 617.844 392.889 617.969 393.342 618.219C393.8 618.464 394.154 618.75 394.404 619.078C394.66 619.406 394.857 619.695 394.998 619.945H395.139V614H397.475V630H395.193V628.133H394.998C394.857 628.388 394.654 628.68 394.389 629.008C394.128 629.336 393.769 629.622 393.311 629.867C392.852 630.112 392.258 630.234 391.529 630.234ZM392.045 628.242C392.717 628.242 393.285 628.065 393.748 627.711C394.217 627.352 394.571 626.854 394.811 626.219C395.055 625.583 395.178 624.844 395.178 624C395.178 623.167 395.058 622.437 394.818 621.812C394.579 621.187 394.227 620.701 393.764 620.352C393.3 620.003 392.727 619.828 392.045 619.828C391.342 619.828 390.756 620.01 390.287 620.375C389.818 620.74 389.464 621.237 389.225 621.867C388.99 622.497 388.873 623.208 388.873 624C388.873 624.802 388.993 625.523 389.232 626.164C389.472 626.805 389.826 627.312 390.295 627.687C390.769 628.057 391.352 628.242 392.045 628.242ZM400.809 630V618H403.145V630H400.809ZM401.988 616.148C401.582 616.148 401.233 616.013 400.941 615.742C400.655 615.466 400.512 615.138 400.512 614.758C400.512 614.372 400.655 614.044 400.941 613.773C401.233 613.497 401.582 613.359 401.988 613.359C402.395 613.359 402.741 613.497 403.027 613.773C403.319 614.044 403.465 614.372 403.465 614.758C403.465 615.138 403.319 615.466 403.027 615.742C402.741 616.013 402.395 616.148 401.988 616.148ZM408.623 622.875V630H406.287V618H408.529V619.953H408.678C408.954 619.318 409.386 618.807 409.975 618.422C410.568 618.036 411.316 617.844 412.217 617.844C413.035 617.844 413.751 618.016 414.365 618.359C414.98 618.698 415.456 619.203 415.795 619.875C416.133 620.547 416.303 621.378 416.303 622.367V630H413.967V622.648C413.967 621.779 413.74 621.099 413.287 620.609C412.834 620.115 412.212 619.867 411.42 619.867C410.878 619.867 410.396 619.984 409.975 620.219C409.558 620.453 409.227 620.797 408.982 621.25C408.743 621.698 408.623 622.24 408.623 622.875ZM424.467 634.75C423.514 634.75 422.693 634.625 422.006 634.375C421.324 634.125 420.766 633.794 420.334 633.383C419.902 632.971 419.579 632.521 419.365 632.031L421.373 631.203C421.514 631.432 421.701 631.674 421.936 631.93C422.175 632.19 422.498 632.411 422.904 632.594C423.316 632.776 423.844 632.867 424.49 632.867C425.376 632.867 426.107 632.651 426.686 632.219C427.264 631.792 427.553 631.109 427.553 630.172V627.812H427.404C427.264 628.068 427.061 628.352 426.795 628.664C426.535 628.977 426.175 629.247 425.717 629.477C425.258 629.706 424.662 629.82 423.928 629.82C422.98 629.82 422.126 629.599 421.365 629.156C420.61 628.708 420.011 628.049 419.568 627.18C419.131 626.305 418.912 625.229 418.912 623.953C418.912 622.677 419.128 621.583 419.561 620.672C419.998 619.76 420.597 619.062 421.357 618.578C422.118 618.089 422.98 617.844 423.943 617.844C424.688 617.844 425.29 617.969 425.748 618.219C426.206 618.464 426.563 618.75 426.818 619.078C427.079 619.406 427.279 619.695 427.42 619.945H427.592V618H429.881V630.266C429.881 631.297 429.641 632.143 429.162 632.805C428.683 633.466 428.035 633.956 427.217 634.273C426.404 634.591 425.488 634.75 424.467 634.75ZM424.443 627.883C425.115 627.883 425.683 627.727 426.146 627.414C426.615 627.096 426.969 626.643 427.209 626.055C427.454 625.461 427.576 624.75 427.576 623.922C427.576 623.115 427.456 622.404 427.217 621.789C426.977 621.174 426.626 620.695 426.162 620.352C425.699 620.003 425.126 619.828 424.443 619.828C423.74 619.828 423.154 620.01 422.686 620.375C422.217 620.734 421.863 621.224 421.623 621.844C421.389 622.464 421.271 623.156 421.271 623.922C421.271 624.708 421.391 625.398 421.631 625.992C421.87 626.586 422.225 627.049 422.693 627.383C423.167 627.716 423.751 627.883 424.443 627.883ZM439.023 630V614H444.883C446.018 614 446.958 614.187 447.703 614.562C448.448 614.932 449.005 615.435 449.375 616.07C449.745 616.701 449.93 617.411 449.93 618.203C449.93 618.87 449.807 619.432 449.563 619.891C449.318 620.344 448.99 620.708 448.578 620.984C448.172 621.255 447.724 621.453 447.234 621.578V621.734C447.766 621.76 448.284 621.932 448.789 622.25C449.299 622.562 449.721 623.008 450.055 623.586C450.388 624.164 450.555 624.867 450.555 625.695C450.555 626.513 450.362 627.247 449.977 627.898C449.596 628.544 449.008 629.057 448.211 629.437C447.414 629.812 446.396 630 445.156 630H439.023ZM441.438 627.93H444.922C446.078 627.93 446.906 627.706 447.406 627.258C447.906 626.81 448.156 626.25 448.156 625.578C448.156 625.073 448.029 624.609 447.773 624.187C447.518 623.766 447.154 623.43 446.68 623.18C446.211 622.93 445.654 622.805 445.008 622.805H441.438V627.93ZM441.438 620.922H444.672C445.214 620.922 445.701 620.818 446.133 620.609C446.57 620.401 446.917 620.109 447.172 619.734C447.432 619.354 447.563 618.906 447.563 618.391C447.563 617.729 447.331 617.174 446.867 616.727C446.404 616.279 445.693 616.055 444.734 616.055H441.438V620.922ZM458.285 630.242C457.16 630.242 456.178 629.984 455.34 629.469C454.501 628.953 453.85 628.232 453.387 627.305C452.923 626.378 452.691 625.294 452.691 624.055C452.691 622.81 452.923 621.721 453.387 620.789C453.85 619.857 454.501 619.133 455.34 618.617C456.178 618.102 457.16 617.844 458.285 617.844C459.41 617.844 460.392 618.102 461.23 618.617C462.069 619.133 462.72 619.857 463.184 620.789C463.647 621.721 463.879 622.81 463.879 624.055C463.879 625.294 463.647 626.378 463.184 627.305C462.72 628.232 462.069 628.953 461.23 629.469C460.392 629.984 459.41 630.242 458.285 630.242ZM458.293 628.281C459.022 628.281 459.626 628.089 460.105 627.703C460.585 627.318 460.939 626.805 461.168 626.164C461.402 625.523 461.52 624.818 461.52 624.047C461.52 623.281 461.402 622.578 461.168 621.937C460.939 621.292 460.585 620.773 460.105 620.383C459.626 619.992 459.022 619.797 458.293 619.797C457.559 619.797 456.949 619.992 456.465 620.383C455.986 620.773 455.629 621.292 455.395 621.937C455.165 622.578 455.051 623.281 455.051 624.047C455.051 624.818 455.165 625.523 455.395 626.164C455.629 626.805 455.986 627.318 456.465 627.703C456.949 628.089 457.559 628.281 458.293 628.281ZM471.541 630.242C470.416 630.242 469.434 629.984 468.596 629.469C467.757 628.953 467.106 628.232 466.643 627.305C466.179 626.378 465.947 625.294 465.947 624.055C465.947 622.81 466.179 621.721 466.643 620.789C467.106 619.857 467.757 619.133 468.596 618.617C469.434 618.102 470.416 617.844 471.541 617.844C472.666 617.844 473.648 618.102 474.486 618.617C475.325 619.133 475.976 619.857 476.439 620.789C476.903 621.721 477.135 622.81 477.135 624.055C477.135 625.294 476.903 626.378 476.439 627.305C475.976 628.232 475.325 628.953 474.486 629.469C473.648 629.984 472.666 630.242 471.541 630.242ZM471.549 628.281C472.278 628.281 472.882 628.089 473.361 627.703C473.84 627.318 474.195 626.805 474.424 626.164C474.658 625.523 474.775 624.818 474.775 624.047C474.775 623.281 474.658 622.578 474.424 621.937C474.195 621.292 473.84 620.773 473.361 620.383C472.882 619.992 472.278 619.797 471.549 619.797C470.814 619.797 470.205 619.992 469.721 620.383C469.242 620.773 468.885 621.292 468.65 621.937C468.421 622.578 468.307 623.281 468.307 624.047C468.307 624.818 468.421 625.523 468.65 626.164C468.885 626.805 469.242 627.318 469.721 627.703C470.205 628.089 470.814 628.281 471.549 628.281ZM481.891 625.93L481.875 623.078H482.281L487.063 618H489.859L484.406 623.781H484.039L481.891 625.93ZM479.742 630V614H482.078V630H479.742ZM487.32 630L483.023 624.297L484.633 622.664L490.188 630H487.32Z" fill="#999999"/>
<path d="M349.109 672H346.547L352.305 656H355.094L360.852 672H358.289L353.766 658.906H353.641L349.109 672ZM349.539 665.734H357.852V667.766H349.539V665.734ZM365.311 664.875V672H362.975V660H365.217V661.953H365.365C365.641 661.318 366.074 660.807 366.662 660.422C367.256 660.036 368.003 659.844 368.904 659.844C369.722 659.844 370.438 660.016 371.053 660.359C371.667 660.698 372.144 661.203 372.482 661.875C372.821 662.547 372.99 663.378 372.99 664.367V672H370.654V664.648C370.654 663.779 370.428 663.099 369.975 662.609C369.521 662.115 368.899 661.867 368.107 661.867C367.566 661.867 367.084 661.984 366.662 662.219C366.245 662.453 365.915 662.797 365.67 663.25C365.43 663.698 365.311 664.24 365.311 664.875ZM379.615 672.266C378.855 672.266 378.167 672.125 377.553 671.844C376.938 671.557 376.451 671.143 376.092 670.602C375.738 670.06 375.561 669.396 375.561 668.609C375.561 667.932 375.691 667.375 375.951 666.937C376.212 666.5 376.563 666.154 377.006 665.898C377.449 665.643 377.943 665.451 378.49 665.32C379.037 665.19 379.594 665.091 380.162 665.023C380.881 664.94 381.464 664.872 381.912 664.82C382.36 664.763 382.686 664.672 382.889 664.547C383.092 664.422 383.193 664.219 383.193 663.937V663.883C383.193 663.201 383.001 662.672 382.615 662.297C382.235 661.922 381.667 661.734 380.912 661.734C380.126 661.734 379.506 661.909 379.053 662.258C378.605 662.602 378.295 662.984 378.123 663.406L375.928 662.906C376.188 662.177 376.568 661.589 377.068 661.141C377.574 660.687 378.154 660.359 378.811 660.156C379.467 659.948 380.157 659.844 380.881 659.844C381.36 659.844 381.868 659.901 382.404 660.016C382.946 660.125 383.451 660.328 383.92 660.625C384.394 660.922 384.782 661.346 385.084 661.898C385.386 662.445 385.537 663.156 385.537 664.031V672H383.256V670.359H383.162C383.011 670.661 382.785 670.958 382.482 671.25C382.18 671.542 381.792 671.784 381.318 671.977C380.844 672.169 380.277 672.266 379.615 672.266ZM380.123 670.391C380.769 670.391 381.321 670.263 381.779 670.008C382.243 669.753 382.594 669.419 382.834 669.008C383.079 668.591 383.201 668.146 383.201 667.672V666.125C383.118 666.208 382.956 666.286 382.717 666.359C382.482 666.427 382.214 666.487 381.912 666.539C381.61 666.586 381.316 666.63 381.029 666.672C380.743 666.708 380.503 666.74 380.311 666.766C379.857 666.823 379.443 666.919 379.068 667.055C378.699 667.19 378.402 667.385 378.178 667.641C377.959 667.891 377.85 668.224 377.85 668.641C377.85 669.219 378.063 669.656 378.49 669.953C378.917 670.245 379.462 670.391 380.123 670.391ZM390.984 656V672H388.648V656H390.984ZM395.604 676.5C395.255 676.5 394.937 676.471 394.65 676.414C394.364 676.362 394.15 676.305 394.01 676.242L394.572 674.328C394.999 674.443 395.38 674.492 395.713 674.477C396.046 674.461 396.34 674.336 396.596 674.102C396.856 673.867 397.085 673.484 397.283 672.953L397.572 672.156L393.182 660H395.682L398.721 669.312H398.846L401.885 660H404.393L399.447 673.602C399.218 674.227 398.926 674.755 398.572 675.188C398.218 675.625 397.796 675.953 397.307 676.172C396.817 676.391 396.249 676.5 395.604 676.5ZM406.338 672V670.398L412.838 662.141V662.031H406.549V660H415.752V661.703L409.502 669.859V669.969H415.971V672H406.338ZM423.555 672.242C422.372 672.242 421.354 671.99 420.5 671.484C419.651 670.974 418.995 670.258 418.531 669.336C418.073 668.409 417.844 667.323 417.844 666.078C417.844 664.849 418.073 663.766 418.531 662.828C418.995 661.891 419.641 661.159 420.469 660.633C421.302 660.107 422.276 659.844 423.391 659.844C424.068 659.844 424.724 659.956 425.359 660.18C425.995 660.404 426.565 660.755 427.07 661.234C427.576 661.714 427.974 662.336 428.266 663.102C428.557 663.862 428.703 664.786 428.703 665.875V666.703H419.164V664.953H426.414C426.414 664.339 426.289 663.794 426.039 663.32C425.789 662.841 425.438 662.464 424.984 662.187C424.536 661.911 424.01 661.773 423.406 661.773C422.75 661.773 422.177 661.935 421.688 662.258C421.203 662.576 420.828 662.992 420.563 663.508C420.302 664.018 420.172 664.573 420.172 665.172V666.539C420.172 667.341 420.313 668.023 420.594 668.586C420.88 669.148 421.279 669.578 421.789 669.875C422.299 670.167 422.896 670.312 423.578 670.312C424.021 670.312 424.424 670.25 424.789 670.125C425.154 669.995 425.469 669.802 425.734 669.547C426 669.292 426.203 668.977 426.344 668.602L428.555 669C428.378 669.651 428.06 670.221 427.602 670.711C427.148 671.195 426.578 671.573 425.891 671.844C425.208 672.109 424.43 672.242 423.555 672.242ZM437.305 672V656H443.008C444.247 656 445.276 656.214 446.094 656.641C446.917 657.068 447.531 657.659 447.938 658.414C448.344 659.164 448.547 660.031 448.547 661.016C448.547 661.995 448.341 662.857 447.93 663.602C447.523 664.341 446.909 664.917 446.086 665.328C445.268 665.74 444.24 665.945 443 665.945H438.68V663.867H442.781C443.563 663.867 444.198 663.755 444.688 663.531C445.182 663.307 445.544 662.982 445.773 662.555C446.003 662.128 446.117 661.615 446.117 661.016C446.117 660.411 446 659.888 445.766 659.445C445.536 659.003 445.174 658.664 444.68 658.43C444.19 658.19 443.547 658.07 442.75 658.07H439.719V672H437.305ZM445.203 664.781L449.156 672H446.406L442.531 664.781H445.203ZM456.318 672.242C455.136 672.242 454.118 671.99 453.264 671.484C452.415 670.974 451.758 670.258 451.295 669.336C450.837 668.409 450.607 667.323 450.607 666.078C450.607 664.849 450.837 663.766 451.295 662.828C451.758 661.891 452.404 661.159 453.232 660.633C454.066 660.107 455.04 659.844 456.154 659.844C456.831 659.844 457.488 659.956 458.123 660.18C458.758 660.404 459.329 660.755 459.834 661.234C460.339 661.714 460.738 662.336 461.029 663.102C461.321 663.862 461.467 664.786 461.467 665.875V666.703H451.928V664.953H459.178C459.178 664.339 459.053 663.794 458.803 663.32C458.553 662.841 458.201 662.464 457.748 662.187C457.3 661.911 456.774 661.773 456.17 661.773C455.514 661.773 454.941 661.935 454.451 662.258C453.967 662.576 453.592 662.992 453.326 663.508C453.066 664.018 452.936 664.573 452.936 665.172V666.539C452.936 667.341 453.076 668.023 453.357 668.586C453.644 669.148 454.042 669.578 454.553 669.875C455.063 670.167 455.66 670.312 456.342 670.312C456.785 670.312 457.188 670.25 457.553 670.125C457.917 669.995 458.232 669.802 458.498 669.547C458.764 669.292 458.967 668.977 459.107 668.602L461.318 669C461.141 669.651 460.824 670.221 460.365 670.711C459.912 671.195 459.342 671.573 458.654 671.844C457.972 672.109 457.193 672.242 456.318 672.242ZM473.051 662.93L470.934 663.305C470.845 663.034 470.704 662.776 470.512 662.531C470.324 662.286 470.069 662.086 469.746 661.93C469.423 661.773 469.02 661.695 468.535 661.695C467.874 661.695 467.322 661.844 466.879 662.141C466.436 662.432 466.215 662.81 466.215 663.273C466.215 663.674 466.363 663.997 466.66 664.242C466.957 664.487 467.436 664.687 468.098 664.844L470.004 665.281C471.108 665.536 471.931 665.93 472.473 666.461C473.014 666.992 473.285 667.682 473.285 668.531C473.285 669.25 473.077 669.891 472.66 670.453C472.249 671.01 471.673 671.448 470.934 671.766C470.199 672.083 469.348 672.242 468.379 672.242C467.035 672.242 465.939 671.956 465.09 671.383C464.241 670.805 463.72 669.984 463.527 668.922L465.785 668.578C465.926 669.167 466.215 669.612 466.652 669.914C467.09 670.211 467.66 670.359 468.363 670.359C469.129 670.359 469.741 670.201 470.199 669.883C470.658 669.56 470.887 669.167 470.887 668.703C470.887 668.328 470.746 668.013 470.465 667.758C470.189 667.503 469.764 667.31 469.191 667.18L467.16 666.734C466.04 666.479 465.212 666.073 464.676 665.516C464.145 664.958 463.879 664.253 463.879 663.398C463.879 662.69 464.077 662.07 464.473 661.539C464.868 661.008 465.415 660.594 466.113 660.297C466.811 659.995 467.611 659.844 468.512 659.844C469.809 659.844 470.829 660.125 471.574 660.687C472.319 661.245 472.811 661.992 473.051 662.93ZM483.455 667.023V660H485.799V672H483.502V669.922H483.377C483.101 670.563 482.658 671.096 482.049 671.523C481.445 671.945 480.692 672.156 479.791 672.156C479.02 672.156 478.338 671.987 477.744 671.648C477.156 671.305 476.692 670.797 476.354 670.125C476.02 669.453 475.854 668.622 475.854 667.633V660H478.189V667.352C478.189 668.169 478.416 668.82 478.869 669.305C479.322 669.789 479.911 670.031 480.635 670.031C481.072 670.031 481.507 669.922 481.939 669.703C482.377 669.484 482.739 669.154 483.025 668.711C483.317 668.268 483.46 667.706 483.455 667.023ZM491.273 656V672H488.938V656H491.273ZM500.018 660V661.875H493.463V660H500.018ZM495.221 657.125H497.557V668.477C497.557 668.93 497.624 669.271 497.76 669.5C497.895 669.724 498.07 669.878 498.283 669.961C498.502 670.039 498.739 670.078 498.994 670.078C499.182 670.078 499.346 670.065 499.486 670.039C499.627 670.013 499.736 669.992 499.814 669.977L500.236 671.906C500.101 671.958 499.908 672.01 499.658 672.063C499.408 672.12 499.096 672.151 498.721 672.156C498.106 672.167 497.533 672.057 497.002 671.828C496.471 671.599 496.041 671.245 495.713 670.766C495.385 670.286 495.221 669.685 495.221 668.961V657.125Z" fill="#999999"/>
<g filter="url(#filter7_d_333_844)">
<circle cx="321.5" cy="663.5" r="12.5" fill="white"/>
<circle cx="321.5" cy="663.5" r="12.25" stroke="#8B8B8B" stroke-width="0.5"/>
</g>
<circle cx="321.5" cy="663.5" r="9.5" fill="#D55CFF"/>
</g>
<defs>
<filter id="filter0_d_333_844" x="-357.025" y="-74.0244" width="1018.89" height="1018.89" filterUnits="userSpaceOnUse" color-interpolation-filters="sRGB">
<feFlood flood-opacity="0" result="BackgroundImageFix"/>
<feColorMatrix in="SourceAlpha" type="matrix" values="0 0 0 0 0 0 0 0 0 0 0 0 0 0 0 0 0 0 127 0" result="hardAlpha"/>
<feOffset/>
<feGaussianBlur stdDeviation="125"/>
<feComposite in2="hardAlpha" operator="out"/>
<feColorMatrix type="matrix" values="0 0 0 0 1 0 0 0 0 0.32549 0 0 0 0 0.85098 0 0 0 1 0"/>
<feBlend mode="normal" in2="BackgroundImageFix" result="effect1_dropShadow_333_844"/>
<feBlend mode="normal" in="SourceGraphic" in2="effect1_dropShadow_333_844" result="shape"/>
</filter>
<filter id="filter1_d_333_844" x="171" y="129" width="552" height="702" filterUnits="userSpaceOnUse" color-interpolation-filters="sRGB">
<feFlood flood-opacity="0" result="BackgroundImageFix"/>
<feColorMatrix in="SourceAlpha" type="matrix" values="0 0 0 0 0 0 0 0 0 0 0 0 0 0 0 0 0 0 127 0" result="hardAlpha"/>
<feMorphology radius="11" operator="dilate" in="SourceAlpha" result="effect1_dropShadow_333_844"/>
<feOffset dy="12"/>
<feGaussianBlur stdDeviation="25"/>
<feComposite in2="hardAlpha" operator="out"/>
<feColorMatrix type="matrix" values="0 0 0 0 0 0 0 0 0 0 0 0 0 0 0 0 0 0 0.25 0"/>
<feBlend mode="normal" in2="BackgroundImageFix" result="effect1_dropShadow_333_844"/>
<feBlend mode="normal" in="SourceGraphic" in2="effect1_dropShadow_333_844" result="shape"/>
</filter>
<filter id="filter2_d_333_844" x="297.3" y="297.3" width="48.4" height="48.4" filterUnits="userSpaceOnUse" color-interpolation-filters="sRGB">
<feFlood flood-opacity="0" result="BackgroundImageFix"/>
<feColorMatrix in="SourceAlpha" type="matrix" values="0 0 0 0 0 0 0 0 0 0 0 0 0 0 0 0 0 0 127 0" result="hardAlpha"/>
<feMorphology radius="5" operator="erode" in="SourceAlpha" result="effect1_dropShadow_333_844"/>
<feOffset/>
<feGaussianBlur stdDeviation="8.35"/>
<feComposite in2="hardAlpha" operator="out"/>
<feColorMatrix type="matrix" values="0 0 0 0 0 0 0 0 0 0 0 0 0 0 0 0 0 0 0.25 0"/>
<feBlend mode="normal" in2="BackgroundImageFix" result="effect1_dropShadow_333_844"/>
<feBlend mode="normal" in="SourceGraphic" in2="effect1_dropShadow_333_844" result="shape"/>
</filter>
<filter id="filter3_d_333_844" x="297.3" y="338.3" width="48.4" height="48.4" filterUnits="userSpaceOnUse" color-interpolation-filters="sRGB">
<feFlood flood-opacity="0" result="BackgroundImageFix"/>
<feColorMatrix in="SourceAlpha" type="matrix" values="0 0 0 0 0 0 0 0 0 0 0 0 0 0 0 0 0 0 127 0" result="hardAlpha"/>
<feMorphology radius="5" operator="erode" in="SourceAlpha" result="effect1_dropShadow_333_844"/>
<feOffset/>
<feGaussianBlur stdDeviation="8.35"/>
<feComposite in2="hardAlpha" operator="out"/>
<feColorMatrix type="matrix" values="0 0 0 0 0 0 0 0 0 0 0 0 0 0 0 0 0 0 0.25 0"/>
<feBlend mode="normal" in2="BackgroundImageFix" result="effect1_dropShadow_333_844"/>
<feBlend mode="normal" in="SourceGraphic" in2="effect1_dropShadow_333_844" result="shape"/>
</filter>
<filter id="filter4_d_333_844" x="297.3" y="380.3" width="48.4" height="48.4" filterUnits="userSpaceOnUse" color-interpolation-filters="sRGB">
<feFlood flood-opacity="0" result="BackgroundImageFix"/>
<feColorMatrix in="SourceAlpha" type="matrix" values="0 0 0 0 0 0 0 0 0 0 0 0 0 0 0 0 0 0 127 0" result="hardAlpha"/>
<feMorphology radius="5" operator="erode" in="SourceAlpha" result="effect1_dropShadow_333_844"/>
<feOffset/>
<feGaussianBlur stdDeviation="8.35"/>
<feComposite in2="hardAlpha" operator="out"/>
<feColorMatrix type="matrix" values="0 0 0 0 0 0 0 0 0 0 0 0 0 0 0 0 0 0 0.25 0"/>
<feBlend mode="normal" in2="BackgroundImageFix" result="effect1_dropShadow_333_844"/>
<feBlend mode="normal" in="SourceGraphic" in2="effect1_dropShadow_333_844" result="shape"/>
</filter>
<filter id="filter5_d_333_844" x="297.3" y="556.3" width="48.4" height="48.4" filterUnits="userSpaceOnUse" color-interpolation-filters="sRGB">
<feFlood flood-opacity="0" result="BackgroundImageFix"/>
<feColorMatrix in="SourceAlpha" type="matrix" values="0 0 0 0 0 0 0 0 0 0 0 0 0 0 0 0 0 0 127 0" result="hardAlpha"/>
<feMorphology radius="5" operator="erode" in="SourceAlpha" result="effect1_dropShadow_333_844"/>
<feOffset/>
<feGaussianBlur stdDeviation="8.35"/>
<feComposite in2="hardAlpha" operator="out"/>
<feColorMatrix type="matrix" values="0 0 0 0 0 0 0 0 0 0 0 0 0 0 0 0 0 0 0.25 0"/>
<feBlend mode="normal" in2="BackgroundImageFix" result="effect1_dropShadow_333_844"/>
<feBlend mode="normal" in="SourceGraphic" in2="effect1_dropShadow_333_844" result="shape"/>
</filter>
<filter id="filter6_d_333_844" x="297.3" y="597.3" width="48.4" height="48.4" filterUnits="userSpaceOnUse" color-interpolation-filters="sRGB">
<feFlood flood-opacity="0" result="BackgroundImageFix"/>
<feColorMatrix in="SourceAlpha" type="matrix" values="0 0 0 0 0 0 0 0 0 0 0 0 0 0 0 0 0 0 127 0" result="hardAlpha"/>
<feMorphology radius="5" operator="erode" in="SourceAlpha" result="effect1_dropShadow_333_844"/>
<feOffset/>
<feGaussianBlur stdDeviation="8.35"/>
<feComposite in2="hardAlpha" operator="out"/>
<feColorMatrix type="matrix" values="0 0 0 0 0 0 0 0 0 0 0 0 0 0 0 0 0 0 0.25 0"/>
<feBlend mode="normal" in2="BackgroundImageFix" result="effect1_dropShadow_333_844"/>
<feBlend mode="normal" in="SourceGraphic" in2="effect1_dropShadow_333_844" result="shape"/>
</filter>
<filter id="filter7_d_333_844" x="297.3" y="639.3" width="48.4" height="48.4" filterUnits="userSpaceOnUse" color-interpolation-filters="sRGB">
<feFlood flood-opacity="0" result="BackgroundImageFix"/>
<feColorMatrix in="SourceAlpha" type="matrix" values="0 0 0 0 0 0 0 0 0 0 0 0 0 0 0 0 0 0 127 0" result="hardAlpha"/>
<feMorphology radius="5" operator="erode" in="SourceAlpha" result="effect1_dropShadow_333_844"/>
<feOffset/>
<feGaussianBlur stdDeviation="8.35"/>
<feComposite in2="hardAlpha" operator="out"/>
<feColorMatrix type="matrix" values="0 0 0 0 0 0 0 0 0 0 0 0 0 0 0 0 0 0 0.25 0"/>
<feBlend mode="normal" in2="BackgroundImageFix" result="effect1_dropShadow_333_844"/>
<feBlend mode="normal" in="SourceGraphic" in2="effect1_dropShadow_333_844" result="shape"/>
</filter>
</defs>
</svg>
